<svg id="Layer_1" data-name="Layer 1" xmlns="http://www.w3.org/2000/svg" width="1.2in" height="1.8in" viewBox="0 0 88.4 129.7"><title>cat-1</title><path d="M3.1,114.1S25.7,112.5,25.2,97L38,110.6S8.3,122.8,4.2,122-2.3,116.8,3.1,114.1Z" fill="#231f20"/><path d="M58.7,116.7s-12.1-10.4-19.9-3.9l2.5-39,11.8,4.3Z" fill="#9f9e9f"/><path d="M21.7,46.7c6.7,2.2,33.5,2.7,34-16.5C56.2,12.5,64,10.1,64,10.1L47.5,13.7S32.8,6.4,21.9,10.1L14.5,0s3.7,13.5.9,19.2C10.5,29.8,16.2,44.9,21.7,46.7Z" fill="#231f20"/><path d="M23.2,31.3a5.1,5.1,0,0,1,1.9,3.6s2.2-2.7,4.1-2.1Z" fill="#f2bac6"/><path d="M36.6,28.5a3.7,3.7,0,0,1,1.7-1.3,3.6,3.6,0,0,1,2.3-.2,3.2,3.2,0,0,1,2,1.2,3.7,3.7,0,0,1,.7,2l-.8-.6-.7-.6a4.7,4.7,0,0,0-1.5-.6A9.3,9.3,0,0,0,36.6,28.5Z" fill="#fff"/><path d="M17.2,25.7a4.4,4.4,0,0,1,1.2-1.8,4,4,0,0,1,2.2-.9,2.9,2.9,0,0,1,2.2.7,3.1,3.1,0,0,1,1.3,1.7l-1-.4c-.3-.1-.5-.3-.8-.3a3.1,3.1,0,0,0-1.6-.2A11.2,11.2,0,0,0,17.2,25.7Z" fill="#fff"/><path d="M28.5,39.6a5.6,5.6,0,0,1-1.3,0L26,39.1a3.1,3.1,0,0,1-.9-1.1,2.8,2.8,0,0,1-.4-1.3l.6.2a4.7,4.7,0,0,1-1,1l-1.4.5a2.4,2.4,0,0,1-1.4-.2,4.3,4.3,0,0,1-1-.9,3.1,3.1,0,0,0,1.2.5,2,2,0,0,0,1.1,0l1.1-.5a3,3,0,0,0,.8-.8l.6-.8v1a1.9,1.9,0,0,0,.3,1,2,2,0,0,0,.6.9,2.1,2.1,0,0,0,1,.6Z" fill="#fff"/><path d="M49.4,40.2S52.4,50.8,59,57s40.6,26.4,25.6,64.1c0,0-35.5,11-37.7,8.1s2.9-8.1,15.4-10.6c0,0-12.5-3-10.7-15.8,0,0-1.1-19.4-6.6-23.8s-3.6,41.4-3.6,41.4,2.2,7-5.2,6.2-5.8-4.7-3.2-7.7c0,0,1.8-41.4,0-46.9s-9.2-3.3-9.6,6.6.8,42.2.8,42.2.3,4-4.4,4.4-6.3-2.2-3.7-6.3c0,0-2.9-68.1,6.6-74" fill="#231f20"/><path d="M33.3,110.8s-11.1-8.2-9.9-29.9a70.1,70.1,0,0,0-.4-7.7,1.9,1.9,0,0,1,1.1,1.3s-1.5-5.1,0-8.4a3.7,3.7,0,0,0,1,2.8s.8-7.1,2.1-10a13.7,13.7,0,0,0,1.3,7s1.3-1.3,1.1-2.4a7.6,7.6,0,0,1,.6,3.9s2.2-1.1,2.3-2.5-.3,6.7,1.7,4.9a12,12,0,0,0,3-3.9s-2.4,7.3-3.5,9C33.7,74.9,33.7,106.1,33.3,110.8Z" fill="#9f9e9f"/></svg>