<svg id="Layer_1" data-name="Layer 1" xmlns="http://www.w3.org/2000/svg" width="1.2in" height="1.8in" viewBox="0 0 88.4 129.7"><title>cat-2</title><path d="M85.3,114.1S62.7,112.5,63.2,97L50.4,110.6S80.1,122.8,84.2,122,90.7,116.8,85.3,114.1Z" fill="#a9732a"/><path d="M29.7,116.7s12.1-10.4,19.9-3.9l-2.5-39L35.3,78.1Z" fill="#e39e66"/><path d="M66.7,46.7c-6.7,2.2-33.5,2.7-34-16.5-.5-17.7-8.3-20.1-8.3-20.1l16.5,3.6s14.7-7.3,25.6-3.6L73.9,0S70.2,13.5,73,19.2C77.9,29.8,72.2,44.9,66.7,46.7Z" fill="#d1883d"/><path d="M65.2,31.3a4.7,4.7,0,0,0-1.8,3.6s-2.3-2.7-4.2-2.1Z" fill="#78643a"/><path d="M51.8,28.5a9.3,9.3,0,0,0-3.7-.1,4.7,4.7,0,0,0-1.5.6l-.7.6-.8.6a3.7,3.7,0,0,1,.7-2,3.2,3.2,0,0,1,2-1.2,3.6,3.6,0,0,1,2.3.2A3.7,3.7,0,0,1,51.8,28.5Z" fill="#5b4735"/><path d="M71.2,25.7a11.2,11.2,0,0,0-3.5-1.2,3.1,3.1,0,0,0-1.6.2c-.3,0-.5.2-.8.3l-1,.4a3.7,3.7,0,0,1,1.3-1.7,3.2,3.2,0,0,1,2.3-.7,4,4,0,0,1,2.1.9A4.4,4.4,0,0,1,71.2,25.7Z" fill="#5b4735"/><path d="M59.9,39.6l1.2-.4a2.1,2.1,0,0,0,1-.6,2,2,0,0,0,.6-.9,1.9,1.9,0,0,0,.3-1v-1l.6.8a3,3,0,0,0,.8.8l1.1.5a2,2,0,0,0,1.1,0,3.1,3.1,0,0,0,1.2-.5,4.3,4.3,0,0,1-1,.9,2.4,2.4,0,0,1-1.4.2l-1.4-.5a4.7,4.7,0,0,1-1-1l.6-.2a2.8,2.8,0,0,1-.4,1.3,3.1,3.1,0,0,1-.9,1.1l-1.2.5A5.6,5.6,0,0,1,59.9,39.6Z" fill="#5b4735"/><path d="M39,40.2S36,50.8,29.4,57-11.2,83.4,3.8,121.1c0,0,35.5,11,37.7,8.1s-2.9-8.1-15.4-10.6c0,0,12.5-3,10.7-15.8,0,0,1.1-19.4,6.6-23.8S47,120.4,47,120.4s-2.2,7,5.2,6.2,5.8-4.7,3.3-7.7c0,0-1.9-41.4,0-46.9s9.1-3.3,9.5,6.6-.7,42.2-.7,42.2-.4,4,4.3,4.4,6.3-2.2,3.7-6.3c0,0,2.9-68.1-6.6-74" fill="#d1883d"/><path d="M55.2,110.8s11-8.2,9.8-29.9a70.1,70.1,0,0,1,.4-7.7s-.6.2-1.1,1.3,1.5-5.1,0-8.4a3.7,3.7,0,0,1-1,2.8s-.8-7.1-2.1-10a13.7,13.7,0,0,1-1.3,7s-1.3-1.3-1-2.4-1.1,2.3-.7,3.9c0,0-2.2-1.1-2.3-2.5s.3,6.7-1.7,4.9a12,12,0,0,1-3-3.9s2.4,7.3,3.5,9C54.7,74.9,54.7,106.1,55.2,110.8Z" fill="#e39e66"/><path d="M60.5,9.3a16.9,16.9,0,0,1,2.4,6S59.6,10.1,57,9Z" fill="#78643a"/><path d="M48.1,10.7a17.8,17.8,0,0,1,2.3,6.1s-2-4-4.6-5A5.3,5.3,0,0,1,48.1,10.7Z" fill="#78643a"/><path d="M54.9,9.3s3.3,5.4,3.9,8.9c0,0-5.2-6.9-7.7-8A16.3,16.3,0,0,1,54.9,9.3Z" fill="#78643a"/><path d="M38.6,42.2l2.5,1.6s-3.9,14.7-12.2,23c0,0,2.9-6.5,3.4-8.5l-1.7,1a26.1,26.1,0,0,0,3.8-8.5S38.3,45.4,38.6,42.2Z" fill="#78643a"/><path d="M20.4,64.4,25.2,61S21.3,74.6,13,82.9c0,0,2.9-6.5,3.4-8.5l-1.6,1A27.2,27.2,0,0,0,18.5,67,8.2,8.2,0,0,1,20.4,64.4Z" fill="#78643a"/></svg>