<svg id="Layer_1" data-name="Layer 1" xmlns="http://www.w3.org/2000/svg" width="1.7in" height="2.3in" viewBox="0 0 121.7 167.8"><title>cat-3</title><path d="M43.8,110.8s-11-8.2-9.8-29.9a70.1,70.1,0,0,0-.4-7.7s.6.2,1,1.3-1.4-5.1,0-8.4a3.7,3.7,0,0,0,1,2.8s.8-7.1,2.2-10a13.7,13.7,0,0,0,1.3,7s1.2-1.3,1-2.4a7.6,7.6,0,0,1,.6,3.9s2.3-1.1,2.4-2.5-.4,6.7,1.7,4.9a12.5,12.5,0,0,0,2.9-3.9s-2.3,7.3-3.4,9C44.3,74.9,44.2,106.1,43.8,110.8Z" fill="#8e8e8e"/><path d="M51,159.9S36.3,112.5,35.7,97l22.8,11.6s6,57.2-6.4,59.2C48,168.4,45.6,162.6,51,159.9Z" fill="#bab9b9"/><path d="M74.5,128.7S41.1,108.3,33.1,85.6L51.9,73.8l11.8,4.3Z" fill="#8e8e8e"/><path d="M32.3,46.7c6.6,2.2,33.5,2.7,34-16.5.4-17.7,8.2-20.1,8.2-20.1L58,13.7S43.4,6.4,32.4,10.1L25.1,0s3.6,13.5.9,19.2C21,29.8,26.8,44.9,32.3,46.7Z" fill="#bab9b9"/><path d="M33.7,31.3a4.5,4.5,0,0,1,1.9,3.6s2.2-2.7,4.1-2.1Z" fill="#b7798a"/><path d="M47.2,28.5A2.9,2.9,0,0,1,48.8,27a3.3,3.3,0,0,1,2.4-.3A3.6,3.6,0,0,1,53.3,28a3.6,3.6,0,0,1,.5,2.2,10.1,10.1,0,0,0-1.6-1l-1.4-.6A20,20,0,0,0,47.2,28.5Z" fill="#2d1a1f"/><path d="M27.7,25.7a3.7,3.7,0,0,1,1.2-2,3.4,3.4,0,0,1,2.2-.9,2.8,2.8,0,0,1,2.3.7,2.6,2.6,0,0,1,1.2,1.9l-1.9-.5a2.6,2.6,0,0,0-1.5-.1A12.8,12.8,0,0,0,27.7,25.7Z" fill="#2d1a1f"/><path d="M39.1,39.6a5.6,5.6,0,0,1-1.3,0l-1.3-.5a4.8,4.8,0,0,1-.9-1.1,5,5,0,0,1-.4-1.3l.7.2a5.2,5.2,0,0,1-1.1,1l-1.3.5a2.2,2.2,0,0,1-1.4-.2,2.9,2.9,0,0,1-1-.9,2.2,2.2,0,0,0,1.1.5,2.4,2.4,0,0,0,1.2,0,3.1,3.1,0,0,0,1-.5,3.4,3.4,0,0,0,.9-.8l.6-.8v1l.3,1a2.2,2.2,0,0,0,.7.9,2.1,2.1,0,0,0,1,.6Z" fill="#2d1a1f"/><path d="M34,78.6c19.1,15.5,7.6-14.8,9.4-9.3S7,87.6,7,87.6c-5.7-1.4-10.7,7.6-3.3,8.3s9.7-2.7,9.7-2.7S50.1,77.6,55.6,82s6.6,20.8,6.6,20.8c-.9,6,1.4,12.5,4.2,17.9a73.6,73.6,0,0,1,8.2,33.4c0,11.4-1.6,10.9,1.9,11.3s18.7-44.3,18.7-44.3c15-37.7-19.1-57.9-25.7-64.1S60,40.2,60,40.2l-29.2,5S17.7,65.5,34,78.6Z" fill="#bab9b9"/><path d="M95,95.4s14.4.3,10.6-24.9c-4.4-28.9-17.8-21.6-14-44.6s24.5-16.7,28.8-4.6-2.8,20.3-6.7,14.5.1-14.3-3.1-16.8c-6.8-5.2-12.8,8.2-10.9,17.1s15.6,17.6,13.7,43.3-17.6,21.5-17.6,21.5Z" fill="#bab9b9"/><path d="M34.9,75.4s-3.8-5.6-2.4-11.8,2.1,1.1,2.1,1.1a19.7,19.7,0,0,1,1.3-10.8s-.1,7.4,1.6,9.7l1.2-5.1.6,3.3,2.3-2.1S45.5,71.7,34.9,75.4Z" fill="#8e8e8e"/></svg>