<svg height="1692" viewBox="0 0 1904 1692" width="1904" xmlns="http://www.w3.org/2000/svg"><path d="m1299.6 133.9 6.4 1c.1 2-9 3.3-6.4-1z"/><path d="m1312.1 137-1.8-1.3 2.2-1.1c-.4.5 1.1 1.8-.4 2.4z"/><path d="m1304.4 139.7c-.6-.1-.6 1.2-1.5 0s.5-1.2 1.5 0z"/><path d="m1314.3 140.2-.8.2s.1-1.3.8-.2z"/><path d="m1295.8 148.3a22.5 22.5 0 0 0 1.2 2.1z"/><path d="m1343.2 156.8c-6.3-.7-9.1-2.5-13.5-6.6h.1c-5-9.7-16.3-24.1-44.9-13.5h-.1c-9.6 2.7-13.2 4.8-21.6 4.3-37.4-1.6-67.8-3.5-98.9-15h-.3c-60.7-13.3-89.6-18.2-165.1 2.2h-.5c-6.3-.1-67.1 21.2-61 24.5 1.7 1.9 19.3-3 14.2 3.1l-.2.2c-34.8 29.1 24.3 6.9 25.1 25.1v.3c-.6 11.2-9.8 36.4-8.1 47.3a1.6 1.6 0 0 1 0 .7c-1.3 6.2 3.3 15.6 1.7 15.4a2 2 0 0 0 -2 1.8c-1 7.1 2.7 6 .2 7.5a1.8 1.8 0 0 0 -.9 2.1c0 .2.1.3.2.5 10 16.5-1.5 44.2 8 55.7l.3.3c3 2.5 7.5 2.6 8.1 7.6v.2c3.1 11.4 7.6 21.9 12.4 32.1a1.8 1.8 0 0 0 2.4.9c2.1-.8 4.4-3.4 6.3-4.2a2 2 0 0 1 2.5 1.1c1.5 4.3.8 11.1 3.5 14.3 11.9 18.3 16.4-16.3 20.7-11.4 2 2.5 2.7 13.3 6.5 20.3.1.1.2.2.2.3 11.2 13.9 14.7 1.5 15.1-10.7v-.2c1.6-11.6 4.1-15.5 11.4 3.7a.8.8 0 0 0 .2.5c11.8 14.8 25.6 26 22.7 13.7-1.6-8.1-10.7-31.9-10.6-51.5.6-44.2.9-75.7 5.1-96.8v-.2c.9-12.4 10.1-9.8 18.2-12.4h.2c10.6-1.5 17.3-6.5 20.5-5.5l.4.2c4.3 2.8 3.1 20.8 12.7 15.7 0-.1 0-.1.1-.1 3.1-1.5 6.3-1.7 5.3-.4-2.6 4.2-17.6 5.5 22.1 43.8a1.8 1.8 0 0 0 2.2.3c.7-.4 1.3-1.3 2.2-1.9a1.9 1.9 0 0 1 1.8-.1c3.2 1.3 6.5 7.3 8.2 7.5h.6c13.8 6.6 7.1 2.2 28.2 20.3a1.9 1.9 0 0 0 3-2.1 1.4 1.4 0 0 1 -.2-.7.1.1 0 0 1 -.1-.1c-5.4-11 4.9-1.5 13.4 4.9 19.9 16.9 30.3 4.7 11-1.8a2 2 0 0 1 -.8-.4c-15.9-15.8-17.2-19-25-45.5a2.4 2.4 0 0 1 0-1.2c1.9-5.4-4.9-26.9-6.2-45.9v-.2c-1.2-9-6.8-17.7-9.5-25.8l-.3-.6c-8-10.5 45.6-16.3 66.4-17.3 24.6-1.3 34.7 5.5 43.8 6.4s72.6-11.1 42.6-12.7zm-149.6 44.4a25.1 25.1 0 0 0 1.6 5.7c.1.2.1.3.2.4 1.6 8.6 5.1 15.6 5.6 24.6v.2c11.4 76 4 17.6-20.2 14.1 1.5 2.2-.5-.9-1.5-7.5-.2-.8-.8-1.6-1.6-1.6s-.4-.2-.5-.6l-.3-.7c-6.2-8.4-10.4.1-18.8-17.9a2.5 2.5 0 0 0 -1.2-1.1c-2.2-.6-4.8.6-5.2-1.5-.1-.1-.1-.2-.2-.4-7-14.9-11-8.9 6.3-22.1 32.6-22.9 28-11.6 31.7-4.5a44.2 44.2 0 0 1 4.1 12.9zm-12-26.8h-.2c-30.2 15.5-46 36.5-94.3 45.1-2 .6-3.1-12.9-4-19.6a1.9 1.9 0 0 1 .3-1.3c7-9.3 21.5-20.7 18.4-33.2a1.9 1.9 0 0 0 -3.4-.5c-18.1 28.5-27-5.9-17.3 51.8v.6c-4.4 26.7-8.5 52-8.7 79.4.7 11.1-1.1 4.3-3 12.8a1.9 1.9 0 0 1 -3.4.7c-6.9-9.6-5.1 4.5-11.6 5.4a1.4 1.4 0 0 1 -.9-.1 4.2 4.2 0 0 1 -2.5-2.7c-.1-.1-.1-.3-.1-.6-3.1-23.8-13.5.3-20.5-15.8l-.2-.5c-.7-5.6-6.9-4.7-8.9-8.2a2.2 2.2 0 0 1 -.2-1.4c3.8-16.4-13.9-1.3-13.5-34.6.1-.1 0-.3 0-.5-7.2-25.6-18.1-12.3-15.1-34.5v-.3c0-5.5-4.5-8.2-5.5-13.1 0-.2 0-.3-.1-.4-4.8-11.3 9.9-24.1-.5-27.7l-.5-.3a7 7 0 0 1 -2.7-5.1v-.3c-4.5-13 29.5-6.2 10.5-17.3a.2.2 0 0 1 -.2-.2c-2.1-1.7-4.8-4.6-3.9-7.2l.5-.7c9.3-9.3 13.2-.9 23.8-3.7a1.2 1.2 0 0 0 .8-.4c2.5-2.4-1.6-2.8-3.7-4.4a2 2 0 0 1 .1-3.1c31.9-21.4 112.6-14.8 161.2-.4a1.9 1.9 0 0 1 .3 3.5c-4.8 2.3-12.7 4.2-1.1 7.1h.3c1.6.1 2.1 1.3 2.6 2.5a1.6 1.6 0 0 0 .7.7c4 2.7 6.5-2.4 8.3 3.3a1.6 1.6 0 0 0 .7 1.1c.8.5 1.9 8.8 3.1 12.3a1.5 1.5 0 0 0 .3.7c7 8.5 8.5 5.2-5.9 11.1zm98.7-16.5c-7.9-10 4.5-20.8 13-13.1l.3.4c2.8 4.6 10.1 13.8 12.4 17.4a1.9 1.9 0 0 1 -1.1 2.8c-4.7 1.5-18.4-1.2-24.4-7.3a.2.2 0 0 0 -.2-.2z"/><path d="m1183.7 150.9c3.3 20.5 12.8 16 7.3 20.1-20.9 6.5-37.8 22.8-57.5 33a154 154 0 0 1 -47 15.6c-2-3.7-4.1-19.9-2.9-22.1 10.2-9.4 23.8-25 16.7-35.8-22.3 36-28.3-4.8-19.1 56.6-13 70.2-4.5 71.7-12.6 96.1-10.8-18.7-7.6 5.4-16.2.7-9.2-31.5-13.9 3.2-23.6-22.7-2.4-.5-3.4-2.3-6.7-3.4s-.1-5.7-.6-9.4c-6.5-4.2-12.9-9.6-14.1-18.9 1-6.8-1-11.5-3.2-18.1-.9-2.1-1.5-5.7-4.5-6.9-14.2-9.6-4.4-17.2-8.5-24.1-14.9-21.2 9-31-6.4-37.3-1.6-2.2-1.6-3.7-1.8-7.1-2-9.1 24.2-4.3 14-12.8-3.6-1.9-8.5-5-7.2-9.8 10.9-11.7 19.4 1.8 25.6-5.2.5-1.1-.2-1.8-2.2-2.3-11.5-5.4 11.4-9.4 14.6-12 48.8-12.5 99.6-5 147.8 8.2-2.5 4.7-19.7 5.8-2.6 10 3.9 7 8.5.8 10.7 7.6z" fill="#fff"/><path d="m1194.2 203.4c-.4-2.8-2.1-4.8-2.7-7.9-.9-4.7-1.5-.6-3.2-11-2.1-17.1-36.9 14.1-42.1 17.1-2.6 7.6 5.4 7.1 5.5 14.4 1.7 1.1 6.2 0 7.6 2.5 3.3 15.4 16 11.2 17.8 17.6.2 1.3.5 1.6 1.8.1 1 3.1.2 6.6 2 10.1h-.1c18.7 5.9 8.2 7.2 15.5 9.8 20.8 39.5 3.4-14.8 4.5-25.6-.9-9.4-4.5-17.8-6.6-27.1z" fill="#fff"/><path d="m1297.7 151.4-.7-1a8.6 8.6 0 0 0 .7 1z"/><path d="m598.2 465.9s-62.6-71-69.9-128.6-7.3-98.5-7.3-98.5l31.4-8.3 26.5 10.4 74.1 84.1z" fill="#fff"/><path d="m403.6 469.5h2.1a5 5 0 0 0 -2.1 0zm6.5 29.5 3.2-.3a9.7 9.7 0 0 0 -3.2.3zm8.1-6c-.3 1.3-.3 3-1 4.3a2.8 2.8 0 0 0 1-4.3z"/><path d="m431.7 467.1-10.4 1.7c-9.3 2.1-13 .9-15.6.6 10.5-.7 21.5-1.8 26-2.3z"/><path d="m543 208.8a.1.1 0 0 0 -.1.1z"/><path d="m593.2 438.2a61.1 61.1 0 0 0 -5.8-5.6 6 6 0 0 1 -2.7-3.7 9.1 9.1 0 0 0 -1.1-2.2l-5.5-10.7c-.5-1.1-1.2-2.2-1.7-3.2s1.7-3.4 1.3-4.8c-1-3.3.5-6.1.9-9.2s1.1-4.2 1.1-6.3c0-6.3 2.7-11.8 5.2-17.3s4.5-9.5 7.1-14.1a72.2 72.2 0 0 1 10.6-14.7 92.1 92.1 0 0 1 7.8-7.5c1.9-1.7 4.3-2.8 6.5-4.1 4.7-2.6 9.5-5.1 14.1-7.8a10.6 10.6 0 0 1 9.3-1.2 17.9 17.9 0 0 0 14.1-1.3c3.8-2 7.7-3.8 11.6-5.6a2.5 2.5 0 0 1 2.2-.1c1.6 1.2 3.3.7 5 .7 4 .1 7.9.1 10.5-3.8.2-.2.7-.3 1-.5l5.9 1.7-2 1.3-2.1 1.4a8 8 0 0 0 7.8-2.5c-1.9-2.5-2.1-3.7-.7-4.8s3 .7 4.3 1.9c1.7-1.1 3.5-2.1 5.4-3.4-4.2-2.4-4.3-3.2-1.3-6.8 2.4 1.8 5.3 1.1 7.5.1 4-1.7 7.6-4.2 11.5-6.6l-1.8-2.2c3.6-1.1 6.4-3.4 10.4-2.9 1.8.2 3.8-.7 5.7-1.9l-2.5-1.1v-.7l8.2-1c.7-1 2.1-2.3 3.1-3.9a2.8 2.8 0 0 1 2.9-1.6c2.4.2 4.7.2 5.7-2.6 4.1-1.8 6.8-5.5 10.3-8.2 1.4-1 2.7-2.3 4.1-3.2a11.3 11.3 0 0 1 4.3-1.8c3-.3 3.1-.1 5.3-2 3.3 2.6 7 2.4 10.8.6a6.4 6.4 0 0 1 2.4-.1c.4 0 .8.5 1.1.3 6.1-2.2 10.8 1.8 16.1 3.2.2.1.3 0 .7 0s.6-2.2 1.3-2.9a10 10 0 0 1 3.1-1.5c0-3.1 3.4-5.8.8-9.4a51.5 51.5 0 0 1 8.1 1.8 29.8 29.8 0 0 1 5.3 3.4l4 3.4c.3.4 1 .7 1.1 1.1.8 3.4 2.9 6.7 1.3 10.4a4 4 0 0 0 -.2 2.4c1.3 3.1-.1 5.7-1.2 8.5-2.7 6.9-7.4 12.8-10.9 19.3-1.6 3-3.5 6-4.9 9.3a63.6 63.6 0 0 1 -7.4 13.2c-2.5 3.3-6.5 5.7-7.2 10.3-5 6.1-10.3 12.1-15.1 18.3-2.5 3.1-4.3 6.8-6.4 10.2-.5.7-.9 1.7-1.6 2.1s-1.8 2.5-.5 3.8c-2.3 3.6-4.7 6.6-5.5 10.8s-3 6-4.2 9.2-1.9 7.2-3 10.7-2.6 7.1-3.8 10.7a31.5 31.5 0 0 0 -.9 3.6c-2.5 1.7-5.2 3.2-7.6 5.2s-1.4 2.4-2.3 3.9c-2.7-2.8-4.6-.9-6.8.9s-4.9 3.1-4.6 6.5c-3.7 1.4-7 2.9-8.4 6.7a6.1 6.1 0 0 0 1.2 7c1.3 1.4 1.2 3.8 3.1 5.1s5.6 4.6 8.4 7c1.2 1.2 2.2 2.6 3.3 3.9a47.8 47.8 0 0 0 4.5 4.5 43.5 43.5 0 0 0 6 3.5 10 10 0 0 0 2.1-.8c1.9-1.2 2-2.6.8-4.5a49.3 49.3 0 0 0 -3.6-5.3c-1.8-2-2.2-4.3-2.4-7.3 3.7.1 6.6 2.2 9.9 2.8l10.2 2a6.8 6.8 0 0 1 -.7 2c-1.6 2.7-1.5 3.4 0 5.8 2.5 4 6.3 6.6 9.8 9.5a1.3 1.3 0 0 0 .7.4c5.3.4 7 5.2 9.9 8.5a38.2 38.2 0 0 1 2.8 4.2c-2 3.9-1.9 8.2-1.6 12.5s4.8 9.3 8.6 10.2a10.9 10.9 0 0 1 4.6 2.2c1.6 1.2 1.2 2.6-.7 3.3l-10.7 3.5a22.1 22.1 0 0 0 -7.6 3.6c-4.1 3.3-9.1 5.2-14 7.1a8.1 8.1 0 0 1 -3.1.6c-1.5-.1-2.4.6-3.6 1.3s-5.2 2.2-7.8 3.4-5.6 3.2-8.5 4.4c-5.8 2.2-10.4 6.5-15.7 9.4-3 1.6-6.3 2.4-9.5 3.5l-5.2 1.9a76.6 76.6 0 0 1 -7.7 2.5c-5.1 1.3-10.3 2.3-15.4 3.5a4 4 0 0 0 -2.2.9c-1.9 1.9-3.9 2.1-6.4 1-1.4 3.6-4.3 4.2-7.6 4.1a25.7 25.7 0 0 0 -4 .6c-3.2.7-6.4 1.5-9.8 1.3s-9.9 1-14.9 1.4c-2.6.2-5.3-.1-8 0a30.5 30.5 0 0 0 -6 .6c-2.8.5-5.6 1-7.9-1.7-2 1.2-3.9.9-6.1.4a19.5 19.5 0 0 0 -9.3-.3 33.8 33.8 0 0 1 -10 .5c-6.2-.4-12.4-.1-18.5-1.2s-9.4-.5-14.1-.6c-1.3-.1-2.6.3-3.7 0-6.9-2.2-14.4-1-21.4-3.8a56.3 56.3 0 0 1 -7.7-3.1c-1.6-1-3.8-1.1-5.8-1.4s-3.8.2-5.6-.4c-4.4-1.4-8.7-3.2-13-5-2.1-.8-4.2-1.8-6.3-2.7a6.9 6.9 0 0 1 -2-1.3c-4.3-4.4-10.1-6.1-15.3-8.8a18.7 18.7 0 0 0 -2.8-.8 19.2 19.2 0 0 1 0-2.4c.3-2.2-.2-3.9-2.3-5.1a36.8 36.8 0 0 1 -4.4-3.4 5.5 5.5 0 0 1 -1.2-2.4 12.1 12.1 0 0 1 1.2-7.9l2.1-3.9h-.1c.4-.4 1.1-.7 1.1-1.1-.1-2.8.1-5.9-.8-8.5a6.5 6.5 0 0 0 -5.1-3.6 16.9 16.9 0 0 1 -5-1.4c-1.2-.6-2.8-1.7-2.9-2.5 0-2.4-1.7-3.2-3.3-4.3 1.3-2.5 3.5-3.5 5.7-4.4s7.3-2.5 10.9-4a40 40 0 0 0 7.1-3.7c2.1-1.3 3.9-3 3.9-6.1-2.8-1.1-4.5-2.9-2.7-6.3.2-.6-.5-1.8-.9-2.6a10.3 10.3 0 0 1 6.3-14.2 43.5 43.5 0 0 0 5.8-2.7c.7-.4 1.7-1.3 1.8-2 .6-4.7 4.5-5.8 7.8-7.2 4.9-2.1 9.8-3.8 14.7-5.6 8.6-3.1 17-6.9 26.3-8 3-.3 6-1.5 9-2.1a7.8 7.8 0 0 1 2.6.1c1.4 4.5 2.7 8.9 4.1 13.3 3.1.4 6.3-2.7 9.4.9-.9.1-1.8.5-2.2.2s-3.6.2-5.3.4-1.1 1.5-1.1 2.3a11.2 11.2 0 0 0 1.1 3.4c1 2.8 2.5 5.4 3.2 8.2 1.1 5.1 4.6 7.9 8.9 10.5.6-1 1-1.8 1.4-2.6l14.2-1.9v-2.3c-5.2-.3-10.6.7-16.6-.7l4.9-4.9c1.4 2.8 3.5 3.4 6.2 3.1a11.1 11.1 0 0 1 .5-2.5 12.5 12.5 0 0 1 1.5-1.9c3.5 1.6.4 3.2-.2 5.4l11.4-3.1 2.1 2.7c.1 1.4-1.4 2.1-5.1 2 .8 1.9 2.7 2 4 1.8s2.5-1.3 3.8-2.1c-.2 3.7-.3 3.9-3 4.3l-7.7 1.5c1.4 2.3 3.5 1.3 5.4 2.4-.9.6-1.6 1.5-2.4 1.7-3 .4-6 1.8-9-.2-.8-.4-2.1 0-3.2 0l-3.2.2c-.1-2.3.7-3.2 2.6-2.9s3.1.7 4.7.8a14.8 14.8 0 0 0 3.2-.5c-2.2-2-3.1-1.9-8.6-2-2.7-.1-3.6 1.8-5.3 3 .5 2.5 2.5 3.2 4.4 3.8s4.3.8 6.3 2.4 3.6 1.1 5.3.9 6 .4 8.4-1.9 3.1-1 5.4-.3l-2.9 1.5c.1 1 .3 2 .4 3.1l1.7.3 23-1.5 3.6-.6c.7-.1 1.7-.5 2.3-.2 4.5 1.8 8.9.7 13.5 0s10.4-1 15.7-1.4c2.6-.2 5.1-.3 6.9-3-.9-2.9-3.7-3.7-6.1-4.5a80.7 80.7 0 0 0 -17.6-4.2c-8.5-.8-16.4-4-24.2-7.1-3.4-1.3-6.9-2.3-10.3-3.6-1.7-.7-3.4-1.6-5.1-2.4s-1-.9-1.4-.7c-2.7.9-4.8-1-7.2-1.5a17.4 17.4 0 0 1 -6.3-2.5c-3.1-2.3-6.6-3.6-10-5.1zm11.5 37.3c4 1.6 4 1.6 5.7-.5z" fill="#fff"/><path d="m970.8 506.2c-6.2 2.3-11.2 4.9-17.2 5.1s-11.7-2.8-16.3-6.9c-2.9-2.7-5.6-5.7-6.8-9.7s-3.2-5.9-5.6-8.3a13.7 13.7 0 0 1 -1.3-2 5.4 5.4 0 0 1 3-8.5 18.1 18.1 0 0 1 11.5.6 20.2 20.2 0 0 1 10.1 7.2 51.9 51.9 0 0 0 12.1 12.2c3 2.2 6.2 4.3 8.6 7.2a15.5 15.5 0 0 1 1.9 3.1z" fill="#fff"/><path d="m1015.9 496.9h1.7v.6l-1.7.4z" fill="#fff"/><path d="m713.6 302a29.4 29.4 0 0 0 7.1-4.2 40.1 40.1 0 0 0 -7.1 4.2zm21.5-11.6-1.4.9 1.6-.8c-.1 0-.2 0-.2-.1z"/><path d="m574 257.3a17.8 17.8 0 0 0 -.3 7.7 1.3 1.3 0 0 1 .1.6c.5-2-.1-5.2.2-8.3zm-11.9 7.5a2.4 2.4 0 0 0 1 1 27.4 27.4 0 0 0 6.3 1.9 52.6 52.6 0 0 1 -7.3-2.9zm-49.4-62.3.2.2c2.2 4-4.1 6.5-2.7 7l.3-.2c10-7.7 2.9-7.1 2.2-7zm-13.3-14.3a68.5 68.5 0 0 0 7.3 7.8z"/><path d="m552.4 341.5c.9.3 1.7.2 2.5-1.1a5.9 5.9 0 0 0 -2.5 1.1zm0 0c.9.3 1.7.2 2.5-1.1a5.9 5.9 0 0 0 -2.5 1.1z"/><path d="m979.6 471.6c-14.4-15.8-31.5-12.6-42.6-9.4-13.4 4.2-28.3 11.8-56.3 10.8-50.1-5.8-81.3-10.2-95.8-16.7-18.7-5.4-33.2-4.5-30.8-16 14.3-27 19.1-50.5 30-71.4 7.3-14.7 79.2-109.9 70.7-134.2 14.3-2.9 1.8-15.5 8-19.4 25.6-45.3-2-61-8.8-30.2-1 2.5-3 4.7-7.2 7.3-16.7 11.8-6.5-18.5-23.5-4.3-30.6 70.3-38.5-7.1-49.6 32.7-1.3 2-3.6 2.9-6.8 3.7-18.9 1.7-28.2 15.1-34.7 20.6-11.7 8.9-31.6 17.7-45.5 34.8-62.1 32.5-36 35.2-69.6 1-36.8-31.3-50.6-73.2-88.9-97.7-11.2-7.7-41.9-11.6-27.3 6.6s15.9 10.9 14.3 15.3c-24.3 18.3 9.7 30-10.7 33.6-1.2-.2-4.6 2.1-5.5 5-3.4 14.1 7.8 17.3 8 27.4-1.8 7.4 4.5 11 3.8 16-5.4 6.8 6.2 54.2 16.4 60.2-9.7 7 35 69.6 24.7 74.3-4.9 6.8-16.5 5.8-35.9 13.8-94.7 53.6-138.4 25.5-140.9 37.4-1.8 18.3 43.2 16.7 43.1 20.2 3.9 11-23.7 2.8-28.3 4.9-8 5.5 2.2 11.9 9.7 15.9 202.2 91.9 172.9 45.1 185.7 72.8 2.1 2 7.4 2.7 22.2.6 16.2 1 23.4 5.5 37 4.8 27.9-2.3 31.4-18.5 34.2-17.1 70-16.9 102.5-43.8 131.5-53.3 100.5-28.5 126.6 10.1 177.3-13 8.7-3.3 28.9 0 36.4-7.7 1-11.8-29.2-4.6-44.3-29.3zm-572.1 17.6s-.1-.1.1-.1zm135.5-280.5h-.1a.1.1 0 0 1 .1 0zm8.7 182.5c2.5-8 1.7-19.5 1.3-27.6 14.8-13.8-5.1-19.2 0-22.5 34.7-13.4-5.8-15-10.6-21.9-4.5-8.5-7-14.3-12.2-27.3-7.1-30.3 16.2-.7 21.4-18.4-8.9-24.4 21.4 1.1 22.2-7.9-1.1-24.3 8.7-14.1 20.7-2.1 9.7 10.1 42.7 48.5 40.4 50.9-96.9 57.7-45.4 145.8-83.2 76.8zm242.1 130c-48.4 24.6-93.2 44.8-125.3 48.4-57.9 3.1-148.8 2.6-179.7-33.7-21.1-18.8 16.8-22.2-16.3-37-2.4-2.3-3-4.4-1.3-6.4 7.7-4.7 25.2-8.4 24.6-13 .4-9.9-12.6-18.3 8.2-28.1 2.7-2 3.3-3.7 4.9-5.6s4.9-4.7 14.2-8.1c1.9 0 36.2-13.2 44.9-10.7 2.2 28.3 15.4 40.8 27.5 45.5 10.1 6.5 84.2 2.2 85.8-3.1-1.7-8-26.5-3.1-88.1-31.2h-.2c-30.4-24.6-10.9-78.9 22.8-102.8 24.1-17.2 27.2-5.2 37-10.2 26.8-15.7 27.8 6.3 49.3-12.9 11.2-13 32.2-20.9 44.6-27.7 8-5.3 17.8-15.7 22.6-17.3 5.9-4.4 20.5 2.9 31.2 2.8 6.4 1.5 18.4-10 12.5-15.5 59.3 9.4-30.3 95.7-39.6 124-8.3 17.5-7.3 33-23.3 47.6-6-4.3-9.6 4.9-12.7 7.9-5.5 1.7-8.1 7-7.7 9.6 7.9 15.6 43.9 47.6 24 9.7 7.1 1.6 13.6 4.1 20.1 4.8-7 20.8 28.3 11.6 20.7 43 2 14.1 31.4 10.9-.7 20zm-201.1-82.8.3-.2c0 .1-.1.2-.1.3zm329.9 42.6c1.3-9 18.8-9 30.6 8.7 5.6 6.4 14.1 9.3 17.6 16.5-23.6 11.7-35.6 2.5-48.2-25.2z"/><path d="m512.7 202.5-6-6.5a74.5 74.5 0 0 1 6 6.5z"/><path d="m543 208.8h-.1a.1.1 0 0 1 .1-.1z"/><path d="m569.4 267.7c2.9.4 4-.5 4.4-2.1.3 2.6-1.7 2.8-4.4 2.1z"/><path d="m576.8 250.9a19.8 19.8 0 0 0 -2.8 6.4 9.8 9.8 0 0 1 2.8-6.4z"/><path d="m1910.6 835.7v858h-1910v-500.4l-19.6-4.7 8-421s619 88 996-162 917-202 917-202l3.1 432.1z" fill="#b0c6d1"/><path d="m-27 736.6s81.8-105 257.1-91 478.6 126 851.2 112 838.7-147 838.7-147l-20.2 330s-635.5 183-1047.7 21-791.5-189-879.1-105z" fill="#d3dce5" opacity=".5"/><path d="m1911 397.6s-540-48-917 202-996 162-996 162l-8 421s719 185 1197-17 729-66 729-66z" fill="#edf1f4" opacity=".5"/><path d="m192.4 1277.3-5.6 1.5a9.6 9.6 0 0 1 4.7-1.4z" fill="#aad1c7" stroke="#aad1c7" stroke-miterlimit="10" stroke-width="7.63"/><path d="m204.8 1274a33.1 33.1 0 0 1 -12.4 3.3z" fill="#aad1c7" stroke="#aad1c7" stroke-miterlimit="10" stroke-width="7.63"/><path d="m1864.5 484.9-528 181.7-141.6 50.7-124.7 156.4-116.2 99.3-207.1 10.5-85.5-12.2c-4.9-5.7-15.2-7.9-32.9-4.9-98.4 17.1-188.9 48.9-192.3 50.1s-4.5 0-6.2.6c-5.2 1.5-10.6 2.7-15.4 5.2-14.4 7.4-28.7 15.1-39.3 28.1a31.4 31.4 0 0 0 -6.7 14c-.8 4-3.6 8.1-4.3 12.2-2.2 12.3-5.9 22.7-14.6 31.6-3.4 3.5-6.5 7.4-11.3 9.1-9.4 3.2-19 5-28.6.5-1.5-.7-3-1.1-4.6-1.7a24.1 24.1 0 0 0 -15-.9c-5.1 1.3-10.3 2.3-15.4 1.2a87.6 87.6 0 0 1 -17.6-5.4c-3.8-1.7-7.6-4.5-11.7-5s-8 .4-11.9-.1a26.9 26.9 0 0 0 -15.3 2.8c-11.3 5.7-14 19.7-4.2 29.4a83.7 83.7 0 0 0 7.9 6.6c4.9 3.7 9.7 9.9 15 12.9 7.1 4.1 6.6 8.1 5.6 14.5-.4 2.9-1.3 6.7-3.4 8.3-4.7 3.6-9.4 8-16.3 6.9-2.5-.4-5.1-.4-7.6-.8a63.7 63.7 0 0 0 -19.5 0c-9.4 1.3-15.8 6.6-21.1 13.9-2.4 3.3-2.6 7-1.2 10.8a27 27 0 0 0 2.4 5.5c4.6 7.2 1.5 14.3-.5 21.3a3.2 3.2 0 0 1 -1.8 2c-3.4 1.7-6.7 4-10.3 4.6-12.5 2-23.9 6.6-34.9 12.6-1.5.8-3.3 2.1-3.8 3.5s-2.1 2.7-3.5 3.8a27.8 27.8 0 0 0 -4.3 4.1c-3.6 4.5-7.1 9-10.6 13.6-34.5 35.8-.6 52.7 21.3 48.7 17.2-3.1 11-49 11-49h-.1c.9-1.6 2.4-2.9 3.5-4.4 9-11.4 19.4-20.7 33-26.4 9.5-3.9 18.7-6.2 29-4 5.6 1.2 10.9 5.7 11.4 10.7s-1.1 10-5.7 13.3a34 34 0 0 1 -4.8 2.9 33.1 33.1 0 0 1 -12.4 3.3l-5.6 1.5h-.3s-39.7 13.2-24 31c45.9 51.9 140.6 15.2 180.7-27.7h.8c5.4-3.5 10.8-6.9 16.1-10.6 12.5-8.6 24.9-17.2 38.4-24.2a65.6 65.6 0 0 1 25.3-7.3c12.6-.9 23.1 3.4 30.9 13.7l2.5 3.3c-6.6 4.1-13.3 7.7-20.6 8.4-9.3.8-17.7 5.1-25.7 11.7a58.7 58.7 0 0 0 -8.1 7.7h-1.3s-31 30 12 40c38.1 8.9 47.2-29.3 48.7-38.2h.4c2.4-5.7 4.8-11.4 7.1-17.2a19.1 19.1 0 0 0 1.7-5.1 27.4 27.4 0 0 0 7.9-3.8 25.2 25.2 0 0 0 10.3-13.9l-5.4-1.2c-1.9-.5-4-.8-5.6-1.8l-.2-.2 11.1 3 20.2-21.2v.4s15.7-15.7 25.2-6.2 5 19.9-1.6 25.7-11.2 24.8 3.7 27.3 24.9-5.4 42.7-32.3 40.5-92.3 84.4-104.8 7.5 20.3 27.4 29 33.9-11.1 43.9-25.6 32.6-32.8 115.3-27.4 314.5-57.1 386.6-129.5c350-351 599.6-345.6 662-429zm-1562.1 651c10.1 6.8 12 12 8.3 21.8-14.7 1.6-27-5.5-32.2-18.7 7.9-7.2 16.3-8.3 23.9-3.1zm-48.4 5.8c-7.9-1-13.3-4-16.5-10.1-1.2-2.4-.5-6.1-.6-9.1 2.7-.1 5.9-1.2 8.2-.1 6.5 3.4 9.3 9.5 8.9 19.3zm77.7 56.9c-9.3 10.7-20.7 18.6-35.1 20.5-10.2 1.3-19.2-1-24.9-11.2-8.9-15.9-14.6-32.8-16.2-50.9-.6-6.7 2.4-12.2 11-14.8 3 12 13.5 16.4 20.4 24 4.4 5 9.8 6.4 16 6.5s14.3.5 21.3 1.2c2.5.2 5.5 1 7 2.7 4.6 5.2 5 16.8.5 22z" fill="#aad1c7" stroke="#aad1c7" stroke-miterlimit="10" stroke-width="7.63"/><path d="m27 1191.9 24.5 14.9c7.7 4.8 18.6 5.7 23.9.7 7.3-7.1 8.8-24.2 0-31.4s-24.3-16-36-21.4c-6.3-2.9-15.6 3.8-23.1 5.1-5.8 1-9.8 5.4-9.1 13.1 1 11.4 6.5 18 19.8 19z" fill="#aad1c7"/><path d="m92.7 1156.3c0 7.2-.6 13.2.2 18.9 1.9 14.5 9.3 26.5 18.1 37.7 5.3 6.7 20.7 10.6 27.7 8.2s16.8-14.3 16.8-23.7c0-28.4-32.8-49.7-62.8-41.1z" fill="#aad1c7"/><path d="m289.5 1087.4c11.8.3 20.9-6.9 30.9-11.8 12.2-5.9 19.7-16.1 25.8-27.6 3.6-6.6 1.6-13.6-.6-19.8-1-2.6-6.4-4.8-9.8-4.9-8.8-.4-17.3.3-24.6 7s-18.7 15.1-28 22.7c-5.2 4.2-9.5 9.1-11.5 15.7-1.1 3.8-.7 7.3 2 10.1 4.2 4.4 8 10.1 15.8 8.6z" fill="#aad1c7" stroke="#aad1c7" stroke-miterlimit="10" stroke-width="11.03"/><path d="m79.7 1276.9c4.5-1.4 8.8-2.3 12.6-4h-11.9c-.2 1.1-.3 2.4-.7 4z" fill="#fff"/><circle cx="305" cy="1307.1" fill="#8adaed" opacity=".44" r="24.5"/><circle cx="346.3" cy="1245.9" fill="#fff" opacity=".59" r="16.4"/><circle cx="144.5" cy="1255.7" fill="#fff" opacity=".44" r="24.5"/><circle cx="176.4" cy="1346.5" fill="#8adaed" opacity=".44" r="29.9"/><circle cx="53.8" cy="1236.3" fill="#8adaed" opacity=".44" r="25"/><circle cx="91.2" cy="1277" fill="#c1cfd3" opacity=".44" r="16.4"/><circle cx="115.8" cy="1200.8" fill="#fff" opacity=".59" r="16.4"/><circle cx="212.8" cy="1307.2" fill="#fff" opacity=".59" r="16.4"/><path d="m1926.3 459s-393.1 73.4-653.9 235.2l81.1 176.7s377-261 587-305z" fill="#aad1c7" stroke="#aad1c7" stroke-miterlimit="10" stroke-width="7.63"/><path d="m900.1 823.6-.3.3v-.3z"/><path d="m1925.8 407.2c-8-1.9-15.9-4.6-23.9-6.3a76.1 76.1 0 0 0 -17.1-2c-21.8.5-43.5 1.4-65.3 2.2a518.5 518.5 0 0 0 -76.7 8.3c-3.7.7-7.5.2-11.1 1a185.7 185.7 0 0 0 -21 5.7c-3.2 1.1-4-1.9-5.4-2.1-1.8 1.9-2.9 4-4.6 4.8-5 2.2-10.3 3.8-15.4 5.8-14.2 5.6-28.4 11.1-42.5 16.8-7.6 3.1-15.2 6.5-22.6 10-5.7 2.6-11.1 5.5-16.6 8.3-2 1.1-3.8 2.5-5.7 3.7-10.4 6-21.1 11.4-31.2 18a324.3 324.3 0 0 0 -27.6 20.6c-10.7 8.6-20.6 18.3-31.5 26.7a138.5 138.5 0 0 0 -21.5 21.1c-.4.5.4 2.1.7 3.7-4.6-.6-7.4 1.2-10.1 4.4-8.2 10-16.9 19.7-25.3 29.6q-18.3 21.4-36.4 43c-12.2 14.6-24.6 28.9-35.3 44.7-8.1 11.8-17.3 22.7-26.1 33.9-17 21.9-35.2 42.4-58.5 57.8s-46.3 20.1-72.2 16.7a31.5 31.5 0 0 0 -19.5 3.2c-7.5 3.8-9.3 12.4-4.3 19.1 3.7 4.9 3.4 7.8-.1 12.8s-7.4 4.9-11.5 6.4c-7.3 2.8-9 9.5-4 15.4l10.5 12.3c-2.3 8.5-4.9 16.3-11.6 21.9-5.1 4.1-9.8 8.6-15.2 12.2a231.2 231.2 0 0 1 -40.6 22.1c-10.4 4.4-20.6 9.1-31.2 12.8-6 2.1-12.9 1.7-18.9 3.7-11.1 3.7-22.7 3.8-34 4.5a252.4 252.4 0 0 1 -61.4-3.7c-13.6-2.5-27.7-2.5-41.1-5.6-19.9-4.5-39.3-11-58.6-17.8-14.1-5-26.9-12.7-39.9-19.9-4.1-2.3-8.6-4.2-12.3-7.1q-19.5-15-38.6-30.5c-12.5-10.1-25.1-19.8-38.3-28.9-18.1-12.5-36.5-24-57.9-29.7-15.9-4.3-31.9-5.2-47.4 2.6-6.2 3.1-9.7 13-2 18.5 2.4 1.7 5 3.2 7.6 4.8s6.9 3.2 9.8 5.5 7.4 6.9 6.6 12.7-4.1 9.8-9.1 11c-9.2 2.2-19 3.1-28-.9-17.2-7.8-35.2-12.5-53.6-16.4-7.9-1.7-15.8-.7-23.7.4a7.4 7.4 0 0 0 -4.9 3.6c-4.1 7.4-9.5 11.9-18.5 11.5-5.1-.2-7.8 2.5-9.5 7.9 1.6.9 3.7 1.5 5 2.8s4.9 5 3.9 8.9-4.5 4.4-7.8 4.2c-8.4-.6-16.9-1.3-25.4-2.3-11.2-1.2-21.9-.1-31.8 6-4.1 2.6-7.1 10.1-5.7 14.4s6.9 7.9 12.5 7.2c7.4-.8 14.8-2.3 22.2-3.5 10.8-1.6 21.8-3.4 32.9-1.2 1.8.4 3.9-.1 5.9-.5 18.4-2.8 36.3-.2 53.9 5.5 11 3.5 20 10.2 28.7 17.4 4.3 3.5 5.4 12.1 3 17.4s-5.2 6-9.6 5.4-8.4-1.7-12.5-2.5-6.9-1.8-10.3-1.7c-7.1.1-9.7 5.4-6 11.3 2.6 4.3 4.8 8.7 4.7 13.8s-.3 11.5-.4 17.3 2.4 9.5 8.4 10.4a25.6 25.6 0 0 0 10.3-.6c7.5-2 14.8-4.6 22.1-7.2 18.4-6.7 34.3-1.8 48.6 10.4 5.6 4.7 6 9.4 1.4 15a16.2 16.2 0 0 1 -7.1 5.1c-6.7 1.8-13.6 3.1-20.5 4.3-3.9.7-7.9 1-10.2 5.1 1.8 5 3.5 10 9 12.2 10.7 4.1 22.3 6.1 33.2 4.5 16.8-2.4 33.1-7.5 49.6-11.4 11.4-2.7 23-4.7 34.7-4.1a151.6 151.6 0 0 1 25.9 4c12.9 3.2 25.4 8.2 36.2 16.1s14.9 16.1 12.8 28.4c-.9 5.1-2.1 10.2-3.5 15.2s.2 8.6 5.5 8.6a28.6 28.6 0 0 0 11.4-2.8c4.3-2 8.1-5 12.1-7.5 9.5-5.8 20.5-5.9 30.8-8.8a50.5 50.5 0 0 1 11.1-1.8c10.4-.8 21-.8 31.4-2.1 23.2-3.2 46.5-6.4 69.6-10.7s48.3-9.1 71.6-17c10.6-3.7 20.9-8.2 31.3-12.3a112.9 112.9 0 0 0 11.8-5c26.7-14.6 54-28.4 78.4-46.8 12.3-9.3 23.7-19.8 35.5-29.7 4.9-4.2 10.4-8.1 14.6-12.9 12.4-14.5 27-26.6 40.7-39.7 2.8-2.7 5.3-5.8 8.1-8.6 6.3-6.5 12.8-12.9 19.1-19.4a23.7 23.7 0 0 0 2.9-3.4c6.7-9 13-18.3 19.9-27.2 13.2-16.9 26.7-33.7 40.2-50.4s28.5-35.6 43.7-52.5c10.7-11.9 22.9-22.4 34.5-33.4 3.3-3.1 6.8-5.8 10.1-8.8 13.5-12 26.8-24.2 41.9-34.2 9.5-6.3 18.8-13 27.8-20 14.6-11.4 29.5-21.8 46.8-28.5s34.9-13.9 52.7-19.7a217.7 217.7 0 0 1 37.2-8.5c12.5-1.9 25.3-2.2 38-2.6 5.5-.2 145.3 21.5 214.7 32.1m-1284.3 285.8a14.7 14.7 0 0 1 -14.3 2.2c-7.7-2.8-15.5-5.7-18.9-14.4-.9-2-2.5-3.8-3.2-5.9-1.7-5-5.4-7.5-9.9-9.5a54.3 54.3 0 0 1 -9.2-5.7 5.3 5.3 0 0 1 -1.9-6.3c1.9-5 7.6-8.4 14.2-8.1a79.2 79.2 0 0 1 41.9 12.6c17 11.1 16.4 24 1.3 35.1zm36.3 16.9c-3 4.7-14.7 10-19.9 8.4a99.6 99.6 0 0 1 -14.5-5.8c-4.7-2.3-5.1-5.8-1.5-9.6a14.7 14.7 0 0 1 5.5-3.8c4.4-1.5 9-2.4 13.6-3.6 0 .2.1.4.1.6 2.5.2 5 .2 7.5.6a41 41 0 0 1 5 1.4c5.5 1.9 7.3 7 4.2 11.8z" fill="#296a6a" stroke="#296a6a" stroke-miterlimit="10" stroke-width="12.8"/><path d="m699.5 1103.2c-12.2-7.6-26.2-11.8-40.5-13.8-2.8-.4-5.7-.1-10.7-.1-10.7-1.6-21.7 3.8-32.3 10s-13.2 19.6-6.6 30.4c4 6.5 9.2 9.5 17.5 10.2a52.5 52.5 0 0 0 23.4-3.3c7.4-2.7 14.7-2.3 22.1-.4 3.6.9 7.2 2.1 10.9 3.1 10.2 2.7 18.4-1.6 25.4-8.3 1.7-1.7 2.4-5 2.5-7.7.6-9.2-5-16-11.7-20.1z" fill="#296a6a" stroke="#296a6a" stroke-miterlimit="10" stroke-width="4.71"/><path d="m801.1 1053.8c-21.6-11-44-10.7-66.7-3.7-2.3.6-4.4 1.8-6.7 2.2-10.6 1.7-16.7 9.2-21.8 17.4-1.8 2.8-1.7 6.9-2.4 10.4-1.2 11.2 6.7 16.1 14.5 20.3a36 36 0 0 0 28 3c8-2.5 13.8-.6 19.3 5.4s12.1 6.3 18.7.7 9.4-9.6 14.4-14.1a15.9 15.9 0 0 1 7.5-3.6c9.1-1.7 14.5-9.8 12.1-18.8s-8.8-15.1-16.9-19.2z" fill="#296a6a" stroke="#296a6a" stroke-miterlimit="10" stroke-width=".59"/><path d="m503.1 972.4c1.7 1.5 3.5 3.5 5.5 4.1 11.7 3.2 23.5 6.1 35.2 9.1 6.4-.2 9.2-4.2 8.2-11.7a40.3 40.3 0 0 0 -1.1-5c-4.1-17.5-34.6-31.7-48.9-13.7-4.9 6.1-4.9 12.1 1.1 17.2z" fill="#296a6a" stroke="#296a6a" stroke-miterlimit="10" stroke-width="14.13"/><path d="m733.8 1154.1a208.4 208.4 0 0 1 22.8-13.3c5.4-2.7 11.4-.3 14.4 4.3s3.7 11.1-.5 15.9a36.8 36.8 0 0 1 -26.9 12.8 14.1 14.1 0 0 1 -4.1-.1c-4.1-1.1-8.1-2.8-9-7.4s-.7-9.5 3.3-12.2z" fill="#296a6a"/><circle cx="1802.1" cy="597.4" fill="#fff" r="16.8"/><circle cx="1876.6" cy="554.1" fill="#fff" opacity=".54" r="20.5"/><circle cx="1855.6" cy="609.9" fill="#dedbe5" opacity=".44" r="17.1"/><circle cx="1900.7" cy="548.5" fill="#fff" r="11.2"/><circle cx="1903.5" cy="622.7" fill="#fff" opacity=".59" r="11.2"/><circle cx="1882.9" cy="590.4" fill="#fff" opacity=".59" r="11.2"/><circle cx="792.6" cy="825" fill="#dedbe5" r="14.7"/><circle cx="812" cy="859.4" fill="#dedbe5" opacity=".85" r="17.9"/><circle cx="761.5" cy="819.6" fill="#dedbe5" opacity=".44" r="14.9"/><g fill="#fff"><circle cx="740.6" cy="857.5" opacity=".59" r="9.8"/><circle cx="772.3" cy="846.8" opacity=".59" r="9.8"/><circle cx="832.4" cy="881" opacity=".59" r="9.8"/><circle cx="787.3" cy="1019.5" opacity=".44" r="14.7"/><circle cx="809" cy="1049.1" opacity=".85" r="17.9"/><circle cx="733.1" cy="1007.9" opacity=".44" r="14.9"/><circle cx="755.4" cy="1032.3" opacity=".59" r="9.8"/></g></svg>