<svg xmlns="http://www.w3.org/2000/svg" width="1904" height="1692" viewBox="0 0 1904 1692"><title>goose-bottom</title><g id="Layer_15" data-name="Layer 15"><path d="M-4.5,854.3V-3.7h1910V496.8l19.6,4.7-8,421s-619-88-996,162-917,202-917,202l-3-432.2Z" fill="#1e3058"/><path d="M1933.1,957.5s-81.8,105-257.1,91-478.5-126-851.2-112-838.7,147-838.7,147l20.3-330s635.5-183,1047.6-21,791.5,189,879.1,105Z" fill="#d3dce5" opacity="0.5"/><path d="M-4.9,1290.5s540,48,917-202,996-162,996-162l8-421s-719-185-1197,17-729,66-729,66Z" fill="#edf1f4" opacity="0.5"/><path d="M1711.3,1372.1l5.5,1.4a9.2,9.2,0,0,0-4.7-1.3Z" fill="#aad1c7" stroke="#aad1c7" stroke-miterlimit="10" stroke-width="7.63"/><path d="M1698.8,1369a32.9,32.9,0,0,0,12.5,3.1Z" fill="#aad1c7" stroke="#aad1c7" stroke-miterlimit="10" stroke-width="7.63"/><path d="M-3.6,666.2C59.7,748.9,309.2,740.8,663,1088c72.9,71.6,305.4,131.6,388,125.3s105.5,11.8,115.6,26.1,24.4,34.2,44.2,25.2-17-41.2,27-29.2,67.5,77.1,85.6,103.8,28.1,34.5,43,31.8,10.1-21.6,3.4-27.3-11.3-16.1-1.9-25.7,25.3,6,25.3,6v-.7l.2.2,20.4,21.1,11.1-3.2h-.3c-1.5,1.1-3.6,1.4-5.5,1.9l-5.4,1.3a24.9,24.9,0,0,0,10.5,13.8,27.1,27.1,0,0,0,7.9,3.7,23.5,23.5,0,0,0,1.7,5.1c2.4,5.8,4.9,11.4,7.3,17.1h.4c1.7,8.8,11.2,46.9,49.1,37.7,42.9-10.5,11.6-40.2,11.6-40.2h-1.3a59.4,59.4,0,0,0-8.2-7.7c-8-6.4-16.4-10.6-25.8-11.4-7.3-.5-14.1-4.1-20.7-8.2l2.5-3.3c7.7-10.4,18.1-14.8,30.7-14a63.7,63.7,0,0,1,25.4,7.1c13.6,6.8,26.1,15.3,38.7,23.7,5.3,3.6,10.7,7,16.2,10.4h.7c40.7,42.4,135.7,78.1,181.1,25.8,15.5-18-24.4-30.8-24.4-30.8h-.3l-5.5-1.4a32.9,32.9,0,0,1-12.5-3.1,35,35,0,0,1-4.9-2.9c-4.6-3.3-6.2-7.8-5.8-13.2s5.7-9.6,11.4-10.9c10.1-2.3,19.4-.1,28.9,3.7,13.7,5.6,24.2,14.8,33.3,26.1,1.2,1.4,2.7,2.7,3.5,4.3h0s-5.7,45.9,11.5,48.9c22,3.7,55.7-13.5,20.7-49h.1c-3.6-4.5-7.1-9-10.8-13.4a27.8,27.8,0,0,0-4.3-4.1c-1.4-1.1-2.9-1.6-3.6-3.7s-2.3-2.7-3.8-3.5c-11.1-5.8-22.5-10.3-35-12.2-3.6-.6-7-2.9-10.4-4.5a3.7,3.7,0,0,1-1.8-1.9c-2.1-7.1-5.3-14.1-.7-21.4a26.6,26.6,0,0,0,2.3-5.5c1.4-3.8,1.2-7.6-1.3-10.8-5.4-7.2-11.8-12.4-21.3-13.7a67,67,0,0,0-19.5.2c-2.5.4-5,.5-7.5.9-6.9,1.2-11.7-3.1-16.4-6.7-2.1-1.6-3.1-5.4-3.5-8.3-1.1-6.3-1.6-10.3,5.5-14.5,5.2-3.1,9.9-9.3,14.8-13.1a70.7,70.7,0,0,0,7.8-6.7c9.7-9.8,6.9-23.8-4.5-29.3a26.9,26.9,0,0,0-15.3-2.7c-4,.6-8-.3-11.9.3s-7.8,3.3-11.7,5.1a87.1,87.1,0,0,1-17.5,5.6c-5.1,1.2-10.3.2-15.5-1.1a24.6,24.6,0,0,0-14.9,1.1c-1.6.6-3.1,1.1-4.6,1.8-9.6,4.6-19.1,2.9-28.6-.2-4.8-1.6-7.9-5.5-11.4-9-8.8-8.8-12.6-19.1-14.9-31.4-.8-4.1-3.6-8.2-4.5-12.2a31.6,31.6,0,0,0-6.8-14c-10.7-12.8-25.1-20.3-39.6-27.6-4.8-2.4-10.2-3.6-15.4-5-1.8-.6-3.8-.4-6.3-.5s-94.3-32-192.8-48c-17.7-2.9-28-.6-32.8,5.2l-85.5,13.2L946.4,1076,829.1,978,702.7,823,560.6,773.8l-530-176Zm1627.2,568.5c-5,13.3-17.2,20.5-32,19-3.8-9.7-1.9-14.9,8.1-21.8C1607.2,1226.6,1615.6,1227.6,1623.6,1234.7Zm33.3-16.9c2.2-1.2,5.4-.1,8.2-.1-.1,3.1.6,6.8-.6,9.2-3.1,6.1-8.5,9.1-16.3,10.3C1647.7,1227.4,1650.4,1221.2,1656.9,1217.8Zm-85.5,55.1c1.5-1.7,4.5-2.5,6.9-2.8,7-.8,14.2-1.2,21.3-1.4s11.6-1.6,16-6.6c6.8-7.7,17.2-12.2,20.1-24.3,8.6,2.5,11.7,7.9,11.1,14.7-1.3,18.1-6.9,35.1-15.7,51.1-5.5,10.2-14.5,12.7-24.7,11.4-14.4-1.8-25.9-9.5-35.4-20.1C1566.5,1289.7,1566.8,1278.2,1571.4,1272.9Z" fill="#ee7953"/><path d="M1875.7,1284.9l-24.4,15.2c-7.6,4.8-18.5,5.9-23.8.9-7.4-7-9.1-24-.3-31.3s24-16.3,35.6-21.8c6.4-3,15.8,3.6,23.2,4.8,5.8.9,9.9,5.3,9.3,13C1894.4,1277.1,1889,1283.8,1875.7,1284.9Z" fill="#ee7953"/><path d="M1809.6,1250c.1,7.2.8,13.2.1,19-1.8,14.4-9.1,26.5-17.8,37.8-5.2,6.7-20.6,10.9-27.6,8.5s-17-14.1-17.1-23.5C1747,1263.4,1779.6,1241.8,1809.6,1250Z" fill="#ee7953"/><path d="M1612.1,1183.2c-11.8.5-21-6.6-31-11.4-12.3-5.7-19.9-15.9-26.2-27.3-3.6-6.6-1.7-13.7.5-19.9.9-2.6,6.3-4.8,9.7-5,8.7-.4,17.3.1,24.6,6.8,9,8,18.9,14.9,28.3,22.4,5.2,4.1,9.6,9,11.6,15.6,1.2,3.8.8,7.3-1.8,10C1623.6,1178.9,1619.9,1184.6,1612.1,1183.2Z" fill="#ee7953"/><path d="M1823.9,1370.5c-4.5-1.4-8.8-2.3-12.6-3.9h11.8C1823.4,1367.6,1823.5,1368.9,1823.9,1370.5Z" fill="#fff"/><circle cx="1598.9" cy="1403.1" r="24.5" fill="#8adaed" opacity="0.44"/><circle cx="1557" cy="1342.3" r="16.4" fill="#fff" opacity="0.59"/><circle cx="1758.9" cy="1350" r="24.5" fill="#fff" opacity="0.44"/><circle cx="1728" cy="1441.1" r="29.9" fill="#8adaed" opacity="0.44"/><circle cx="1849.4" cy="1329.6" r="25" fill="#8adaed" opacity="0.44"/><circle cx="1812.4" cy="1370.7" r="16.4" fill="#c1cfd3" opacity="0.44"/><circle cx="1787" cy="1294.8" r="16.4" fill="#fff" opacity="0.59"/><circle cx="1691.1" cy="1402.3" r="16.4" fill="#fff" opacity="0.59"/><path d="M-31.4,572.7s393.8,69.1,656.4,228L545.8,978.3S166,721.4-44.5,679.7Z" fill="#ee7953"/><path d="M1019.1,836.2l.3.3v-.3Z"/><path d="M-12.4,625.4C56.9,614.2,196.4,590.9,202,591c12.7.3,25.4.5,38,2.2a224.3,224.3,0,0,1,37.2,8.1c17.9,5.6,35.4,12.6,53,19.2s32.4,16.8,47.1,27.9c9.1,7,18.4,13.6,28,19.8,15.3,9.8,28.7,21.9,42.3,33.7,3.3,3,6.9,5.7,10.1,8.7,11.8,10.9,24.1,21.2,34.9,33,15.4,16.8,29.7,34.5,44.3,52s27.4,33.2,40.8,50c7,8.8,13.4,18,20.1,27,.9,1.2,1.9,2.3,2.9,3.4l19.4,19.1c2.8,2.8,5.4,5.9,8.2,8.6,13.8,12.9,28.6,24.9,41.1,39.2,4.3,4.8,9.8,8.6,14.8,12.7,11.9,9.9,23.4,20.2,35.8,29.3,24.6,18.2,52,31.7,78.9,46,3.7,2,7.8,3.3,11.8,4.8,10.5,4.1,20.8,8.5,31.5,12,23.4,7.7,47.5,12.1,71.7,16.3s46.5,7,69.8,9.9c10.4,1.2,20.9,1.1,31.4,1.7a59.6,59.6,0,0,1,11.1,1.7c10.3,2.9,21.4,2.9,30.8,8.5,4.1,2.5,7.9,5.4,12.2,7.3a29.4,29.4,0,0,0,11.5,2.8c5.3-.1,6.9-3.5,5.4-8.7s-2.7-10.1-3.7-15.2c-2.2-12.2,3.3-21.6,12.5-28.5s23.1-13.2,36.1-16.4a140.4,140.4,0,0,1,25.8-4.3c11.7-.8,23.3,1,34.7,3.6,16.6,3.8,33,8.7,49.8,10.9,10.9,1.5,22.4-.6,33.1-4.9,5.5-2.2,7.2-7.2,8.9-12.2-2.3-4.1-6.3-4.4-10.3-5.1a200.6,200.6,0,0,1-20.5-4,17.1,17.1,0,0,1-7.2-5c-4.7-5.6-4.3-10.3,1.2-15.1,14.2-12.3,30.1-17.4,48.6-10.9,7.3,2.5,14.7,5,22.1,7a26,26,0,0,0,10.4.5c5.9-.9,8.4-4.5,8.2-10.5s-.4-11.5-.6-17.3,2-9.5,4.6-13.8c3.7-6,.9-11.3-6.1-11.3-3.4,0-6.9,1.1-10.3,1.8s-8.3,2-12.5,2.7-7.6-1.2-9.7-5.4-1.4-13.8,2.9-17.4c8.6-7.3,17.5-14,28.5-17.7,17.5-5.9,35.3-8.7,53.8-6,2,.3,4.1.8,6,.4,11-2.4,22.1-.7,32.8.8,7.4,1.1,14.8,2.5,22.3,3.3,5.6.6,10.9-2.7,12.4-7.4s-1.8-11.7-5.9-14.3c-9.9-6-20.6-7-31.9-5.6-8.4,1-16.9,1.8-25.4,2.5-3.2.3-6.7.2-7.8-4.1s1.4-6.6,3.8-9,3.4-1.9,5.1-2.8c-1.8-5.4-4.6-8-9.7-7.8-9,.5-14.5-3.9-18.6-11.3a7.3,7.3,0,0,0-4.9-3.5c-7.9-1.1-15.8-1.9-23.8-.2-18.3,4.2-36.3,9-53.4,17-8.9,4.1-18.7,3.3-28,1.2-5-1.1-8.2-5.5-9.1-10.9s2.5-9.6,6.4-12.7,6.5-3.8,9.7-5.7a75.7,75.7,0,0,0,7.6-4.9c7.6-5.6,4.1-15.4-2.2-18.4-15.6-7.6-31.5-6.5-47.5-2.1-21.3,6-39.5,17.6-57.5,30.3-13.1,9.3-25.6,19.1-38,29.3s-25.4,20.8-38.3,31c-3.7,2.8-8.1,4.8-12.2,7.1-12.9,7.4-25.6,15.3-39.7,20.4-19.2,7-38.5,13.7-58.4,18.5-13.3,3.1-27.4,3.3-41,6a257.4,257.4,0,0,1-61.3,4.4c-11.4-.6-22.9-.6-34.1-4.1-6.1-2-12.9-1.5-19-3.6-10.6-3.5-20.9-8.2-31.3-12.4a228,228,0,0,1-40.8-21.7c-5.4-3.5-10.3-8-15.3-12.1-6.8-5.5-9.5-13.2-11.8-21.7l10.3-12.4c4.9-6,3.2-12.6-4.2-15.3-4.2-1.6-8.7-2.2-11.6-6.3s-3.8-7.9-.2-12.9c4.9-6.7,3-15.3-4.5-19a31.5,31.5,0,0,0-19.5-3c-25.9,3.7-50.1-1.5-72.4-15.9s-41.9-35.5-59.1-57.1c-8.9-11.2-18.3-22-26.5-33.7-10.8-15.7-23.4-29.9-35.8-44.3s-24.5-28.4-36.8-42.6c-8.5-9.8-17.3-19.4-25.7-29.4-2.7-3.1-5.5-4.9-10.1-4.2.3-1.6,1.1-3.2.6-3.7-6.6-7.6-13.5-14.8-21.7-20.9-11-8.2-21-17.8-31.7-26.4-9-7.1-18.2-14.1-27.9-20.3s-20.9-11.8-31.4-17.6c-1.9-1.1-3.7-2.6-5.7-3.6-5.5-2.8-11-5.6-16.7-8.2-7.5-3.4-15.1-6.7-22.7-9.7-14.2-5.6-28.5-10.9-42.7-16.3-5.2-2-10.4-3.5-15.4-5.7-1.8-.8-2.9-2.9-4.7-4.8-1.4.3-2.2,3.3-5.4,2.2a184.6,184.6,0,0,0-21-5.4c-3.6-.8-7.5-.3-11.1-.9a508.3,508.3,0,0,0-76.9-7.5c-21.7-.6-43.5-1.2-65.3-1.5a76.3,76.3,0,0,0-17.1,2.2c-8,1.8-15.8,4.6-23.7,6.5M1275.9,862.2a79.5,79.5,0,0,1,41.7-13c6.6-.3,12.3,3,14.4,7.9a5.3,5.3,0,0,1-1.9,6.3,51.8,51.8,0,0,1-9.1,5.8c-4.6,2.1-8.2,4.7-9.8,9.6-.8,2.1-2.3,3.9-3.1,6-3.4,8.7-11.1,11.7-18.8,14.6a14.9,14.9,0,0,1-14.4-2.1C1259.7,886.4,1259,873.5,1275.9,862.2Zm-33,40.6a28.8,28.8,0,0,1,5-1.5c2.4-.4,5-.4,7.4-.7a.8.8,0,0,0,.2-.5c4.6,1.1,9.2,2,13.6,3.4a13.7,13.7,0,0,1,5.5,3.7c3.7,3.8,3.3,7.3-1.4,9.7a106.2,106.2,0,0,1-14.4,5.9c-5.2,1.6-17-3.5-19.9-8.1S1237.4,904.8,1242.9,902.8Z" fill="#f4ae3e"/><path d="M1222.7,1113.6c12.2-7.7,26-12.1,40.4-14.3,2.8-.4,5.6-.1,10.6-.1,10.7-1.8,21.8,3.5,32.4,9.6s13.4,19.4,7,30.3c-3.9,6.6-9.2,9.7-17.4,10.4a52.4,52.4,0,0,1-23.4-3c-7.5-2.6-14.8-2.1-22.2-.2l-10.8,3.2c-10.2,2.9-18.4-1.4-25.5-8-1.7-1.7-2.4-5-2.6-7.6C1210.5,1124.7,1216.1,1117.8,1222.7,1113.6Z" fill="#f4ae3e"/><path d="M1120.5,1065.3c21.6-11.2,44-11.2,66.8-4.4,2.2.6,4.3,1.8,6.6,2.1,10.6,1.6,16.8,9,22,17.2,1.9,2.8,1.8,6.9,2.6,10.4,1.3,11.1-6.5,16.1-14.3,20.4a36.1,36.1,0,0,1-28,3.3c-8.1-2.4-13.8-.5-19.2,5.6s-12.1,6.5-18.7,1-9.5-9.6-14.6-14a15.8,15.8,0,0,0-7.5-3.5c-9.2-1.6-14.6-9.6-12.4-18.7S1112.5,1069.5,1120.5,1065.3Z" fill="#f4ae3e"/><path d="M1417.7,980.7c-1.8,1.5-3.5,3.5-5.5,4.1-11.7,3.4-23.4,6.4-35.1,9.5-6.4-.1-9.3-4-8.4-11.6a44.8,44.8,0,0,1,1.1-5c4-17.5,34.3-32,48.8-14.2C1423.6,969.6,1423.6,975.5,1417.7,980.7Z" fill="#f4ae3e"/><path d="M1188.9,1164.9a199.2,199.2,0,0,0-22.9-13.1c-5.4-2.6-11.4-.2-14.4,4.5s-3.5,11.2.8,15.9c7.2,8.1,16.2,12.1,26.9,12.5a19.5,19.5,0,0,0,4.2-.1c4-1.2,8-2.9,8.8-7.6S1193,1167.6,1188.9,1164.9Z" fill="#f4ae3e"/><circle cx="114.7" cy="619.8" r="16.8" fill="#fff"/><circle cx="39.7" cy="577.3" r="20.5" fill="#fff" opacity="0.54"/><circle cx="61.3" cy="632.9" r="17.1" fill="#dedbe5" opacity="0.44"/><circle cx="15.5" cy="571.9" r="11.2" fill="#fff"/><circle cx="13.5" cy="646.2" r="11.2" fill="#fff" opacity="0.59"/><circle cx="33.8" cy="613.6" r="11.2" fill="#fff" opacity="0.59"/><circle cx="1126.6" cy="836.4" r="14.7" fill="#dedbe5"/><circle cx="1107.6" cy="871.1" r="17.9" fill="#dedbe5" opacity="0.85"/><circle cx="1157.7" cy="830.7" r="14.9" fill="#dedbe5" opacity="0.44"/><circle cx="1178.9" cy="868.3" r="9.8" fill="#fff" opacity="0.59"/><circle cx="1147.2" cy="858" r="9.8" fill="#fff" opacity="0.59"/><circle cx="1087.4" cy="892.9" r="9.8" fill="#fff" opacity="0.59"/><circle cx="1134" cy="1030.9" r="14.7" fill="#fff" opacity="0.44"/><circle cx="1112.6" cy="1060.7" r="17.9" fill="#fff" opacity="0.85"/><circle cx="1188.1" cy="1018.7" r="14.9" fill="#fff" opacity="0.44"/><circle cx="1166" cy="1043.3" r="9.8" fill="#fff" opacity="0.59"/></g></svg>