<svg xmlns="http://www.w3.org/2000/svg"><symbol id="cat" viewBox="0 0 840 840"><circle cx="417" cy="420" r="390.2"/><g fill="#fff"><path d="M624 316.6c3.6-2.1 6.8-5.8 9-11.3-2.9 5.5-6 9.1-9 11.3zm-20.4-5.1a13 13 0 0 0 5.4 5.7 18.3 18.3 0 0 1-5.4-5.7zM414.8 721l-2.9.3zm188.6-420.3c-2.7 2.1-2.2 6.7.2 10.8a14.7 14.7 0 0 1-.2-10.8zm5.6 16.5c4.1 2.7 9.5 3.4 15-.6a15.2 15.2 0 0 1-15 .6z"/><path d="M603.6 311.5c5.3 9.6 21.8 10.8 29.4-6.2-8.1 1.8-36.5-14.4-29.4 6.2zm-24.2-12.9c-14.4-9.2-45.2-10.9-52.4-5.2zM456.9 603.2c33.9-27.4 19.4-56.5-9.6-28.6-37.8 73.7 34 83.2 43.1 21.4-9.8 19-40 56.6-33.5 7.2zm9.9-33.9c7.3-1.2 4.3 15.8-4.3 20s-2.8-16.5 4.3-20z"/><path d="M676.6 332.5c-.9-17.1 14.9-1.8 27.4 5.1-3.6-11.2-7.2-12.9-24.3-20.7-2.2-16.6 5.4-14.1 27.8-16.7-68.3.1-.7-82.5-36.9-122.1-21.6 27.2-62.8 23.7-97.1 21.4-75.8 7.5-28.5-71.3-85.3-80.8-27.6 13.7-49.5 101.9-72.8 88.8-204.5-56.8-338.5 111.5-271.6 291C184.9 618 365.4 738.8 425.1 718.6c122.5-52.8 324.8-309.5 147.4-390.8l14-5.2c-13.6.1-26.7 8.7-42.5-2.9l39.9-9.3c-50.6.8-134.2 19.8-168.2 55.7-60.9-118.4-232-69.4-212.2 53.4 17.1 29 28.8 61 30.8 99.2 9.9 36 38.5 12.5 17.9-23.6 4.1-9.5 11.7-12.1 24.6-21.4 3.5 40.6 31.4 29.5 47.7 6 7.3 58.9 31.5 40.4 49 .5 12.6 25.8 26.4 2.5 45.9 12.3 16.1-11.5 20.5-33.3 33.5-51 4.4 15.7-3.6 46.3-5.3 62.8-48.1-6.1-51.1 64.9-61.5 103.1-20.9 47.3-12.6.2-10.1-30.3-1.8-11-1.7-15.8-17.6-14.9-24.6 2.5-20.9 36.4-35.6 54-41.2 46.6-32-38.6-9.7-50.5 6.2 14.6 11.7 10 10.3 1.8-44.9-54.1-72.1 140.6 8.3 45.3 44.8 5.5 11.1 33.7 56.8 14.2-.5 14.5 19.6 79.3 31 30.3-4.1-25-13.3-24.1 7.8-41-7.8 2.4-17.4 9-24.4 12.3-5.6-35.8 29.3-43.9 41.4-67.3 10.6-32.9 18.8-49.3 40-75.3 19.2 41.6 62.1-18.2 53.9-28-10.5 21.9-46.4 64.5-32.5 3 8.7-7.2 26.9-16.3 16.4-29.2-39.1-22.7-34 60.6-56.5 68.2l-.5.4c22.4-106.8-15.2-81.7-35.7-33.6-4.1-3 .7-56.4-15.6-38.3-9.8 21.8 6.3 46.1-23.5 62.1-5.9-16.3 11.2-45.8-8.7-58.5-4.4 27.4-14 51.7-30.4 77.1-19.4-28.2-.4-80.1 37.1-86-9.2-13.4 16.6-91.3-41.4-40.6-15.8 27.3-11.1 70.1-29.6 97.5s-28 8.3-18.7-18.6c24.4-9.4 25.9-46.9-5.6-29.9-17.5 24.8-14.1 48.6-49 60.4.6-7.4-3.2-25.4 8.5-34.2 102.9-77.3 2.4-151.6-22.4-12.2-40.8-136 135.2-173 184.8-48.9 94.9-115.8 243.8-51.9 207.9 73.6-15.1 73.1-179.2 247.9-220.7 232C139.7 629.1 50.8 310 264.7 227.1c241.7-51.3 113.4 88.2 229.1-91.3 21.9 21.1 12.7 57.1 34.6 75 42.8 1.3 99.8 19 136.5-8.2 6.5 120.8 13 85.7-8 103.6 26-3.9 15.7 8.3-2.7 11.7 2.1 6.1 16.6-.6 14.7 8.7-5 6.9-34.3-2-3.8 10.7-1.3 4.4-32 28.3-24.5 30.7 15-6.9 24.8-36.3 41.1-15.3-1.1-5.5-3.1-13.1-5.1-20.2zm-319.3 270c-31.7 32.5 3.8-69.5 11.7-25.8-4.2 11.2-4.8 12.2-11.7 25.8zm50 38.9c2.5 7.7 4.9 15.5 7.3 23.3l-4.7 1.4c0-5.3-9.9-23-2.6-24.7zm15.1-60c-5.6 4.7-11.2 7.1-15.8 6.2 37.6-146.4 61.4-43 15.8-6.2zm87-144.5c11-12.6 15.1 14.8-4.2 16.2.7-3.9.2-3.6 4.2-16.2zm-151.5-43.3c21.4-56.7 35.3 21.7-10 53.2 1.1-10.4 4.3-38.1 10-53.2zm-49.4 39.2c5.4 3.9 1.7 19.5-8 19.7-3.8-2.1.3-16.4 8-19.7zm-59.6 73.7c9 23.6 2.2 32.7-4.4.9zm28.3-132.3c34.8 5.5-7.8 76.3-29.3 78.1 6.9-24.5 10.7-55.2 29.3-78.1z"/></g></symbol><symbol id="buzz" viewBox="0 0 840 840"><circle cx="420" cy="420" r="390.2"/><g fill="#fff"><path d="M227.5 355l116.9-67.9L462.2 355v135.7l-117.8 67.9-116.9-67.9z"/><path d="M227.5 256l116.9-67.8L462.2 256v67.9L344.4 256l-116.9 67.9zm234.7 337l-117.8 67.8L227.5 593v-67.9L344.4 593l117.8-67.9zm26.1-237.2v60.5l224.9-60.5-116.9-68.7zm99 60.5l-99 23.7v54l126 57.3z"/></g></symbol><symbol id="ellie" viewBox="0 0 840 840"><circle cx="420" cy="420" r="390.2"/><path fill="none" stroke="#fff" stroke-width="25.26" d="M277.1 477.8l47.1 160.7 285.1-386.7z"/><path fill="#fff" d="M667.4 201.5L172.6 411.2l104.2 66.2L577.9 281 337.6 523.6l153.2 68.2z"/></symbol><symbol id="1" viewBox="0 0 840 840"><circle cx="420" cy="420" r="390.2"/><path fill="#fff" d="M389.7 310.4l-89.5 78.7-53.5-61.7 145.5-122.8h88.2v446h-90.7z"/></symbol><symbol id="2" viewBox="0 0 840 840"><circle cx="420" cy="420" r="390.2"/><path fill="#fff" d="M248.1 540.4l173.3-155.6a325.6 325.6 0 0 0 26.4-27.1 52 52 0 0 0 13.3-35.3c0-15.1-5.5-26.9-16.4-35.5s-23.8-13-38.5-13c-17.6 0-31.4 5.5-41.2 16.4s-15.5 24.4-16.7 40.3l-94.5-6.9c1.2-23.1 6.1-43.1 14.5-60.2a126.5 126.5 0 0 1 33.4-42.5q20.7-17 48.8-25.5c18.7-5.7 38.9-8.5 60.8-8.5a183.9 183.9 0 0 1 56.7 8.5c17.6 5.7 33 14.1 46 25.2a113.9 113.9 0 0 1 30.5 41.9q11.1 25.2 11.1 58.6a153.5 153.5 0 0 1-4.5 38.7 129.9 129.9 0 0 1-12.2 31.5 147.7 147.7 0 0 1-18.6 26.2 320.1 320.1 0 0 1-23.3 23.3L361.5 557.4h197.8v83.2H248.1z"/></symbol><symbol id="email" viewBox="0 0 540 540"><path fill="#b0c6d1" d="M472.7 80.7h-416a48 48 0 0 0-48 48v288a47.9 47.9 0 0 0 48 48h416a47.9 47.9 0 0 0 48-48v-288a48 48 0 0 0-48-48zm0 48v40.9c-22.4 18.2-58.2 46.6-134.6 106.4-16.8 13.3-50.2 45.1-73.4 44.7s-56.6-31.4-73.4-44.7c-76.4-59.8-112.2-88.2-134.6-106.4v-40.9zm-416 288V231.1c22.9 18.3 55.4 43.9 104.9 82.7 21.9 17.2 60.2 55.2 103.1 54.9s80.5-37.2 103.1-54.9c49.5-38.8 82-64.4 104.9-82.7v185.6z"/></symbol><symbol id="github" viewBox="0 0 540 540"><path fill="#b0c6d1" d="M447.5 50.7h-352a48 48 0 0 0-48 48v352a48 48 0 0 0 48 48h352a48 48 0 0 0 48-48v-352a48 48 0 0 0-48-48zM324.8 434.4c-8.4 1.5-11.5-3.7-11.5-8s.2-33 .2-55.3c0-15.6-5.2-25.5-11.3-30.7 37-4.1 76-9.2 76-73.1 0-18.2-6.5-27.3-17.1-39 1.7-4.3 7.4-22-1.7-45-13.9-4.3-45.7 17.9-45.7 17.9a157.3 157.3 0 0 0-83.2 0s-31.8-22.2-45.7-17.9c-9.1 22.9-3.5 40.6-1.7 45-10.6 11.7-15.6 20.8-15.6 39 0 63.6 37.3 69 74.3 73.1-4.8 4.3-9.1 11.7-10.6 22.3-9.5 4.3-33.8 11.7-48.3-13.9a34.8 34.8 0 0 0-25.5-17.1c-16.2-.2-1.1 10.2-1.1 10.2 10.8 5 18.4 24.2 18.4 24.2 9.7 29.7 56.1 19.7 56.1 19.7 0 13.9.2 36.5.2 40.6s-3 9.5-11.5 8c-66-22.1-112.2-84.9-112.2-158.3 0-91.8 70.2-161.5 162-161.5s166.2 69.7 166.2 161.5c.1 73.4-44.7 136.3-110.7 158.3zm-98.1-61.1c-1.9.4-3.7-.4-3.9-1.7s1.1-2.8 3-3.2 3.7.6 3.9 1.9-1 2.6-3 3zm-9.5-.9c0 1.3-1.5 2.4-3.5 2.4s-3.7-.9-3.7-2.4 1.5-2.4 3.5-2.4 3.7.9 3.7 2.4zm-13.7-1.1c-.4 1.3-2.4 1.9-4.1 1.3s-3.2-1.9-2.8-3.2 2.4-1.9 4.1-1.5 3.3 2.1 2.8 3.4zm-12.3-5.4c-.9 1.1-2.8.9-4.3-.6s-1.9-3.2-.9-4.1 2.8-.9 4.3.6 1.8 3.3.9 4.1zm-9.1-9.1c-.9.6-2.6 0-3.7-1.5s-1.1-3.2 0-3.9 2.8-.2 3.7 1.3 1.1 3.3 0 4.1zm-6.5-9.7c-.9.9-2.4.4-3.5-.6s-1.3-2.8-.4-3.5 2.4-.4 3.5.6 1.3 2.8.4 3.5zm-6.7-7.4c-.4.9-1.7 1.1-2.8.4s-1.9-1.7-1.5-2.6 1.5-.9 2.8-.4 1.9 1.8 1.5 2.6z"/></symbol><symbol id="facebook" viewBox="0 0 540 540"><path fill="#010101" d="M492.1 98.7v352a48 48 0 0 1-48 48h-85.3V321.5h60.6l8.7-67.6h-69.3v-43.2c0-19.6 5.4-32.9 33.5-32.9h35.8v-60.4a481.3 481.3 0 0 0-52.2-2.7c-51.6 0-87 31.5-87 89.4V254h-60.8v67.6H289v177.1H92.1a48 48 0 0 1-48-48v-352a48 48 0 0 1 48-48h352a48 48 0 0 1 48 48z"/></symbol><symbol id="instagram" viewBox="0 0 540 540"><path fill="#b0c6d1" d="M269.5 159.8a114.9 114.9 0 1 0 114.9 114.9 114.7 114.7 0 0 0-114.9-114.9zm0 189.6a74.7 74.7 0 1 1 74.7-74.7 74.8 74.8 0 0 1-74.7 74.7zm146.4-194.3a26.8 26.8 0 1 1-26.8-26.8 26.7 26.7 0 0 1 26.8 26.8zm76.1 27.2c-1.7-35.9-9.9-67.7-36.2-93.9s-58-34.4-93.9-36.2-147.9-2.1-184.9 0-67.6 9.9-93.9 36.1-34.4 58-36.2 93.9-2.1 147.9 0 184.9 9.9 67.7 36.2 93.9 58 34.4 93.9 36.2 147.9 2.1 184.9 0 67.7-9.9 93.9-36.2 34.4-58 36.2-93.9 2.1-147.8 0-184.8zm-47.8 224.5a75.6 75.6 0 0 1-42.6 42.6c-29.5 11.7-99.5 9-132.1 9s-102.7 2.6-132.1-9a75.6 75.6 0 0 1-42.6-42.6c-11.7-29.5-9-99.5-9-132.1s-2.6-102.7 9-132.1a75.6 75.6 0 0 1 42.6-42.6c29.5-11.7 99.5-9 132.1-9s102.7-2.6 132.1 9a75.6 75.6 0 0 1 42.6 42.6c11.7 29.5 9 99.5 9 132.1s2.7 102.7-9 132.1z"/></symbol><symbol id="glenn" viewBox="0 0 840 840"><circle cx="420" cy="420" r="390.2"/><path fill="none" d="M377.8 436.1c16.7 2.3 45.7 4.8 73.9.7-6.2-14-18-36.6-36.4-57.7-10.7 10.7-28.4 31.2-37.5 57z"/><g fill="#fff"><path d="M482.5 442.8c-.6-2.1-16.7-51.3-57.1-91.7l-8.3-8.3-9.3 7.3c-1.9 1.6-48.2 38.9-59.6 94l-2.7 12.9 12.9 2.8a328.4 328.4 0 0 0 60.9 5.8c17 0 35.8-1.5 53.8-5.9l13.8-3.4zm-104.7-6.7c9.1-25.8 26.8-46.3 37.5-57 18.4 21.1 30.2 43.7 36.4 57.7-28.2 4.1-57.2 1.6-73.9-.7z"/><path d="M415.5 426.8a11.3 11.3 0 0 0 0-22.6 11.3 11.3 0 0 0 0 22.6zm61.9 138s-11.5 22.5-20.2 31.2c0 0 17.3 39.8-8.8 74.4 0 0 51.1-3.6 47.3-53.4 0 0 23.7 1.4 31.2 14.4 0 0 12.9-50-49.5-66.6zm79.7-270.1s25.7-35.1 68.8-29.9c0 0-28.9-42.3-70-14 0 0-10.7-21.2-3.3-34.2 0 0-49.7 14.2-32.6 76.4 0 0 25.3-1.5 37.1 1.7zM231.4 366s-43.2-4.1-60.9-43.7c0 0-21.6 46.4 23.8 67.2 0 0-12.7 20-27.7 20.3 0 0 37.6 35.5 82.3-11 0 0-14.1-21-17.5-32.8zm305.2 147.7a20 20 0 1 0 27.3 7.3 20 20 0 0 0-27.3-7.3zm-298.9-57.4a20 20 0 1 0 27.3 7.2 20 20 0 0 0-27.3-7.2zM458.4 262a20 20 0 1 0-27.3-7.2 19.9 19.9 0 0 0 27.3 7.2zM308.8 447.2l18.7 13.5 4.6-22.6c11.4-55 51.4-93.6 52.2-94.4l13.9-13.1-16.1-10.3c-33.6-21.6-53.4-46.4-58.8-73.5-4.9-25.3 4.1-47 9.3-56.8 6.6 8 18.7 28.6-2.2 54.7 0 0 51.2-2.2 48.7-52.1 0 0 23.7 2.1 30.9 15.3 0 0-5.8-50.5-57.2-50.2s-54.2 0-86.4 37.4c-28.1 32.7-38.8 91.1-30.9 138.1 11.6 68.7 70.8 112.2 73.3 114zm-18.6-234a63 63 0 0 1 4.5-5.5 110.6 110.6 0 0 0-.7 44.3c5.9 31.2 25.3 59.2 57.5 83.4-12.2 14.4-30.6 39.9-42 72.8-16-16-38.6-44.2-44.6-79.9-6.5-38.9 4.1-87.3 25.3-115.1z"/></g><path fill="none" d="M384.8 729.4a314 314 0 0 0 35.2 2 309.8 309.8 0 0 0 208.2-80.1 314.7 314.7 0 0 1-209.4 79.9 318.5 318.5 0 0 1-34-1.8z"/><path fill="#fff" d="M420 108.6c-171.7 0-311.4 139.7-311.4 311.4 0 155.6 114.8 284.9 264.2 307.8l7.1 1 4.9.6a318.5 318.5 0 0 0 34 1.8 314.7 314.7 0 0 0 209.4-79.9c63.3-57 103.2-139.6 103.2-231.3 0-171.7-139.7-311.4-311.4-311.4zm-3.5 598.1c-157.4 0-285.4-128.1-285.4-285.5 0-153.2 121.3-278.6 272.9-285.1l5.2-.2h7.3c100.8 0 189.5 52.5 240.3 131.5.9 1.3 1.7 2.6 2.5 3.9a284.1 284.1 0 0 1 42.7 150c0 157.3-128.1 285.4-285.5 285.4z"/><path fill="#fff" d="M688 408.2c-14.6-40.6-60-78.9-104.8-95.2-65.4-23.9-132.4 6.1-135.2 7.4l-21 9.5 17.3 15.2c42.2 37.1 56 90.9 56.2 92l4.5 18.6 17-8.9c35.4-18.5 66.7-23.5 93-14.7 24.3 8.2 38.7 26.7 44.8 36.1-10.3 1.8-34.1 2.1-46.6-28.9 0 0-23.4 45.5 21.2 68.1 0 0-13.5 19.5-28.5 19.2 0 0 46.8 20 71.9-24.8s26.9-47.1 10.2-93.6zm-63-4.2c-30.1-10.2-64-7.3-101 8.8-6.5-17.8-19.5-46.4-42.5-72.5 21.8-6 57.5-11.7 91.5.7 37 13.5 73.8 46.7 87.6 78.9.9 2.2 1.7 4.4 2.5 6.6A112.4 112.4 0 0 0 625 404zm-136.6 69l-22 6.8c-53.7 16.5-106.8 0-107.8-.3l-18.2-6-1.3 19.1c-2.8 39.9-15 69.2-36.2 86.9s-43.1 19.1-54.3 19.2c3.9-9.6 16.1-30.1 49-24.4 0 0-26.5-43.8-69.1-17.6 0 0-9.5-21.8-1.4-34.4 0 0-41.5 29.4-16.5 74.3s26 47.5 74.3 57.7c42.3 8.9 98.6-9.8 136-39.4 54.6-43.2 64.3-115.9 64.7-119zm-86 118.6c-30.9 24.4-78.5 38.4-113.1 33.2l-6.9-1.3a111.9 111.9 0 0 0 39.1-20.7c24.5-20.3 39.8-50.7 45.5-90.6 18.5 3.8 49.7 7.7 84 1.8-6.3 21.7-20.2 55.1-48.6 77.6z"/></symbol><symbol id="linkedin" viewBox="0 0 540 540"><path fill="#b0c6d1" d="M464.8 50.7H80.7A32.1 32.1 0 0 0 48.8 83v383.4a32.1 32.1 0 0 0 31.9 32.3h384.1a32.2 32.2 0 0 0 32-32.3V83a32.2 32.2 0 0 0-32-32.3zm-280.6 384h-66.4V220.9h66.5v213.8zm-33.2-243a38.5 38.5 0 1 1 38.5-38.5 38.5 38.5 0 0 1-38.5 38.5zm282.1 243h-66.4v-104c0-24.8-.5-56.7-34.5-56.7s-39.9 27-39.9 54.9v105.8h-66.4V220.9h63.7v29.2h.9c8.9-16.8 30.6-34.5 62.9-34.5 67.2 0 79.7 44.3 79.7 101.9z"/></symbol><symbol id="3" viewBox="0 0 840 840"><circle cx="420" cy="420" r="390.2"/><path fill="#fff" d="M374.3 374.3h30.9a168.5 168.5 0 0 0 25.8-1.9 71.2 71.2 0 0 0 23-7.2 42.7 42.7 0 0 0 16.7-15.1q6.3-9.7 6.3-25.5c0-13.5-5.3-24.6-16-33.4s-23.9-13.3-39.4-13.3-26.9 4-36.6 12a55.8 55.8 0 0 0-18.9 29.6l-103.9-21.4q7.5-29 22.7-49.5a123.7 123.7 0 0 1 35.9-33 158.2 158.2 0 0 1 46.3-18.6 234 234 0 0 1 53.8-6 223.9 223.9 0 0 1 57.1 7.2c18.2 4.9 34.3 12.4 48.2 22.7a113.8 113.8 0 0 1 33 38.8q12.3 23.3 12.3 55.4 0 37.2-19.5 63.6c-13 17.7-31.9 29-56.7 34.1v1.8c13.4 1.7 25.3 5.7 35.6 12a95.8 95.8 0 0 1 26.1 23.3 102.7 102.7 0 0 1 16.4 31.5 120.6 120.6 0 0 1 5.7 37.2q0 33.4-12.9 58.6a122.1 122.1 0 0 1-34.7 41.9q-21.7 16.6-51 24.9a231.7 231.7 0 0 1-62.1 8.2q-59.8 0-103-27.8c-28.7-18.4-47.8-47.6-57-87.5l99.5-23.3c3.4 15.9 10.2 28.5 20.5 37.8s25.5 13.8 45.7 13.8 35.8-5.3 45.7-16 14.8-24.5 14.8-41.3c0-12.6-2.6-22.4-7.9-29.3a47.1 47.1 0 0 0-20.5-15.4 88.3 88.3 0 0 0-28.3-6c-10.5-.7-21-1-31.5-1h-22.1z"/></symbol></svg>
