<svg id="Layer_1" data-name="Layer 1" xmlns="http://www.w3.org/2000/svg" width="16in" height="10.2in" viewBox="0 0 1155.3 736"><title>interactive-cat</title><path d="M1016.5,595.3c-9.8,1.6-36.4-41-36.4-41s-4.4-6.2-2.9-10.9,6.1,1,6.1,1,17.1,19.8,32.5,26.6C1015.8,571,1038.9,591.6,1016.5,595.3Z" fill="#9f9e9f"/><path d="M593.6,385.4c-29.4-32.9-170.2-67.6-206.8,29.3L523.5,570.3l.8,14.2,96.8,2.1-1.2-132.4A105,105,0,0,0,593.6,385.4Z" fill="#f2bac6"/><path d="M597.7,555.8H537.4l2.1,21.7-148.7,2.8-1-145.3c-.9-22,4.5-42.1,22.9-54.2,34.9-22.7,87.4-17.4,102.4-15.3,2.6.3,5.2.5,7.7.9C627.3,381.8,597.7,555.8,597.7,555.8Z" fill="#eee1e0"/><path d="M179.8,385.4c29.3-32.9,173.5-69,210,27.9l-140,157-.7,14.2-96.9,2.1,1.2-132.4A104.6,104.6,0,0,1,179.8,385.4Z" fill="#f2bac6"/><path d="M175.6,555.8h60.3l-2.1,21.7,154.7,2.8V436.1c2.4-26.4-9.6-43.2-28-55.3-34.9-22.7-87.4-17.4-102.4-15.3-2.6.3-5.2.5-7.7.9C146,381.8,175.6,555.8,175.6,555.8Z" fill="#eee1e0"/><path d="M111.3,751.9V570.1a40.9,40.9,0,0,0-10.5-27.7,22.8,22.8,0,0,0-8.2-6c-14.4-5.5-37.4-52.7,6.8-76.9,26.8-14.6,48.9-1.2,60.1,14.9,9.7,13.9,11.3,32.1,11.3,49.1V751.9Z" fill="#eee1e0"/><circle cx="122.9" cy="489.8" r="18.2" fill="#f2bac6"/><polygon points="610.3 613.8 538.9 613.8 538.9 709.8 609.9 709.8 610.3 613.8" fill="#f2bac6"/><polygon points="599.8 593.3 175 593.3 175 712.5 597.1 712.5 599.8 593.3" fill="#eee1e0"/><path d="M664,746.7V574.9a40.9,40.9,0,0,1,10.5-27.7c2.5-2.7,5.3-5,8.2-6,14.4-5.5,37.4-52.7-6.8-76.9-26.8-14.6-48.9-1.2-60,14.8-9.7,14-11.4,32.2-11.4,49.2V746.7Z" fill="#eee1e0"/><circle cx="655.5" cy="503.1" r="18.2" fill="#f2bac6"/><rect x="391.6" y="555.8" width="220.8" height="64.27" rx="24.4" fill="#f2bac6"/><rect x="170" y="555.8" width="220.8" height="64.27" rx="24.4" fill="#f2bac6"/><path d="M513.7,461.1s59.5-3.2,88.9,17.5c0,0,15.1-8,5.5,4.7,0,0-7.1,58-15,63.5,0,0,11.1,20.6-5.6,7.9,0,0-61.9,8-88.1-5.5,0,0-15.9,10.3-5.5-5.6,0,0-4.8-61.1,11.9-79.3C505.8,464.3,500.2,444.4,513.7,461.1Z" fill="#34588d"/><rect x="388" y="411.8" width="4.4" height="302.35" fill="#f2bac6"/><rect x="169.7" y="549.2" width="4.3" height="164.93" fill="#f2bac6"/><path d="M525.7,572.7s-49,5.2-74.1-10.5c0,0-12.1,7.2-4.8-3.7,0,0,3.3-48.1,9.6-53.1,0,0-10.1-16.5,4.2-6.8,0,0,50.8-9.3,73,.7,0,0,12.6-9.2,4.8,4.3,0,0,6.7,50.3-6.3,66.1C532.1,569.7,537.6,585.8,525.7,572.7Z" fill="#aededf"/><rect x="41.8" y="581.5" width="13.7" height="112.39" fill="#604932"/><rect x="132.9" y="594.4" width="13.7" height="112.39" fill="#604932"/><rect x="262.9" y="297.8" width="25.2" height="29.72" fill="#604932"/><rect x="239.3" y="278.5" width="290.3" height="20.08" fill="#996a3c"/><rect x="485.1" y="297.8" width="25.2" height="29.72" fill="#604932"/><polygon points="474.6 277.9 424.8 277.9 414.9 208.8 484.5 208.8 474.6 277.9" fill="#eee1e0"/><path d="M458.1,167.3s-6.8-20.5,18.7-27.8C476.8,139.5,481.4,163.7,458.1,167.3Z" fill="#738e85"/><path d="M458.1,167.3s-7.2-19.7,18.7-27.8Z" fill="#abd3c7"/><path d="M459.9,171.4s6-20.8,31.2-12.3C491.1,159.1,481.1,181.6,459.9,171.4Z" fill="#738e85"/><path d="M459.9,171.4s5.1-20.3,31.2-12.3Z" fill="#abd3c7"/><path d="M452,154.3s6.8-20.6-18.7-27.9C433.3,126.4,428.7,150.6,452,154.3Z" fill="#738e85"/><path d="M452,154.3s7.2-19.7-18.7-27.9Z" fill="#abd3c7"/><path d="M453.8,172.9s-6-20.8-31.2-12.4C422.6,160.5,432.6,183,453.8,172.9Z" fill="#738e85"/><path d="M453.8,172.9s-5.1-20.3-31.2-12.4Z" fill="#abd3c7"/><path d="M450.4,197.4s-6-20.8-31.2-12.3C419.2,185.1,429.1,207.6,450.4,197.4Z" fill="#738e85"/><path d="M450.4,197.4s-5.1-20.3-31.2-12.3Z" fill="#abd3c7"/><path d="M450.8,196.1s6.8-20.5-18.7-27.9C432.1,168.2,427.5,192.4,450.8,196.1Z" fill="#738e85"/><path d="M450.8,196.1s7.2-19.7-18.7-27.9Z" fill="#abd3c7"/><path d="M454.7,188.3s16.6-13.9,32.7,7.3C487.4,195.6,466.5,208.6,454.7,188.3Z" fill="#738e85"/><path d="M454.7,188.3s15.7-13.9,32.7,7.3Z" fill="#abd3c7"/><path d="M447.9,209.1s-.5-9.5,4.2-22-1.9-35.7-1.9-35.7a66.3,66.3,0,0,1,4.7,24.8s1.6-8.1,3.9-11.7c0,0-2.3,8.3-2.3,10.3,0,0,2.8-3.6,4.8-4.8,0,0-3.9,4.9-5.1,10s-4.1,12.7-4.1,12.7a6.1,6.1,0,0,1,4.4-4.6s-6.9,7.6-6.5,20.8Z" fill="#475b55"/><rect x="383.8" y="130.6" width="28.6" height="147.94" fill="#ead9a0"/><rect x="355.1" y="144.9" width="26.5" height="133.66" fill="#aededf"/><rect x="316.4" y="161.3" width="23.5" height="116.31" transform="translate(70.1 -79.3) rotate(15.4)" fill="#c7c7c8"/><rect x="376.7" y="144.7" width="5.3" height="133.66" fill="#8bb2b3"/><rect x="406.8" y="130.6" width="5.5" height="147.94" fill="#ccbb8b"/><rect x="332.4" y="163.5" width="7.2" height="116.31" transform="translate(71 -81.3) rotate(15.4)" fill="#b3b3b3"/><rect x="-9.2" y="689.8" width="1174.1" height="54.52" fill="#aededf"/><rect x="29.8" y="575.7" width="129.3" height="20.08" fill="#996a3c"/><rect x="42.4" y="650.2" width="104.1" height="11.58" fill="#604932"/><path d="M52.5,529.8H78.8a2,2,0,0,1,2,2v28.7a15.2,15.2,0,0,1-15.2,15.2h0a15.2,15.2,0,0,1-15.2-15.2V531.8a2,2,0,0,1,2-2Z" fill="#cecccc"/><path d="M78.8,538.4s4.9-10.7,13.3-4.2-.3,18.1-8.2,22.9c0,0-1.5,2,1.3,3.4s-1.5,6.6-4.8,1.3,1.3-7.5,3.3-9.1,10.5-9.9,6.4-15.1-9.7,3.7-10.1,6.6Z" fill="#cecccc"/><path d="M59.7,44.4a8.3,8.3,0,0,0-2.8-2.1,9.2,9.2,0,0,0-3.8-.8,10.1,10.1,0,0,0-7.2,3.2,10.7,10.7,0,0,0-2.1,3.6,12.3,12.3,0,0,0-.7,4.4,13.3,13.3,0,0,0,.7,4.5,10.2,10.2,0,0,0,2.1,3.5A10.3,10.3,0,0,0,49,63.1a10.1,10.1,0,0,0,3.9.8,8,8,0,0,0,4.1-1,8.6,8.6,0,0,0,3-2.7l6.4,4.7a13.8,13.8,0,0,1-5.6,4.6,17.2,17.2,0,0,1-7,1.4,22.7,22.7,0,0,1-7.5-1.2A17.9,17.9,0,0,1,40.4,66a16.1,16.1,0,0,1-3.9-5.7,20.6,20.6,0,0,1-1.4-7.6,19.7,19.7,0,0,1,1.4-7.5,15.6,15.6,0,0,1,3.9-5.8,16.2,16.2,0,0,1,5.9-3.6,20.4,20.4,0,0,1,7.5-1.3l3.1.3a10.9,10.9,0,0,1,3.1.8,12.4,12.4,0,0,1,3,1.6,9.4,9.4,0,0,1,2.5,2.4Z" fill="#231f20"/><path d="M70.8,35.4h7.7V63H92.6v7.1H70.8Z" fill="#231f20"/><path d="M96.8,35.4h7.6V70.1H96.8Z" fill="#231f20"/><path d="M134,44.4a7.1,7.1,0,0,0-2.7-2.1,9.2,9.2,0,0,0-3.8-.8,8.7,8.7,0,0,0-4,.9,9,9,0,0,0-3.2,2.3,10.7,10.7,0,0,0-2.1,3.6,12.3,12.3,0,0,0-.8,4.4,13.3,13.3,0,0,0,.8,4.5,10.2,10.2,0,0,0,2.1,3.5,10.3,10.3,0,0,0,3.1,2.4,10,10,0,0,0,3.8.8,8.2,8.2,0,0,0,4.2-1,8.6,8.6,0,0,0,3-2.7l6.4,4.7a13.8,13.8,0,0,1-5.6,4.6,17.2,17.2,0,0,1-7,1.4,22.7,22.7,0,0,1-7.5-1.2,17.9,17.9,0,0,1-5.9-3.7,16.1,16.1,0,0,1-3.9-5.7,20.6,20.6,0,0,1-1.4-7.6,19.7,19.7,0,0,1,1.4-7.5,15.6,15.6,0,0,1,3.9-5.8,16.2,16.2,0,0,1,5.9-3.6,20.4,20.4,0,0,1,7.5-1.3l3.1.3a11.8,11.8,0,0,1,3.1.8,14.6,14.6,0,0,1,3,1.6,9.4,9.4,0,0,1,2.5,2.4Z" fill="#231f20"/><path d="M145.2,35.4h7.7V49.8l13.4-14.4h10L160.9,51.5l16.8,18.6H167L152.9,53.6V70.1h-7.7Z" fill="#231f20"/><path d="M192.9,52.7a19.7,19.7,0,0,1,1.4-7.5,18.5,18.5,0,0,1,3.9-5.8,16.6,16.6,0,0,1,6-3.6,19.7,19.7,0,0,1,7.5-1.3,20.4,20.4,0,0,1,7.5,1.3,17.1,17.1,0,0,1,5.9,3.6,18.5,18.5,0,0,1,3.9,5.8,19.7,19.7,0,0,1,1.4,7.5,20.6,20.6,0,0,1-1.4,7.6,19.2,19.2,0,0,1-3.9,5.7,19,19,0,0,1-5.9,3.7,22.7,22.7,0,0,1-7.5,1.2,21.9,21.9,0,0,1-7.5-1.2,18.4,18.4,0,0,1-6-3.7,19.2,19.2,0,0,1-3.9-5.7A20.6,20.6,0,0,1,192.9,52.7Zm8,0a13.3,13.3,0,0,0,.7,4.5,10.4,10.4,0,0,0,2.2,3.5,11.6,11.6,0,0,0,3.4,2.4,12.5,12.5,0,0,0,4.5.8,12.3,12.3,0,0,0,4.4-.8,11.6,11.6,0,0,0,3.4-2.4,10.4,10.4,0,0,0,2.2-3.5,13.3,13.3,0,0,0,.7-4.5,12.3,12.3,0,0,0-.7-4.4,10.9,10.9,0,0,0-2.2-3.6,9.8,9.8,0,0,0-3.4-2.3,10.5,10.5,0,0,0-4.4-.9,10.6,10.6,0,0,0-4.5.9,9.8,9.8,0,0,0-3.4,2.3,10.9,10.9,0,0,0-2.2,3.6A12.3,12.3,0,0,0,200.9,52.7Z" fill="#231f20"/><path d="M235.6,35.4H246l14.7,24.1h.1V35.4h7.6V70.1h-9.9L243.3,45.4h-.1V70.1h-7.6Z" fill="#231f20"/><path d="M301.4,35.4h6.3l15.1,34.7h-8.6l-3-7.4H297.7l-2.8,7.4h-8.5Zm3,10.1-4.2,10.7h8.4Z" fill="#231f20"/><path d="M363.5,44.4a7.4,7.4,0,0,0-2.8-2.1,8.9,8.9,0,0,0-3.8-.8,9.3,9.3,0,0,0-4,.9,8.7,8.7,0,0,0-3.1,2.3,10.7,10.7,0,0,0-2.1,3.6,10.5,10.5,0,0,0-.8,4.4,11.2,11.2,0,0,0,.8,4.5,10.2,10.2,0,0,0,5.1,5.9,10.1,10.1,0,0,0,3.9.8,8.2,8.2,0,0,0,4.2-1,7.5,7.5,0,0,0,2.9-2.7l6.4,4.7a12.6,12.6,0,0,1-5.6,4.6,16.4,16.4,0,0,1-6.9,1.4,22.7,22.7,0,0,1-7.5-1.2,16.9,16.9,0,0,1-5.9-3.7,16.1,16.1,0,0,1-3.9-5.7,18.7,18.7,0,0,1-1.4-7.6,17.9,17.9,0,0,1,1.4-7.5,15.6,15.6,0,0,1,3.9-5.8,15.4,15.4,0,0,1,5.9-3.6,20.4,20.4,0,0,1,7.5-1.3,15.3,15.3,0,0,1,3,.3,12.5,12.5,0,0,1,3.2.8,11.8,11.8,0,0,1,2.9,1.6,9.8,9.8,0,0,1,2.6,2.4Z" fill="#231f20"/><path d="M385.8,35.4h6.3l15.1,34.7h-8.6l-3-7.4H382.1l-2.9,7.4h-8.4Zm2.9,10.1-4.2,10.7H393Z" fill="#231f20"/><path d="M412.9,42.1H403V35.4h27.4v6.7h-9.9v28h-7.6Z" fill="#231f20"/><path d="M455.5,42.1h-9.9V35.4h27.5v6.7h-9.9v28h-7.7Z" fill="#231f20"/><path d="M475.1,52.7a17.9,17.9,0,0,1,1.4-7.5,15.6,15.6,0,0,1,3.9-5.8,15.4,15.4,0,0,1,5.9-3.6,22.3,22.3,0,0,1,15,0,15.4,15.4,0,0,1,5.9,3.6,15.6,15.6,0,0,1,3.9,5.8,19.7,19.7,0,0,1,1.4,7.5,20.6,20.6,0,0,1-1.4,7.6,16.1,16.1,0,0,1-3.9,5.7,16.9,16.9,0,0,1-5.9,3.7,24,24,0,0,1-15,0,16.9,16.9,0,0,1-5.9-3.7,16.1,16.1,0,0,1-3.9-5.7A18.7,18.7,0,0,1,475.1,52.7Zm7.9,0a13.3,13.3,0,0,0,.8,4.5,9.1,9.1,0,0,0,2.2,3.5,9.5,9.5,0,0,0,3.4,2.4,12.5,12.5,0,0,0,8.8,0,9.5,9.5,0,0,0,3.4-2.4,9.1,9.1,0,0,0,2.2-3.5,13.3,13.3,0,0,0,.8-4.5,12.3,12.3,0,0,0-.8-4.4,9.5,9.5,0,0,0-2.2-3.6,8.2,8.2,0,0,0-3.4-2.3,11.2,11.2,0,0,0-8.8,0,8.2,8.2,0,0,0-3.4,2.3,9.5,9.5,0,0,0-2.2,3.6A12.3,12.3,0,0,0,483,52.7Z" fill="#231f20"/><path d="M37,86.4H48.5l8,22.6h.1l8.1-22.6H76.2v34.7H68.5V94.5h-.1l-9.1,26.6H53.5L44.7,94.5h-.1v26.6H37Z" fill="#231f20"/><path d="M83.5,86.4h23.6v7H91.2v6.5h15v7h-15V114H108v7.1H83.5Z" fill="#231f20"/><path d="M114.4,86.4H138v7H122v6.5h15.1v7H122V114h16.8v7.1H114.4Z" fill="#231f20"/><path d="M151.7,93.1h-9.9V86.4h27.4v6.7h-9.9v28h-7.6Z" fill="#231f20"/><path d="M194.3,93.1h-9.9V86.4h27.5v6.7H202v28h-7.7Z" fill="#231f20"/><path d="M215.7,86.4h7.7V99.3h14.8V86.4h7.7v34.7h-7.7v-15H223.4v15h-7.7Z" fill="#231f20"/><path d="M253.2,86.4h23.6v7H260.9v6.5h15v7h-15V114h16.8v7.1H253.2Z" fill="#231f20"/><path d="M283.8,86.4h11.5l8,22.6h.1l8.1-22.6H323v34.7h-7.7V94.5h-.1l-9.1,26.6h-5.8l-8.8-26.6h-.1v26.6h-7.6Z" fill="#231f20"/><path d="M332.9,116.8a4.7,4.7,0,0,1,.3-1.7,5.6,5.6,0,0,1,1-1.5,4.2,4.2,0,0,1,1.4-.9,4.2,4.2,0,0,1,3.6,0,4.2,4.2,0,0,1,1.4.9,5.6,5.6,0,0,1,1,1.5,4.7,4.7,0,0,1,.3,1.7,4.8,4.8,0,0,1-.3,1.8,7.8,7.8,0,0,1-1,1.5,4.2,4.2,0,0,1-1.4.9,4.2,4.2,0,0,1-3.6,0,4.2,4.2,0,0,1-1.4-.9,7.8,7.8,0,0,1-1-1.5A4.8,4.8,0,0,1,332.9,116.8Zm8.2-7.2h-7.4V86.4h7.4Z" fill="#231f20"/><path d="M37.6,140.9h9.5v2.9H40.8v2.8h5.9v2.9H40.8V155H37.6Z" fill="#b3b3b3"/><path d="M49.5,140.9h9.6v2.9H52.6v2.6h6.2v2.9H52.6v2.9h6.9V155h-10Z" fill="#b3b3b3"/><path d="M62.1,140.9h3.1v11.3H71V155H62.1Z" fill="#b3b3b3"/><path d="M72.7,140.9h3.1V155H72.7Z" fill="#b3b3b3"/><path d="M78.6,140.9h4.3l6,9.8h0v-9.8h3.2V155H88l-6.2-10h0v10H78.6Z" fill="#b3b3b3"/><path d="M95.1,140.9h9.6v2.9H98.2v2.6h6.1v2.9H98.2v2.9H105V155H95.1Z" fill="#b3b3b3"/><path d="M122.7,144.6a3.1,3.1,0,0,0-1.1-.9,4.1,4.1,0,0,0-1.6-.3,4.5,4.5,0,0,0-1.6.3l-1.3,1a3.9,3.9,0,0,0-.8,1.4,4.1,4.1,0,0,0-.4,1.9,5.8,5.8,0,0,0,1.2,3.2l1.3,1a4,4,0,0,0,1.5.3,2.9,2.9,0,0,0,1.7-.4,4.5,4.5,0,0,0,1.3-1.1l2.6,1.9a5.3,5.3,0,0,1-2.3,1.9,7.2,7.2,0,0,1-2.9.6,9.4,9.4,0,0,1-3-.5,8.2,8.2,0,0,1-2.4-1.5,6.7,6.7,0,0,1-1.6-2.4,7.3,7.3,0,0,1-.6-3,7.5,7.5,0,0,1,.6-3.1,7.8,7.8,0,0,1,1.6-2.4,8.2,8.2,0,0,1,2.4-1.5,9.4,9.4,0,0,1,3-.5h1.3l1.3.4,1.2.6a4.7,4.7,0,0,1,1,1Z" fill="#b3b3b3"/><path d="M131.8,140.9h2.6l6.2,14.1H137l-1.2-3h-5.5l-1.2,3h-3.4ZM133,145l-1.7,4.4h3.5Z" fill="#b3b3b3"/><path d="M142.1,140.9h9.5v2.9h-6.4v2.8h5.9v2.9h-5.9V155h-3.1Z" fill="#b3b3b3"/><path d="M154,140.9h9.6v2.9h-6.5v2.6h6.1v2.9h-6.1v2.9h6.8V155H154Zm4.7-3.9h4.1l-3.5,2.8h-2.6Z" fill="#b3b3b3"/><path d="M166.8,151.8h2.9l-1.8,5.6h-2.6Z" fill="#b3b3b3"/><path d="M177.5,148a7.5,7.5,0,0,1,.6-3.1,7.8,7.8,0,0,1,1.6-2.4,9.7,9.7,0,0,1,2.4-1.5,10.1,10.1,0,0,1,3.1-.5,9.4,9.4,0,0,1,3,.5,7,7,0,0,1,2.4,1.5,6.3,6.3,0,0,1,1.6,2.4,7.5,7.5,0,0,1,.6,3.1,7.3,7.3,0,0,1-.6,3,5.6,5.6,0,0,1-1.6,2.4,7,7,0,0,1-2.4,1.5,9.4,9.4,0,0,1-3,.5,10.1,10.1,0,0,1-3.1-.5,9.7,9.7,0,0,1-2.4-1.5,6.7,6.7,0,0,1-1.6-2.4A7.3,7.3,0,0,1,177.5,148Zm3.3,0a5.7,5.7,0,0,0,.3,1.8,4.2,4.2,0,0,0,.9,1.4,5,5,0,0,0,1.4,1,4.8,4.8,0,0,0,1.8.3,5.7,5.7,0,0,0,1.8-.3,7.1,7.1,0,0,0,1.4-1,6.7,6.7,0,0,0,.9-1.4,5.7,5.7,0,0,0,.3-1.8,5.8,5.8,0,0,0-.3-1.9,6.7,6.7,0,0,0-.9-1.4,7.1,7.1,0,0,0-1.4-1l-1.8-.3a4.8,4.8,0,0,0-1.8.3,5,5,0,0,0-1.4,1,4.2,4.2,0,0,0-.9,1.4A5.8,5.8,0,0,0,180.8,148Z" fill="#b3b3b3"/><path d="M197.7,143.6h-4.1v-2.7h11.2v2.7h-4V155h-3.1Z" fill="#b3b3b3"/><path d="M209.1,143.6h-4v-2.7h11.2v2.7h-4V155h-3.2Z" fill="#b3b3b3"/><path d="M220.7,140.9h2.6l6.1,14.1h-3.5l-1.2-3h-5.5l-1.2,3h-3.4Zm1.2,4.1-1.7,4.4h3.4Z" fill="#b3b3b3"/><path d="M228.9,140.9h3.4l2.2,9.1h.1l2.9-9.1h2.9l3,9.3h0l2.4-9.3H249L244.8,155H242l-3.1-9.8h0l-3.1,9.8h-2.7Z" fill="#b3b3b3"/><path d="M254.5,140.9h2.6l6.2,14.1h-3.6l-1.2-3H253l-1.2,3h-3.4Zm1.2,4.1-1.7,4.4h3.5Z" fill="#b3b3b3"/><rect x="739.3" y="61" width="329.1" height="8.16" fill="#b3b3b3"/><polygon points="1083.5 63.5 716.8 63.5 716 42.2 1087.3 40.9 1083.5 63.5" fill="#cccbca"/><polygon points="716.8 44.7 715.8 386.7 738.6 385.8 738.6 59 716.8 44.7" fill="#e5e5e5"/><polygon points="1087.3 40.9 1086.3 386.7 1061.6 386.7 1065.4 63.7 1087.3 40.9" fill="#e5e5e5"/><polygon points="910.6 83 886.8 82 884.9 368.7 912.5 368.7 910.6 83" fill="#e5e5e5"/><rect x="744.6" y="69.4" width="314.2" height="17.1" fill="#e5e5e5"/><rect x="715.6" y="365.2" width="370.3" height="21.54" fill="#e5e5e5"/><polygon points="738.6 59 758.6 87.5 757.6 365.8 738.6 385.8 738.6 59" fill="#cccbca"/><rect x="754.8" y="85.6" width="131.1" height="5.44" fill="#b3b3b3"/><rect x="911.5" y="85.6" width="131.1" height="5.44" fill="#b3b3b3"/><rect x="702.5" y="387.7" width="388.5" height="9.5" fill="#f9f9fa"/><rect x="702.5" y="396.2" width="388.5" height="5.17" fill="#b3b3b3"/><rect x="702.5" y="387.4" width="388.5" height="2.58" fill="#b3b3b3"/><polygon points="1061.6 386.7 1065.4 63.7 1039.8 89.4 1038.8 365.8 1061.6 386.7" fill="#cccbca"/><rect x="817.6" y="86.1" width="3.5" height="278.46" fill="#dcdbdb"/><rect x="973.7" y="86.1" width="3.5" height="278.46" fill="#dcdbdb"/><rect x="755.9" y="153.7" width="130.6" height="3.29" fill="#dcdbdb"/><rect x="755.9" y="226.5" width="130.6" height="3.29" fill="#dcdbdb"/><rect x="755.9" y="297.9" width="130.6" height="3.29" fill="#dcdbdb"/><rect x="909.5" y="153.7" width="130.6" height="3.29" fill="#dcdbdb"/><rect x="909.5" y="226.5" width="130.6" height="3.29" fill="#dcdbdb"/><rect x="909.5" y="297.9" width="130.6" height="3.29" fill="#dcdbdb"/><polygon points="711.7 401.5 717 414.4 1078.6 415.1 1083.1 402.3 711.7 401.5" fill="#dcdbdb"/><rect x="891.7" y="68.8" width="13.2" height="299.22" fill="#f0efef"/><line x1="967.3" y1="464.2" x2="967.3" y2="533.4" fill="none" stroke="#968659" stroke-miterlimit="10" stroke-width="5"/><rect x="910.9" y="458.9" width="26.5" height="140.91" fill="#ead9a0"/><rect x="930" y="458.7" width="8" height="140.91" fill="#ccbb8b"/><rect x="856.2" y="442.2" width="137.5" height="24.15" fill="#ead9a0"/><rect x="862.8" y="575.4" width="122.8" height="115.1" fill="#ead9a0"/><circle cx="924.2" cy="635.6" r="38.4" fill="#ccbb8b"/><rect x="856.2" y="458.7" width="137.5" height="7.6" fill="#ccbb8b"/><rect x="830.8" y="681.8" width="182.3" height="8.07" fill="#ccbb8b"/><circle cx="966.7" cy="542.2" r="10.6" fill="#ead9a0"/><path d="M266.2,554.9s26.5-1.9,25.9-20.1l15,16s-34.9,14.3-39.7,13.4S259.8,558.1,266.2,554.9Z" fill="#231f20"/><path d="M331.4,558s-14.1-12.2-23.4-4.6l3-45.8,13.9,5.1Z" fill="#9f9e9f"/><path d="M288,475.8c7.8,2.5,39.3,3.2,39.9-19.4.6-20.8,9.7-23.7,9.7-23.7L318.3,437s-17.2-8.6-30.2-4.3l-8.6-11.8s4.3,15.8,1.1,22.6C274.8,455.8,281.6,473.6,288,475.8Z" fill="#231f20"/><path d="M289.7,457.7c1,1,2.3,2.2,2.2,4.1,0,0,2.6-3.1,4.9-2.4Z" fill="#f2bac6"/><path d="M305.5,454.4a5.3,5.3,0,0,1,2-1.6,4.6,4.6,0,0,1,2.6-.2,3.7,3.7,0,0,1,2.4,1.4,6.7,6.7,0,0,1,.6,1.2,5,5,0,0,1,.2,1.2l-.9-.8a4.7,4.7,0,0,0-.9-.6,5.3,5.3,0,0,0-1.7-.8A16.4,16.4,0,0,0,305.5,454.4Z" fill="#fff"/><path d="M282.7,451a4.1,4.1,0,0,1,1.4-2,3.9,3.9,0,0,1,2.5-1,3.7,3.7,0,0,1,2.7.7,7.6,7.6,0,0,1,.9.9l.6,1.1-1.1-.4a2.5,2.5,0,0,0-1.1-.4,3.7,3.7,0,0,0-1.8-.2A14.8,14.8,0,0,0,282.7,451Z" fill="#fff"/><path d="M296,467.4a7.5,7.5,0,0,1-1.5,0,3.4,3.4,0,0,1-1.5-.6,4.1,4.1,0,0,1-1.1-1.2,7.5,7.5,0,0,1-.5-1.6l.8.2a6.8,6.8,0,0,1-1.2,1.2,4.4,4.4,0,0,1-1.6.6,2.3,2.3,0,0,1-1.6-.3,2.9,2.9,0,0,1-1.2-1,3.8,3.8,0,0,0,1.3.6,1.7,1.7,0,0,0,1.4,0,3.4,3.4,0,0,0,1.2-.6,3.2,3.2,0,0,0,1-1l.7-.8V464a5.3,5.3,0,0,0,.3,1.2,4.4,4.4,0,0,0,.8,1.1,3.5,3.5,0,0,0,1.2.7Z" fill="#fff"/><path d="M320.5,468.1s3.5,12.4,11.2,19.8,47.8,30.9,30.2,75.3c0,0-41.8,12.9-44.4,9.4s3.5-9.4,18.1-12.4c0,0-14.6-3.5-12.5-18.5,0,0-1.3-22.9-7.7-28s-4.3,48.6-4.3,48.6,2.6,8.2-6,7.3-6.9-5.6-3.9-9c0,0,2.1-48.6,0-55.1s-10.8-3.9-11.2,7.8.8,49.4.8,49.4.5,4.8-5.1,5.2-7.3-2.6-4.3-7.3c0,0-3.5-80.1,7.7-86.9" fill="#231f20"/><path d="M301.5,551.1s-12.9-9.7-11.5-35.2a76.3,76.3,0,0,0-.5-9s.8.2,1.2,1.5-1.6-6,0-9.8a4.3,4.3,0,0,0,1.2,3.2s1-8.4,2.5-11.7a16.6,16.6,0,0,0,1.6,8.2s1.4-1.5,1.2-2.8,1.2,2.7.7,4.5c0,0,2.6-1.2,2.8-2.9,0,0-.4,7.9,2,5.8a14.6,14.6,0,0,0,3.4-4.6s-2.7,8.5-4,10.6C302.1,508.9,302,545.6,301.5,551.1Z" fill="#9f9e9f"/><path d="M757.3,359.7s-17,.4-12.5-29.6c5.2-34.2,21.2-25.5,16.5-52.8s-29-19.9-34.1-5.5,3.3,24.1,7.9,17.1-.1-17,3.7-19.9c8.1-6.2,15.3,9.7,13,20.4s-18.6,20.8-16.2,51.4,20.8,25.4,20.8,25.4Z" fill="#d1883d"/><path d="M751.9,308.4s-5.4-3-6.5-7l-3.5,5.9s0,.8,3.5,2.7v-2.4s.8,2.1,4.3,4.3Z" fill="#78643a"/><path d="M756.4,300.6s-4.8-.8-7.5-3.8l1.6-3.2,5.7,1.3-3.3.6s9.3-1.5,7,.8A44.4,44.4,0,0,0,756.4,300.6Z" fill="#78643a"/><path d="M761.9,282.6l-10,.5s-.3-6.5-1.4-7.5l4.9-.8-1.4,1.3s4,1.6,6.2-2.9C760.2,273.2,762.7,280.9,761.9,282.6Z" fill="#78643a"/><path d="M851.8,374.5s-26-1.8-25.3-19.7l-14.8,15.7s34.2,14.1,38.9,13.1S858.1,377.7,851.8,374.5Z" fill="#a9732a"/><path d="M787.9,377.6s13.8-12,22.9-4.6l-2.9-44.9-13.6,5Z" fill="#e39e66"/><path d="M830.4,297c-7.6,2.5-38.5,3.1-39.1-19-.5-20.4-9.5-23.2-9.5-23.2l19,4.2s16.8-8.4,29.5-4.2l8.4-11.6s-4.2,15.5-1,22.1C843.4,277.4,836.7,294.8,830.4,297Z" fill="#d1883d"/><path d="M828.8,279.3c-1,.9-2.3,2.1-2.2,4,0,0-2.6-3.1-4.8-2.4Z" fill="#78643a"/><path d="M813.3,276a12,12,0,0,0-4.2-.1,3.6,3.6,0,0,0-1.7.7,4.7,4.7,0,0,0-.9.6l-.9.8a5,5,0,0,1,.2-1.2,3.7,3.7,0,0,1,.7-1.2,3.7,3.7,0,0,1,2.2-1.4,3.9,3.9,0,0,1,2.6.3A4.3,4.3,0,0,1,813.3,276Z" fill="#5b4735"/><path d="M835.6,272.7a11.6,11.6,0,0,0-4-1.3,3.7,3.7,0,0,0-1.8.2l-1,.3-1.1.5a6,6,0,0,1,.6-1.1c.3-.3.5-.7.9-.9a3.9,3.9,0,0,1,2.6-.7,4.7,4.7,0,0,1,2.4,1A3.5,3.5,0,0,1,835.6,272.7Z" fill="#5b4735"/><path d="M822.6,288.7l1.4-.3,1.1-.7a4.4,4.4,0,0,0,.8-1.1,5.3,5.3,0,0,0,.3-1.2v-1.1l.7.9a4.5,4.5,0,0,0,1,.9,2.3,2.3,0,0,0,1.2.6,1.5,1.5,0,0,0,1.3,0,3.1,3.1,0,0,0,1.3-.6,2.9,2.9,0,0,1-1.2,1,2.1,2.1,0,0,1-1.6.3,4.7,4.7,0,0,1-1.5-.6,6.3,6.3,0,0,1-1.2-1.1l.8-.3a7.5,7.5,0,0,1-.5,1.6,4.1,4.1,0,0,1-1.1,1.2,3.5,3.5,0,0,1-1.4.6Z" fill="#5b4735"/><path d="M798.5,289.4s-3.3,12.2-10.9,19.4-46.9,30.4-29.6,73.8c0,0,41,12.7,43.5,9.3s-3.4-9.3-17.7-12.2c0,0,14.3-3.4,12.2-18.2,0,0,1.3-22.3,7.6-27.4s4.2,47.7,4.2,47.7-2.5,8,5.9,7.2,6.8-5.5,3.8-8.9c0,0-2.1-47.7,0-54s10.6-3.8,11,7.6-.9,48.5-.9,48.5-.4,4.7,5.1,5.1,7.2-2.6,4.2-7.2c0,0,3.4-78.5-7.6-85.2" fill="#d1883d"/><path d="M817.2,370.8s12.7-9.6,11.3-34.5a72.7,72.7,0,0,1,.5-8.8s-.8.1-1.3,1.4,1.7-5.8,0-9.6a4,4,0,0,1-1.1,3.2s-1-8.2-2.5-11.5a15.6,15.6,0,0,1-1.5,8.1s-1.4-1.5-1.2-2.8-1.1,2.7-.7,4.4c0,0-2.6-1.1-2.7-2.8,0,0,.4,7.7-2,5.6a16.1,16.1,0,0,1-3.4-4.4s2.7,8.3,4,10.3C816.6,329.4,816.7,365.4,817.2,370.8Z" fill="#e39e66"/><path d="M823.4,253.8a19.1,19.1,0,0,1,2.6,7s-3.8-6-6.7-7.2Z" fill="#78643a"/><path d="M809,255.5a20.3,20.3,0,0,1,2.7,7s-2.3-4.6-5.2-5.8A5.7,5.7,0,0,1,809,255.5Z" fill="#78643a"/><path d="M816.9,253.8s3.8,6.4,4.5,10.4c0,0-6-8.1-8.9-9.3A25,25,0,0,1,816.9,253.8Z" fill="#78643a"/><path d="M798.1,291.8l2.8,1.8s-4.4,16.9-14,26.5c0,0,3.4-7.5,3.9-9.8l-1.8,1.1a32.3,32.3,0,0,0,4.3-9.7S797.8,295.5,798.1,291.8Z" fill="#78643a"/><path d="M777.2,317.3l5.5-3.9s-4.5,15.7-14.1,25.2c0,0,3.4-7.5,3.9-9.7l-1.8,1.1a32.3,32.3,0,0,0,4.3-9.7A9,9,0,0,1,777.2,317.3Z" fill="#78643a"/><path d="M358.7,536.7s15.6.3,11.4-27c-4.7-31.2-19.2-23.3-15-48.2s26.4-18,31.1-5-3,22-7.2,15.7.1-15.5-3.4-18.2c-7.3-5.6-13.9,8.9-11.8,18.6s16.9,19,14.8,46.8-19,23.2-19,23.2Z" fill="#231f20"/><path d="M1033.1,638.8s-12.3-9.2-10.9-33.2a70,70,0,0,0-.5-8.6s.7.2,1.2,1.5-1.6-5.7,0-9.3a4,4,0,0,0,1.1,3s.9-7.8,2.4-11a15,15,0,0,0,1.4,7.8s1.4-1.5,1.2-2.7,1.1,2.6.6,4.3c0,0,2.5-1.2,2.6-2.7,0,0-.3,7.4,2,5.4a15.6,15.6,0,0,0,3.2-4.3s-2.6,8-3.8,9.9C1033.6,598.9,1033.6,633.5,1033.1,638.8Z" fill="#8e8e8e"/><path d="M1041.1,693.1s-16.4-52.5-17-69.7l25.3,12.9s6.6,63.4-7.1,65.6C1037.8,702.6,1035.1,696.2,1041.1,693.1Z" fill="#bab9b9"/><path d="M1067.1,658.5s-37-22.6-45.9-47.8l20.8-13,13.1,4.8Z" fill="#8e8e8e"/><path d="M1020.3,567.7c7.3,2.4,37.1,3,37.7-18.3.5-19.7,9.1-22.4,9.1-22.4l-18.2,4.1s-16.3-8.1-28.5-4.1l-8.1-11.1s4.1,14.9,1,21.3C1007.8,548.9,1014.2,565.6,1020.3,567.7Z" fill="#bab9b9"/><path d="M1021.9,550.6a5.6,5.6,0,0,1,2.1,3.9s2.4-2.9,4.6-2.3Z" fill="#b7798a"/><path d="M1036.8,547.5a4.2,4.2,0,0,1,1.8-1.7,4.1,4.1,0,0,1,2.7-.3,3.3,3.3,0,0,1,2.3,1.5,5.4,5.4,0,0,1,.5,1.1,6.2,6.2,0,0,1,.1,1.3l-1-.7-.9-.5a4.7,4.7,0,0,0-1.5-.6A24.2,24.2,0,0,0,1036.8,547.5Z" fill="#2d1a1f"/><path d="M1015.3,544.3a3.8,3.8,0,0,1,1.2-2.1,4.4,4.4,0,0,1,2.5-1.1,3.5,3.5,0,0,1,2.6.8c.4.2.6.6.9,1a3.6,3.6,0,0,1,.4,1.1,3.5,3.5,0,0,1-1.1-.3l-1-.3h-1.7A21.7,21.7,0,0,0,1015.3,544.3Z" fill="#2d1a1f"/><path d="M1027.8,559.7h-1.4a3.5,3.5,0,0,1-1.4-.6,4,4,0,0,1-1-1.2,3.3,3.3,0,0,1-.4-1.4l.7.2a6.3,6.3,0,0,1-1.2,1.1,3.3,3.3,0,0,1-1.5.5,2.6,2.6,0,0,1-1.5-.2,2.9,2.9,0,0,1-1.2-1l1.3.6a2.8,2.8,0,0,0,1.3,0,3.4,3.4,0,0,0,1.2-.6,3.8,3.8,0,0,0,.9-.9l.7-.8v1a2.7,2.7,0,0,0,.3,1.2,3.6,3.6,0,0,0,.7,1,4.1,4.1,0,0,0,1.1.7A6.1,6.1,0,0,0,1027.8,559.7Z" fill="#2d1a1f"/><path d="M1022.2,603.1c21.2,17.1,8.4-16.5,10.4-10.4S992.3,613,992.3,613c-6.3-1.5-11.8,8.4-3.7,9.2s10.7-2.9,10.7-2.9,40.7-17.4,46.8-12.5,7.4,23.1,7.4,23.1c-1,6.6,1.6,13.9,4.6,19.8a81.4,81.4,0,0,1,9.1,37.1c0,12.6-1.7,12,2.2,12.5s20.6-49.1,20.6-49.1c16.7-41.9-21.1-64.2-28.4-71.1s-10.6-18.7-10.6-18.7l-32.3,5.6S1004.1,588.5,1022.2,603.1Z" fill="#bab9b9"/><path d="M1089.9,621.7s15.9.3,11.6-27.7c-4.8-32-19.7-23.9-15.4-49.4s27.1-18.5,31.9-5.1-3.1,22.5-7.4,16,.1-15.8-3.4-18.6c-7.6-5.8-14.3,9.1-12.1,19s17.2,19.5,15.1,48-19.5,23.8-19.5,23.8Z" fill="#bab9b9"/><path d="M1023.2,599.5s-4.2-6.3-2.6-13.1,2.2,1.2,2.2,1.2a23.1,23.1,0,0,1,1.5-12s-.1,8.3,1.7,10.8l1.4-5.6.7,3.5,2.5-2.2S1034.9,595.3,1023.2,599.5Z" fill="#8e8e8e"/></svg>