<svg id="mountains" xmlns="http://www.w3.org/2000/svg" width="1919" height="2458" viewBox="0 0 1919 2458"><title>mountain</title><path d="M887.2,442.9q-9.5.8-18.9.6Z" fill="#d3dce5"/><path d="M131.4,421.9c-13.1,9.2-23.4,17-23.4,17s-33,0-36-12c-1.2-5-31.7-4.8-70.8,3.3V416.1Z" fill="#d3dce5"/><path d="M649,368.7c-29.7-1.6-50.6,16.7-92,31.2-23.3,8.2-40.6,23.6-55,38.4-22.5,23.1-37.8,44.6-58,33.6-17.1-9.3-52.6-25.2-83.6-39.9-28.7-13.6-53.5-26.3-56.4-32.1-6-12-21-21-21-21s-84,9-104,15c-11,3.3-31.5,16.7-47.6,28L1.2,416.1,1,362.6c19.1-20.8,51.4-56.3,65-72.7,20-24,36-18,60-24s27-47,71-71,146,56,176,48,104,53,124,50,27,27,57,24C574,314.9,613.4,344.3,649,368.7Z" fill="#d3dce5" opacity="0.5"/><path d="M1740,393.9c-9.9,8.9-20.3,17.1-29.8,24.2-19.4,14.4-35.2,23.8-35.2,23.8l-27,56a47.1,47.1,0,0,1-42-24c-15-26-26-41-62-41s-83-3-83-3a45.1,45.1,0,0,0-5.1-4.2c-5.9-4.1-16.3-9.7-27.9-7.8-4.9.8-9.3,4.4-13.3,9.1-10.7,12.4-19.4,32.9-31.7,32.9s-33.9-19.9-53.4-30.3c-8.8-4.8-17.1-7.5-23.6-5.7-21,6-53-48-65-36-8.8,8.8-13.3,33.7-30,45.2-6.1,4.2-13.8,6.6-24,5.8-38-3-78,6-119,12-29.1,4.3-70.2-6.5-115.2-10-18.5-1.4-37.6-1.6-56.8,1l-8.8,1q-9.5.8-18.9.6c-47.5-1-96.2-19.7-142.2-43.1-9.9-5-19.6-10.2-29.1-15.5-19.5-10.8-34.6-15.5-48-16.2-29.7-1.6-50.6,16.7-92,31.2-23.3,8.2-40.6,23.6-55,38.4-22.5,23.1-37.8,44.6-58,33.6-17.1-9.3-52.6-25.2-83.6-39.9-28.7-13.6-53.5-26.3-56.4-32.1-6-12-21-21-21-21s-84,9-104,15c-11,3.3-31.5,16.7-47.6,28-13.1,9.2-23.4,17-23.4,17s-33,0-36-12c-1.2-5-31.7-4.8-70.8,3.3L-.2,571.1l2.8,642.8H1917V392.7C1850.1,384.6,1758.6,377.2,1740,393.9Z" fill="#b0c6d1" opacity="0.5"/><path d="M1165,819.4v53.7l-.2-53.5C1164.9,819.6,1164.9,819.5,1165,819.4Z" fill="#abb8c4" opacity="0.5"/><path d="M1919,837.9v425H0v-425H1.1a3.1,3.1,0,0,1-1-.5c30.4-2.4,33.1-18.7,39.9-.5a10.4,10.4,0,0,0,.4,1c10.5,23.3,76.9,31.8,97.6,14s89-9,107-9c3.8,0,8-1.9,12.4-5,16.5-11.5,36.7-39.9,55.6-51,24-14,21,5,72-18s89,0,113,6,65-42,71-60,24,3,39-9,65,9,136,6,66-35,128-59,69,18,107,18,42,17,69,50,68,36,95,24a104.4,104.4,0,0,1,22-6.9v.4c-.1.1-.1.2-.2.2l.2-1.5v1.3c19.2-20.9,51.2-56.2,64.8-72.5,20-24,36-18,60-24s27-47,71-71,146,56,176,48,104,53,124,50,27,27,57,24c19.6-1.9,162.4,26.4,201.2,50.5v94.5Z" fill="#b2c3ce"/><path d="M887.2,442.9l-18.9.6Q877.8,443.7,887.2,442.9Z" fill="none"/><path d="M726.1,400.4c30.4-2.4,59.1-18.7,65.9-.5,9,24,77,33,98,15s89-9,107-9,44-42,68-56,21,5,72-18,89,0,113,6,65-42,71-60,24,3,39-9,65,9,136,6,66-35,128-59,69,18,107,18,42,17,69,50,68,36,95,24a104.4,104.4,0,0,1,22-6.9V232.5c-7.2.9-15.8,2.3-25,4.4-26,6-51-12-72-33s-124-21-148-39-24-29-54-29-107-12-151-15-15,18-36,21-6,23-57,35-148,18-184,9-107,36-128,36-89,21-119,33-148-12-181-33.2-102-50.8-124-57.8-84-34-129-55-83-74-130-39C335.5,102.3,43.3,192.2.3,205.3L1,362.6c19.1-20.8,51.4-56.3,65-72.7,20-24,36-18,60-24s27-47,71-71,146,56,176,48,104,53,124,50,27,27,57,24c20-2,59.4,27.4,95,51.8,13.4.7,28.5,5.4,48,16.2C706.5,390.2,716.2,395.4,726.1,400.4Z" fill="#edf1f4" opacity="0.5"/><path d="M1895,307.9c-27,12-68,9-95-24s-31-50-69-50-45-42-107-18-57,56-128,59-121-18-136-6-33-9-39,9-47,66-71,60-62-29-113-6-48,4-72,18-50,56-68,56-86-9-107,9-89,9-98-15c-6.8-18.2-35.5-1.9-65.9.5,46,23.4,94.7,42.1,142.2,43.1l18.9-.6,8.8-1c19.2-2.6,38.3-2.4,56.8-1,45,3.5,86.1,14.3,115.2,10,41-6,81-15,119-12,10.2.8,17.9-1.6,24-5.8,16.7-11.5,21.2-36.4,30-45.2,12-12,44,42,65,36,6.5-1.8,14.8.9,23.6,5.7,19.5,10.4,41.7,30.3,53.4,30.3s21-20.5,31.7-32.9c4-4.7,8.4-8.3,13.3-9.1,11.6-1.9,22,3.7,27.9,7.8a45.1,45.1,0,0,1,5.1,4.2s47,3,83,3,47,15,62,41a47.1,47.1,0,0,0,42,24l27-56s15.8-9.4,35.2-23.8c9.5-7.1,19.9-15.3,29.8-24.2,18.6-16.7,110.1-9.3,177-1.2V301A104.4,104.4,0,0,0,1895,307.9Z" fill="#d3dce5" opacity="0.5"/><path d="M1165,819.4v53.7l-.2-53.5C1164.9,819.6,1164.9,819.5,1165,819.4Z" fill="#abb8c4" opacity="0.5"/><rect x="12" y="1272" width="1907" height="1193" fill="#fff"/></svg>