<svg height="1692" viewBox="0 0 1904 1692" width="1904" xmlns="http://www.w3.org/2000/svg"><path d="m-10.6 855v-858l1920-2-4 502.4c12.8 3 13.6 4.7 13.6 4.7l-8 421s-619-88-996 162-917 202-917 202l-3.1-432.1z" fill="#1e3058"/><path d="m1927 954.1s-81.8 105-257.1 91-478.6-126-851.2-112-838.7 147-838.7 147l20.2-330s635.5-183 1047.7-21 791.5 189 879.1 105z" fill="#d3dce5" opacity=".5"/><path d="m-11 1293.1s540 48 917-202 996-162 996-162l8-421s-719-185-1197 17-729 66-729 66z" fill="#edf1f4" opacity=".5"/><path d="m1693.5 1180.8 5.5 1.5a8.4 8.4 0 0 0 -4.7-1.4z" fill="#aad1c7" stroke="#aad1c7" stroke-miterlimit="10" stroke-width="7.63"/><path d="m1681 1177.7a32.9 32.9 0 0 0 12.5 3.1z" fill="#aad1c7" stroke="#aad1c7" stroke-miterlimit="10" stroke-width="7.63"/><path d="m-21.4 474.9c63.3 82.7 312.8 74.7 666.6 421.8 72.9 71.6 305.4 131.6 388 125.3s105.5 11.8 115.6 26.2 24.4 34.1 44.1 25.2-17-41.3 27.1-29.3 67.5 77.1 85.6 103.8 28.1 34.5 43 31.9 10.1-21.7 3.4-27.4-11.4-16-1.9-25.7 25.3 6 25.3 6v-.7l.2.2 20.4 21.1 11.1-3.2-.3.2c-1.5 1-3.6 1.3-5.5 1.9l-5.4 1.2a24.5 24.5 0 0 0 10.5 13.8 27.1 27.1 0 0 0 7.9 3.7 23.5 23.5 0 0 0 1.7 5.1c2.4 5.8 4.9 11.4 7.3 17.1h.4c1.7 8.9 11.1 47 49.1 37.7 42.9-10.5 11.6-40.1 11.6-40.1h-1.3a59.4 59.4 0 0 0 -8.2-7.7c-8-6.4-16.4-10.6-25.8-11.3-7.3-.6-14.1-4.2-20.7-8.2.8-1.1 1.7-2.2 2.5-3.4 7.7-10.4 18.1-14.7 30.7-14a63.7 63.7 0 0 1 25.4 7.1c13.6 6.8 26.1 15.3 38.7 23.7 5.3 3.6 10.7 7 16.2 10.4h.7c40.6 42.5 135.7 78.2 181.1 25.8 15.5-18-24.4-30.8-24.4-30.8h-.3l-5.5-1.5a32.9 32.9 0 0 1 -12.5-3.1 35 35 0 0 1 -4.9-2.9c-4.6-3.3-6.3-7.8-5.8-13.2s5.7-9.6 11.3-10.9c10.2-2.3 19.5-.1 29 3.8 13.7 5.5 24.2 14.7 33.3 26a28.6 28.6 0 0 1 3.5 4.3h-.1s-5.6 46 11.6 48.9c22 3.7 55.7-13.5 20.7-49h.1l-10.8-13.4a21 21 0 0 0 -4.4-4c-1.3-1.1-2.9-1.7-3.5-3.8s-2.3-2.7-3.9-3.5c-11-5.8-22.5-10.3-34.9-12.2-3.6-.6-7-2.8-10.4-4.5a3.3 3.3 0 0 1 -1.8-1.9c-2.1-7.1-5.3-14.1-.7-21.4a33.5 33.5 0 0 0 2.3-5.5c1.4-3.8 1.2-7.6-1.3-10.8-5.4-7.2-11.8-12.4-21.3-13.6a63.7 63.7 0 0 0 -19.5.1c-2.5.5-5 .5-7.5.9-6.9 1.2-11.7-3.1-16.4-6.7-2.1-1.6-3.1-5.3-3.6-8.3-1-6.3-1.5-10.3 5.5-14.5 5.3-3 10-9.3 14.9-13.1a70.7 70.7 0 0 0 7.8-6.7c9.7-9.8 6.9-23.7-4.6-29.3a25.6 25.6 0 0 0 -15.2-2.6c-4 .5-8-.4-11.9.2s-7.9 3.3-11.7 5.1a87.1 87.1 0 0 1 -17.5 5.6c-5.1 1.2-10.3.2-15.5-1a24.2 24.2 0 0 0 -15 1c-1.5.6-3 1.1-4.5 1.8-9.6 4.6-19.1 2.9-28.6-.2-4.8-1.6-7.9-5.5-11.4-9-8.8-8.8-12.6-19.1-14.9-31.4-.8-4.1-3.6-8.2-4.5-12.2a31.8 31.8 0 0 0 -6.8-13.9c-10.7-12.9-25.1-20.4-39.6-27.7-4.8-2.4-10.2-3.5-15.4-5-1.8-.5-3.8-.3-6.3-.5s-94.3-32-192.8-48c-17.7-2.9-28-.6-32.8 5.2l-85.5 13.2-207.1-8.3-117.3-98.1-126.4-155-142.1-49.2-530-175.9zm1627.2 568.5c-5.1 13.3-17.3 20.5-32 19-3.8-9.7-1.9-14.9 8.1-21.8 7.5-5.3 15.9-4.3 23.9 2.8zm33.3-16.9c2.2-1.2 5.4-.1 8.2 0-.2 3 .6 6.7-.6 9.1-3.1 6.2-8.5 9.2-16.3 10.3-.5-9.8 2.2-15.9 8.7-19.4zm-85.5 55.1c1.4-1.7 4.4-2.5 6.9-2.8 7-.7 14.1-1.2 21.2-1.4s11.7-1.6 16.1-6.6c6.8-7.7 17.2-12.2 20.1-24.3 8.6 2.5 11.6 8 11.1 14.7-1.4 18.2-6.9 35.1-15.7 51.1-5.6 10.2-14.5 12.7-24.7 11.4-14.4-1.7-25.9-9.4-35.4-20.1-4.5-5.1-4.2-16.7.4-22z" fill="#ee7953"/><path d="m1857.9 1093.6-24.4 15.2c-7.7 4.9-18.5 5.9-23.8.9-7.5-7-9.1-24-.3-31.3s24-16.3 35.6-21.8c6.4-3 15.7 3.6 23.2 4.8 5.8.9 9.9 5.3 9.3 13-.9 11.4-6.3 18.1-19.6 19.2z" fill="#ee7953"/><path d="m1791.8 1058.7c0 7.2.8 13.2 0 19-1.8 14.4-9.1 26.6-17.7 37.8-5.2 6.8-20.6 10.9-27.6 8.5s-17-14.1-17.1-23.5c-.2-28.4 32.3-50 62.4-41.8z" fill="#ee7953"/><path d="m1594.3 991.9c-11.8.5-21-6.6-31.1-11.3-12.2-5.8-19.9-16-26.1-27.4-3.6-6.6-1.8-13.6.5-19.9.9-2.5 6.2-4.8 9.7-5 8.7-.4 17.2.2 24.6 6.8s18.9 14.9 28.3 22.4c5.2 4.2 9.6 9 11.6 15.6 1.2 3.8.8 7.3-1.8 10.1-4.2 4.4-7.9 10.2-15.7 8.7z" fill="#ee7953"/><path d="m1806.1 1179.2c-4.6-1.3-8.8-2.2-12.7-3.9h11.9c.2 1 .4 2.3.8 3.9z" fill="#fff"/><circle cx="1581.1" cy="1211.8" fill="#8adaed" opacity=".44" r="24.5"/><circle cx="1539.2" cy="1151.1" fill="#fff" opacity=".59" r="16.4"/><circle cx="1741.1" cy="1158.7" fill="#fff" opacity=".44" r="24.5"/><circle cx="1710.2" cy="1249.8" fill="#8adaed" opacity=".44" r="29.9"/><circle cx="1831.6" cy="1138.3" fill="#8adaed" opacity=".44" r="25"/><circle cx="1794.6" cy="1179.4" fill="#c1cfd3" opacity=".44" r="16.4"/><circle cx="1769.2" cy="1103.5" fill="#fff" opacity=".59" r="16.4"/><circle cx="1673.3" cy="1211" fill="#fff" opacity=".59" r="16.4"/><path d="m-49.2 381.4s393.8 69.1 656.4 228l-79.2 177.6s-379.8-256.9-590.3-298.6z" fill="#ee7953"/><path d="m1085.8 497.6c-26.3 22.1-52.8 41.6-81.9 58.2-15 11.2-34.1 16.3-41.6 34.2-11.6 29.6-10.6 58.8-20.2 88.5-4.4 10.3-34.7 96.4-57.8 76.9-2.6-26.6 3.5-31.7-20.1-71.5-1.5 17.9-109.6 113.1-101.9 59.4 16.9-24.4 31.9-51.3 28.3-80.2-58.4 21.2-113.4 53.1-172.9 71.8-59.3 25.4-118.3 44.8-181.6 55.2-48 9.8-109.3-8.3-140.4 38.5-20.7 25.2-18.8 55.7-33.1 82.9-5.8 11.4-61.5 104.2-80.4 79.7 24.1-107.2-39.6 14.2-111.3 23.6-13.1 2.2-25.9-4.2-14.4-16.7 16.9-8.7 25.2-21 37.4-33.5 18.9-45.8 40.4-69.7 72.7-118.8 40-74.5 88.7-136.7 138.8-205.1 58.9-86 122.5-118.3 244.1-197.1 84-51.5 155-100.5 283-136.5 62.7-12.8 100.2-46.2 202-15.4 47.2 18.7 32.2 60.1 74.2 54.1 106.8-8 212.2-21 318.3-21.5 56.9-2.7 111.6-3.8 167.2 8.7 19.5 5.5-1.4 13.5-8.2 12.5-83.5 6.4-164.2 14.3-247.4 24.2-66.1 6.1-134.7 5.8-199.2 20.1 23.4 23.8-25.1 89.9-53.6 107.8zm-798.9 314.2c-3.2.1-3.8 3.1-5.5 4.7 4.5-18.8 9.4-13.1 57.2-28.5 33-7.8 63.2-5.7 96.4-9.6 96.4-20.5 145.4-38.7 292.5-104 10.3-10.9 55.8-17.5 65.2-34.6 2.6-14.6 6.3-26.8 16.7-38.1 21.2-18.1 42.7-29.4 67.7-41 21.7-6.2 67.5-10.1 33.7 23.5 10.8 2.6 61-26 115.4-54.9 13.4-6.2 15.8-26.9 31.4-26.4 19.1 3.6-1-27.2 28.4-16.8 8-44.9 30.7-16.8 29.8-42.4 3.5-10.9 14.3-2.7 18.9-34.3.7-7.3-8.2-6.5-12.3-10.7-18.8-30.9-12.1 2.7-36.8-18-11.7.3-9.5 11.3-25.3-.8-13.2 7.9-17.4 16.7-35.8-1-6.2-4.7 4.4-11.5-.4-15.4-23.8-4 4.4 13.4-15.9 17.6-10.8-6.2-9.3-8.8-16.1 3-3.7 3.3-8.4 2.2-9.1 7.2s.3 4.5.1 6c16.3 6-5 30.2-9.7 11.6-24.4 12.1-28.4-24.1-50.3 10.1-6.8 5-31.6-7.5-28 18.7-4 22.4-32.7-1.9-33.6-14.6-7.4 3-16.7 4.2-20.6 11-3.1 11.9-17.2 13.8-21.1 3.2.3-22.6-17-26.5-35.9-8.6-10.5 5.4 19.9 7.7 1.9 21.8-21.2 6.6-2.5 8.9-18.1 20.5-14 16.6-27.3-28.5-36.2-22.6-14.3 20.6-26.2 9-45.2 14.9-6.2 4.3.6 11.4-6 15.3-9.3 10.7-11.4-.8-23.8 3.3-18.6 7.6-33.7-9.3-52.2-3.1-11.9 9.1-40.2-9.5-51.7 17.5-12.8 15.2-16.2-5.9-19.2 23.1-14.6 7.7-2.6-10.9-31.6 4.9-8.5 6.9-31.7-8.3-31.6 4.3v-.2c-28.3 6.7-19.5 38.4-58.9 46.6-8.1 2.6-8.2 3.5-11.8 9.5-11.8 12.8-4.5 31.6-25.2 32.7 3.9 30.8-5.5 15.8-29.5 25.1-8.1 29.6-54.1 42.5-63.8 75-2.4 9.5-15.2 6.7-18.8 14.2 25.3-7.5-6.6 28.8-4.3 3.3-44.4 35.5-1.3 14.5-36.7 49.4-.8 14.7 12.1 11-2.2 26.2 3.8 6 8.3 11.5 4.4 19s-12.5 7.6-10.2 16.5c6.5 13.4-5.4 19-7.8 30.4-3.3 25-.3 9.5-12.2 39.7-7.2 12.3 5.2 2.3 10.2.6 13.3-21.8 23.4-42.5 41.3-61.2 9.3-10.5 12.9-8.5 6.7-23 3.3-11.8 16.3-12.2 12.3 5.3 8.9-5.3 6.4-20.3 17.7-21.3 5.4 0 5.6-.2 5.5-4.6zm947.3-465.5c-4.4-3.4-29.5 1.3-41.5 2.3 7.3 7.5 10.9 14.2 14.1 22.6 17.6-4.9 66.8 2.1 27.4-24.9zm-40.4 24.1c-3.2-26.7-33.3-18.2-52.5-16.8 4.2 7.6 16.5 14.8 11 22.6 14.9-.6 27.4-4.8 41.5-5.8zm110.3-11.3c-11.2-22.1-35.3-17.8-54.5-14.7 11.8 15.7 5.8 29.1 54.5 14.7zm55.8-4.7c-7.8-16.7-40.1-19.5-56.7-12.3 13.8 16.8 7.5 22 56.7 12.3zm.7-18.8c12.6 21.9 8.9 19.2 50.6 16.1-7.7-18.8-33.8-16-50.6-16.1zm59-1c-5.7.3-3.7 3.1-2.2 6-1.2 17.1 24.9 10.1 39.5 6.9-.5-15.3-25.7-11.9-37.3-12.9zm50.5-.6c-22.9 19.1 27.9 11 38.7 8.9-1.4-11.8-25.2-9.5-38.7-8.9zm-365.6 25.3c9.2 12.9 16.6 23.6 33.9 16.6-8.1-17.7-12-23.3-33.9-16.6zm413.6-20.9c2.1 7.8 27.1 2.2 33.2-1.8-3.4-1.8-32-5.2-33.2 1.8zm-1075.1 208.2c-2.1-.8-1.2.9-1.7.6h1a4.6 4.6 0 0 1 .7-.6z"/><g fill="#fff"><path d="m472.5 529c-6.9-1.4 0-6.4 4.7-6.2 6.7 2 9.9 5.2 16.9 3.1 14.7-.7 20.2-13.8 33.5-4.5 17.8-2.6-6.9-17.7 21.5-20.9 10.1-19.1 24-23 45.4-17.9 18.2-11.4 37.1 1.6 54.4 1.3 7.3-2.1 16-4.5 22.9-.4 25.8-7.9-6.7-26.3 37.3-21.2 29.5-5.4 15.3-29.3 37.9.4 5.7 4.1 9.9 16.4 17 10.8 5.3-3.9 11.9-6.9 10.6-13.6-3.9-10.9 34.3-7.7 7.1-28.1 11.8-10.9 19.6-23 36-7.7 3.1 12.1 2 26.5 19.3 17.6 4.9-13.6 13.2-14.5 24.5-18.6 1.4 10.6 24.2 35.5 33.2 17.7-2.3-23.2 8.6-19.6 26.6-20.9 26.6-35.4 21.3-.3 52.1-11 4 15.9 24.9 1 9.7-13.6-1.8-10.5 10.8-8.3 12.7-17.6 2.5-4 3.6-1.5 6.3-1.2 4.8 8.2 13.5 3.6 14.6-3.4-2.4-5-5.6-8.7.6-10.1 16.6-1.9 1.3 8.1 6.1 14.5 8.6 10.5 25.8 17.5 32.7 4.1 1.3-3.5 2.7-2.8 4.2-1.7 18.5 14.4 13.5-3.7 27.9 1.9 11.8 12.1 7.6 5 21.3 3.1 9.5 1.4 7.1 11.5 14.4 14.9 19.5 3.7 8.2 30-3 37.2-6 3.3-4.9 9.1-5.7 15.2-1.2 8-23-3.9-29.2 33.9-26.5-10.1-11.5 16.4-25.9 17.2-16.5-2.7-18.3 15.6-30.2 23.4-38.6 20.6-79.4 47.7-119.1 57.5 37.9-35-21.6-44.9-98.4 14.4-48.7 63.2 24.7 24.5-83 75.1-55.4 19-102.5 54.7-248.9 95.2-14.7-2.6-17.4 8.7-76.1 12.6-31.7-.4-60.9 2.6-90.9 14.7-17.4 6.6-26.1-1.8-32.1 20.4v-.2c-11.4 1.3-9.9 17.7-17.7 21.3 4.7-22.5-18.5-15.8-8.9 5.4-21.7 22.3-36.4 51.9-54.5 75.2-20.8 13.3.9-16.8 3.8-26.5-1.5-10.3 1.5-19.3 6.9-27.6 12.7-14.9-9.2-16.8 11.6-33.3 5-7.4 0-14.8-3.6-20.5 14.2-14.2 2.3-10.9 2-25.1 35.7-35.1-8.6-12.7 36.9-50.5-2.2 25.9 29.3-10.8 4.3-3.3 4.1-7.8 11.6-4.3 16.1-9.6 4.8-7.2 5.3-16.6 12.9-21.6 8-16.8 42-27 53.6-58 9.8-4.3 18.4-2.7 27.8-5.2 7.5-5-4.7-21.5 7.1-21.2 16-2 2.1-12.2 24.9-38.3 50.2-12.3 26.1-30.9 65.6-49.2.7 27.5 33.1 1.7 2.3.6zm561.1-113c-8-17.5-27.7-6-30.9 12.1 8.5.3 25.5-5.4 30.9-12.1zm-351.4 71.8c-12.6 1-13.5 26 3 19.4 11.9-4.1 5.4-19-3-19.4zm-181.2 49.9c8.7 8.3 25.4 3.3 16.4-13.4-8.3-2.6-21.5 5.5-16.4 13.4zm48.9-12.8c10-11.3 15.1-21.4-5.5-16.5-8.5 5-10.8 19.9 5.5 16.5zm147.9-55c-8.9 3.8-10.5 20.8 2.6 16.6 9.7-4.8 11.7-20.4-2.6-16.6zm210.5-21.8c-10.6-10.8-18.2 2.2-13.1 14 3.9 9.7 15.7-7.8 13.1-14zm6.2 23c6.7 5.1 17.7-.9 13.7-8.1-6-10.3-19.9-.9-13.7 8.1zm-501.6 106.8c-7.7 1.9-15.6 17.4-1.9 16.4 8.9-3.4 11-15.8 1.9-16.4zm531-151.4c8.7 10.5 14.6-1.7 13.2-11.4-7.5-6.4-14.5 5.1-13.2 11.4zm-25.5 21.7c12.7 3.4 8.3-11.7 2.5-17.3-8.3 1.6-8.3 12.7-2.5 17.3zm-113.4-.2c-11.9.4-8.2 19.1 3.3 13.5 9.6-3.5 2.3-11.7-3.3-13.5zm-79.1 17.6c9.8 10.5 14.6-3.5 10-11.4-6.7-1.1-14.7 6.3-10 11.4zm80.1-26.5c10-2.6 14.9-17.8.1-13.7-5.5 2.9-7.2 13.2-.1 13.7zm161.1-1.1c5.4-4.4 7.9-19.1-3-16.6-3.5 5.1-5.7 17.2 3 16.6zm98.2-44.2c-5.7-7.8-11.4 3.3-11.3 7.5 5.8 7.8 14.5-.9 11.3-7.5zm-843.4 455.9c7.3-3.6 6.4-15.7-2.4-11.9-6.8 3.5-4.5 14.6 2.4 11.9zm344.8-361.2c-12.4 6.1-5.2 11.3 4.1 10.1 7-5.4 1-11.1-4.1-10.1zm297.4-44.9c-7.5 3-4 10.9 2.9 12.6 4.1-6.9 6-11.8-2.9-12.6zm-469.8 165.6c-.1 7.5 15.7 4.6 9.1-5.2-3.7-5.2-8.2 1.8-9.1 5.2zm691.4-147.1c-8 2.3-9.5 12.4-.5 11.2 4.7-5 7.1-9.4.5-11.2zm-795.4 248.5c-5.6 3.4-7.3 13.5-.5 11.8 5.8-4.1 8.4-11.8.5-11.8zm432-229.1c-6.1-2.1-4 9.4-1.8 10.9 5.5-.8 10-10.7 1.8-10.9zm-366.1 170.6c5.7-.6 7.4-10.3 1-10.3-7.4 2.7-6.4 9.1-1 10.3z"/><path d="m1206.8 371.2c32.4-5.3 62.2-.6 26.1-25.6-5.6-2.1-28.2 1.9-40.2 3a60.8 60.8 0 0 1 14.1 22.6z"/><path d="m1152.3 376.2c12.8-1.8 44.8-3.5 41.8-9.2-11.1-25.8-33.1-13.2-52.8-13.4 4.2 8 16.6 14.4 11 22.6z"/><path d="m1249.6 344.4c12.9 29.7 30.9 20.9 54.5 14.7-15.4-24.7-32.5-16.6-54.5-14.7z"/><path d="m1303.2 342.1c14.2 26.6 34.2 15.2 56.7 12.3-10.8-17.5-37.6-19.3-56.7-12.3z"/><path d="m1411.2 351.7c-8.3-18.8-32-16-50.6-16.1 10.8 27.4 30.1 16.1 50.6 16.1z"/><path d="m1456.9 347.5c-2.2-16.6-26.4-11.8-39.3-12.6-8.8 23.1 27.8 16.4 39.3 12.6z"/><path d="m1508.8 342.9c-2.2-11.8-19.7-8.4-28.8-9.5-12.3-.3-19.6 1.5-12.7 13.1 13.8 1.3 26.9-1.9 41.5-3.6z"/><path d="m1138.4 375.9c-7.9-20.7-16.9-21.9-33.9-16.6 10 13.8 17.1 23.4 33.9 16.6z"/><path d="m1551.3 336.6c-7.4-2.4-33.4-4.3-33.2 1.8 2.4 8.2 30 1.5 33.2-1.8z"/><path d="m281.4 816.4c5.4 0 5.6-.2 5.5-4.6-2.2-.1-4.2 2.9-5.5 4.6z"/></g><path d="m1002.7 428.1c9.7 0 20.9-4.5 30.2-10.9-1.2-19.5-29.5-6.7-30.2 10.9z"/><path d="m685.2 507.2c8.8-3.1 7.9-12.3 1.9-17.6-15.2-10.4-21.7 25.5-1.9 17.6z"/><path d="m517.4 524.3a11 11 0 0 1 -2.7-.1c-7.3-2.2-10.7 3-14.3 7.5a5.1 5.1 0 0 0 -.2 4.8c3.5 6.6 15.6 6.9 19.5.5a6.9 6.9 0 0 0 .3-4.5c-.6-2.6-1.6-5.2-2.6-8.2z"/><path d="m544.4 508.4c-4.2 1.9-7.5 8.2-6.6 12.6a1.3 1.3 0 0 0 .1.6c2.1 3.8 6.1 3.1 9.3 3.6s5-.6 5-3.7 1.3-3 2.8-4a20.2 20.2 0 0 0 3.2-2.6c2-2.2 1.7-3.9-.8-5.8s-7.3-3.4-13-.7z"/><path d="m700.4 486.5c12.3-7 9.3-21.5-4.2-15.7-8.2 5.4-8 19.3 4.2 15.7z"/><path d="m895.2 462.1c3.9 7.6 9.1-1.2 12.1-6.4 7.9-15.7-20.9-17.5-12.1 6.4z"/><path d="m928.2 463c-8.6-11.6-18.4.8-13.7 8.1 5.8 4.9 17.7-.1 13.7-8.1z"/><path d="m411 594.3c9.3-3.3 11.1-17.6.9-16.1-9.3 4.1-12.6 17.2-.9 16.1z"/><path d="m957.1 415.1c-4.5-3.6-10-1.3-12.7 5.6-4.1 16.1 16.5 11 12.7-5.6z"/><path d="m920.9 430.9c-5.8 1.3-8.2 6.8-5.4 13.5 10 14.1 15.5-5.9 5.4-13.5z"/><path d="m808.3 461.5c9.7-3.1 2.2-13.1-5-13.4-9.1 1.8-6.6 18.8 5 13.4z"/><path d="m735.9 454.2c-4.8-.8-8.8 2.1-11.6 7.5 4.1 13.9 18.9 6.9 11.6-7.5z"/><path d="m806.1 425.4c-3.5 1.4-6.1 7.8-4 11.5 7.4 9.9 23.2-17.4 4-11.5z"/><path d="m964.1 421.4c-2.7 4.5-6.7 16.2 3 16.6 5.3-3.4 8.3-19.2-3-16.6z"/><path d="m470.2 528.4c.4 2.1.8 4.2 1.1 6.3.5 4.8 6.1 8 10.4 6 2.7-1.3 4.3-4.2 3.7-6.7s-2.6-3.9-6-4.2-6.1-.8-9.2-1.2z"/><path d="m1054 401.3c4 5.5 11.2 3.2 11.9-3.8-.4-12.2-12.2-5-11.9 3.8z"/><path d="m219.5 837.8c-5.8 2.5-5.8 14.4 2.4 11.9 6-2.3 7.8-15.7-2.4-11.9z"/><path d="m570.8 498.6c1.5-2.1 4.2-4.6 3.7-5.6s-3.4-3.6-5.5-4.6-8.3 3-8.9 5.6.4 3.7 2.3 4.1 5.4.3 8.4.5z"/><path d="m867 456.2c3.7-4.8 6-13.4-4.2-12.3-5 3.9-3.3 10.1 4.2 12.3z"/><path d="m403.4 604c-3.2-6.4-12.5 5.3-7.5 8.7 5.7 1.5 12 0 7.5-8.7z"/><path d="m1085.2 473.3c4.2-2.9 7.6-13.1-2.2-10.4-3.3 3.1-8 10.8 2.2 10.4z"/><path d="m289.8 722.4c4.4-2.2 9.5-13.6-.8-11.1-2.2 1.7-7.7 12.9.8 11.1z"/><path d="m720.5 492.4c4.4-.6 10.7-10.1 1.8-10.9-4.9-2.4-4.9 8.4-1.8 10.9z"/><path d="m357.2 641.8c-7.6 2.3-6.3 10.7.6 10 3.7-2.5 6-9.8-.6-10z"/><path d="m1001.3 644.9.3.3v-.3z"/><path d="m-30.2 434.2c69.3-11.3 208.8-34.6 214.4-34.4 12.7.2 25.4.4 38 2.1a226.5 226.5 0 0 1 37.2 8.1c17.9 5.7 35.4 12.7 53 19.2s32.4 16.8 47 27.9c9.1 7 18.5 13.6 28.1 19.8 15.2 9.8 28.7 21.9 42.2 33.7 3.4 3 7 5.7 10.2 8.7 11.8 10.9 24.1 21.3 34.9 33 15.4 16.8 29.7 34.6 44.3 52.1s27.3 33.1 40.8 49.9c7 8.8 13.4 18 20.1 27 .9 1.2 1.9 2.3 2.9 3.4 6.5 6.4 13 12.7 19.4 19.2 2.8 2.7 5.3 5.8 8.2 8.5 13.8 13 28.5 24.9 41.1 39.2 4.3 4.8 9.8 8.6 14.8 12.7 11.8 9.9 23.4 20.2 35.8 29.4 24.6 18.1 52 31.6 78.8 45.9 3.8 2 7.9 3.3 11.9 4.9 10.5 4 20.8 8.4 31.5 11.9 23.3 7.7 47.5 12.1 71.7 16.3s46.5 7 69.8 9.9c10.4 1.3 20.9 1.1 31.4 1.8a52.2 52.2 0 0 1 11.1 1.6c10.3 2.9 21.3 2.9 30.8 8.5 4.1 2.5 7.9 5.4 12.2 7.4a30.7 30.7 0 0 0 11.5 2.7c5.3-.1 6.8-3.4 5.4-8.7a153.1 153.1 0 0 1 -3.7-15.2c-2.2-12.2 3.3-21.6 12.5-28.5 10.7-8 23.1-13.1 36.1-16.4a140.4 140.4 0 0 1 25.8-4.3c11.7-.8 23.3 1.1 34.7 3.6 16.6 3.8 33 8.7 49.7 11 11 1.4 22.5-.7 33.2-5 5.5-2.2 7.1-7.2 8.9-12.2-2.3-4.1-6.3-4.4-10.3-5.1a200.6 200.6 0 0 1 -20.5-4c-2.7-.7-5.4-2.9-7.2-5-4.7-5.6-4.3-10.3 1.2-15.1 14.2-12.2 30.1-17.4 48.6-10.9 7.3 2.6 14.6 5 22.1 7a26 26 0 0 0 10.4.5c5.9-.9 8.4-4.4 8.2-10.5s-.5-11.5-.6-17.3 2-9.5 4.6-13.8c3.7-6 .9-11.3-6.1-11.3-3.4 0-6.9 1.1-10.3 1.8s-8.3 2-12.5 2.7-7.7-1.2-9.7-5.4-1.4-13.8 2.9-17.4c8.6-7.3 17.5-14 28.5-17.7 17.5-5.8 35.3-8.6 53.8-6 2 .3 4.1.8 5.9.4 11.1-2.3 22.1-.7 32.9.9 7.4 1 14.8 2.4 22.3 3.2 5.6.7 10.9-2.7 12.4-7.4s-1.8-11.7-5.9-14.2c-9.9-6.1-20.7-7-31.9-5.7-8.4 1-16.9 1.9-25.4 2.5-3.2.3-6.7.2-7.8-4s1.3-6.7 3.8-9.1 3.4-1.9 5-2.8c-1.8-5.4-4.5-8-9.6-7.8-9 .5-14.5-3.9-18.6-11.3a7.5 7.5 0 0 0 -5-3.5c-7.8-1.1-15.7-1.9-23.7-.1-18.3 4.1-36.3 8.9-53.4 16.9-9 4.2-18.7 3.3-28 1.2-5-1.1-8.3-5.4-9.1-10.9s2.4-9.6 6.4-12.7 6.5-3.8 9.7-5.7 5.2-3.1 7.6-4.8c7.6-5.7 4-15.5-2.2-18.5-15.6-7.6-31.6-6.5-47.5-2.1-21.3 6-39.6 17.6-57.5 30.3-13.1 9.3-25.6 19.2-38 29.3s-25.4 20.9-38.3 31c-3.7 2.9-8.1 4.8-12.2 7.2-12.9 7.3-25.6 15.2-39.7 20.3-19.2 7-38.5 13.8-58.4 18.5-13.4 3.2-27.4 3.4-41 6a252.8 252.8 0 0 1 -61.4 4.4c-11.3-.6-22.8-.6-34-4.1-6.1-2-12.9-1.5-19-3.6-10.6-3.5-20.9-8.1-31.3-12.4a234.2 234.2 0 0 1 -40.8-21.6c-5.4-3.6-10.3-8.1-15.3-12.2-6.8-5.4-9.5-13.2-11.9-21.7l10.4-12.4c4.9-6 3.2-12.6-4.2-15.3-4.2-1.6-8.7-2.2-11.6-6.3s-3.8-7.9-.2-12.8c4.9-6.8 3-15.4-4.5-19.1a31.5 31.5 0 0 0 -19.5-3c-25.9 3.7-50.1-1.5-72.4-15.8s-41.9-35.6-59.1-57.2c-8.9-11.2-18.3-22-26.5-33.7-10.9-15.7-23.5-29.8-35.8-44.3l-36.8-42.6c-8.6-9.8-17.3-19.4-25.7-29.3-2.7-3.2-5.5-4.9-10.1-4.3.3-1.6 1.1-3.2.6-3.7a143.2 143.2 0 0 0 -21.7-20.9c-11-8.2-21-17.8-31.8-26.4a339.1 339.1 0 0 0 -27.8-20.2c-10.1-6.5-20.9-11.8-31.4-17.7-1.9-1.1-3.7-2.6-5.7-3.6-5.5-2.8-11.1-5.6-16.7-8.2-7.5-3.3-15.1-6.6-22.7-9.7l-42.8-16.3c-5.1-1.9-10.3-3.5-15.3-5.7-1.8-.8-2.9-2.9-4.7-4.8-1.4.3-2.2 3.3-5.4 2.3a190.7 190.7 0 0 0 -21-5.5c-3.6-.8-7.5-.3-11.1-.9a509.6 509.6 0 0 0 -76.9-7.5c-21.8-.6-43.5-1.2-65.3-1.4a70.8 70.8 0 0 0 -17.1 2.1c-8 1.8-15.8 4.6-23.7 6.5m1286.9 431.3a79.5 79.5 0 0 1 41.7-13c6.6-.3 12.3 3 14.4 7.9a5.5 5.5 0 0 1 -1.9 6.3 51.8 51.8 0 0 1 -9.1 5.8c-4.6 2.1-8.2 4.7-9.9 9.6-.7 2.1-2.3 3.9-3.1 6-3.3 8.7-11.1 11.7-18.7 14.7a15.2 15.2 0 0 1 -14.4-2.2c-15.2-10.9-16-23.8 1-35.1zm-33 40.6a28.5 28.5 0 0 1 5-1.4c2.4-.4 4.9-.5 7.4-.7.1-.2.1-.4.2-.6 4.6 1.1 9.2 2 13.6 3.4a14.9 14.9 0 0 1 5.5 3.7c3.7 3.8 3.3 7.3-1.4 9.7a94.7 94.7 0 0 1 -14.4 5.9c-5.2 1.6-17-3.5-20-8.1s-1.4-9.9 4.1-11.9z" fill="#f4ae3e"/><path d="m1204.9 922.3c12.1-7.7 26-12 40.4-14.2 2.7-.5 5.6-.2 10.6-.2 10.7-1.7 21.8 3.5 32.4 9.7s13.4 19.4 7 30.2c-4 6.6-9.2 9.7-17.4 10.4a53.8 53.8 0 0 1 -23.4-2.9c-7.5-2.7-14.8-2.2-22.2-.2-3.6.9-7.2 2.1-10.8 3.1-10.2 2.9-18.4-1.4-25.5-8-1.8-1.6-2.4-5-2.6-7.6-.7-9.2 4.9-16.1 11.5-20.3z" fill="#f4ae3e"/><path d="m1102.7 874c21.6-11.2 44-11.1 66.7-4.4 2.3.6 4.4 1.8 6.7 2.1 10.6 1.6 16.8 9 22 17.2 1.8 2.8 1.8 6.9 2.5 10.4 1.3 11.2-6.5 16.1-14.2 20.4a36.3 36.3 0 0 1 -28.1 3.3c-8-2.3-13.7-.5-19.2 5.6s-12 6.5-18.6 1-9.6-9.5-14.6-14a17.3 17.3 0 0 0 -7.5-3.5c-9.2-1.6-14.6-9.6-12.4-18.7s8.7-15.2 16.7-19.4z" fill="#f4ae3e"/><path d="m1399.9 789.4c-1.8 1.6-3.5 3.6-5.5 4.1-11.7 3.4-23.4 6.4-35.1 9.5-6.4 0-9.3-4-8.4-11.6a44.8 44.8 0 0 1 1.1-5c3.9-17.5 34.2-32 48.8-14.2 4.9 6.1 5 12-.9 17.2z" fill="#f4ae3e"/><path d="m1171.1 973.6a208 208 0 0 0 -22.9-13.1c-5.4-2.6-11.4-.1-14.4 4.6s-3.5 11.1.7 15.8c7.2 8.1 16.3 12.1 27 12.5 1.4 0 2.9.3 4.1-.1 4.1-1.1 8.1-2.9 8.9-7.6s.7-9.4-3.4-12.1z" fill="#f4ae3e"/><circle cx="96.8" cy="428.5" fill="#fff" r="16.8"/><circle cx="21.9" cy="386" fill="#fff" opacity=".54" r="20.5"/><circle cx="43.5" cy="441.6" fill="#dedbe5" opacity=".44" r="17.1"/><circle cx="-2.3" cy="380.6" fill="#fff" r="11.2"/><circle cx="-4.3" cy="454.9" fill="#fff" opacity=".59" r="11.2"/><circle cx="16" cy="422.4" fill="#fff" opacity=".59" r="11.2"/><circle cx="1108.8" cy="645.1" fill="#dedbe5" r="14.7"/><circle cx="1089.8" cy="679.8" fill="#dedbe5" opacity=".85" r="17.9"/><circle cx="1139.9" cy="639.4" fill="#dedbe5" opacity=".44" r="14.9"/><circle cx="1161.1" cy="677.1" fill="#fff" opacity=".59" r="9.8"/><circle cx="1129.3" cy="666.7" fill="#fff" opacity=".59" r="9.8"/><circle cx="1069.6" cy="701.6" fill="#fff" opacity=".59" r="9.8"/><circle cx="1116.2" cy="839.6" fill="#fff" opacity=".44" r="14.7"/><circle cx="1094.8" cy="869.4" fill="#fff" opacity=".85" r="17.9"/><circle cx="1170.3" cy="827.5" fill="#fff" opacity=".44" r="14.9"/><circle cx="1148.2" cy="852" fill="#fff" opacity=".59" r="9.8"/><path d="m865.8 881.1c-14 13.5-28.1 25.6-43.8 36.2-8 7-18.6 10.7-22 21.1-5.3 17.2-3.5 33.6-7.7 50.8-2.1 6-15.6 55.8-29.4 45.7-2.6-14.8.6-18-14.3-39.4-.2 10.2-57.1 68.4-55 37.8 8.4-14.5 15.8-30.3 12.5-46.5-32 14.4-61.7 34.7-94.5 47.8-32.4 16.8-64.9 30.2-100.2 38.8-26.6 7.5-61.9-.1-77.5 27.6-10.7 15.1-8.3 32.2-15.2 48.1-2.9 6.7-30.4 61.4-42.1 48.4 9.1-61.5-21.7 9.7-61.8 17.9-7.3 1.9-14.8-1.2-8.8-8.8 9.2-5.6 13.3-12.9 19.7-20.4 8.7-26.7 19.9-41.1 36-70.1 19.5-43.8 44.4-80.9 69.7-121.6 29.7-50.9 64.2-71.9 129.5-121.4 45.2-32.6 83.3-63.2 154-88.9 34.8-9.9 54.5-30.3 113.3-17.2 27.4 8.6 20.7 32.6 44.1 27.5 59.9-9 118.8-20.8 178.7-25.5 32-3.9 62.8-6.9 94.7-2.1 11.3 2.3-.2 7.6-4.1 7.4-46.8 7.1-92.1 14.9-138.6 24-37 6.2-75.7 8.9-111.5 19.7 14.2 12.4-10.4 51.8-25.7 63.1zm-437.6 210.8c-1.8.1-2.1 1.8-2.9 2.8 1.7-10.8 4.7-7.8 31-18.4 18.3-5.8 35.5-5.9 54.1-9.5 53.5-15.6 80.4-28 160.6-71 5.4-6.5 30.8-12.2 35.3-22.2.9-8.3 2.5-15.4 7.9-22.2 11.2-11.1 22.9-18.4 36.4-26 12.1-4.4 37.7-8.5 20 11.9 6.3 1 33.4-17.3 62.8-35.9 7.4-4 7.9-15.8 16.7-16.1 10.9 1.1-1.8-15.4 15.3-10.7 2.6-25.7 16.6-10.8 15-25.2 1.6-6.3 8-2.1 9.3-20.1 0-4.2-4.9-3.4-7.4-5.6-11.9-16.6-6.8 2.1-21.5-8.6-6.6.7-5 6.8-14.4.6-7.1 5-9.1 10.2-20.2 1-3.7-2.4 2-6.7-.9-8.7-13.6-1.3 3.1 7.3-8.2 10.6-6.4-3.1-5.6-4.6-8.9 2.4-2 2-4.7 1.6-4.9 4.4s.4 2.5.3 3.4c9.5 2.7-1.6 17.2-5 6.9-13.3 7.9-17-12.4-28 7.8-3.6 3.1-18.1-2.8-15 11.7-1.3 12.9-18.5.4-19.5-6.8-4.1 2.1-9.3 3.1-11.2 7.1-1.2 6.8-9.1 8.5-11.7 2.7-.8-12.8-10.8-14.2-20.6-3.4-5.8 3.6 11.5 3.6 1.9 12.2-11.6 4.7-1 5.2-9.3 12.4-7.2 10-16.6-14.9-21.4-11.2-7.2 12.2-14.4 6.1-24.9 10.3-3.3 2.7.9 6.4-2.8 8.9-4.8 6.4-6.4 0-13.2 2.8-10.2 5.1-19.4-3.8-29.6.4-6.3 5.7-23.1-3.6-28.4 12.1-6.6 9.1-9.4-2.6-9.9 13.8-7.9 5-1.9-6-17.6 4.1-4.5 4.3-18.3-3.3-17.7 3.8-15.7 4.9-9.4 22.5-31.3 28.7-4.4 1.8-4.5 2.3-6.2 5.9-6.2 7.7-1.2 18-12.8 19.5 3.4 17.2-2.5 9.1-15.7 15.4-3.3 17-28.7 26.2-32.8 45-1 5.4-8.3 4.4-10 8.8 13.9-5.3-2.5 16.5-2.3 2-23.6 21.9-.2 8.3-18.6 29.4.1 8.4 7.3 5.7-.2 14.9 2.4 3.2 5.2 6.2 3.3 10.5s-6.8 4.9-5.1 9.8c4.3 7.3-2.2 10.9-3.1 17.5-.8 14.2.2 5.3-5.2 22.9-3.6 7.2 3 1.1 5.8-.1 6.6-12.9 11.4-25 20.7-36.3 4.8-6.3 6.9-5.3 2.8-13.3 1.4-6.7 8.7-7.5 7.1 2.5 4.9-3.3 2.8-11.7 9.2-12.7 3-.3 3.1-.5 2.9-2.9zm514.9-302.4c-2.6-1.8-16.6 1.9-23.2 3a34.8 34.8 0 0 1 8.8 12.2c9.8-3.5 37.8-1.6 14.4-15.2zm-21.7 15.3c-3-14.9-19.6-8.9-30.4-7.3 2.7 4.1 10 7.7 7.2 12.3 8.4-1 15.2-3.9 23.2-5zm61.7-11c-7.2-12.1-20.7-8.6-31.3-6.1 7.3 8.4 4.5 16.2 31.3 6.1zm31.3-5c-5.1-9.1-23.4-9.4-32.5-4.6 8.5 8.9 5.2 12.1 32.5 4.6zm-.4-10.7c8.1 11.9 5.9 10.5 29.2 7-5.1-10.3-19.7-7.6-29.2-7zm33.2-3c-3.1.4-1.9 1.9-.9 3.5 0 9.7 14.5 4.6 22.5 2.2-.9-8.6-14.9-5.6-21.6-5.7zm28.5-2.4c-12.1 11.7 16.2 5 22.2 3.3-1.2-6.6-14.6-4.3-22.2-3.3zm-205.2 29.6c5.7 6.8 10.4 12.5 19.9 7.9-5.4-9.6-7.8-12.6-19.9-7.9zm232.5-29.2c1.5 4.3 15.4.1 18.7-2.4-2-.8-18.3-1.6-18.7 2.4zm-597.9 162.6c-1.2-.4-.6.5-.9.4h.5z"/><path d="m521 924.5c-3.9-.5-.2-3.6 2.4-3.7s5.8 2.5 9.7 1.1c8.3-1.1 10.8-8.7 18.7-4 10-2.2-4.6-9.7 11.3-12.7 4.9-11.2 12.6-13.9 24.8-12 9.8-7.2 21-.6 30.8-1.6 4-1.4 8.8-3.1 12.9-1.1 14.2-5.6-4.9-14.6 20.1-13.6 16.5-4.3 7.5-17.1 21.4-1.3 3.4 2.1 6.3 8.8 10.1 5.4s6.4-4.5 5.4-8.2c-2.7-5.9 19-5.7 2.8-16.1 6.2-6.6 10.1-13.8 20-5.9 2.2 6.7 2.2 14.9 11.6 9.2 2.2-7.9 6.9-8.8 13.1-11.6 1.2 6 15.1 19.1 19.5 8.6-2.3-13 4-11.4 14.1-12.9 13.5-21 12-1 28.9-8.4 3 8.9 14.1-.5 4.9-8-1.4-5.9 5.8-5.2 6.5-10.5 1.2-2.4 1.9-1 3.4-1 3.1 4.5 7.8 1.5 8.1-2.5-1.5-2.7-3.5-4.7 0-5.7 9.3-1.8 1 4.5 4 7.9 5.3 5.6 15.3 8.8 18.7 1 .5-2.1 1.4-1.7 2.2-1.1 11.1 7.3 7.5-2.8 15.9-.1 7.1 6.3 4.4 2.4 12.1.8 5.4.4 4.5 6.2 8.8 7.8 11.1 1.3 5.9 16.6-.2 21.1-3.2 2.1-2.3 5.4-2.6 8.8s-13.1-1.2-15 20.4c-15.4-4.6-5.8 9.7-13.9 10.7-9.4-.8-9.7 9.7-16.1 14.6-20.9 13.2-42.8 30.2-64.8 37.4 20-21.4-14-24.5-54.8 12.2-24.9 37.7 14.9 12.8-43.7 45.9-30.5 13-55.6 35.1-136.5 64.1-8.4-.8-9.5 5.7-42.4 10.3-17.9 1.1-34.3 4-50.7 12.2-9.5 4.4-14.8 0-17.2 12.8-6.4 1.2-4.9 10.4-9.2 12.7 1.8-12.8-11-8.1-4.7 3.5-11.4 13.4-18.4 30.8-27.6 44.7-11.2 8.3-.2-9.5 1-15.1-1.3-5.8.1-11 2.8-15.9 6.5-9-5.9-9.1 5.1-19.3 2.5-4.4-.6-8.3-2.9-11.4 7.4-8.6.9-6.2.1-14.2 18.6-21.3-5.4-6.9 18.7-30.1-.2 14.7 16.1-7.3 2.3-2 1.9-4.6 6.3-3 8.7-6.1s2.2-9.6 6.3-12.7c3.8-9.9 22.6-17 27.8-35 5.4-2.8 10.3-2.3 15.5-4.1s-3.5-11.9 3.1-12.3c9-1.8.7-7 12.5-22.6 27.8-9.1 13.4-18.5 34.9-30.5 1.5 15.4 18.8-.6 1.3.1zm311.9-87.3c-5.3-9.5-15.9-2.2-16.9 8.1 4.7-.2 14.1-4.1 16.9-8.1zm-195.3 55.3c-7 1-6.5 15.2 2.5 10.8 6.6-2.8 2.3-10.9-2.5-10.8zm-100.1 35.7c5.2 4.3 14.4.8 8.7-8.3-4.8-1-11.9 4.1-8.7 8.3zm27.1-9.2c5.1-6.8 7.5-12.8-3.9-9.2-4.5 3.3-5.2 11.7 3.9 9.2zm81.1-37.3c-4.9 2.5-5.1 12.2 2.2 9.3 5.2-3.2 5.7-12-2.2-9.3zm117.8-21.1c-6.4-5.7-10.1 2-6.8 8.4s8.6-5 6.8-8.4zm4.5 12.7c4 2.6 9.9-1.2 7.4-5.1-3.8-5.6-11.3.3-7.4 5.1zm-278.5 81.3c-4.3 1.4-8.1 10.5-.4 9.3 4.9-2.3 5.5-9.4.4-9.3zm293.2-107.7c5.4 5.5 8.2-1.6 7-7-4.5-3.3-8 3.5-7 7zm-13.5 13.3c7.4 1.4 4.2-7 .7-9.8-4.6 1.2-4.1 7.5-.7 9.8zm-63.9 4.6c-6.7.8-3.9 11.2 2.4 7.6s.8-6.8-2.4-7.6zm-43.9 13.3c5.9 5.5 8.1-2.6 5.1-6.9-3.8-.3-8 4.2-5.1 6.9zm44.1-18.3c5.5-1.9 7.6-10.7-.6-7.8-3 1.9-3.5 7.8.6 7.8zm90.8-7.4c2.9-2.7 3.7-11.1-2.4-9.2-1.8 3-2.5 9.9 2.4 9.2zm53.5-29c-3.5-4.2-6.2 2.3-6 4.7 3.6 4.1 8.1-1.1 6-4.7zm-456.7 292.6c3.9-2.4 2.9-9.2-1.9-6.6s-1.9 8.4 1.9 6.6zm179.4-218.3c-6.7 4-2.5 6.6 2.7 5.5 3.7-3.3.1-6.3-2.7-5.5zm165.9-37.8c-4.1 2-1.8 6.3 2.1 7 2.1-4.1 3-7-2.1-7zm-258.1 113.2c.3 4.1 9.1 1.9 4.9-3.4-2.3-2.8-4.5 1.4-4.9 3.4zm383.9-112.1c-4.4 1.7-4.8 7.5.2 6.4 2.4-3 3.6-5.6-.2-6.4zm-438.4 173.6c-3 2.2-3.5 8 .3 6.7s4.2-7-.3-6.7zm234.2-147.4c-3.5-.9-1.8 5.5-.6 6.2 3.1-.7 5.2-6.4.6-6.2zm-199.4 111.6c3.1-.6 3.7-6.1.1-5.8-4.1 1.8-3.2 5.4-.1 5.8z" fill="#fff"/><path d="m928.7 804.7c18.1-4.4 35.1-3 13.7-15.5-3.3-1-15.8 2.2-22.5 3.3a36.1 36.1 0 0 1 8.8 12.2z" fill="#fff"/><path d="m898.2 809.8c7.1-1.6 25.1-3.9 23.2-7-7.4-14-19.2-6-30.4-5.3 2.7 4.3 10 7.4 7.2 12.3z" fill="#fff"/><path d="m951.8 787.7c8.5 16.3 18.3 10.5 31.3 6.1-9.7-13.3-19-8-31.3-6.1z" fill="#fff"/><path d="m981.9 784.2c9.1 14.5 19.9 7.2 32.5 4.6-6.8-9.5-22-9.4-32.5-4.6z" fill="#fff"/><path d="m1043.2 785.1c-5.4-10.2-18.7-7.7-29.2-7 7.3 15 17.7 7.8 29.2 7z" fill="#fff"/><path d="m1068.8 780.8c-1.9-9.3-15.3-5.5-22.6-5.4-4 13.3 16.3 8 22.6 5.4z" fill="#fff"/><path d="m1097.9 776c-1.7-6.5-11.4-3.9-16.6-4.1-6.9.4-11 1.7-6.6 7.9 7.8.2 15.1-2.2 23.2-3.8z" fill="#fff"/><path d="m890.4 810.2c-5.4-11.3-10.5-11.6-19.9-7.9 6.2 7.3 10.6 12.4 19.9 7.9z" fill="#fff"/><path d="m1121.7 770.7c-4.3-1.1-19-1-18.7 2.4s17-.4 18.7-2.4z" fill="#fff"/><path d="m425.3 1094.7c3-.2 3.1-.4 2.9-2.8-1.3 0-2.3 1.8-2.9 2.8z" fill="#fff"/><path d="m816 845.3c5.5-.4 11.6-3.4 16.5-7.4-1.5-10.9-16.9-2.6-16.5 7.4z"/><path d="m640.1 903.3c4.9-2.1 4-7.3.4-10.1-9.1-5.2-11.2 15.4-.4 10.1z"/><path d="m546.2 919.9a4.6 4.6 0 0 1 -1.6.1c-4.1-.9-5.9 2.1-7.7 4.9a2.9 2.9 0 0 0 .1 2.7c2.2 3.6 9.1 3.2 11-.6a4.3 4.3 0 0 0 0-2.5c-.5-1.5-1.2-2.9-1.8-4.6z"/><path d="m560.7 909.8c-2.2 1.3-3.8 5-3.2 7.4a.6.6 0 0 1 .1.4c1.4 2 3.6 1.5 5.5 1.6a2.2 2.2 0 0 0 2.6-2.3c-.1-1.2.6-1.7 1.4-2.3a12.9 12.9 0 0 0 1.7-1.6c1-1.4.8-2.3-.7-3.3s-4.2-1.6-7.4.1z"/><path d="m647.9 891c6.6-4.5 4.3-12.6-3.1-8.7-4.4 3.4-3.7 11.2 3.1 8.7z"/><path d="m756.7 869c2.5 4.2 5.1-1 6.6-4.1 3.8-9.2-12.5-9-6.6 4.1z"/><path d="m775.4 868.2c-5.4-6.2-10.3 1.2-7.4 5.1s10-.8 7.4-5.1z"/><path d="m489.1 963.9c5.1-2.2 5.5-10.3-.2-9.1-5.1 2.7-6.4 10.2.2 9.1z"/><path d="m789.7 839.9c-2.7-1.8-5.7-.3-6.9 3.7-1.7 9.3 9.7 5.5 6.9-3.7z"/><path d="m769.9 850.4c-3.2 1-4.3 4.1-2.5 7.8 6.3 7.5 8.5-4 2.5-7.8z"/><path d="m707.7 872.4c5.3-2.2.6-7.6-3.4-7.4s-2.9 10.9 3.4 7.4z"/><path d="m666.5 871.2c-2.7-.2-4.8 1.6-6.2 4.7 2.9 7.7 11 3.2 6.2-4.7z"/><path d="m704.9 852c-1.9 1-3.1 4.7-1.7 6.7 4.5 5.3 12.3-10.8 1.7-6.7z"/><path d="m793.9 843.2c-1.3 2.6-3.1 9.4 2.4 9.2 2.8-2.1 3.9-11.2-2.4-9.2z"/><path d="m519.7 924.3c.3 1.2.7 2.3.9 3.5a4.3 4.3 0 0 0 6.1 2.9 3.4 3.4 0 0 0 1.8-3.9c-.5-1.6-1.6-2.1-3.5-2.1s-3.5-.2-5.3-.3z"/><path d="m843.8 828.1c2.5 2.9 6.4 1.3 6.6-2.7-.8-6.9-7.1-2.3-6.6 2.7z"/><path d="m391.2 1109.4c-3.1 1.6-2.6 8.3 1.9 6.6s3.8-9.2-1.9-6.6z"/><path d="m575.2 903.2c.8-1.2 2.2-2.7 1.9-3.3a6 6 0 0 0 -3.3-2.3c-1.4-.5-4.6 2-4.8 3.5a1.7 1.7 0 0 0 1.5 2.2c1.5.1 3-.1 4.7-.1z"/><path d="m740.5 866.9c1.9-2.9 2.9-7.8-2.8-6.8-2.7 2.4-1.5 5.9 2.8 6.8z"/><path d="m485.2 969.7c-2.1-3.5-6.9 3.5-3.9 5.2s6.8-.5 3.9-5.2z"/><path d="m864.4 867.4c2.3-1.8 3.7-7.7-1.7-5.8-1.7 1.9-4 6.4 1.7 5.8z"/><path d="m426.1 1041.3c2.4-1.5 4.8-8.1-1-6.2-1.1 1-3.8 7.6 1 6.2z"/><path d="m659.4 893.4c2.5-.4 5.7-6.1.6-6.2-2.8-1.1-2.4 5-.6 6.2z"/><path d="m460.7 993c-4.2 1.6-3.1 6.3.8 5.6 1.9-1.6 2.9-5.8-.8-5.6z"/></svg>