<svg xmlns="http://www.w3.org/2000/svg" width="1904" height="1692" viewBox="0 0 1904 1692"><title>narwhal-top</title><g id="Layer_15" data-name="Layer 15"><path d="M1907,833v858H-3V1190.6c-12.8-3-19.6-4.8-19.6-4.8l8-421s619,88,996-162,917-202,917-202l3.1,432.2Z" fill="#b0c6d1"/><path d="M-30.6,733.8s81.8-105,257.1-91,478.6,126,851.2,112,838.7-147,838.7-147l-20.2,330s-635.5,183-1047.7,21S57,769.8-30.6,853.8Z" fill="#d3dce5" opacity="0.5"/><path d="M1907.4,400.8s-540-48-917,202-996,162-996,162l-8,421s719,185,1197-17,729-66,729-66Z" fill="#edf1f4" opacity="0.5"/><path d="M192.4,1277.3l-5.6,1.5a9.6,9.6,0,0,1,4.7-1.4Z" fill="#aad1c7" stroke="#aad1c7" stroke-miterlimit="10" stroke-width="7.63"/><path d="M204.8,1274a33.1,33.1,0,0,1-12.4,3.3Z" fill="#aad1c7" stroke="#aad1c7" stroke-miterlimit="10" stroke-width="7.63"/><path d="M1864.5,484.9l-528,181.7-141.6,50.7L1070.2,873.7,954,973,746.9,983.5l-85.5-12.2c-4.9-5.7-15.2-7.9-32.9-4.9-98.4,17.1-188.9,48.9-192.3,50.1s-4.5,0-6.2.6c-5.2,1.5-10.6,2.7-15.4,5.2-14.4,7.4-28.7,15.1-39.3,28.1a31.4,31.4,0,0,0-6.7,14c-.8,4-3.6,8.1-4.3,12.2-2.2,12.3-5.9,22.7-14.6,31.6-3.4,3.5-6.5,7.4-11.3,9.1-9.4,3.2-19,5-28.6.5-1.5-.7-3-1.1-4.6-1.7a24.1,24.1,0,0,0-15-.9c-5.1,1.3-10.3,2.3-15.4,1.2a87.6,87.6,0,0,1-17.6-5.4c-3.8-1.7-7.6-4.5-11.7-5s-8,.4-11.9-.1a26.9,26.9,0,0,0-15.3,2.8c-11.3,5.7-14,19.7-4.2,29.4a83.7,83.7,0,0,0,7.9,6.6c4.9,3.7,9.7,9.9,15,12.9,7.1,4.1,6.6,8.1,5.6,14.5-.4,2.9-1.3,6.7-3.4,8.3-4.7,3.6-9.4,8-16.3,6.9-2.5-.4-5.1-.4-7.6-.8a63.7,63.7,0,0,0-19.5,0c-9.4,1.3-15.8,6.6-21.1,13.9-2.4,3.3-2.6,7-1.2,10.8a27,27,0,0,0,2.4,5.5c4.6,7.2,1.5,14.3-.5,21.3a3.2,3.2,0,0,1-1.8,2c-3.4,1.7-6.7,4-10.3,4.6-12.5,2-23.9,6.6-34.9,12.6-1.5.8-3.3,2.1-3.8,3.5s-2.1,2.7-3.5,3.8a27.8,27.8,0,0,0-4.3,4.1c-3.6,4.5-7.1,9-10.6,13.6h0c-34.5,35.8-.6,52.7,21.3,48.7,17.2-3.1,11-49,11-49h-.1c.9-1.6,2.4-2.9,3.5-4.4,9-11.4,19.4-20.7,33-26.4,9.5-3.9,18.7-6.2,29-4,5.6,1.2,10.9,5.7,11.4,10.7s-1.1,10-5.7,13.3a34,34,0,0,1-4.8,2.9,33.1,33.1,0,0,1-12.4,3.3l-5.6,1.5h-.3s-39.7,13.2-24,31c45.9,51.9,140.6,15.2,180.7-27.7h.8c5.4-3.5,10.8-6.9,16.1-10.6,12.5-8.6,24.9-17.2,38.4-24.2a65.6,65.6,0,0,1,25.3-7.3c12.6-.9,23.1,3.4,30.9,13.7l2.5,3.3c-6.6,4.1-13.3,7.7-20.6,8.4-9.3.8-17.7,5.1-25.7,11.7a58.7,58.7,0,0,0-8.1,7.7h-1.3s-31,30,12,40c38.1,8.9,47.2-29.3,48.7-38.2h.4c2.4-5.7,4.8-11.4,7.1-17.2a19.1,19.1,0,0,0,1.7-5.1,27.4,27.4,0,0,0,7.9-3.8,25.2,25.2,0,0,0,10.3-13.9l-5.4-1.2c-1.9-.5-4-.8-5.6-1.8l-.2-.2,11.1,3,20.2-21.2v.4s15.7-15.7,25.2-6.2,5,19.9-1.6,25.7-11.2,24.8,3.7,27.3,24.9-5.4,42.7-32.3,40.5-92.3,84.4-104.8,7.5,20.3,27.4,29,33.9-11.1,43.9-25.6,32.6-32.8,115.3-27.4,314.5-57.1,386.6-129.5c350-351,599.6-345.6,662-429Zm-1562.1,651c10.1,6.8,12,12,8.3,21.8-14.7,1.6-27-5.5-32.2-18.7C286.4,1131.8,294.8,1130.7,302.4,1135.9Zm-48.4,5.8c-7.9-1-13.3-4-16.5-10.1-1.2-2.4-.5-6.1-.6-9.1,2.7-.1,5.9-1.2,8.2-.1C251.6,1125.8,254.4,1131.9,254,1141.7Zm77.7,56.9c-9.3,10.7-20.7,18.6-35.1,20.5-10.2,1.3-19.2-1-24.9-11.2-8.9-15.9-14.6-32.8-16.2-50.9-.6-6.7,2.4-12.2,11-14.8,3,12,13.5,16.4,20.4,24,4.4,5,9.8,6.4,16,6.5s14.3.5,21.3,1.2c2.5.2,5.5,1,7,2.7C335.8,1181.8,336.2,1193.4,331.7,1198.6Z" fill="#aad1c7" stroke="#aad1c7" stroke-miterlimit="10" stroke-width="7.63"/><path d="M27,1191.9l24.5,14.9c7.7,4.8,18.6,5.7,23.9.7,7.3-7.1,8.8-24.2,0-31.4s-24.3-16-36-21.4c-6.3-2.9-15.6,3.8-23.1,5.1-5.8,1-9.8,5.4-9.1,13.1C8.2,1184.3,13.7,1190.9,27,1191.9Z" fill="#aad1c7"/><path d="M92.7,1156.3c0,7.2-.6,13.2.2,18.9,1.9,14.5,9.3,26.5,18.1,37.7,5.3,6.7,20.7,10.6,27.7,8.2s16.8-14.3,16.8-23.7C155.5,1169,122.7,1147.7,92.7,1156.3Z" fill="#aad1c7"/><path d="M289.5,1087.4c11.8.3,20.9-6.9,30.9-11.8,12.2-5.9,19.7-16.1,25.8-27.6,3.6-6.6,1.6-13.6-.6-19.8-1-2.6-6.4-4.8-9.8-4.9-8.8-.4-17.3.3-24.6,7s-18.7,15.1-28,22.7c-5.2,4.2-9.5,9.1-11.5,15.7-1.1,3.8-.7,7.3,2,10.1C277.9,1083.2,281.7,1088.9,289.5,1087.4Z" fill="#aad1c7" stroke="#aad1c7" stroke-miterlimit="10" stroke-width="11.03"/><path d="M79.7,1276.9c4.5-1.4,8.8-2.3,12.6-4H80.4C80.2,1274,80.1,1275.3,79.7,1276.9Z" fill="#fff"/><circle cx="305" cy="1307.1" r="24.5" fill="#8adaed" opacity="0.44"/><circle cx="346.3" cy="1245.9" r="16.4" fill="#fff" opacity="0.59"/><circle cx="144.5" cy="1255.7" r="24.5" fill="#fff" opacity="0.44"/><circle cx="176.4" cy="1346.5" r="29.9" fill="#8adaed" opacity="0.44"/><circle cx="53.8" cy="1236.3" r="25" fill="#8adaed" opacity="0.44"/><circle cx="91.2" cy="1277" r="16.4" fill="#c1cfd3" opacity="0.44"/><circle cx="115.8" cy="1200.8" r="16.4" fill="#fff" opacity="0.59"/><circle cx="212.8" cy="1307.2" r="16.4" fill="#fff" opacity="0.59"/><path d="M1926.3,459s-393.1,73.4-653.9,235.2l81.1,176.7s377-261,587-305Z" fill="#aad1c7" stroke="#aad1c7" stroke-miterlimit="10" stroke-width="7.63"/><path d="M900.1,823.6l-.3.3v-.3Z"/><path d="M751.1,536.6c-65.9-4.4-133.6,6.3-199.9,10.5-83.7,2.8-164.7,7.3-248.2,13.7-6.6,2-28.5-2.7-10-11.1,53-20.9,107.3-28.1,163.9-34,105-15.8,211.1-19,317.9-27.3,42.4-.5,21.3-39.1,65.1-64.8,95.9-46,138-18.7,201.9-15.6,132,16.1,209.7,53.8,300.6,91.8,132.1,59.4,199.9,81.7,271.3,157.6,59.8,60,117.4,114,168.4,181.6,39.3,43.6,64.3,63.9,90,106.3,13.9,10.6,23.9,21.4,42,27.5,13.2,10.6,1.6,18.9-11.7,18.6-72.3,1.7-153.7-108.6-113.6-6.3-15,27.1-84.1-56.1-91.7-66.6-18.2-24.7-20.9-55.1-45.3-76.8-37.8-41.5-95.6-14.3-144.5-16.7-64.2-.6-125.5-10.8-188-26.9-61.7-9.4-120.8-32.6-181.8-44.6.9,29.1,19.8,53.4,40.2,75,15.7,51.8-105.5-25.7-109.8-43.2-17.2,42.9-10.5,47.1-8.9,73.7-19.9,22.8-62.9-57.7-68.9-67.2-14-27.9-17.5-56.9-33.4-84.3-10.2-16.6-29.8-18.8-46.3-27.6C879,668,849.9,652.8,820.5,635,789.6,621.6,731.6,563.6,751.1,536.6Zm913,290.9c11.3-.8,11.1,14.5,20.8,18.3-6.7-16.6,6.2-18.3,11.3-7.2-4,15.3-.6,12.8,10.2,21.8,20.4,15.7,33.6,34.7,50,54.2,5.2,1,19.1,8.9,10-2.1-16.3-28.1-11-13.2-18-37.4-4.2-11-16.8-14.6-12.4-28.9,1-9.1-7.7-8.2-12.6-14.7s-1.3-13,1.5-19.4c-16.5-12.9-3.1-11.2-6.2-25.7-40.2-29,5.5-14.9-43.8-43.2,6.2,24.9-30.9-6.2-4.7-2.6-4.7-6.9-17-2.2-20.8-11.2-14.5-30.6-61.9-36.3-74.4-64.3-25.2-5.6-32.2,10.7-33.1-20.4-20.6,2.1-16.2-17.6-29.8-28.5-4.5-5.4-4.8-6.2-13.1-7.5-40.2-2.1-36.4-34.8-65.4-37.1v.2c-1.8-12.5-22.4,6-32,.5-31-11.2-16.3,5.4-31.9,0-7.3-28.2-7.5-6.8-22.5-19.8-15.4-25-40.6-2.3-53.8-9.5-19.1-3.3-31.5,15.7-51,11-12.9-2.1-13.2,9.5-24,.4-7.2-2.9-1.6-10.9-8.4-14.3-19.7-2.9-29.6,10.4-46.9-7.8-9.7-4.5-16,42.2-32.4,27.9-17.1-9.1,1-14.3-21-17.6-19.9-11.1,9.8-18-1.4-21.8-21.3-14.8-37.9-8.3-34.1,14-2.3,11.1-16.5,11.3-21.4,0-4.9-6.1-14.3-5.8-22.1-7.7,1.1,12.7-23.5,41.1-30.9,19.5-.4-26.3-23-10.3-30.5-14.2-26.9-30.4-25.3,5.9-51.3-2.3-1.8,19.1-26.5-1.5-11.3-10-.5-1.4,0-1.3-.9-5.9s-5.8-3-10.1-5.7c-8.4-10.7-6.6-8.4-16.4-.5-20.6-1.1,4.6-22.6-18.3-15.1-4.2,4.6,7.4,9.8,1.9,15.4-15.4,20.2-20.9,12.2-35.2,6.4-13.7,14.3-13.3,3.1-24.9,4.6-21.2,24.3-19.7-9.9-33.6,23.5-3.5,4.7-12.3,5.3-10.6,12.4,9.4,30.5,18.8,20.8,24,31,3,25.4,21.2-5.8,35.9,37.4,27.5-14.8,12.3,18.7,30.6,12.3,15.3-2.9,20.9,17.2,35.1,21.2,58.1,20.3,112.1,40.9,122.4,36.7-38.5-28.1,7.3-31.2,29.7-28.4,26.5,7.7,49.5,15.6,73.2,30.3,11.9,9.6,17.5,21.1,22.3,35.1,11.9,15.5,57.8,15.1,69.7,24.3,155.3,42.1,206.5,52.6,304.9,58.2,33.4-1.2,63-7.9,96.8-5.2,49.5,7.9,53.5,1.5,60.9,19.4-2-1.3-3.1-4.1-6.2-3.8C1658.6,828.1,1658.8,828.3,1664.1,827.5ZM681.7,528.4c1.9-8.8,4.4-15.9,10.4-24.5-11.9.8-37.4.1-41.3,4.1C616,540.7,663.5,526.3,681.7,528.4Zm54.6-3.3c-6.6-6.9,4.5-15.9,7.5-24.1-19.3,1.6-50.3-2.2-49.4,24.6C708.5,524.4,721.5,526.8,736.3,525.1Zm-101-16.6c-19.4-.2-44-.8-51.7,22.8C634,538.1,626,525.8,635.3,508.5ZM582,514.4c-17.5-4.6-49,3.1-54.2,20.7C577.9,537.2,570.9,533.1,582,514.4ZM476.7,540.3c41.7-3.3,38.4,0,47.6-23.6C507.7,519.3,481.5,520.5,476.7,540.3Zm-45.8,2.8c14.9.9,41.8,3.9,38-12.8,1-3.1,2.5-6.2-3.1-5.6C454.5,527.4,429.1,527.9,430.9,543.1Zm-52,3.3c11,.5,62.4.8,36.9-14.6C402.3,533.2,378.5,534.6,378.9,546.4ZM750,522.6c18.1,4.3,23.9-7.4,31-21.5C758.3,497.8,755.4,503.9,750,522.6ZM336,546.8c6.6,3,32.1,4.7,33-3.4C366.8,536.7,339.1,544.5,336,546.8ZM1464.1,586l1-.2c-.5.3.2-1.5-1.8-.4Z"/><path d="M1433.6,571.6c41.9,12.1,20.9,34.1,72.3,38.6,26.6,22.3,14.4,34.5,30.5,34.1,11.6-2.1,2.1,16.1,10.3,19.8,9.6,1.1,17.9-1.8,28.3,1,16.2,28.8,51.3,33.7,61.8,49.1,8.2,3.8,10.1,13,15.9,19.4,5.3,4.5,12.3,0,17.5,7-25.9-3.6,10.9,27.9,4.7,2.6,50.7,30.4,3.6,15,44.2,44.3,1.8,14.1-10.4,12.6,5.8,24.6-2.7,6.1-6.6,14.2-.5,20.7,23.1,13.2,1.8,18.3,16.6,31.2,6.5,7.4,10.9,15.7,11,26.2,4.4,9.1,30.3,35.6,7.8,25.6-21.5-20.2-40.4-47.3-65.3-66,6.2-22.4-17.7-25.5-9.6-4-8.3-2.3-9.3-18.8-20.8-18.3h.1c-9.4-21-16.7-11.4-34.9-15.2-31.4-7.5-60.8-5.9-92.1-.8-58.6,5.2-62.9-5.6-77.1-.8-150.8-17.7-202.8-45.8-260.5-56.1-114.2-33.6-35.7-6.6-93.5-61.6-84.9-46.9-142.2-28.1-99.4.7-40.7-3.6-85.2-24.1-126.4-38.6-13-5.9-17.6-23.8-33.5-18.6-14.3,1.5-3.6-27.1-28.2-13-11.9-36.4-31.6-21.3-34-29.1-1.8-5.9-1.6-11.7-8-14.1-12.2-5.4-27.3-29.7-8.6-36.3,6.7-4.5,2.8-14.1,11.9-16.9,13.9-.3,10.8,7.4,20.6-6.3,13.4-7.8,11.2,10.9,27.3-6.1,1.3-1.4,2.6-2.3,4.4,1,8.8,12.1,24.8,2.6,31.7-9.1,3.8-7.1-12.9-14.6,3.8-15.3,6.4.5,3.8,4.7,2.2,10,2.1,6.6,11.4,9.9,14.9,1,2.6-.6,3.3-3.2,6.4.3,3.3,8.9,15.4,4.9,15.2,15.5-12.7,16.7,10.2,28.3,11.7,11.9,32,5.9,21.5-27.9,53.2,3,18-1.5,28.2-6.8,29.5,16.6,11.5,16.2,30.3-11.9,30-22.6,11.9,2.3,20.2,1.9,27.1,14.6,18.5,6.2,15.2-7.9,16.4-20.3,13.9-17.6,23.5-6.8,36.8,2.1-23.8,24.4,13.5,15.4,11.3,26.7-.3,6.8,6.7,8.9,12.5,11.9,7.9,4.4,10.1-8.3,15.2-13.3,17.7-32.8,7.4-7.1,37.3-6.2,42.8-11.7,13.5,11.4,40.1,15.3,6.3-5.1,15.2-4.1,22.7-3.1,17.2-2.3,33.9-18.1,53.7-9.6,20.3-8.2,34.6-6.5,47.5,10.8,28.5-1.1,6.4,17.5,24.4,17.4,11.8-11.2,19.2.8,33.8-.6,7.3,1,9.9-2.7,16.3-5.7,4.6-.9,12.1,3,5.6,5.4C1401.2,578.3,1437.2,598.9,1433.6,571.6Zm-541.5-18c-5.9-17.5-27.1-25.8-32.4-7.3C866,552.1,883.8,555.1,892.1,553.6Zm325.8,29.8c17.4,4,12.6-20.6.1-19.7C1209.7,565.5,1205.5,581.1,1217.9,583.4Zm168.5-8.7c-6.4,17.9,10.9,20.3,18.3,10.8C1408.5,576.9,1394.2,570.9,1386.4,574.7Zm-29.1-11.6c-21.1-1.7-14.5,7.5-3,17.2C1371,581.1,1366.4,566.8,1357.3,563.1Zm-157.6,2.2c13.6,2.1,9.5-14.5.1-16.8C1185,546.9,1189.4,562,1199.7,565.3Zm-196.2,5.5c3.2-12.4-6.3-24.1-15.1-11.8C986.8,565.5,1001.1,581,1003.5,570.8ZM971,576.7c-2.8,7.8,9,11.9,14.8,6C990.5,572.8,975.4,565.6,971,576.7Zm531.2,51c13.7-1.1,3.6-15.2-4.4-15.9C1488.9,613.7,1492.9,625.7,1502.2,627.7ZM935.1,533.8c.2,9.8,7.8,20.9,14.9,9.2C950.3,536.6,941.7,526.3,935.1,533.8Zm38.3,10.1c-4.9,6.4-7,22,5.1,16.7C983.5,555.2,981.8,544.2,973.4,543.9ZM1089.3,557c12.2,3.8,13-15.3,1.2-13.9C1085.2,545.7,1079.3,555,1089.3,557Zm70.5-18.3c-3.4,8.6,3.5,21.7,11.5,9.8C1175.2,542.7,1166.2,536.6,1159.8,538.7ZM1086,520.9c-15.3-1.8-8.1,12.5,2.1,13.6C1095.1,532.9,1091.9,523,1086,520.9ZM929.2,541c-11.2-.8-6.5,13.4-.4,16.9C937.5,557.2,933.5,545.6,929.2,541Zm-91.9-6.1c-.6-4.2-7.9-14.3-12.3-5.7C822.9,536.2,832.8,543.4,837.3,534.9Zm891.3,304.3c-9.3-2.4-8.3,9.7-.6,12.1S1735.8,841.6,1728.6,839.2ZM1329.7,557.4c9.4-.2,15.6-6.4,2.5-10.5C1327,546.7,1321.9,553.1,1329.7,557.4Zm-299.2,3.3c6.5-2.8,8.8-11.1,1-12.9C1022.7,549.9,1025.4,554.5,1030.5,560.7Zm480.7,75.4c-5.1,10.7,11,11.1,9.8,3.8C1519.5,636.7,1514.1,630.4,1511.2,636.1ZM817.4,610.9c9.1-.2,6.1-10-2.2-11.1C809,602.6,812,606.6,817.4,610.9Zm824.1,124.9c7,.7,3.8-9-2.3-11.6C1631.4,725.5,1635.1,732.7,1641.5,735.8ZM1180.8,574.1c1.9-1.8,2.2-13.5-3.5-10.5C1169.3,565,1175.3,574.1,1180.8,574.1Zm381.8,92.3c-6.3,1-3.1,10.3,2.6,10.1C1570.3,674.4,1570.3,668,1562.6,666.4Z" fill="#fff"/><path d="M681.7,528.4c-32.8-.2-61.5,8.9-29.7-21.3,5.2-3,28.2-2.4,40.1-3.2A62.3,62.3,0,0,0,681.7,528.4Z" fill="#fff"/><path d="M736.3,525.1c-12.9.1-44.8,3.3-42.7-2.8,7.1-27.1,30.7-18,50.2-21.3C740.8,509.6,729.5,517.8,736.3,525.1Z" fill="#fff"/><path d="M635.3,508.5c-8.2,31.3-27.3,25.3-51.7,22.8C595.1,504.5,613.3,509.9,635.3,508.5Z" fill="#fff"/><path d="M582,514.4c-10,28.5-31.5,20.2-54.2,20.7C535.8,516.2,562.1,510.3,582,514.4Z" fill="#fff"/><path d="M476.7,540.3c5.4-19.8,29.2-20.7,47.6-23.6C517.8,545.3,496.9,537.2,476.7,540.3Z" fill="#fff"/><path d="M430.9,543.1c-.3-16.7,24.3-15.7,36.9-18.4C480,546.1,442.8,545.1,430.9,543.1Z" fill="#fff"/><path d="M378.9,546.4c.4-11.9,18.2-11.2,27-13.7,12.1-2.1,19.6-1.5,14.6,11C407,547.1,393.6,545.9,378.9,546.4Z" fill="#fff"/><path d="M750,522.6c4.7-21.6,13.4-24.1,31-21.5C773.2,516.3,767.7,526.8,750,522.6Z" fill="#fff"/><path d="M336,546.8c6.9-3.6,32.3-9.4,33-3.4C367.9,551.9,339.6,549.5,336,546.8Z" fill="#fff"/><path d="M1664.1,827.5c-5.3.8-5.5.6-6.1-3.8C1660.1,823.3,1662.6,826,1664.1,827.5Z" fill="#fff"/><path d="M892.1,553.6c-9.6,1.4-21.4-1.3-31.5-6.2C858.8,528,888.7,536.2,892.1,553.6Z"/><path d="M1217.9,583.4c-9.1-1.7-9.7-11-4.6-17.2C1226.8,553.7,1238.7,588.2,1217.9,583.4Z"/><path d="M1386.4,574.7a12,12,0,0,0,2.6-.5c6.9-3.3,11.1,1.3,15.3,5.2,1,.9,1.4,3.4,1,4.7-2.5,7.1-14.4,9.2-19.2,3.5a6.6,6.6,0,0,1-1-4.4C1385.3,580.5,1385.9,577.9,1386.4,574.7Z"/><path d="M1357.3,563.1c4.4,1.2,8.6,6.9,8.4,11.4v.6c-1.5,4.1-5.5,4.1-8.7,5s-5,.2-5.4-2.9-1.8-2.7-3.4-3.5a16.2,16.2,0,0,1-3.6-2.1c-2.3-1.9-2.2-3.6-.1-5.9S1351.2,561.3,1357.3,563.1Z"/><path d="M1199.7,565.3c-13.2-5.1-12.4-19.9,1.8-16.3C1210.4,553.2,1212.3,567,1199.7,565.3Z"/><path d="M1003.5,570.8c-2.6,8.1-9.2.2-13-4.5C980.3,552,1008.6,545.9,1003.5,570.8Z"/><path d="M971,576.7c6.8-12.7,18.3-2,14.8,6C980.8,588.4,968.3,585.3,971,576.7Z"/><path d="M1502.2,627.7c-9.7-1.9-13.6-15.7-3.4-15.8C1508.7,614.5,1513.9,627,1502.2,627.7Z"/><path d="M935.1,533.8c4-4.3,9.8-2.9,13.5,3.6C955.1,552.7,934,550.8,935.1,533.8Z"/><path d="M973.4,543.9c5.9.4,9.1,5.4,7.4,12.5C973,571.9,964.5,552.9,973.4,543.9Z"/><path d="M1089.3,557c-10-1.6-4.1-12.7,2.9-14C1101.5,543.4,1101.6,560.5,1089.3,557Z"/><path d="M1159.8,538.7c4.5-1.5,8.9.7,12.5,5.6C1170.5,558.7,1154.7,554.1,1159.8,538.7Z"/><path d="M1086,520.9c3.6.9,7.2,6.9,5.7,10.8C1085.9,542.6,1066.1,518.1,1086,520.9Z"/><path d="M929.2,541c3.3,4.1,9.1,15.1-.4,16.9C923,555.4,917.6,540.2,929.2,541Z"/><path d="M1433.6,571.6c0,2.1-.1,4.3,0,6.4a7.7,7.7,0,0,1-9.5,7.5,6.2,6.2,0,0,1-4.6-6.1c.3-2.8,2-4.3,5.3-5s5.9-1.7,8.9-2.6Z"/><path d="M837.3,534.9c-3.1,6.1-10.6,4.8-12.4-1.9C823.4,520.8,836.2,526.2,837.3,534.9Z"/><path d="M1728.6,839.2c6,1.5,7.9,13.3-.6,12.1C1721.8,849.9,1717.9,837,1728.6,839.2Z"/><path d="M1329.7,557.4c-1.8-1.8-4.9-3.8-4.6-4.9s2.8-4.1,4.9-5.4,8.6,1.7,9.6,4.1.2,3.8-1.7,4.4A58.7,58.7,0,0,1,1329.7,557.4Z"/><path d="M1030.5,560.7c-4.4-4.2-8-12.4,2.3-12.8C1038.3,551,1037.6,557.4,1030.5,560.7Z"/><path d="M1511.2,636.1c2.2-6.8,13.2,3.4,8.7,7.5C1514.5,645.9,1508,645.4,1511.2,636.1Z"/><path d="M817.4,610.9c-4.6-2.3-9.5-11.9.6-10.7C821.7,602.8,827.6,609.7,817.4,610.9Z"/><path d="M1641.5,735.8c-4.7-1.5-11.5-12-.9-11.1C1643.1,726.1,1650.2,736.3,1641.5,735.8Z"/><path d="M1180.8,574.1c-4.5.1-12.1-8.3-3.5-10.5C1181.8,560.5,1183.5,571.1,1180.8,574.1Z"/><path d="M1562.6,666.4c7.9,1.2,7.9,9.7,1,10C1559.5,674.5,1556.1,667.6,1562.6,666.4Z"/><path d="M1925.8,407.2c-8-1.9-15.9-4.6-23.9-6.3a76.1,76.1,0,0,0-17.1-2c-21.8.5-43.5,1.4-65.3,2.2a518.5,518.5,0,0,0-76.7,8.3c-3.7.7-7.5.2-11.1,1a185.7,185.7,0,0,0-21,5.7c-3.2,1.1-4-1.9-5.4-2.1-1.8,1.9-2.9,4-4.6,4.8-5,2.2-10.3,3.8-15.4,5.8-14.2,5.6-28.4,11.1-42.5,16.8-7.6,3.1-15.2,6.5-22.6,10-5.7,2.6-11.1,5.5-16.6,8.3-2,1.1-3.8,2.5-5.7,3.7-10.4,6-21.1,11.4-31.2,18a324.3,324.3,0,0,0-27.6,20.6c-10.7,8.6-20.6,18.3-31.5,26.7a138.5,138.5,0,0,0-21.5,21.1c-.4.5.4,2.1.7,3.7-4.6-.6-7.4,1.2-10.1,4.4-8.2,10-16.9,19.7-25.3,29.6q-18.3,21.4-36.4,43c-12.2,14.6-24.6,28.9-35.3,44.7-8.1,11.8-17.3,22.7-26.1,33.9-17,21.9-35.2,42.4-58.5,57.8s-46.3,20.1-72.2,16.7a31.5,31.5,0,0,0-19.5,3.2c-7.5,3.8-9.3,12.4-4.3,19.1,3.7,4.9,3.4,7.8-.1,12.8s-7.4,4.9-11.5,6.4c-7.3,2.8-9,9.5-4,15.4l10.5,12.3c-2.3,8.5-4.9,16.3-11.6,21.9-5.1,4.1-9.8,8.6-15.2,12.2a231.2,231.2,0,0,1-40.6,22.1c-10.4,4.4-20.6,9.1-31.2,12.8-6,2.1-12.9,1.7-18.9,3.7-11.1,3.7-22.7,3.8-34,4.5a252.4,252.4,0,0,1-61.4-3.7c-13.6-2.5-27.7-2.5-41.1-5.6-19.9-4.5-39.3-11-58.6-17.8-14.1-5-26.9-12.7-39.9-19.9-4.1-2.3-8.6-4.2-12.3-7.1q-19.5-15-38.6-30.5c-12.5-10.1-25.1-19.8-38.3-28.9-18.1-12.5-36.5-24-57.9-29.7-15.9-4.3-31.9-5.2-47.4,2.6-6.2,3.1-9.7,13-2,18.5,2.4,1.7,5,3.2,7.6,4.8s6.9,3.2,9.8,5.5,7.4,6.9,6.6,12.7-4.1,9.8-9.1,11c-9.2,2.2-19,3.1-28-.9-17.2-7.8-35.2-12.5-53.6-16.4-7.9-1.7-15.8-.7-23.7.4a7.4,7.4,0,0,0-4.9,3.6c-4.1,7.4-9.5,11.9-18.5,11.5-5.1-.2-7.8,2.5-9.5,7.9,1.6.9,3.7,1.5,5,2.8s4.9,5,3.9,8.9-4.5,4.4-7.8,4.2c-8.4-.6-16.9-1.3-25.4-2.3-11.2-1.2-21.9-.1-31.8,6-4.1,2.6-7.1,10.1-5.7,14.4s6.9,7.9,12.5,7.2c7.4-.8,14.8-2.3,22.2-3.5,10.8-1.6,21.8-3.4,32.9-1.2,1.8.4,3.9-.1,5.9-.5,18.4-2.8,36.3-.2,53.9,5.5,11,3.5,20,10.2,28.7,17.4,4.3,3.5,5.4,12.1,3,17.4s-5.2,6-9.6,5.4-8.4-1.7-12.5-2.5-6.9-1.8-10.3-1.7c-7.1.1-9.7,5.4-6,11.3,2.6,4.3,4.8,8.7,4.7,13.8s-.3,11.5-.4,17.3,2.4,9.5,8.4,10.4a25.6,25.6,0,0,0,10.3-.6c7.5-2,14.8-4.6,22.1-7.2,18.4-6.7,34.3-1.8,48.6,10.4,5.6,4.7,6,9.4,1.4,15a16.2,16.2,0,0,1-7.1,5.1c-6.7,1.8-13.6,3.1-20.5,4.3-3.9.7-7.9,1-10.2,5.1,1.8,5,3.5,10,9,12.2,10.7,4.1,22.3,6.1,33.2,4.5,16.8-2.4,33.1-7.5,49.6-11.4,11.4-2.7,23-4.7,34.7-4.1a151.6,151.6,0,0,1,25.9,4c12.9,3.2,25.4,8.2,36.2,16.1s14.9,16.1,12.8,28.4c-.9,5.1-2.1,10.2-3.5,15.2s.2,8.6,5.5,8.6a28.6,28.6,0,0,0,11.4-2.8c4.3-2,8.1-5,12.1-7.5,9.5-5.8,20.5-5.9,30.8-8.8a50.5,50.5,0,0,1,11.1-1.8c10.4-.8,21-.8,31.4-2.1,23.2-3.2,46.5-6.4,69.6-10.7s48.3-9.1,71.6-17c10.6-3.7,20.9-8.2,31.3-12.3a112.9,112.9,0,0,0,11.8-5c26.7-14.6,54-28.4,78.4-46.8,12.3-9.3,23.7-19.8,35.5-29.7,4.9-4.2,10.4-8.1,14.6-12.9,12.4-14.5,27-26.6,40.7-39.7,2.8-2.7,5.3-5.8,8.1-8.6,6.3-6.5,12.8-12.9,19.1-19.4a23.7,23.7,0,0,0,2.9-3.4c6.7-9,13-18.3,19.9-27.2,13.2-16.9,26.7-33.7,40.2-50.4s28.5-35.6,43.7-52.5c10.7-11.9,22.9-22.4,34.5-33.4,3.3-3.1,6.8-5.8,10.1-8.8,13.5-12,26.8-24.2,41.9-34.2,9.5-6.3,18.8-13,27.8-20,14.6-11.4,29.5-21.8,46.8-28.5s34.9-13.9,52.7-19.7a217.7,217.7,0,0,1,37.2-8.5c12.5-1.9,25.3-2.2,38-2.6,5.5-.2,145.3,21.5,214.7,32.1M644.9,887.5a14.7,14.7,0,0,1-14.3,2.2c-7.7-2.8-15.5-5.7-18.9-14.4-.9-2-2.5-3.8-3.2-5.9-1.7-5-5.4-7.5-9.9-9.5a54.3,54.3,0,0,1-9.2-5.7,5.3,5.3,0,0,1-1.9-6.3c1.9-5,7.6-8.4,14.2-8.1a79.2,79.2,0,0,1,41.9,12.6C660.6,863.5,660,876.4,644.9,887.5Zm36.3,16.9c-3,4.7-14.7,10-19.9,8.4a99.6,99.6,0,0,1-14.5-5.8c-4.7-2.3-5.1-5.8-1.5-9.6a14.7,14.7,0,0,1,5.5-3.8c4.4-1.5,9-2.4,13.6-3.6,0,.2.1.4.1.6,2.5.2,5,.2,7.5.6a41,41,0,0,1,5,1.4C682.5,894.5,684.3,899.6,681.2,904.4Z" fill="#296a6a" stroke="#296a6a" stroke-miterlimit="10" stroke-width="12.8"/><path d="M699.5,1103.2c-12.2-7.6-26.2-11.8-40.5-13.8-2.8-.4-5.7-.1-10.7-.1-10.7-1.6-21.7,3.8-32.3,10s-13.2,19.6-6.6,30.4c4,6.5,9.2,9.5,17.5,10.2a52.5,52.5,0,0,0,23.4-3.3c7.4-2.7,14.7-2.3,22.1-.4,3.6.9,7.2,2.1,10.9,3.1,10.2,2.7,18.4-1.6,25.4-8.3,1.7-1.7,2.4-5,2.5-7.7C711.8,1114.1,706.2,1107.3,699.5,1103.2Z" fill="#296a6a" stroke="#296a6a" stroke-miterlimit="10" stroke-width="4.71"/><path d="M801.1,1053.8c-21.6-11-44-10.7-66.7-3.7-2.3.6-4.4,1.8-6.7,2.2-10.6,1.7-16.7,9.2-21.8,17.4-1.8,2.8-1.7,6.9-2.4,10.4-1.2,11.2,6.7,16.1,14.5,20.3a36,36,0,0,0,28,3c8-2.5,13.8-.6,19.3,5.4s12.1,6.3,18.7.7,9.4-9.6,14.4-14.1a15.9,15.9,0,0,1,7.5-3.6c9.1-1.7,14.5-9.8,12.1-18.8S809.2,1057.9,801.1,1053.8Z" fill="#296a6a" stroke="#296a6a" stroke-miterlimit="10" stroke-width="0.59"/><path d="M503.1,972.4c1.7,1.5,3.5,3.5,5.5,4.1,11.7,3.2,23.5,6.1,35.2,9.1,6.4-.2,9.2-4.2,8.2-11.7a40.3,40.3,0,0,0-1.1-5c-4.1-17.5-34.6-31.7-48.9-13.7C497.1,961.3,497.1,967.3,503.1,972.4Z" fill="#296a6a" stroke="#296a6a" stroke-miterlimit="10" stroke-width="14.13"/><path d="M733.8,1154.1a208.4,208.4,0,0,1,22.8-13.3c5.4-2.7,11.4-.3,14.4,4.3s3.7,11.1-.5,15.9a36.8,36.8,0,0,1-26.9,12.8,14.1,14.1,0,0,1-4.1-.1c-4.1-1.1-8.1-2.8-9-7.4S729.8,1156.8,733.8,1154.1Z" fill="#296a6a"/><circle cx="1802.1" cy="597.4" r="16.8" fill="#fff"/><circle cx="1876.6" cy="554.1" r="20.5" fill="#fff" opacity="0.54"/><circle cx="1855.6" cy="609.9" r="17.1" fill="#dedbe5" opacity="0.44"/><circle cx="1900.7" cy="548.5" r="11.2" fill="#fff"/><circle cx="1903.5" cy="622.7" r="11.2" fill="#fff" opacity="0.59"/><circle cx="1882.9" cy="590.4" r="11.2" fill="#fff" opacity="0.59"/><circle cx="792.6" cy="825" r="14.7" fill="#dedbe5"/><circle cx="812" cy="859.4" r="17.9" fill="#dedbe5" opacity="0.85"/><circle cx="761.5" cy="819.6" r="14.9" fill="#dedbe5" opacity="0.44"/><circle cx="740.6" cy="857.5" r="9.8" fill="#fff" opacity="0.59"/><circle cx="772.3" cy="846.8" r="9.8" fill="#fff" opacity="0.59"/><circle cx="832.4" cy="881" r="9.8" fill="#fff" opacity="0.59"/><circle cx="787.3" cy="1019.5" r="14.7" fill="#fff" opacity="0.44"/><circle cx="809" cy="1049.1" r="17.9" fill="#fff" opacity="0.85"/><circle cx="733.1" cy="1007.9" r="14.9" fill="#fff" opacity="0.44"/><circle cx="755.4" cy="1032.3" r="9.8" fill="#fff" opacity="0.59"/></g></svg>