<svg height="1692" viewBox="0 0 1904 1692" width="1904" xmlns="http://www.w3.org/2000/svg"><path d="m1907 837v866h-1910v-505.1c-12.8-3-19.6-4.8-19.6-4.8l8-424.9s619 88.9 996-163.5 917-203.8 917-203.8l3.1 436.1z" fill="#b0c6d1"/><path d="m-30.6 733.8s81.8-105 257.1-91 478.6 126 851.2 112 838.7-147 838.7-147l-20.2 330s-635.5 183-1047.7 21-791.5-189-879.1-105z" fill="#d3dce5" opacity=".5"/><path d="m1907.4 400.8s-540-48-917 202-996 162-996 162l-8 421s719 185 1197-17 729-66 729-66z" fill="#edf1f4" opacity=".5"/><path d="m192.4 1277.3-5.6 1.5a9.6 9.6 0 0 1 4.7-1.4z" fill="#aad1c7" stroke="#aad1c7" stroke-miterlimit="10" stroke-width="7.63"/><path d="m204.8 1274a33.1 33.1 0 0 1 -12.4 3.3z" fill="#aad1c7" stroke="#aad1c7" stroke-miterlimit="10" stroke-width="7.63"/><path d="m1864.5 484.9-528 181.7-141.6 50.7-124.7 156.4-116.2 99.3-207.1 10.5-85.5-12.2c-4.9-5.7-15.2-7.9-32.9-4.9-98.4 17.1-188.9 48.9-192.3 50.1s-4.5 0-6.2.6c-5.2 1.5-10.6 2.7-15.4 5.2-14.4 7.4-28.7 15.1-39.3 28.1a31.4 31.4 0 0 0 -6.7 14c-.8 4-3.6 8.1-4.3 12.2-2.2 12.3-5.9 22.7-14.6 31.6-3.4 3.5-6.5 7.4-11.3 9.1-9.4 3.2-19 5-28.6.5-1.5-.7-3-1.1-4.6-1.7a24.1 24.1 0 0 0 -15-.9c-5.1 1.3-10.3 2.3-15.4 1.2a87.6 87.6 0 0 1 -17.6-5.4c-3.8-1.7-7.6-4.5-11.7-5s-8 .4-11.9-.1a26.9 26.9 0 0 0 -15.3 2.8c-11.3 5.7-14 19.7-4.2 29.4a83.7 83.7 0 0 0 7.9 6.6c4.9 3.7 9.7 9.9 15 12.9 7.1 4.1 6.6 8.1 5.6 14.5-.4 2.9-1.3 6.7-3.4 8.3-4.7 3.6-9.4 8-16.3 6.9-2.5-.4-5.1-.4-7.6-.8a63.7 63.7 0 0 0 -19.5 0c-9.4 1.3-15.8 6.6-21.1 13.9-2.4 3.3-2.6 7-1.2 10.8a27 27 0 0 0 2.4 5.5c4.6 7.2 1.5 14.3-.5 21.3a3.2 3.2 0 0 1 -1.8 2c-3.4 1.7-6.7 4-10.3 4.6-12.5 2-23.9 6.6-34.9 12.6-1.5.8-3.3 2.1-3.8 3.5s-2.1 2.7-3.5 3.8a27.8 27.8 0 0 0 -4.3 4.1c-3.6 4.5-7.1 9-10.6 13.6-34.5 35.8-.6 52.7 21.3 48.7 17.2-3.1 11-49 11-49h-.1c.9-1.6 2.4-2.9 3.5-4.4 9-11.4 19.4-20.7 33-26.4 9.5-3.9 18.7-6.2 29-4 5.6 1.2 10.9 5.7 11.4 10.7s-1.1 10-5.7 13.3a34 34 0 0 1 -4.8 2.9 33.1 33.1 0 0 1 -12.4 3.3l-5.6 1.5h-.3s-39.7 13.2-24 31c45.9 51.9 140.6 15.2 180.7-27.7h.8c5.4-3.5 10.8-6.9 16.1-10.6 12.5-8.6 24.9-17.2 38.4-24.2a65.6 65.6 0 0 1 25.3-7.3c12.6-.9 23.1 3.4 30.9 13.7l2.5 3.3c-6.6 4.1-13.3 7.7-20.6 8.4-9.3.8-17.7 5.1-25.7 11.7a58.7 58.7 0 0 0 -8.1 7.7h-1.3s-31 30 12 40c38.1 8.9 47.2-29.3 48.7-38.2h.4c2.4-5.7 4.8-11.4 7.1-17.2a19.1 19.1 0 0 0 1.7-5.1 27.4 27.4 0 0 0 7.9-3.8 25.2 25.2 0 0 0 10.3-13.9l-5.4-1.2c-1.9-.5-4-.8-5.6-1.8l-.2-.2 11.1 3 20.2-21.2v.4s15.7-15.7 25.2-6.2 5 19.9-1.6 25.7-11.2 24.8 3.7 27.3 24.9-5.4 42.7-32.3 40.5-92.3 84.4-104.8 7.5 20.3 27.4 29 33.9-11.1 43.9-25.6 32.6-32.8 115.3-27.4 314.5-57.1 386.6-129.5c350-351 599.6-345.6 662-429zm-1562.1 651c10.1 6.8 12 12 8.3 21.8-14.7 1.6-27-5.5-32.2-18.7 7.9-7.2 16.3-8.3 23.9-3.1zm-48.4 5.8c-7.9-1-13.3-4-16.5-10.1-1.2-2.4-.5-6.1-.6-9.1 2.7-.1 5.9-1.2 8.2-.1 6.5 3.4 9.3 9.5 8.9 19.3zm77.7 56.9c-9.3 10.7-20.7 18.6-35.1 20.5-10.2 1.3-19.2-1-24.9-11.2-8.9-15.9-14.6-32.8-16.2-50.9-.6-6.7 2.4-12.2 11-14.8 3 12 13.5 16.4 20.4 24 4.4 5 9.8 6.4 16 6.5s14.3.5 21.3 1.2c2.5.2 5.5 1 7 2.7 4.6 5.2 5 16.8.5 22z" fill="#aad1c7" stroke="#aad1c7" stroke-miterlimit="10" stroke-width="7.63"/><path d="m27 1191.9 24.5 14.9c7.7 4.8 18.6 5.7 23.9.7 7.3-7.1 8.8-24.2 0-31.4s-24.3-16-36-21.4c-6.3-2.9-15.6 3.8-23.1 5.1-5.8 1-9.8 5.4-9.1 13.1 1 11.4 6.5 18 19.8 19z" fill="#aad1c7"/><path d="m92.7 1156.3c0 7.2-.6 13.2.2 18.9 1.9 14.5 9.3 26.5 18.1 37.7 5.3 6.7 20.7 10.6 27.7 8.2s16.8-14.3 16.8-23.7c0-28.4-32.8-49.7-62.8-41.1z" fill="#aad1c7"/><path d="m289.5 1087.4c11.8.3 20.9-6.9 30.9-11.8 12.2-5.9 19.7-16.1 25.8-27.6 3.6-6.6 1.6-13.6-.6-19.8-1-2.6-6.4-4.8-9.8-4.9-8.8-.4-17.3.3-24.6 7s-18.7 15.1-28 22.7c-5.2 4.2-9.5 9.1-11.5 15.7-1.1 3.8-.7 7.3 2 10.1 4.2 4.4 8 10.1 15.8 8.6z" fill="#aad1c7" stroke="#aad1c7" stroke-miterlimit="10" stroke-width="11.03"/><path d="m79.7 1276.9c4.5-1.4 8.8-2.3 12.6-4h-11.9c-.2 1.1-.3 2.4-.7 4z" fill="#fff"/><circle cx="305" cy="1307.1" fill="#8adaed" opacity=".44" r="24.5"/><circle cx="346.3" cy="1245.9" fill="#fff" opacity=".59" r="16.4"/><circle cx="144.5" cy="1255.7" fill="#fff" opacity=".44" r="24.5"/><circle cx="176.4" cy="1346.5" fill="#8adaed" opacity=".44" r="29.9"/><circle cx="53.8" cy="1236.3" fill="#8adaed" opacity=".44" r="25"/><circle cx="91.2" cy="1277" fill="#c1cfd3" opacity=".44" r="16.4"/><circle cx="115.8" cy="1200.8" fill="#fff" opacity=".59" r="16.4"/><circle cx="212.8" cy="1307.2" fill="#fff" opacity=".59" r="16.4"/><path d="m1926.3 459s-393.1 73.4-653.9 235.2l81.1 176.7s377-261 587-305z" fill="#aad1c7" stroke="#aad1c7" stroke-miterlimit="10" stroke-width="7.63"/><path d="m900.1 823.6-.3.3v-.3z"/><path d="m751.1 536.6c-65.9-4.4-133.6 6.3-199.9 10.5-83.7 2.8-164.7 7.3-248.2 13.7-6.6 2-28.5-2.7-10-11.1 53-20.9 107.3-28.1 163.9-34 105-15.8 211.1-19 317.9-27.3 42.4-.5 21.3-39.1 65.1-64.8 95.9-46 138-18.7 201.9-15.6 132 16.1 209.7 53.8 300.6 91.8 132.1 59.4 199.9 81.7 271.3 157.6 59.8 60 117.4 114 168.4 181.6 39.3 43.6 64.3 63.9 90 106.3 13.9 10.6 23.9 21.4 42 27.5 13.2 10.6 1.6 18.9-11.7 18.6-72.3 1.7-153.7-108.6-113.6-6.3-15 27.1-84.1-56.1-91.7-66.6-18.2-24.7-20.9-55.1-45.3-76.8-37.8-41.5-95.6-14.3-144.5-16.7-64.2-.6-125.5-10.8-188-26.9-61.7-9.4-120.8-32.6-181.8-44.6.9 29.1 19.8 53.4 40.2 75 15.7 51.8-105.5-25.7-109.8-43.2-17.2 42.9-10.5 47.1-8.9 73.7-19.9 22.8-62.9-57.7-68.9-67.2-14-27.9-17.5-56.9-33.4-84.3-10.2-16.6-29.8-18.8-46.3-27.6-31.4-11.9-60.5-27.1-89.9-44.9-30.9-13.4-88.9-71.4-69.4-98.4zm913 290.9c11.3-.8 11.1 14.5 20.8 18.3-6.7-16.6 6.2-18.3 11.3-7.2-4 15.3-.6 12.8 10.2 21.8 20.4 15.7 33.6 34.7 50 54.2 5.2 1 19.1 8.9 10-2.1-16.3-28.1-11-13.2-18-37.4-4.2-11-16.8-14.6-12.4-28.9 1-9.1-7.7-8.2-12.6-14.7s-1.3-13 1.5-19.4c-16.5-12.9-3.1-11.2-6.2-25.7-40.2-29 5.5-14.9-43.8-43.2 6.2 24.9-30.9-6.2-4.7-2.6-4.7-6.9-17-2.2-20.8-11.2-14.5-30.6-61.9-36.3-74.4-64.3-25.2-5.6-32.2 10.7-33.1-20.4-20.6 2.1-16.2-17.6-29.8-28.5-4.5-5.4-4.8-6.2-13.1-7.5-40.2-2.1-36.4-34.8-65.4-37.1v.2c-1.8-12.5-22.4 6-32 .5-31-11.2-16.3 5.4-31.9 0-7.3-28.2-7.5-6.8-22.5-19.8-15.4-25-40.6-2.3-53.8-9.5-19.1-3.3-31.5 15.7-51 11-12.9-2.1-13.2 9.5-24 .4-7.2-2.9-1.6-10.9-8.4-14.3-19.7-2.9-29.6 10.4-46.9-7.8-9.7-4.5-16 42.2-32.4 27.9-17.1-9.1 1-14.3-21-17.6-19.9-11.1 9.8-18-1.4-21.8-21.3-14.8-37.9-8.3-34.1 14-2.3 11.1-16.5 11.3-21.4 0-4.9-6.1-14.3-5.8-22.1-7.7 1.1 12.7-23.5 41.1-30.9 19.5-.4-26.3-23-10.3-30.5-14.2-26.9-30.4-25.3 5.9-51.3-2.3-1.8 19.1-26.5-1.5-11.3-10-.5-1.4 0-1.3-.9-5.9s-5.8-3-10.1-5.7c-8.4-10.7-6.6-8.4-16.4-.5-20.6-1.1 4.6-22.6-18.3-15.1-4.2 4.6 7.4 9.8 1.9 15.4-15.4 20.2-20.9 12.2-35.2 6.4-13.7 14.3-13.3 3.1-24.9 4.6-21.2 24.3-19.7-9.9-33.6 23.5-3.5 4.7-12.3 5.3-10.6 12.4 9.4 30.5 18.8 20.8 24 31 3 25.4 21.2-5.8 35.9 37.4 27.5-14.8 12.3 18.7 30.6 12.3 15.3-2.9 20.9 17.2 35.1 21.2 58.1 20.3 112.1 40.9 122.4 36.7-38.5-28.1 7.3-31.2 29.7-28.4 26.5 7.7 49.5 15.6 73.2 30.3 11.9 9.6 17.5 21.1 22.3 35.1 11.9 15.5 57.8 15.1 69.7 24.3 155.3 42.1 206.5 52.6 304.9 58.2 33.4-1.2 63-7.9 96.8-5.2 49.5 7.9 53.5 1.5 60.9 19.4-2-1.3-3.1-4.1-6.2-3.8.7 4.4.9 4.6 6.2 3.8zm-982.4-299.1c1.9-8.8 4.4-15.9 10.4-24.5-11.9.8-37.4.1-41.3 4.1-34.8 32.7 12.7 18.3 30.9 20.4zm54.6-3.3c-6.6-6.9 4.5-15.9 7.5-24.1-19.3 1.6-50.3-2.2-49.4 24.6 14.1-1.2 27.1 1.2 41.9-.5zm-101-16.6c-19.4-.2-44-.8-51.7 22.8 50.4 6.8 42.4-5.5 51.7-22.8zm-53.3 5.9c-17.5-4.6-49 3.1-54.2 20.7 50.1 2.1 43.1-2 54.2-20.7zm-105.3 25.9c41.7-3.3 38.4 0 47.6-23.6-16.6 2.6-42.8 3.8-47.6 23.6zm-45.8 2.8c14.9.9 41.8 3.9 38-12.8 1-3.1 2.5-6.2-3.1-5.6-11.3 2.7-36.7 3.2-34.9 18.4zm-52 3.3c11 .5 62.4.8 36.9-14.6-13.5 1.4-37.3 2.8-36.9 14.6zm371.1-23.8c18.1 4.3 23.9-7.4 31-21.5-22.7-3.3-25.6 2.8-31 21.5zm-414 24.2c6.6 3 32.1 4.7 33-3.4-2.2-6.7-29.9 1.1-33 3.4zm1128.1 39.2 1-.2c-.5.3.2-1.5-1.8-.4z"/><g fill="#fff"><path d="m1433.6 571.6c41.9 12.1 20.9 34.1 72.3 38.6 26.6 22.3 14.4 34.5 30.5 34.1 11.6-2.1 2.1 16.1 10.3 19.8 9.6 1.1 17.9-1.8 28.3 1 16.2 28.8 51.3 33.7 61.8 49.1 8.2 3.8 10.1 13 15.9 19.4 5.3 4.5 12.3 0 17.5 7-25.9-3.6 10.9 27.9 4.7 2.6 50.7 30.4 3.6 15 44.2 44.3 1.8 14.1-10.4 12.6 5.8 24.6-2.7 6.1-6.6 14.2-.5 20.7 23.1 13.2 1.8 18.3 16.6 31.2 6.5 7.4 10.9 15.7 11 26.2 4.4 9.1 30.3 35.6 7.8 25.6-21.5-20.2-40.4-47.3-65.3-66 6.2-22.4-17.7-25.5-9.6-4-8.3-2.3-9.3-18.8-20.8-18.3h.1c-9.4-21-16.7-11.4-34.9-15.2-31.4-7.5-60.8-5.9-92.1-.8-58.6 5.2-62.9-5.6-77.1-.8-150.8-17.7-202.8-45.8-260.5-56.1-114.2-33.6-35.7-6.6-93.5-61.6-84.9-46.9-142.2-28.1-99.4.7-40.7-3.6-85.2-24.1-126.4-38.6-13-5.9-17.6-23.8-33.5-18.6-14.3 1.5-3.6-27.1-28.2-13-11.9-36.4-31.6-21.3-34-29.1-1.8-5.9-1.6-11.7-8-14.1-12.2-5.4-27.3-29.7-8.6-36.3 6.7-4.5 2.8-14.1 11.9-16.9 13.9-.3 10.8 7.4 20.6-6.3 13.4-7.8 11.2 10.9 27.3-6.1 1.3-1.4 2.6-2.3 4.4 1 8.8 12.1 24.8 2.6 31.7-9.1 3.8-7.1-12.9-14.6 3.8-15.3 6.4.5 3.8 4.7 2.2 10 2.1 6.6 11.4 9.9 14.9 1 2.6-.6 3.3-3.2 6.4.3 3.3 8.9 15.4 4.9 15.2 15.5-12.7 16.7 10.2 28.3 11.7 11.9 32 5.9 21.5-27.9 53.2 3 18-1.5 28.2-6.8 29.5 16.6 11.5 16.2 30.3-11.9 30-22.6 11.9 2.3 20.2 1.9 27.1 14.6 18.5 6.2 15.2-7.9 16.4-20.3 13.9-17.6 23.5-6.8 36.8 2.1-23.8 24.4 13.5 15.4 11.3 26.7-.3 6.8 6.7 8.9 12.5 11.9 7.9 4.4 10.1-8.3 15.2-13.3 17.7-32.8 7.4-7.1 37.3-6.2 42.8-11.7 13.5 11.4 40.1 15.3 6.3-5.1 15.2-4.1 22.7-3.1 17.2-2.3 33.9-18.1 53.7-9.6 20.3-8.2 34.6-6.5 47.5 10.8 28.5-1.1 6.4 17.5 24.4 17.4 11.8-11.2 19.2.8 33.8-.6 7.3 1 9.9-2.7 16.3-5.7 4.6-.9 12.1 3 5.6 5.4-30.3 5.9 5.7 26.5 2.1-.8zm-541.5-18c-5.9-17.5-27.1-25.8-32.4-7.3 6.3 5.8 24.1 8.8 32.4 7.3zm325.8 29.8c17.4 4 12.6-20.6.1-19.7-8.3 1.8-12.5 17.4-.1 19.7zm168.5-8.7c-6.4 17.9 10.9 20.3 18.3 10.8 3.8-8.6-10.5-14.6-18.3-10.8zm-29.1-11.6c-21.1-1.7-14.5 7.5-3 17.2 16.7.8 12.1-13.5 3-17.2zm-157.6 2.2c13.6 2.1 9.5-14.5.1-16.8-14.8-1.6-10.4 13.5-.1 16.8zm-196.2 5.5c3.2-12.4-6.3-24.1-15.1-11.8-1.6 6.5 12.7 22 15.1 11.8zm-32.5 5.9c-2.8 7.8 9 11.9 14.8 6 4.7-9.9-10.4-17.1-14.8-6zm531.2 51c13.7-1.1 3.6-15.2-4.4-15.9-8.9 1.9-4.9 13.9 4.4 15.9zm-567.1-93.9c.2 9.8 7.8 20.9 14.9 9.2.3-6.4-8.3-16.7-14.9-9.2zm38.3 10.1c-4.9 6.4-7 22 5.1 16.7 5-5.4 3.3-16.4-5.1-16.7zm115.9 13.1c12.2 3.8 13-15.3 1.2-13.9-5.3 2.6-11.2 11.9-1.2 13.9zm70.5-18.3c-3.4 8.6 3.5 21.7 11.5 9.8 3.9-5.8-5.1-11.9-11.5-9.8zm-73.8-17.8c-15.3-1.8-8.1 12.5 2.1 13.6 7-1.6 3.8-11.5-2.1-13.6zm-156.8 20.1c-11.2-.8-6.5 13.4-.4 16.9 8.7-.7 4.7-12.3.4-16.9zm-91.9-6.1c-.6-4.2-7.9-14.3-12.3-5.7-2.1 7 7.8 14.2 12.3 5.7zm891.3 304.3c-9.3-2.4-8.3 9.7-.6 12.1s7.8-9.7.6-12.1zm-398.9-281.8c9.4-.2 15.6-6.4 2.5-10.5-5.2-.2-10.3 6.2-2.5 10.5zm-299.2 3.3c6.5-2.8 8.8-11.1 1-12.9-8.8 2.1-6.1 6.7-1 12.9zm480.7 75.4c-5.1 10.7 11 11.1 9.8 3.8-1.5-3.2-6.9-9.5-9.8-3.8zm-693.8-25.2c9.1-.2 6.1-10-2.2-11.1-6.2 2.8-3.2 6.8 2.2 11.1zm824.1 124.9c7 .7 3.8-9-2.3-11.6-7.8 1.3-4.1 8.5 2.3 11.6zm-460.7-161.7c1.9-1.8 2.2-13.5-3.5-10.5-8 1.4-2 10.5 3.5 10.5zm381.8 92.3c-6.3 1-3.1 10.3 2.6 10.1 5.1-2.1 5.1-8.5-2.6-10.1z"/><path d="m681.7 528.4c-32.8-.2-61.5 8.9-29.7-21.3 5.2-3 28.2-2.4 40.1-3.2a62.3 62.3 0 0 0 -10.4 24.5z"/><path d="m736.3 525.1c-12.9.1-44.8 3.3-42.7-2.8 7.1-27.1 30.7-18 50.2-21.3-3 8.6-14.3 16.8-7.5 24.1z"/><path d="m635.3 508.5c-8.2 31.3-27.3 25.3-51.7 22.8 11.5-26.8 29.7-21.4 51.7-22.8z"/><path d="m582 514.4c-10 28.5-31.5 20.2-54.2 20.7 8-18.9 34.3-24.8 54.2-20.7z"/><path d="m476.7 540.3c5.4-19.8 29.2-20.7 47.6-23.6-6.5 28.6-27.4 20.5-47.6 23.6z"/><path d="m430.9 543.1c-.3-16.7 24.3-15.7 36.9-18.4 12.2 21.4-25 20.4-36.9 18.4z"/><path d="m378.9 546.4c.4-11.9 18.2-11.2 27-13.7 12.1-2.1 19.6-1.5 14.6 11-13.5 3.4-26.9 2.2-41.6 2.7z"/><path d="m750 522.6c4.7-21.6 13.4-24.1 31-21.5-7.8 15.2-13.3 25.7-31 21.5z"/><path d="m336 546.8c6.9-3.6 32.3-9.4 33-3.4-1.1 8.5-29.4 6.1-33 3.4z"/><path d="m1664.1 827.5c-5.3.8-5.5.6-6.1-3.8 2.1-.4 4.6 2.3 6.1 3.8z"/></g><path d="m892.1 553.6c-9.6 1.4-21.4-1.3-31.5-6.2-1.8-19.4 28.1-11.2 31.5 6.2z"/><path d="m1217.9 583.4c-9.1-1.7-9.7-11-4.6-17.2 13.5-12.5 25.4 22 4.6 17.2z"/><path d="m1386.4 574.7a12 12 0 0 0 2.6-.5c6.9-3.3 11.1 1.3 15.3 5.2 1 .9 1.4 3.4 1 4.7-2.5 7.1-14.4 9.2-19.2 3.5a6.6 6.6 0 0 1 -1-4.4c.2-2.7.8-5.3 1.3-8.5z"/><path d="m1357.3 563.1c4.4 1.2 8.6 6.9 8.4 11.4v.6c-1.5 4.1-5.5 4.1-8.7 5s-5 .2-5.4-2.9-1.8-2.7-3.4-3.5a16.2 16.2 0 0 1 -3.6-2.1c-2.3-1.9-2.2-3.6-.1-5.9s6.7-4.4 12.8-2.6z"/><path d="m1199.7 565.3c-13.2-5.1-12.4-19.9 1.8-16.3 8.9 4.2 10.8 18-1.8 16.3z"/><path d="m1003.5 570.8c-2.6 8.1-9.2.2-13-4.5-10.2-14.3 18.1-20.4 13 4.5z"/><path d="m971 576.7c6.8-12.7 18.3-2 14.8 6-5 5.7-17.5 2.6-14.8-6z"/><path d="m1502.2 627.7c-9.7-1.9-13.6-15.7-3.4-15.8 9.9 2.6 15.1 15.1 3.4 15.8z"/><path d="m935.1 533.8c4-4.3 9.8-2.9 13.5 3.6 6.5 15.3-14.6 13.4-13.5-3.6z"/><path d="m973.4 543.9c5.9.4 9.1 5.4 7.4 12.5-7.8 15.5-16.3-3.5-7.4-12.5z"/><path d="m1089.3 557c-10-1.6-4.1-12.7 2.9-14 9.3.4 9.4 17.5-2.9 14z"/><path d="m1159.8 538.7c4.5-1.5 8.9.7 12.5 5.6-1.8 14.4-17.6 9.8-12.5-5.6z"/><path d="m1086 520.9c3.6.9 7.2 6.9 5.7 10.8-5.8 10.9-25.6-13.6-5.7-10.8z"/><path d="m929.2 541c3.3 4.1 9.1 15.1-.4 16.9-5.8-2.5-11.2-17.7.4-16.9z"/><path d="m1433.6 571.6c0 2.1-.1 4.3 0 6.4a7.7 7.7 0 0 1 -9.5 7.5 6.2 6.2 0 0 1 -4.6-6.1c.3-2.8 2-4.3 5.3-5s5.9-1.7 8.9-2.6z"/><path d="m837.3 534.9c-3.1 6.1-10.6 4.8-12.4-1.9-1.5-12.2 11.3-6.8 12.4 1.9z"/><path d="m1728.6 839.2c6 1.5 7.9 13.3-.6 12.1-6.2-1.4-10.1-14.3.6-12.1z"/><path d="m1329.7 557.4c-1.8-1.8-4.9-3.8-4.6-4.9s2.8-4.1 4.9-5.4 8.6 1.7 9.6 4.1.2 3.8-1.7 4.4a58.7 58.7 0 0 1 -8.2 1.8z"/><path d="m1030.5 560.7c-4.4-4.2-8-12.4 2.3-12.8 5.5 3.1 4.8 9.5-2.3 12.8z"/><path d="m1511.2 636.1c2.2-6.8 13.2 3.4 8.7 7.5-5.4 2.3-11.9 1.8-8.7-7.5z"/><path d="m817.4 610.9c-4.6-2.3-9.5-11.9.6-10.7 3.7 2.6 9.6 9.5-.6 10.7z"/><path d="m1641.5 735.8c-4.7-1.5-11.5-12-.9-11.1 2.5 1.4 9.6 11.6.9 11.1z"/><path d="m1180.8 574.1c-4.5.1-12.1-8.3-3.5-10.5 4.5-3.1 6.2 7.5 3.5 10.5z"/><path d="m1562.6 666.4c7.9 1.2 7.9 9.7 1 10-4.1-1.9-7.5-8.8-1-10z"/><path d="m1925.8 407.2c-8-1.9-15.9-4.6-23.9-6.3a76.1 76.1 0 0 0 -17.1-2c-21.8.5-43.5 1.4-65.3 2.2a518.5 518.5 0 0 0 -76.7 8.3c-3.7.7-7.5.2-11.1 1a185.7 185.7 0 0 0 -21 5.7c-3.2 1.1-4-1.9-5.4-2.1-1.8 1.9-2.9 4-4.6 4.8-5 2.2-10.3 3.8-15.4 5.8-14.2 5.6-28.4 11.1-42.5 16.8-7.6 3.1-15.2 6.5-22.6 10-5.7 2.6-11.1 5.5-16.6 8.3-2 1.1-3.8 2.5-5.7 3.7-10.4 6-21.1 11.4-31.2 18a324.3 324.3 0 0 0 -27.6 20.6c-10.7 8.6-20.6 18.3-31.5 26.7a138.5 138.5 0 0 0 -21.5 21.1c-.4.5.4 2.1.7 3.7-4.6-.6-7.4 1.2-10.1 4.4-8.2 10-16.9 19.7-25.3 29.6q-18.3 21.4-36.4 43c-12.2 14.6-24.6 28.9-35.3 44.7-8.1 11.8-17.3 22.7-26.1 33.9-17 21.9-35.2 42.4-58.5 57.8s-46.3 20.1-72.2 16.7a31.5 31.5 0 0 0 -19.5 3.2c-7.5 3.8-9.3 12.4-4.3 19.1 3.7 4.9 3.4 7.8-.1 12.8s-7.4 4.9-11.5 6.4c-7.3 2.8-9 9.5-4 15.4l10.5 12.3c-2.3 8.5-4.9 16.3-11.6 21.9-5.1 4.1-9.8 8.6-15.2 12.2a231.2 231.2 0 0 1 -40.6 22.1c-10.4 4.4-20.6 9.1-31.2 12.8-6 2.1-12.9 1.7-18.9 3.7-11.1 3.7-22.7 3.8-34 4.5a252.4 252.4 0 0 1 -61.4-3.7c-13.6-2.5-27.7-2.5-41.1-5.6-19.9-4.5-39.3-11-58.6-17.8-14.1-5-26.9-12.7-39.9-19.9-4.1-2.3-8.6-4.2-12.3-7.1q-19.5-15-38.6-30.5c-12.5-10.1-25.1-19.8-38.3-28.9-18.1-12.5-36.5-24-57.9-29.7-15.9-4.3-31.9-5.2-47.4 2.6-6.2 3.1-9.7 13-2 18.5 2.4 1.7 5 3.2 7.6 4.8s6.9 3.2 9.8 5.5 7.4 6.9 6.6 12.7-4.1 9.8-9.1 11c-9.2 2.2-19 3.1-28-.9-17.2-7.8-35.2-12.5-53.6-16.4-7.9-1.7-15.8-.7-23.7.4a7.4 7.4 0 0 0 -4.9 3.6c-4.1 7.4-9.5 11.9-18.5 11.5-5.1-.2-7.8 2.5-9.5 7.9 1.6.9 3.7 1.5 5 2.8s4.9 5 3.9 8.9-4.5 4.4-7.8 4.2c-8.4-.6-16.9-1.3-25.4-2.3-11.2-1.2-21.9-.1-31.8 6-4.1 2.6-7.1 10.1-5.7 14.4s6.9 7.9 12.5 7.2c7.4-.8 14.8-2.3 22.2-3.5 10.8-1.6 21.8-3.4 32.9-1.2 1.8.4 3.9-.1 5.9-.5 18.4-2.8 36.3-.2 53.9 5.5 11 3.5 20 10.2 28.7 17.4 4.3 3.5 5.4 12.1 3 17.4s-5.2 6-9.6 5.4-8.4-1.7-12.5-2.5-6.9-1.8-10.3-1.7c-7.1.1-9.7 5.4-6 11.3 2.6 4.3 4.8 8.7 4.7 13.8s-.3 11.5-.4 17.3 2.4 9.5 8.4 10.4a25.6 25.6 0 0 0 10.3-.6c7.5-2 14.8-4.6 22.1-7.2 18.4-6.7 34.3-1.8 48.6 10.4 5.6 4.7 6 9.4 1.4 15a16.2 16.2 0 0 1 -7.1 5.1c-6.7 1.8-13.6 3.1-20.5 4.3-3.9.7-7.9 1-10.2 5.1 1.8 5 3.5 10 9 12.2 10.7 4.1 22.3 6.1 33.2 4.5 16.8-2.4 33.1-7.5 49.6-11.4 11.4-2.7 23-4.7 34.7-4.1a151.6 151.6 0 0 1 25.9 4c12.9 3.2 25.4 8.2 36.2 16.1s14.9 16.1 12.8 28.4c-.9 5.1-2.1 10.2-3.5 15.2s.2 8.6 5.5 8.6a28.6 28.6 0 0 0 11.4-2.8c4.3-2 8.1-5 12.1-7.5 9.5-5.8 20.5-5.9 30.8-8.8a50.5 50.5 0 0 1 11.1-1.8c10.4-.8 21-.8 31.4-2.1 23.2-3.2 46.5-6.4 69.6-10.7s48.3-9.1 71.6-17c10.6-3.7 20.9-8.2 31.3-12.3a112.9 112.9 0 0 0 11.8-5c26.7-14.6 54-28.4 78.4-46.8 12.3-9.3 23.7-19.8 35.5-29.7 4.9-4.2 10.4-8.1 14.6-12.9 12.4-14.5 27-26.6 40.7-39.7 2.8-2.7 5.3-5.8 8.1-8.6 6.3-6.5 12.8-12.9 19.1-19.4a23.7 23.7 0 0 0 2.9-3.4c6.7-9 13-18.3 19.9-27.2 13.2-16.9 26.7-33.7 40.2-50.4s28.5-35.6 43.7-52.5c10.7-11.9 22.9-22.4 34.5-33.4 3.3-3.1 6.8-5.8 10.1-8.8 13.5-12 26.8-24.2 41.9-34.2 9.5-6.3 18.8-13 27.8-20 14.6-11.4 29.5-21.8 46.8-28.5s34.9-13.9 52.7-19.7a217.7 217.7 0 0 1 37.2-8.5c12.5-1.9 25.3-2.2 38-2.6 5.5-.2 145.3 21.5 214.7 32.1m-1284.3 285.8a14.7 14.7 0 0 1 -14.3 2.2c-7.7-2.8-15.5-5.7-18.9-14.4-.9-2-2.5-3.8-3.2-5.9-1.7-5-5.4-7.5-9.9-9.5a54.3 54.3 0 0 1 -9.2-5.7 5.3 5.3 0 0 1 -1.9-6.3c1.9-5 7.6-8.4 14.2-8.1a79.2 79.2 0 0 1 41.9 12.6c17 11.1 16.4 24 1.3 35.1zm36.3 16.9c-3 4.7-14.7 10-19.9 8.4a99.6 99.6 0 0 1 -14.5-5.8c-4.7-2.3-5.1-5.8-1.5-9.6a14.7 14.7 0 0 1 5.5-3.8c4.4-1.5 9-2.4 13.6-3.6 0 .2.1.4.1.6 2.5.2 5 .2 7.5.6a41 41 0 0 1 5 1.4c5.5 1.9 7.3 7 4.2 11.8z" fill="#296a6a" stroke="#296a6a" stroke-miterlimit="10" stroke-width="12.8"/><path d="m699.5 1103.2c-12.2-7.6-26.2-11.8-40.5-13.8-2.8-.4-5.7-.1-10.7-.1-10.7-1.6-21.7 3.8-32.3 10s-13.2 19.6-6.6 30.4c4 6.5 9.2 9.5 17.5 10.2a52.5 52.5 0 0 0 23.4-3.3c7.4-2.7 14.7-2.3 22.1-.4 3.6.9 7.2 2.1 10.9 3.1 10.2 2.7 18.4-1.6 25.4-8.3 1.7-1.7 2.4-5 2.5-7.7.6-9.2-5-16-11.7-20.1z" fill="#296a6a" stroke="#296a6a" stroke-miterlimit="10" stroke-width="4.71"/><path d="m801.1 1053.8c-21.6-11-44-10.7-66.7-3.7-2.3.6-4.4 1.8-6.7 2.2-10.6 1.7-16.7 9.2-21.8 17.4-1.8 2.8-1.7 6.9-2.4 10.4-1.2 11.2 6.7 16.1 14.5 20.3a36 36 0 0 0 28 3c8-2.5 13.8-.6 19.3 5.4s12.1 6.3 18.7.7 9.4-9.6 14.4-14.1a15.9 15.9 0 0 1 7.5-3.6c9.1-1.7 14.5-9.8 12.1-18.8s-8.8-15.1-16.9-19.2z" fill="#296a6a" stroke="#296a6a" stroke-miterlimit="10" stroke-width=".59"/><path d="m503.1 972.4c1.7 1.5 3.5 3.5 5.5 4.1 11.7 3.2 23.5 6.1 35.2 9.1 6.4-.2 9.2-4.2 8.2-11.7a40.3 40.3 0 0 0 -1.1-5c-4.1-17.5-34.6-31.7-48.9-13.7-4.9 6.1-4.9 12.1 1.1 17.2z" fill="#296a6a" stroke="#296a6a" stroke-miterlimit="10" stroke-width="14.13"/><path d="m733.8 1154.1a208.4 208.4 0 0 1 22.8-13.3c5.4-2.7 11.4-.3 14.4 4.3s3.7 11.1-.5 15.9a36.8 36.8 0 0 1 -26.9 12.8 14.1 14.1 0 0 1 -4.1-.1c-4.1-1.1-8.1-2.8-9-7.4s-.7-9.5 3.3-12.2z" fill="#296a6a"/><circle cx="1802.1" cy="597.4" fill="#fff" r="16.8"/><circle cx="1876.6" cy="554.1" fill="#fff" opacity=".54" r="20.5"/><circle cx="1855.6" cy="609.9" fill="#dedbe5" opacity=".44" r="17.1"/><circle cx="1900.7" cy="548.5" fill="#fff" r="11.2"/><circle cx="1903.5" cy="622.7" fill="#fff" opacity=".59" r="11.2"/><circle cx="1882.9" cy="590.4" fill="#fff" opacity=".59" r="11.2"/><circle cx="792.6" cy="825" fill="#dedbe5" r="14.7"/><circle cx="812" cy="859.4" fill="#dedbe5" opacity=".85" r="17.9"/><circle cx="761.5" cy="819.6" fill="#dedbe5" opacity=".44" r="14.9"/><circle cx="740.6" cy="857.5" fill="#fff" opacity=".59" r="9.8"/><circle cx="772.3" cy="846.8" fill="#fff" opacity=".59" r="9.8"/><circle cx="832.4" cy="881" fill="#fff" opacity=".59" r="9.8"/><circle cx="787.3" cy="1019.5" fill="#fff" opacity=".44" r="14.7"/><circle cx="809" cy="1049.1" fill="#fff" opacity=".85" r="17.9"/><circle cx="733.1" cy="1007.9" fill="#fff" opacity=".44" r="14.9"/><circle cx="755.4" cy="1032.3" fill="#fff" opacity=".59" r="9.8"/></svg>