<svg xmlns="http://www.w3.org/2000/svg" width="1904" height="1692" viewBox="0 0 1904 1692"><title>orca-bottom</title><g id="Layer_15" data-name="Layer 15"><path d="M-10.6,855V-3h1910V497.4l19.6,4.7-8,421s-619-88-996,162-917,202-917,202L-5.1,855Z" fill="#1e3058"/><path d="M1927,954.1s-81.8,105-257.1,91-478.6-126-851.2-112S-20,1080.1-20,1080.1L.2,750.1s635.5-183,1047.7-21,791.5,189,879.1,105Z" fill="#d3dce5" opacity="0.5"/><path d="M-11,1287.1s540,48,917-202,996-162,996-162l8-421s-719-185-1197,17-729,66-729,66Z" fill="#edf1f4" opacity="0.5"/><path d="M1693.5,1180.8l5.5,1.5a8.4,8.4,0,0,0-4.7-1.4Z" fill="#aad1c7" stroke="#aad1c7" stroke-miterlimit="10" stroke-width="7.63"/><path d="M1681,1177.7a32.9,32.9,0,0,0,12.5,3.1Z" fill="#aad1c7" stroke="#aad1c7" stroke-miterlimit="10" stroke-width="7.63"/><path d="M-21.4,474.9c63.3,82.7,312.8,74.7,666.6,421.8,72.9,71.6,305.4,131.6,388,125.3s105.5,11.8,115.6,26.2,24.4,34.1,44.1,25.2-17-41.3,27.1-29.3,67.5,77.1,85.6,103.8,28.1,34.5,43,31.9,10.1-21.7,3.4-27.4-11.4-16-1.9-25.7,25.3,6,25.3,6v-.7l.2.2,20.4,21.1,11.1-3.2-.3.2c-1.5,1-3.6,1.3-5.5,1.9l-5.4,1.2a24.5,24.5,0,0,0,10.5,13.8,27.1,27.1,0,0,0,7.9,3.7,23.5,23.5,0,0,0,1.7,5.1c2.4,5.8,4.9,11.4,7.3,17.1h.4c1.7,8.9,11.1,47,49.1,37.7,42.9-10.5,11.6-40.1,11.6-40.1h-1.3a59.4,59.4,0,0,0-8.2-7.7c-8-6.4-16.4-10.6-25.8-11.3-7.3-.6-14.1-4.2-20.7-8.2.8-1.1,1.7-2.2,2.5-3.4,7.7-10.4,18.1-14.7,30.7-14a63.7,63.7,0,0,1,25.4,7.1c13.6,6.8,26.1,15.3,38.7,23.7,5.3,3.6,10.7,7,16.2,10.4h.7c40.6,42.5,135.7,78.2,181.1,25.8,15.5-18-24.4-30.8-24.4-30.8h-.3l-5.5-1.5a32.9,32.9,0,0,1-12.5-3.1,35,35,0,0,1-4.9-2.9c-4.6-3.3-6.3-7.8-5.8-13.2s5.7-9.6,11.3-10.9c10.2-2.3,19.5-.1,29,3.8,13.7,5.5,24.2,14.7,33.3,26a28.6,28.6,0,0,1,3.5,4.3h-.1s-5.6,46,11.6,48.9c22,3.7,55.7-13.5,20.7-49h.1l-10.8-13.4a21,21,0,0,0-4.4-4c-1.3-1.1-2.9-1.7-3.5-3.8s-2.3-2.7-3.9-3.5c-11-5.8-22.5-10.3-34.9-12.2-3.6-.6-7-2.8-10.4-4.5a3.3,3.3,0,0,1-1.8-1.9c-2.1-7.1-5.3-14.1-.7-21.4a33.5,33.5,0,0,0,2.3-5.5c1.4-3.8,1.2-7.6-1.3-10.8-5.4-7.2-11.8-12.4-21.3-13.6a63.7,63.7,0,0,0-19.5.1c-2.5.5-5,.5-7.5.9-6.9,1.2-11.7-3.1-16.4-6.7-2.1-1.6-3.1-5.3-3.6-8.3-1-6.3-1.5-10.3,5.5-14.5,5.3-3,10-9.3,14.9-13.1a70.7,70.7,0,0,0,7.8-6.7c9.7-9.8,6.9-23.7-4.6-29.3a25.6,25.6,0,0,0-15.2-2.6c-4,.5-8-.4-11.9.2s-7.9,3.3-11.7,5.1a87.1,87.1,0,0,1-17.5,5.6c-5.1,1.2-10.3.2-15.5-1a24.2,24.2,0,0,0-15,1c-1.5.6-3,1.1-4.5,1.8-9.6,4.6-19.1,2.9-28.6-.2-4.8-1.6-7.9-5.5-11.4-9-8.8-8.8-12.6-19.1-14.9-31.4-.8-4.1-3.6-8.2-4.5-12.2a31.8,31.8,0,0,0-6.8-13.9c-10.7-12.9-25.1-20.4-39.6-27.7-4.8-2.4-10.2-3.5-15.4-5-1.8-.5-3.8-.3-6.3-.5s-94.3-32-192.8-48c-17.7-2.9-28-.6-32.8,5.2l-85.5,13.2-207.1-8.3L811.3,786.7l-126.4-155L542.8,582.5,12.8,406.6Zm1627.2,568.5c-5.1,13.3-17.3,20.5-32,19-3.8-9.7-1.9-14.9,8.1-21.8C1589.4,1035.3,1597.8,1036.3,1605.8,1043.4Zm33.3-16.9c2.2-1.2,5.4-.1,8.2,0-.2,3,.6,6.7-.6,9.1-3.1,6.2-8.5,9.2-16.3,10.3C1629.9,1036.1,1632.6,1030,1639.1,1026.5Zm-85.5,55.1c1.4-1.7,4.4-2.5,6.9-2.8,7-.7,14.1-1.2,21.2-1.4s11.7-1.6,16.1-6.6c6.8-7.7,17.2-12.2,20.1-24.3,8.6,2.5,11.6,8,11.1,14.7-1.4,18.2-6.9,35.1-15.7,51.1-5.6,10.2-14.5,12.7-24.7,11.4-14.4-1.7-25.9-9.4-35.4-20.1C1548.7,1098.5,1549,1086.9,1553.6,1081.6Z" fill="#ee7953"/><path d="M1857.9,1093.6l-24.4,15.2c-7.7,4.9-18.5,5.9-23.8.9-7.5-7-9.1-24-.3-31.3s24-16.3,35.6-21.8c6.4-3,15.7,3.6,23.2,4.8,5.8.9,9.9,5.3,9.3,13C1876.6,1085.8,1871.2,1092.5,1857.9,1093.6Z" fill="#ee7953"/><path d="M1791.8,1058.7c0,7.2.8,13.2,0,19-1.8,14.4-9.1,26.6-17.7,37.8-5.2,6.8-20.6,10.9-27.6,8.5s-17-14.1-17.1-23.5C1729.2,1072.1,1761.7,1050.5,1791.8,1058.7Z" fill="#ee7953"/><path d="M1594.3,991.9c-11.8.5-21-6.6-31.1-11.3-12.2-5.8-19.9-16-26.1-27.4-3.6-6.6-1.8-13.6.5-19.9.9-2.5,6.2-4.8,9.7-5,8.7-.4,17.2.2,24.6,6.8s18.9,14.9,28.3,22.4c5.2,4.2,9.6,9,11.6,15.6,1.2,3.8.8,7.3-1.8,10.1C1605.8,987.6,1602.1,993.4,1594.3,991.9Z" fill="#ee7953"/><path d="M1806.1,1179.2c-4.6-1.3-8.8-2.2-12.7-3.9h11.9C1805.5,1176.3,1805.7,1177.6,1806.1,1179.2Z" fill="#fff"/><circle cx="1581.1" cy="1211.8" r="24.5" fill="#8adaed" opacity="0.44"/><circle cx="1539.2" cy="1151.1" r="16.4" fill="#fff" opacity="0.59"/><circle cx="1741.1" cy="1158.7" r="24.5" fill="#fff" opacity="0.44"/><circle cx="1710.2" cy="1249.8" r="29.9" fill="#8adaed" opacity="0.44"/><circle cx="1831.6" cy="1138.3" r="25" fill="#8adaed" opacity="0.44"/><circle cx="1794.6" cy="1179.4" r="16.4" fill="#c1cfd3" opacity="0.44"/><circle cx="1769.2" cy="1103.5" r="16.4" fill="#fff" opacity="0.59"/><circle cx="1673.3" cy="1211" r="16.4" fill="#fff" opacity="0.59"/><path d="M-49.2,381.4s393.8,69.1,656.4,228L528,787S148.2,530.1-62.3,488.4Z" fill="#ee7953"/><path d="M907.5,675.1h-2.6l-2.9-.5-3-.5h-1a6.7,6.7,0,0,0,1.3-3.1,25.9,25.9,0,0,1,1.7-3.3c.5-.9,1-1.7,1.4-2.6s2.4-4.8,3.7-7.2a107.1,107.1,0,0,0,6.6-14.1c8.5-23.5,14.2-43.2,17.7-61.9,2.1-11,4-22.2,5.8-33.1l.8-4.4c.7-4.3,1.3-8.8,1.8-13.8a2.3,2.3,0,0,1,1-1.7l1.1-.6.8-.4,4.3-1.6a166.1,166.1,0,0,0,16-7.3c4.1-2.1,8.4-4.3,12.8-6.1l3.6-1.5c20.2-8.4,37.5-17.5,51.5-26.9v2.3c.1,3.8.1,7.5,0,10.9A181.9,181.9,0,0,1,1026,533c-.2,1.1-.5,2.3-.8,3.4a22.5,22.5,0,0,1-.9,3.5l-.9,3.4c-3,10.6-6.3,20.9-9.4,30.5a278.9,278.9,0,0,1-30.1,63.7l-.4.6-1.2,1.8-1.2,1.7-2.2,3.1c-4.6,6.6-8,11.4-15.2,13.5a14,14,0,0,0-2.6,1l-2.3.9-3.5,1.2-3,1.4c-8.1,3.6-16.5,7.3-24.5,9.4a79.8,79.8,0,0,1-20.3,3Z" fill="#fff"/><path d="M1026.5,490.6c0,2.4,0,4.6-.1,6.8a174,174,0,0,1-3.8,34.8c-.2,1.2-.5,2.3-.7,3.4l-.9,3.4-.9,3.4c-3,10.5-6.3,20.8-9.4,30.3A270,270,0,0,1,981,635.6l-.4.6-1.2,1.8-1.1,1.5-2.2,3.2c-4.8,6.9-7.6,10.5-13.3,12.1l-3.1,1.2-1.9.8a20.3,20.3,0,0,0-3.9,1.4l-3.1,1.3c-7.9,3.6-16.2,7.3-23.9,9.3a76.8,76.8,0,0,1-19.4,2.8h-2.3l-2.3-.4,1.1-2a24.9,24.9,0,0,0,1.5-2.8l3.7-7.1a121,121,0,0,0,6.8-14.5c8.6-23.7,14.2-43.6,17.8-62.5,2.2-11,4-22.3,5.9-33.2l.7-4.3c.7-4.2,1.3-8.6,1.8-13.5h.2l.6-.2,4.2-1.6c5.7-2.2,11.1-4.9,16.4-7.5s8.3-4.2,12.5-6l3.7-1.5q26.9-11.2,46.7-23.8m4.4-11.2h-.2c-16.3,11.5-35.4,20.9-53.6,28.5l-3.7,1.5c-9.8,4.1-18.7,9.7-28.7,13.4l-4.2,1.6-1,.4a9.5,9.5,0,0,0-1.7,1,5.3,5.3,0,0,0-2.4,4.2q-.7,6.8-1.8,13.5c-2.1,12.5-4.2,25-6.6,37.4-4,21-10.3,41.4-17.5,61.4-2.7,7.3-6.9,14-10.2,21-1,2-2.8,4.6-3.6,7.1.8.2-3.9,5.9-3,6s4.7.9,6,1,5.3,1,6,1h2.8a86.8,86.8,0,0,0,21.2-3.1c9.2-2.4,19-7,28-11a15.1,15.1,0,0,1,3-1l5-2c9.6-2.7,13.4-9.8,19.3-17.9l1.2-1.8,1.6-2.4a281.7,281.7,0,0,0,30.4-64.5c3.4-10.2,6.7-20.4,9.5-30.6.4-1.2.7-2.3,1-3.5l.9-3.5c.3-1.2.6-2.4.8-3.6a190.1,190.1,0,0,0,4-36.1V486.5c0-1.2-.1-2.4-.1-3.7h0c-.6-2.1-1.8-3.4-2.4-3.4Z"/><path d="M466.2,924.3c-1.4,9.4-2.9,18.9-4.3,28.4-.2,1.9-.6,3.9-.9,5.8-3.6,16.5-10,32-17.6,47.3-4,8.1-8.7,15.6-15.3,21.6-9.3,8.5-12.7,10-22.9,1.9-6.3-5.1-11.7-11.3-17.2-17.2a19.7,19.7,0,0,1-3.8-6.6c-1.9-5.2-3.6-10.4-5.5-16,3.1-2.1,6.4-4,8.7-6.6l8.7-9.8c2.5-2.9,5-5.7,7.4-8.7s6.8-8.3,10-12.7c14.1-19.6,23.2-41.9,31-64.7a23.9,23.9,0,0,0,.9-4.5,24.9,24.9,0,0,0,.9-4.6c.9-7,1.6-13.9,2.7-20.8a5.9,5.9,0,0,0,.2-1.3c.6-2.7,1.2-5.3,1.7-8a79.4,79.4,0,0,0,1.5-8.5,9.9,9.9,0,0,1,.3-2.4c.9-3.7,2.1-7.3,3.3-11a9.4,9.4,0,0,1,5.7-6.3c-.1,2.7-.2,4.8-.4,6.8-1.1,17.2,2.6,34,3.8,51S468.6,908.6,466.2,924.3Z" fill="#fff"/><path d="M448.8,215.8a28.6,28.6,0,0,1-9.9-3.5,25.2,25.2,0,0,0,10.7,4.1,174.2,174.2,0,0,1,45.9,14.9A166.5,166.5,0,0,0,448.8,215.8Zm16.3,661.6c-1.2-17-4.9-33.8-3.8-51,.2-2,.3-4.1.4-6.8a9.4,9.4,0,0,0-5.7,6.3c-1.2,3.7-2.4,7.3-3.3,11a9.9,9.9,0,0,0-.3,2.4,79.4,79.4,0,0,1-1.5,8.5c-.5,2.7-1.1,5.3-1.7,8a5.9,5.9,0,0,1-.2,1.3c-1.1,6.9-1.8,13.8-2.7,20.8a24.9,24.9,0,0,1-.9,4.6,23.9,23.9,0,0,1-.9,4.5c-7.8,22.8-16.9,45.1-31,64.7-3.2,4.4-6.6,8.6-10,12.7s-4.9,5.8-7.4,8.7l-8.7,9.8c-2.3,2.6-5.6,4.5-8.7,6.6,1.9,5.6,3.6,10.8,5.5,16a19.7,19.7,0,0,0,3.8,6.6c5.5,5.9,10.9,12.1,17.2,17.2,10.2,8.1,13.6,6.6,22.9-1.9,6.6-6,11.3-13.5,15.3-21.6,7.6-15.3,14-30.8,17.6-47.3.3-1.9.7-3.9.9-5.8,1.4-9.5,2.9-19,4.3-28.4C468.6,908.6,466.2,893,465.1,877.4Zm-3.4,46.2-1.2,8c-1.1,6.7-2.1,13.6-3.1,20.4-.2,1.7-.5,3.5-.9,5.6-3.1,14.1-8.5,28.7-17.1,46.1-4.5,9-9,15.4-14.4,20.3-3.8,3.5-6.6,5.8-8.6,6s-4.3-1.1-8.3-4.3-9.4-8.8-13.8-13.5l-3-3.2a14.9,14.9,0,0,1-2.8-5.1c-1.5-4.1-2.9-8.2-4.3-12.5a34.4,34.4,0,0,0,6.6-5.5l2.1-2.3,6.6-7.5,7.5-8.7c3.9-4.7,7.3-9,10.2-13,15.2-21,24.5-45.1,31.7-65.9a29.5,29.5,0,0,0,1-5,40,40,0,0,0,1-5l.9-7.5c.5-4.3,1-8.8,1.7-13.2.1-.3.1-.5.2-.8l.4-1.9c.4-2.1.9-4.2,1.3-6.4s1.1-5,1.4-7.7c.4,6.8,1.2,13.4,2,19.9s1.3,11.2,1.7,16.8l.9,9.9C462.5,900,463.5,911.7,461.7,923.6ZM568.9,298.3c-2.7-3.7-5.5-7.5-8.5-11.3,2.9,3.9,5.6,7.9,8.1,11.9,6.9,11,9.8,19.6,10.5,26.3C579.2,317.8,576.5,308.9,568.9,298.3ZM760.1,584.2C629,559.5,547.2,586.4,497,616.8c-45.4,27.5-75,75.4-77.8,128.5-1.7,31.5,6.6,58.1,43.4,48C540.4,772,750.9,592.1,759.9,584.5l.3-.3Zm277.3-337.5c-4.5-5.1-9.7-8.8-16.5-9.7l-22.2-3.1c-11.1,1.3-22.8,2.1-34.2,4.2-8.2,1.5-16.1,4.9-24.1,7.5L921.6,252a107,107,0,0,0-31.2,17.2,39,39,0,0,0-13.7,19c-1.2,3.5-2.7,7-3.8,10.5-3.1,9.7-1.2,18.5,5.6,26a62,62,0,0,0,10.6,9.9c6.8,4.7,14.5,3.2,21.8,1.5a121.3,121.3,0,0,0,30-11.4c10.7-5.6,22-10.2,32.8-15.6,5.8-2.9,11.1-6.8,16.8-10.1s11.5-6.1,16.9-9.6c7.1-4.5,14.5-8.9,20.5-14.6s8.5-11,11.8-17.1C1041.6,254.1,1040.3,250,1037.4,246.7Zm130.5,48.1c-1.3-1.5-3.7-1.8-7.4-.9-9.7,2.6-19.2,5.8-29,8.1-13.1,3.1-26.4,6.3-39.7,8.2-18.3,2.7-36.4,6-53.9,12.1-14.1,5-28.5,9.1-42.5,14.5-8.2,3.2-15.9,7.9-23.6,12.2-10.4,5.8-20.7,11.8-30.8,18.1a64.4,64.4,0,0,0-7.2,5.4l-3.8,3.3a13.9,13.9,0,0,0-4.9,9.6c0,.5-.1,1-.1,1.6a33.6,33.6,0,0,0,.6,6.3l4.5,19.4c2.7,8.6,5.3,21,7.6,34.2h0l2.1,12.2c.7,3.8,1.3,7.7,2,11.5,1.7,10,3.4,20.1,5.2,30.5,8.6-2.4,16.5-5.2,23.8-10.2a118.3,118.3,0,0,1,18.6-9.9c20.7-8.9,39.2-21.5,57.4-34.6,1.5-1.1,3-2.2,4.4-3.4,9.2-7.3,17.2-16,26.3-23.4l2.1-1.7,1.5-1.2.8-.6,3.1-2.6,2.1-1.9c7.3-6.5,13.9-13.8,20.7-20.9,16.2-16.7,29.1-35.9,42.4-54.8,1.5-2.1,2.9-4.3,4.2-6.5s2.9-5,4.2-7.5,1.6-3,2.3-4.5l1-1.9,2-3.9.9-1.9c.7-1.2,1.4-2.5,2-3.8a14.7,14.7,0,0,0,1-2.2c.2-.6.3-1.2.5-1.8s.1-.4.1-.6C1169.1,298.3,1168.9,296.1,1167.9,294.8Z"/><path d="M947,501.2c-1.8-10.4-3.5-20.5-5.2-30.5-.7-3.8-1.3-7.7-2-11.5L937.7,447c5.3,30.7,9,65.4,9,65.4l2.9,10.6.8-.4,4.8-12.6V498.6C952.6,499.6,949.8,500.4,947,501.2Z"/><path d="M1180.9,193.9C1100,155.2,996,160.1,996,160.1a108.7,108.7,0,0,0-19.2,2.9l.2-.8c-109.7,16.9-180.7,67.5-180.7,67.5v.3c-66.3,18.7-91.5-.3-91.5-.3-192.4-119.8-296.5-39.1-266-17.4h.1a28.6,28.6,0,0,0,9.9,3.5,166.5,166.5,0,0,1,46.7,15.5h.1c27.9,13.7,48.9,33.9,64.8,55.5h0c3,3.8,5.8,7.6,8.5,11.3,7.6,10.6,10.3,19.5,10.1,26.9,1.7,16-9.2,21.3-9.2,21.3-136.5,119.2-186.5,271-188.4,276.9h0l-.4-.2s-23.2,83.7-30.2,139.2c0,0-58.4,38-106.9,131.5s-54.1,143.5-24.6,149.1,96.9-.6,155.4-51l.6,1.6c1.5,4.7,3,9.1,4.6,13.5a23.1,23.1,0,0,0,4.7,8.1l3,3.2a135.4,135.4,0,0,0,14.8,14.5c4.7,3.8,8.9,6.3,13.5,6.3h1.7c4.8-.6,8.8-4,13.6-8.4s11.4-12.9,16.3-22.9c9-18.1,14.7-33.5,17.9-48.4h.1c.4-2.2.7-4.2,1-6,.9-6.8,2-13.7,3-20.3l1.2-8c2-13,.9-25.8-.2-38.2-.3-3.2-.6-6.5-.8-9.7-.5-5.8-1.2-11.7-1.9-17.3-1.3-11.4-2.6-22.1-1.9-33.1l.3-4.3a21.8,21.8,0,0,1,.1-2.5l.4-7.2-2.3.9c11.5-12.1,25.7-18.7,31.2-21.7,3.5-1.8,18.2-12.9,35.4-26l6-2.9c64.3-33.2,192.7-143.8,219.2-166.9l13.2-4-1.5,5.8c-17.8,76.4,7.3,162.7,18.5,176.8s71-17.6,124.5-129.4c19.6-41,26.7-81.2,27.6-117.1l10.7-2.2,1.2-3.4-.8.4-2.9-10.6s-3.7-34.7-9-65.4l2.1,12.2c.7,3.8,1.3,7.7,2,11.5,1.7,10,3.4,20.1,5.2,30.5,2.8-.8,5.6-1.6,8.3-2.6l.9-127.6-17.3-2.5a15.3,15.3,0,0,1,2.1-1.4c10.1-6.3,20.4-12.3,30.8-18.1,7.7-4.3,15.4-9,23.6-12.2,14-5.4,28.4-9.5,42.5-14.5,17.5-6.1,35.6-9.4,53.9-12.1,13.3-1.9,26.6-5.1,39.7-8.2,9.8-2.3,19.3-5.5,29-8.1,3.7-.9,6.1-.6,7.4.9s1.2,3.5.5,6.6c0,.2-.1.4-.1.6s-.3,1.2-.5,1.8a14.7,14.7,0,0,1-1,2.2c-.6,1.3-1.3,2.6-2,3.8l-.9,1.9-2,3.9-1,1.9c-.7,1.5-1.5,3-2.3,4.5s-2.7,5.1-4.2,7.5-2.7,4.4-4.2,6.5c-13.3,18.9-26.2,38.1-42.4,54.8-6.8,7.1-13.4,14.4-20.7,20.9l-2.1,1.9-3.1,2.6-.8.6-1.5,1.2-2.1,1.7c-9.1,7.4-17.1,16.1-26.3,23.4-1.4,1.2-2.9,2.3-4.4,3.4-18.2,13.1-36.7,25.7-57.4,34.6a118.3,118.3,0,0,0-18.6,9.9,67.5,67.5,0,0,1-15.5,7.6V510l-4.8,12.6c35.8-14.2,86.3-45.3,86.3-45.3C1142.2,412.6,1195,291.6,1195,291.6c14.2-36,11.2-48.5,12.6-71.7S1180.9,193.9,1180.9,193.9ZM465.1,877.4c1.1,15.6,3.5,31.2,1.1,46.9-1.4,9.4-2.9,18.9-4.3,28.4-.2,1.9-.6,3.9-.9,5.8-3.6,16.5-10,32-17.6,47.3-4,8.1-8.7,15.6-15.3,21.6-9.3,8.5-12.7,10-22.9,1.9-6.3-5.1-11.7-11.3-17.2-17.2a19.7,19.7,0,0,1-3.8-6.6c-1.9-5.2-3.6-10.4-5.5-16,3.1-2.1,6.4-4,8.7-6.6l8.7-9.8c2.5-2.9,5-5.7,7.4-8.7s6.8-8.3,10-12.7c14.1-19.6,23.2-41.9,31-64.7a23.9,23.9,0,0,0,.9-4.5,24.9,24.9,0,0,0,.9-4.6c.9-7,1.6-13.9,2.7-20.8a5.9,5.9,0,0,0,.2-1.3c.6-2.7,1.2-5.3,1.7-8a79.4,79.4,0,0,0,1.5-8.5,9.9,9.9,0,0,1,.3-2.4c.9-3.7,2.1-7.3,3.3-11a9.4,9.4,0,0,1,5.7-6.3c-.1,2.7-.2,4.8-.4,6.8C460.2,843.6,463.9,860.4,465.1,877.4ZM759.9,584.5c-9,7.6-219.5,187.5-297.3,208.8-36.8,10.1-45.1-16.5-43.4-48,2.8-53.1,32.4-101,77.8-128.5,50.2-30.4,132-57.3,263.1-32.6h.1Zm279.8-326.8c-3.3,6.1-6.9,12.4-11.8,17.1s-13.4,10.1-20.5,14.6c-5.4,3.5-11.3,6.4-16.9,9.6s-11,7.2-16.8,10.1c-10.8,5.4-22.1,10-32.8,15.6a121.3,121.3,0,0,1-30,11.4c-7.3,1.7-15,3.2-21.8-1.5a62,62,0,0,1-10.6-9.9c-6.8-7.5-8.7-16.3-5.6-26,1.1-3.5,2.6-7,3.8-10.5a39,39,0,0,1,13.7-19A107,107,0,0,1,921.6,252l18.8-6.4c8-2.6,15.9-6,24.1-7.5,11.4-2.1,23.1-2.9,34.2-4.2l22.2,3.1c6.8.9,12,4.6,16.5,9.7C1040.3,250,1041.6,254.1,1039.7,257.7Z"/><path d="M1168.4,301.4c0,.2-.1.4-.1.6s-.3,1.2-.5,1.8a14.7,14.7,0,0,1-1,2.2c-.6,1.3-1.3,2.6-2,3.8l-.9,1.9-2,3.9-1,1.9c-.7,1.5-1.5,3-2.3,4.5s-2.7,5.1-4.2,7.5-2.7,4.4-4.2,6.5c-13.3,18.9-26.2,38.1-42.4,54.8-6.8,7.1-13.4,14.4-20.7,20.9l-2.1,1.9-3.1,2.6-.8.6-1.5,1.2-2.1,1.7c-9.1,7.4-17.1,16.1-26.3,23.4-1.4,1.2-2.9,2.3-4.4,3.4-18.2,13.1-36.7,25.7-57.4,34.6a118.3,118.3,0,0,0-18.6,9.9c-7.3,5-15.2,7.8-23.8,10.2-1.8-10.4-3.5-20.5-5.2-30.5-.7-3.8-1.3-7.7-2-11.5L937.7,447h0c-.6-2.9-1.1-5.7-1.7-8.6-.2-.6-.3-1.3-.5-2-1.7-7.9-3.5-15.7-5.4-23.6l-4.5-19.4a33.6,33.6,0,0,1-.6-6.3c0-.6.1-1.1.1-1.6a13.9,13.9,0,0,1,4.9-9.6l3.8-3.3a64.4,64.4,0,0,1,7.2-5.4c10.1-6.3,20.4-12.3,30.8-18.1,7.7-4.3,15.4-9,23.6-12.2,14-5.4,28.4-9.5,42.5-14.5,17.5-6.1,35.6-9.4,53.9-12.1,13.3-1.9,26.6-5.1,39.7-8.2,9.8-2.3,19.3-5.5,29-8.1,3.7-.9,6.1-.6,7.4.9S1169.1,298.3,1168.4,301.4Z" fill="#fff"/><path d="M1039.7,257.7c-3.3,6.1-6.9,12.4-11.8,17.1s-13.4,10.1-20.5,14.6c-5.4,3.5-11.3,6.4-16.9,9.6s-11,7.2-16.8,10.1c-10.8,5.4-22.1,10-32.8,15.6a121.3,121.3,0,0,1-30,11.4c-7.3,1.7-15,3.2-21.8-1.5a62,62,0,0,1-10.6-9.9c-6.8-7.5-8.7-16.3-5.6-26,1.1-3.5,2.6-7,3.8-10.5a39,39,0,0,1,13.7-19A107,107,0,0,1,921.6,252l18.8-6.4c8-2.6,15.9-6,24.1-7.5,11.4-2.1,23.1-2.9,34.2-4.2l22.2,3.1c6.8.9,12,4.6,16.5,9.7C1040.3,250,1041.6,254.1,1039.7,257.7Z" fill="#fff"/><path d="M760.2,584.2l-.3.3c-9,7.6-219.5,187.5-297.3,208.8-36.8,10.1-45.1-16.5-43.4-48,2.8-53.1,32.4-101,77.8-128.5,50.2-30.4,132-57.3,263.1-32.6Z" fill="#fff"/><path d="M955.3,498.6V510l-4.8,12.6-.8.4-2.9-10.6s-3.7-34.7-9-65.4l2.1,12.2c.7,3.8,1.3,7.7,2,11.5,1.7,10,3.4,20.1,5.2,30.5C949.8,500.4,952.6,499.6,955.3,498.6Z"/><path d="M706.7,229.1c-196.4-121-301.7-37.5-267.9-16.8,0,0,.1,2,29.9,11.2a182.3,182.3,0,0,1,86.5,57.1l5.2,6.3c18.1,20.6,18.6,38.3,18.6,38.3-.4,20.5-22.8,29.2-22.8,29.2" fill="none" stroke="#fff" stroke-miterlimit="10" stroke-width="7.04"/><path d="M1049.4,244.8a40.3,40.3,0,0,1-14.2,22.7c-19.9,16.5-40.1,32.7-60.1,49-6.8,5.6-13.4,11.5-20.5,16.6a99.7,99.7,0,0,1-10.2,6.6c-2.7,1.3-5.7,2.9-9.1,4.8-52.1,29.2-72.4-5.3-72.4-5.3h-.2l.3-.2c-3.1-9.8-2.8-19.4-.8-29.3,3.7-17.6,12.8-31.3,25.9-43.5,25.3-23.2,55.5-34.6,88.6-40,10.2-1.6,20.4-3,30.5-4.2a50.5,50.5,0,0,1,29.2,4.7,38.4,38.4,0,0,1,11.6,9.2C1049.7,237.8,1050,242,1049.4,244.8Z" fill="#fff" stroke="#000" stroke-miterlimit="10" stroke-width="0.88"/><path d="M1001.3,644.9l.3.3v-.3Z"/><path d="M-30.2,434.2c69.3-11.3,208.8-34.6,214.4-34.4,12.7.2,25.4.4,38,2.1a226.5,226.5,0,0,1,37.2,8.1c17.9,5.7,35.4,12.7,53,19.2s32.4,16.8,47,27.9c9.1,7,18.5,13.6,28.1,19.8,15.2,9.8,28.7,21.9,42.2,33.7,3.4,3,7,5.7,10.2,8.7,11.8,10.9,24.1,21.3,34.9,33,15.4,16.8,29.7,34.6,44.3,52.1s27.3,33.1,40.8,49.9c7,8.8,13.4,18,20.1,27,.9,1.2,1.9,2.3,2.9,3.4,6.5,6.4,13,12.7,19.4,19.2,2.8,2.7,5.3,5.8,8.2,8.5,13.8,13,28.5,24.9,41.1,39.2,4.3,4.8,9.8,8.6,14.8,12.7,11.8,9.9,23.4,20.2,35.8,29.4,24.6,18.1,52,31.6,78.8,45.9,3.8,2,7.9,3.3,11.9,4.9,10.5,4,20.8,8.4,31.5,11.9,23.3,7.7,47.5,12.1,71.7,16.3s46.5,7,69.8,9.9c10.4,1.3,20.9,1.1,31.4,1.8a52.2,52.2,0,0,1,11.1,1.6c10.3,2.9,21.3,2.9,30.8,8.5,4.1,2.5,7.9,5.4,12.2,7.4a30.7,30.7,0,0,0,11.5,2.7c5.3-.1,6.8-3.4,5.4-8.7a153.1,153.1,0,0,1-3.7-15.2c-2.2-12.2,3.3-21.6,12.5-28.5,10.7-8,23.1-13.1,36.1-16.4a140.4,140.4,0,0,1,25.8-4.3c11.7-.8,23.3,1.1,34.7,3.6,16.6,3.8,33,8.7,49.7,11,11,1.4,22.5-.7,33.2-5,5.5-2.2,7.1-7.2,8.9-12.2-2.3-4.1-6.3-4.4-10.3-5.1a200.6,200.6,0,0,1-20.5-4c-2.7-.7-5.4-2.9-7.2-5-4.7-5.6-4.3-10.3,1.2-15.1,14.2-12.2,30.1-17.4,48.6-10.9,7.3,2.6,14.6,5,22.1,7a26,26,0,0,0,10.4.5c5.9-.9,8.4-4.4,8.2-10.5s-.5-11.5-.6-17.3,2-9.5,4.6-13.8c3.7-6,.9-11.3-6.1-11.3-3.4,0-6.9,1.1-10.3,1.8s-8.3,2-12.5,2.7-7.7-1.2-9.7-5.4-1.4-13.8,2.9-17.4c8.6-7.3,17.5-14,28.5-17.7,17.5-5.8,35.3-8.6,53.8-6,2,.3,4.1.8,5.9.4,11.1-2.3,22.1-.7,32.9.9,7.4,1,14.8,2.4,22.3,3.2,5.6.7,10.9-2.7,12.4-7.4s-1.8-11.7-5.9-14.2c-9.9-6.1-20.7-7-31.9-5.7-8.4,1-16.9,1.9-25.4,2.5-3.2.3-6.7.2-7.8-4s1.3-6.7,3.8-9.1,3.4-1.9,5-2.8c-1.8-5.4-4.5-8-9.6-7.8-9,.5-14.5-3.9-18.6-11.3a7.5,7.5,0,0,0-5-3.5c-7.8-1.1-15.7-1.9-23.7-.1-18.3,4.1-36.3,8.9-53.4,16.9-9,4.2-18.7,3.3-28,1.2-5-1.1-8.3-5.4-9.1-10.9s2.4-9.6,6.4-12.7,6.5-3.8,9.7-5.7,5.2-3.1,7.6-4.8c7.6-5.7,4-15.5-2.2-18.5-15.6-7.6-31.6-6.5-47.5-2.1-21.3,6-39.6,17.6-57.5,30.3-13.1,9.3-25.6,19.2-38,29.3s-25.4,20.9-38.3,31c-3.7,2.9-8.1,4.8-12.2,7.2-12.9,7.3-25.6,15.2-39.7,20.3-19.2,7-38.5,13.8-58.4,18.5-13.4,3.2-27.4,3.4-41,6a252.8,252.8,0,0,1-61.4,4.4c-11.3-.6-22.8-.6-34-4.1-6.1-2-12.9-1.5-19-3.6-10.6-3.5-20.9-8.1-31.3-12.4a234.2,234.2,0,0,1-40.8-21.6c-5.4-3.6-10.3-8.1-15.3-12.2-6.8-5.4-9.5-13.2-11.9-21.7l10.4-12.4c4.9-6,3.2-12.6-4.2-15.3-4.2-1.6-8.7-2.2-11.6-6.3s-3.8-7.9-.2-12.8c4.9-6.8,3-15.4-4.5-19.1a31.5,31.5,0,0,0-19.5-3c-25.9,3.7-50.1-1.5-72.4-15.8s-41.9-35.6-59.1-57.2c-8.9-11.2-18.3-22-26.5-33.7-10.9-15.7-23.5-29.8-35.8-44.3l-36.8-42.6c-8.6-9.8-17.3-19.4-25.7-29.3-2.7-3.2-5.5-4.9-10.1-4.3.3-1.6,1.1-3.2.6-3.7a143.2,143.2,0,0,0-21.7-20.9c-11-8.2-21-17.8-31.8-26.4A339.1,339.1,0,0,0,331,310c-10.1-6.5-20.9-11.8-31.4-17.7-1.9-1.1-3.7-2.6-5.7-3.6-5.5-2.8-11.1-5.6-16.7-8.2-7.5-3.3-15.1-6.6-22.7-9.7l-42.8-16.3c-5.1-1.9-10.3-3.5-15.3-5.7-1.8-.8-2.9-2.9-4.7-4.8-1.4.3-2.2,3.3-5.4,2.3a190.7,190.7,0,0,0-21-5.5c-3.6-.8-7.5-.3-11.1-.9a509.6,509.6,0,0,0-76.9-7.5c-21.8-.6-43.5-1.2-65.3-1.4a70.8,70.8,0,0,0-17.1,2.1c-8,1.8-15.8,4.6-23.7,6.5M1258.1,670.9a79.5,79.5,0,0,1,41.7-13c6.6-.3,12.3,3,14.4,7.9a5.5,5.5,0,0,1-1.9,6.3,51.8,51.8,0,0,1-9.1,5.8c-4.6,2.1-8.2,4.7-9.9,9.6-.7,2.1-2.3,3.9-3.1,6-3.3,8.7-11.1,11.7-18.7,14.7a15.2,15.2,0,0,1-14.4-2.2C1241.9,695.1,1241.1,682.2,1258.1,670.9Zm-33,40.6a28.5,28.5,0,0,1,5-1.4c2.4-.4,4.9-.5,7.4-.7.1-.2.1-.4.2-.6,4.6,1.1,9.2,2,13.6,3.4a14.9,14.9,0,0,1,5.5,3.7c3.7,3.8,3.3,7.3-1.4,9.7a94.7,94.7,0,0,1-14.4,5.9c-5.2,1.6-17-3.5-20-8.1S1219.6,713.5,1225.1,711.5Z" fill="#f4ae3e"/><path d="M1204.9,922.3c12.1-7.7,26-12,40.4-14.2,2.7-.5,5.6-.2,10.6-.2,10.7-1.7,21.8,3.5,32.4,9.7s13.4,19.4,7,30.2c-4,6.6-9.2,9.7-17.4,10.4a53.8,53.8,0,0,1-23.4-2.9c-7.5-2.7-14.8-2.2-22.2-.2-3.6.9-7.2,2.1-10.8,3.1-10.2,2.9-18.4-1.4-25.5-8-1.8-1.6-2.4-5-2.6-7.6C1192.7,933.4,1198.3,926.5,1204.9,922.3Z" fill="#f4ae3e"/><path d="M1102.7,874c21.6-11.2,44-11.1,66.7-4.4,2.3.6,4.4,1.8,6.7,2.1,10.6,1.6,16.8,9,22,17.2,1.8,2.8,1.8,6.9,2.5,10.4,1.3,11.2-6.5,16.1-14.2,20.4a36.3,36.3,0,0,1-28.1,3.3c-8-2.3-13.7-.5-19.2,5.6s-12,6.5-18.6,1-9.6-9.5-14.6-14a17.3,17.3,0,0,0-7.5-3.5c-9.2-1.6-14.6-9.6-12.4-18.7S1094.7,878.2,1102.7,874Z" fill="#f4ae3e"/><path d="M1399.9,789.4c-1.8,1.6-3.5,3.6-5.5,4.1-11.7,3.4-23.4,6.4-35.1,9.5-6.4,0-9.3-4-8.4-11.6a44.8,44.8,0,0,1,1.1-5c3.9-17.5,34.2-32,48.8-14.2C1405.7,778.3,1405.8,784.2,1399.9,789.4Z" fill="#f4ae3e"/><path d="M1171.1,973.6a208,208,0,0,0-22.9-13.1c-5.4-2.6-11.4-.1-14.4,4.6s-3.5,11.1.7,15.8c7.2,8.1,16.3,12.1,27,12.5,1.4,0,2.9.3,4.1-.1,4.1-1.1,8.1-2.9,8.9-7.6S1175.2,976.3,1171.1,973.6Z" fill="#f4ae3e"/><circle cx="96.8" cy="428.5" r="16.8" fill="#fff"/><circle cx="21.9" cy="386" r="20.5" fill="#fff" opacity="0.54"/><circle cx="43.5" cy="441.6" r="17.1" fill="#dedbe5" opacity="0.44"/><circle cx="-2.3" cy="380.6" r="11.2" fill="#fff"/><circle cx="-4.3" cy="454.9" r="11.2" fill="#fff" opacity="0.59"/><circle cx="16" cy="422.4" r="11.2" fill="#fff" opacity="0.59"/><circle cx="1108.8" cy="645.1" r="14.7" fill="#dedbe5"/><circle cx="1089.8" cy="679.8" r="17.9" fill="#dedbe5" opacity="0.85"/><circle cx="1139.9" cy="639.4" r="14.9" fill="#dedbe5" opacity="0.44"/><circle cx="1161.1" cy="677.1" r="9.8" fill="#fff" opacity="0.59"/><circle cx="1129.3" cy="666.7" r="9.8" fill="#fff" opacity="0.59"/><circle cx="1069.6" cy="701.6" r="9.8" fill="#fff" opacity="0.59"/><circle cx="1116.2" cy="839.6" r="14.7" fill="#fff" opacity="0.44"/><circle cx="1094.8" cy="869.4" r="17.9" fill="#fff" opacity="0.85"/><circle cx="1170.3" cy="827.5" r="14.9" fill="#fff" opacity="0.44"/><circle cx="1148.2" cy="852" r="9.8" fill="#fff" opacity="0.59"/></g></svg>