<svg height="1692" viewBox="0 0 1904 1692" width="1904" xmlns="http://www.w3.org/2000/svg"><circle cx="1802.1" cy="597.4" fill="#fff" r="16.8"/><circle cx="1876.6" cy="554.1" fill="#fff" opacity=".54" r="20.5"/><circle cx="1855.6" cy="609.9" fill="#dedbe5" opacity=".44" r="17.1"/><circle cx="1900.7" cy="548.5" fill="#fff" r="11.2"/><circle cx="1903.5" cy="622.7" fill="#fff" opacity=".59" r="11.2"/><circle cx="1882.9" cy="590.4" fill="#fff" opacity=".59" r="11.2"/><path d="m1904.2 840.7v858h-1910v-500.4l-19.6-4.7 8-421s619 88 996-162 917-202 917-202l3.1 432.1z" fill="#b0c6d1"/><path d="m-33.4 741.6s81.9-105 257.1-91 478.6 126 851.2 112 838.7-147 838.7-147l-20.2 330s-635.5 183-1047.6 21-791.6-189-879.2-105z" fill="#d3dce5" opacity=".5"/><path d="m1904.6 408.6s-540-48-917 202-996 162-996 162l-8 421s719 185 1197-17 729-66 729-66z" fill="#edf1f4" opacity=".5"/><path d="m186 1282.3-5.6 1.5a9.9 9.9 0 0 1 4.7-1.4z" fill="#aad1c7" stroke="#aad1c7" stroke-miterlimit="10" stroke-width="7.63"/><path d="m198.4 1279a32.6 32.6 0 0 1 -12.4 3.3z" fill="#aad1c7" stroke="#aad1c7" stroke-miterlimit="10" stroke-width="7.63"/><path d="m1858.1 489.9-528 181.7-141.6 50.7-124.7 156.4-116.2 99.3-207 10.5-85.6-12.2c-4.9-5.7-15.2-7.9-32.9-4.9-98.3 17.1-188.9 48.9-192.2 50.1s-4.5 0-6.3.6c-5.2 1.5-10.6 2.7-15.4 5.2-14.4 7.4-28.7 15.1-39.3 28.1a30.2 30.2 0 0 0 -6.6 14c-.9 4-3.7 8.1-4.4 12.2-2.2 12.3-5.9 22.7-14.6 31.6-3.4 3.5-6.5 7.4-11.3 9.1-9.4 3.2-18.9 5-28.6.5-1.4-.7-3-1.1-4.6-1.7a23.8 23.8 0 0 0 -14.9-.9c-5.2 1.3-10.4 2.3-15.5 1.2a89.6 89.6 0 0 1 -17.6-5.4c-3.8-1.7-7.5-4.5-11.7-5s-7.9.4-11.9-.1a26.5 26.5 0 0 0 -15.2 2.8c-11.4 5.7-14.1 19.7-4.3 29.4a98.6 98.6 0 0 0 7.9 6.6c4.9 3.7 9.7 9.9 15 12.9 7.1 4.1 6.6 8.1 5.7 14.5-.5 2.9-1.4 6.7-3.5 8.3-4.7 3.6-9.4 8-16.3 6.9-2.5-.4-5.1-.4-7.6-.8a63.1 63.1 0 0 0 -19.4 0c-9.5 1.3-15.9 6.6-21.2 13.9-2.4 3.3-2.6 7-1.2 10.8a33.9 33.9 0 0 0 2.4 5.5c4.6 7.2 1.6 14.3-.5 21.3a3.2 3.2 0 0 1 -1.8 2c-3.4 1.7-6.7 4-10.3 4.6-12.4 2-23.9 6.6-34.8 12.6-1.5.8-3.4 2.1-3.8 3.5s-2.2 2.7-3.6 3.8a27.8 27.8 0 0 0 -4.3 4.1c-3.6 4.5-7.1 9-10.6 13.6h.1c-34.6 35.8-.7 52.7 21.2 48.7 17.2-3.1 11-49 11-49 .8-1.6 2.3-2.9 3.4-4.4 9-11.4 19.4-20.7 33-26.4 9.5-3.9 18.8-6.2 29-4 5.7 1.2 10.9 5.7 11.4 10.7s-1.1 10-5.6 13.3a35 35 0 0 1 -4.9 2.9 32.6 32.6 0 0 1 -12.4 3.3l-5.6 1.5h-.3s-39.7 13.2-24 31c45.9 51.9 140.6 15.2 180.8-27.7h.7c5.4-3.5 10.8-6.9 16.1-10.6 12.5-8.6 24.9-17.2 38.4-24.2a65.6 65.6 0 0 1 25.4-7.3c12.5-.9 23 3.4 30.8 13.7l2.6 3.3c-6.6 4.1-13.4 7.7-20.7 8.4-9.3.8-17.7 5.1-25.7 11.7a58.7 58.7 0 0 0 -8.1 7.7h-1.3s-31 30 12 40c38.1 8.9 47.2-29.3 48.8-38.2h.3l7.2-17.2a30.5 30.5 0 0 0 1.7-5.1 28.1 28.1 0 0 0 7.8-3.8 24.8 24.8 0 0 0 10.3-13.9l-5.4-1.2c-1.9-.5-4-.8-5.5-1.8l-.3-.2 11.2 3 20.1-21.2.2-.2v.6s15.7-15.7 25.3-6.2 4.9 19.9-1.7 25.7-11.2 24.8 3.7 27.3 24.9-5.4 42.7-32.3 40.6-92.3 84.5-104.8 7.4 20.3 27.3 29 33.9-11.1 43.9-25.6 32.6-32.8 115.3-27.4 314.5-57.1 386.6-129.5c350-351 599.6-345.6 662-429zm-1562.1 651c10.1 6.8 12 12 8.3 21.8-14.7 1.6-27-5.5-32.2-18.7 8-7.2 16.3-8.3 23.9-3.1zm-48.4 5.8c-7.8-1-13.3-4-16.4-10.1-1.3-2.4-.6-6.1-.7-9.1 2.7-.1 6-1.2 8.2-.1 6.5 3.4 9.3 9.5 8.9 19.3zm77.8 56.9c-9.4 10.7-20.8 18.6-35.2 20.5-10.2 1.3-19.1-1-24.8-11.2-9-15.9-14.7-32.8-16.3-50.9-.6-6.7 2.4-12.2 11-14.8 3 12 13.5 16.4 20.4 24 4.4 5 9.8 6.4 16.1 6.5s14.2.5 21.3 1.2c2.4.2 5.4 1 6.9 2.7 4.6 5.2 5.1 16.8.6 22z" fill="#aad1c7" stroke="#aad1c7" stroke-miterlimit="10" stroke-width="7.63"/><path d="m20.6 1196.9 24.6 14.9c7.7 4.8 18.5 5.7 23.8.7 7.4-7.1 8.8-24.2 0-31.4s-24.2-16-35.9-21.4c-6.4-2.9-15.7 3.8-23.1 5.1-5.8 1-9.8 5.4-9.2 13.1 1 11.4 6.5 18 19.8 19z" fill="#aad1c7"/><path d="m86.4 1161.3c0 7.2-.7 13.2.1 18.9 1.9 14.5 9.4 26.5 18.1 37.7 5.3 6.7 20.8 10.6 27.7 8.2s16.9-14.3 16.8-23.7c0-28.4-32.8-49.7-62.7-41.1z" fill="#aad1c7"/><path d="m283.1 1092.4c11.8.3 20.9-6.9 30.9-11.8 12.2-5.9 19.7-16.1 25.9-27.6 3.5-6.6 1.6-13.6-.7-19.8-1-2.6-6.3-4.8-9.8-4.9-8.7-.4-17.3.3-24.5 7-8.9 8.1-18.8 15.1-28.1 22.7-5.1 4.2-9.5 9.1-11.5 15.7-1.1 3.8-.6 7.3 2 10.1 4.3 4.4 8 10.1 15.8 8.6z" fill="#aad1c7" stroke="#aad1c7" stroke-miterlimit="10" stroke-width="11.03"/><path d="m73.3 1281.9c4.6-1.4 8.8-2.3 12.6-4h-11.8c-.2 1.1-.4 2.4-.8 4z" fill="#fff"/><circle cx="298.6" cy="1312.1" fill="#8adaed" opacity=".44" r="24.5"/><circle cx="339.9" cy="1250.9" fill="#fff" opacity=".59" r="16.4"/><circle cx="138.1" cy="1260.7" fill="#fff" opacity=".44" r="24.5"/><circle cx="170" cy="1351.5" fill="#8adaed" opacity=".44" r="29.9"/><circle cx="47.4" cy="1241.3" fill="#8adaed" opacity=".44" r="25"/><circle cx="84.8" cy="1282" fill="#c1cfd3" opacity=".44" r="16.4"/><circle cx="109.4" cy="1205.8" fill="#fff" opacity=".59" r="16.4"/><circle cx="206.4" cy="1312.2" fill="#fff" opacity=".59" r="16.4"/><path d="m1919.9 464s-393.1 73.4-653.9 235.2l81.1 176.7s377-261 587-305z" fill="#aad1c7" stroke="#aad1c7" stroke-miterlimit="10" stroke-width="7.63"/><path d="m984.4 916.7a63.9 63.9 0 0 1 -16.8-2.5c-6.6-1.7-13.5-4.8-20.2-7.8l-2.5-1.1-3-1-1.8-.7-2.2-.9c-5.9-1.7-8.7-5.6-12.5-11.1l-1.9-2.6-.9-1.4-1.1-1.6-.2-.4a229.7 229.7 0 0 1 -24.9-52.6c-2.6-7.9-5.3-16.4-7.8-25.2-.2-.9-.5-1.9-.8-2.8s-.5-1.9-.7-2.9a28.6 28.6 0 0 0 -.7-2.8 161.2 161.2 0 0 1 -3.2-29.3v-9a13.4 13.4 0 0 0 .1-2c11.5 7.9 25.8 15.3 42.5 22.3l3 1.2c3.6 1.5 7.1 3.3 10.6 5a113.5 113.5 0 0 0 13.2 6.1l3.5 1.4.7.2.9.5a2 2 0 0 1 .8 1.5c.4 4.1.9 7.8 1.5 11.3l.6 3.7c1.5 9 3.1 18.2 4.8 27.3 3 15.5 7.6 31.8 14.7 51.2a87.8 87.8 0 0 0 5.4 11.6c1.1 2 2.1 4 3.1 6a21.2 21.2 0 0 0 1.1 2.1 25.2 25.2 0 0 1 1.5 2.7 4.7 4.7 0 0 0 1 2.6h-.8l-2.4.4-2.5.4z" fill="#fff"/><path d="m886.1 764.3a247.2 247.2 0 0 0 38.6 19.6l3 1.3c3.5 1.4 6.8 3.1 10.4 4.9a128.6 128.6 0 0 0 13.5 6.2l3.5 1.3.5.2h.1q.6 6 1.5 11.1l.6 3.6c1.5 9 3.1 18.3 4.8 27.4 3 15.7 7.7 32.1 14.8 51.7a94 94 0 0 0 5.6 12c1.1 2 2.1 3.9 3 5.8a17.1 17.1 0 0 0 1.3 2.3l.9 1.7-1.9.3h-1.9a67.7 67.7 0 0 1 -16.1-2.3c-6.3-1.7-13.1-4.7-19.7-7.7l-2.5-1.1a21.3 21.3 0 0 0 -3.3-1.1l-1.6-.7-2.5-1c-4.7-1.3-7-4.3-11-10l-1.8-2.6-.9-1.2-1-1.5-.3-.4a226.5 226.5 0 0 1 -24.6-52c-2.5-7.9-5.3-16.3-7.7-25l-.8-2.9c-.2-.9-.5-1.8-.7-2.7s-.5-1.9-.7-2.8a155 155 0 0 1 -3.1-28.8zm-3.6-9.3c-.6 0-1.6 1.1-2 2.9-.1 1-.1 2-.1 3-.1 3.1-.1 6.1 0 9.1a157.3 157.3 0 0 0 3.2 29.9c.3 1 .5 1.9.7 2.9s.5 2 .8 2.9a24.5 24.5 0 0 0 .8 2.9c2.3 8.5 5 16.9 7.8 25.3a230.1 230.1 0 0 0 25.2 53.3l1.3 2 1 1.5c4.9 6.7 8 12.5 15.9 14.8.6.1 3.6 1.5 4.2 1.6l2.5.8c7.4 3.3 15.4 7.1 23.1 9.1a66.7 66.7 0 0 0 17.5 2.6h2.3l5-.8 4.9-.9c.7-.1-3.2-4.8-2.4-4.9-.7-2.1-2.2-4.2-3-5.8-2.8-5.8-6.3-11.4-8.4-17.4-6-16.6-11.3-33.4-14.6-50.7-1.9-10.3-3.6-20.6-5.4-30.9-.6-3.7-1.1-7.5-1.5-11.2a4.2 4.2 0 0 0 -2-3.5l-1.4-.8-.8-.3-3.5-1.4c-8.2-3-15.6-7.7-23.7-11l-3-1.3c-15.1-6.2-30.9-14-44.3-23.5z"/><path d="m1349 1122.6c1.2 7.8 2.4 15.6 3.5 23.4.2 1.6.5 3.2.8 4.8 3 13.7 8.3 26.5 14.5 39.1 3.3 6.7 7.2 12.9 12.6 17.8 7.8 7.1 10.6 8.3 19 1.6 5.2-4.1 9.6-9.3 14.2-14.2a16.2 16.2 0 0 0 3.1-5.4c1.6-4.3 3-8.6 4.6-13.2-2.6-1.8-5.3-3.3-7.2-5.5l-7.2-8.1-6.1-7.1c-2.9-3.5-5.6-7-8.2-10.6-11.8-16.2-19.2-34.6-25.7-53.5a20.9 20.9 0 0 1 -.8-3.6 26.6 26.6 0 0 1 -.7-3.9c-.8-5.7-1.3-11.4-2.2-17.1-.1-.4-.1-.7-.2-1.1-.5-2.2-1-4.4-1.4-6.6a60.3 60.3 0 0 1 -1.2-7 13.6 13.6 0 0 0 -.2-2c-.8-3.1-1.8-6.1-2.8-9.1a7.9 7.9 0 0 0 -4.7-5.2c.1 2.2.2 3.9.3 5.6 1 14.2-2.1 28.1-3.1 42.2s-2.9 25.7-.9 38.7z" fill="#fff"/><path d="m1324.8 550a146.6 146.6 0 0 1 37.9-12.3 21.9 21.9 0 0 0 8.8-3.3 23.9 23.9 0 0 1 -8.1 2.8 141.2 141.2 0 0 0 -38.6 12.8zm24.2 572.6c1.2 7.8 2.4 15.6 3.5 23.4.2 1.6.5 3.2.8 4.8 3 13.7 8.3 26.5 14.5 39.1 3.3 6.7 7.2 12.9 12.6 17.8 7.8 7.1 10.6 8.3 19 1.6 5.2-4.1 9.6-9.3 14.2-14.2a16.2 16.2 0 0 0 3.1-5.4c1.6-4.3 3-8.6 4.6-13.2-2.6-1.8-5.3-3.3-7.2-5.5l-7.2-8.1-6.1-7.1c-2.9-3.5-5.6-7-8.2-10.6-11.8-16.2-19.2-34.6-25.7-53.5a20.9 20.9 0 0 1 -.8-3.6 26.6 26.6 0 0 1 -.7-3.9c-.8-5.7-1.3-11.4-2.2-17.1-.1-.4-.1-.7-.2-1.1-.5-2.2-1-4.4-1.4-6.6a60.3 60.3 0 0 1 -1.2-7 13.6 13.6 0 0 0 -.2-2c-.8-3.1-1.8-6.1-2.8-9.1a7.9 7.9 0 0 0 -4.7-5.2c.1 2.2.2 3.9.3 5.6 1 14.2-2.1 28.1-3.1 42.2s-2.9 25.7-.9 38.7zm4-30.3c.2-2.7.5-5.4.7-8.2.3-4.6.9-9.3 1.4-13.9s1.4-10.8 1.7-16.4a58.9 58.9 0 0 0 1.1 6.3c.3 1.8.7 3.6 1.1 5.4l.3 1.5a6.4 6.4 0 0 1 .2.7c.5 3.6 1 7.3 1.4 10.9.2 2 .5 4.1.8 6.1a24.5 24.5 0 0 0 .7 4.2 30.1 30.1 0 0 0 .9 4.1c5.9 17.2 13.7 37.1 26.2 54.4 2.4 3.4 5.2 6.9 8.4 10.8 1.8 2.2 3.8 4.5 6.2 7.2l5.4 6.2 1.8 1.9a26.4 26.4 0 0 0 5.5 4.5c-1.2 3.6-2.4 7-3.6 10.4a14.6 14.6 0 0 1 -2.3 4.2 30.7 30.7 0 0 0 -2.5 2.6 109.5 109.5 0 0 1 -11.4 11.2c-3.3 2.6-5.4 3.7-6.9 3.6s-3.9-2.1-7.1-5-8.2-9.4-11.8-16.8c-7.2-14.3-11.7-26.5-14.2-38.1-.3-1.7-.6-3.2-.7-4.6-.8-5.6-1.7-11.4-2.6-16.9-.3-2.2-.7-4.4-1-6.6-1.5-9.8-.6-19.5.3-29.7zm-97.2-464.7c.5-5.5 3-12.7 8.7-21.7 2.1-3.3 4.3-6.6 6.7-9.8-2.5 3.1-4.8 6.2-7.1 9.3-6.3 8.8-8.5 16.1-8.3 22.2zm-149.7 214 .2.2c7.4 6.4 181.4 155 245.7 172.6 30.3 8.3 37.2-13.7 35.8-39.7-2.3-43.8-26.7-83.4-64.3-106.2-41.4-25.1-109-47.3-217.3-26.9zm-230.9-269.8c2.7 5.1 5.7 10.3 9.7 14.2s11.1 8.3 16.9 12.1 9.4 5.2 14 7.9 9.1 5.9 13.9 8.3c8.9 4.5 18.2 8.3 27.1 12.9a100.6 100.6 0 0 0 24.8 9.4c6 1.4 12.4 2.7 18-1.2a56.7 56.7 0 0 0 8.8-8.2c5.6-6.2 7.1-13.5 4.6-21.5-1-2.9-2.2-5.7-3.2-8.6a31.6 31.6 0 0 0 -11.3-15.8 89.7 89.7 0 0 0 -25.7-14.2l-15.6-5.2c-6.6-2.2-13.1-5-19.9-6.2-9.5-1.8-19.1-2.4-28.2-3.5l-18.4 2.5c-5.6.8-9.9 3.8-13.6 8s-3.5 6.2-1.9 9.1zm-106.4 36.2a.7.7 0 0 1 .1.5c.1.4.3.9.4 1.4a10.8 10.8 0 0 0 .8 1.9l1.7 3.1a11.9 11.9 0 0 0 .8 1.6c.5 1 1.1 2.1 1.6 3.2l.8 1.5c.6 1.3 1.3 2.5 1.9 3.7s2.3 4.3 3.5 6.3 2.2 3.6 3.4 5.3c11.1 15.6 21.7 31.5 35.1 45.3 5.6 5.9 11.1 11.9 17.1 17.3l1.7 1.5 2.6 2.2.6.5 1.3 1 1.7 1.4c7.6 6.1 14.2 13.3 21.8 19.4l3.6 2.7c15 10.9 30.3 21.2 47.4 28.6a91 91 0 0 1 15.4 8.2c6 4.1 12.6 6.5 19.7 8.4 1.4-8.5 2.8-16.9 4.3-25.2.5-3.2 1-6.3 1.6-9.5s1.1-6.7 1.8-10v-.2c1.9-10.9 4-21.1 6.2-28.2 1.2-5.3 2.5-10.7 3.7-16a22.9 22.9 0 0 0 .5-5.2 6.6 6.6 0 0 0 -.1-1.4 11.3 11.3 0 0 0 -4-7.9l-3.1-2.7a52.2 52.2 0 0 0 -6-4.5c-8.3-5.1-16.8-10.1-25.4-14.9-6.4-3.6-12.8-7.5-19.6-10.1-11.5-4.4-23.4-7.9-35.1-11.9-14.4-5.1-29.3-7.9-44.5-10.1-11-1.6-21.9-4.2-32.8-6.8-8.1-1.9-15.9-4.5-24-6.6-3-.8-5-.6-6 .7s-1 2.9-.5 5.5z"/><path d="m944.9 770.9v9.4l3.9 10.4.7.3 2.4-8.7s3.1-28.7 7.5-54c-.7 3.3-1.3 6.7-1.8 10s-1.1 6.3-1.6 9.5c-1.5 8.3-2.9 16.7-4.3 25.2a69.5 69.5 0 0 1 -6.8-2.1z"/><path d="m736.4 540.6c1.2 19.2-1.3 29.5 10.5 59.3 0 0 43.5 99.9 130.7 153.3 0 0 41.7 25.8 71.3 37.5l-3.9-10.4v-9.4a56.4 56.4 0 0 1 -12.8-6.3 91 91 0 0 0 -15.4-8.2c-17.1-7.4-32.4-17.7-47.4-28.6l-3.6-2.7c-7.6-6.1-14.2-13.3-21.8-19.4l-1.7-1.4-1.3-1-.6-.5-2.6-2.2-1.7-1.5c-6-5.4-11.5-11.4-17.1-17.3-13.4-13.8-24-29.7-35.1-45.3-1.2-1.7-2.3-3.5-3.4-5.3s-2.4-4.1-3.5-6.3-1.3-2.4-1.9-3.7l-.8-1.5c-.5-1.1-1.1-2.2-1.6-3.2a11.9 11.9 0 0 1 -.8-1.6l-1.7-3.1a10.8 10.8 0 0 1 -.8-1.9c-.1-.5-.3-1-.4-1.4a.7.7 0 0 0 -.1-.5c-.5-2.6-.4-4.4.5-5.5s3-1.5 6-.7c8.1 2.1 15.9 4.7 24 6.6 10.9 2.6 21.8 5.2 32.8 6.8 15.2 2.2 30.1 5 44.5 10.1 11.7 4 23.6 7.5 35.1 11.9 6.8 2.6 13.2 6.5 19.6 10.1 8.6 4.8 17.1 9.8 25.4 14.9l1.8 1.2-14.3 2 .7 105.5a69.5 69.5 0 0 0 6.9 2.1c1.4-8.5 2.8-16.9 4.3-25.2.5-3.2 1-6.3 1.6-9.5s1.1-6.7 1.8-10c-4.4 25.3-7.5 54-7.5 54l-2.4 8.7-.7-.3 1 2.8 8.8 1.9a237.1 237.1 0 0 0 22.9 96.7c44.1 92.4 93.5 118.5 102.8 106.9s30-83 15.3-146.1l-1.2-4.8 10.9 3.4c21.9 19 128 110.4 181.1 137.8l4.9 2.4c14.2 10.9 26.4 20 29.3 21.5 4.5 2.5 16.3 7.9 25.8 17.9l-1.9-.7.3 5.9a15.5 15.5 0 0 1 .1 2.1c.1 1.3.1 2.4.2 3.6.7 9-.4 17.9-1.6 27.3-.5 4.6-1.1 9.5-1.5 14.3l-.6 8c-1 10.3-1.9 20.8-.3 31.6.4 2.1.7 4.4 1.1 6.6.8 5.5 1.7 11.2 2.5 16.8.2 1.5.5 3.1.8 4.9 2.7 12.3 7.4 25 14.8 40 4.1 8.2 8.4 14.2 13.5 18.9s7.3 6.4 11.3 6.9h1.3c3.8 0 7.3-2.1 11.2-5.2a125 125 0 0 0 12.2-11.9l2.5-2.7a20.1 20.1 0 0 0 3.9-6.7l3.8-11.1.5-1.4c48.3 41.7 104.7 46.6 128.4 42.1s19.7-45.9-20.3-123.1-88.4-108.7-88.4-108.7c-5.8-45.9-24.9-115-24.9-115h-.4a.3.3 0 0 0 .1.2h-.4l.3-.2c-1.5-4.8-42.9-130.2-155.6-228.7 0 0-9-4.4-7.6-17.6-.2-6.1 2-13.4 8.3-22.2 2.3-3.1 4.6-6.2 7.1-9.3 13.1-17.9 30.5-34.5 53.5-45.9.1 0 .1 0 .1-.1a141.2 141.2 0 0 1 38.6-12.8 23.9 23.9 0 0 0 8.1-2.8.1.1 0 0 0 .1-.1c25.2-17.9-60.8-84.6-219.8 14.4 0 0-20.7 15.7-75.5.3v-.3s-58.8-41.6-149.4-55.5v.6a85.3 85.3 0 0 0 -15.8-2.4s-86-4-152.8 27.9c.1 0-23.2 2.3-22 21.5zm616.6 501.1c-.1-1.7-.2-3.4-.3-5.6a8.1 8.1 0 0 1 4.7 5.2c1 3 2 6 2.8 9.1a13.6 13.6 0 0 1 .2 2 60.3 60.3 0 0 0 1.2 7c.4 2.2.9 4.4 1.4 6.6.1.4.1.7.2 1.1.9 5.7 1.4 11.4 2.2 17.1a26.6 26.6 0 0 0 .7 3.9 20.9 20.9 0 0 0 .8 3.6c6.5 18.9 13.9 37.3 25.7 53.5 2.6 3.6 5.3 7.1 8.2 10.6l6.1 7.1 7.2 8.1c1.9 2.2 4.6 3.7 7.2 5.5-1.6 4.6-3 8.9-4.6 13.2a16.2 16.2 0 0 1 -3.1 5.4c-4.6 4.9-9 10.1-14.2 14.2-8.4 6.7-11.2 5.5-19-1.6-5.4-4.9-9.3-11.1-12.6-17.8-6.2-12.6-11.5-25.4-14.5-39.1-.3-1.6-.6-3.2-.8-4.8-1.1-7.8-2.3-15.6-3.5-23.4-2-13 0-25.8.9-38.7s4.1-28 3.1-42.2zm-246.9-200.1h.1c108.3-20.4 175.9 1.8 217.3 26.9 37.6 22.8 62 62.4 64.3 106.2 1.4 26-5.5 48-35.8 39.7-64.3-17.6-238.3-166.2-245.7-172.6zm-229-278.9c3.7-4.2 8-7.2 13.6-8l18.4-2.5c9.1 1.1 18.7 1.7 28.2 3.5 6.8 1.2 13.3 4 19.9 6.2l15.6 5.2a89.7 89.7 0 0 1 25.7 14.2 31.6 31.6 0 0 1 11.3 15.8c1 2.9 2.2 5.7 3.2 8.6 2.5 8 1 15.3-4.6 21.5a56.7 56.7 0 0 1 -8.8 8.2c-5.6 3.9-12 2.6-18 1.2a100.6 100.6 0 0 1 -24.8-9.4c-8.9-4.6-18.2-8.4-27.1-12.9-4.8-2.4-9.2-5.6-13.9-8.3s-9.5-5-14-7.9-11.9-7.4-16.9-12.1-7-9.1-9.7-14.2c-1.6-2.9-.6-6.3 1.9-9.1z"/><path d="m768.8 608a.7.7 0 0 1 .1.5c.1.4.3.9.4 1.4a10.8 10.8 0 0 0 .8 1.9l1.7 3.1a11.9 11.9 0 0 0 .8 1.6c.5 1 1.1 2.1 1.6 3.2l.8 1.5c.6 1.3 1.3 2.5 1.9 3.7s2.3 4.3 3.5 6.3 2.2 3.6 3.4 5.3c11.1 15.6 21.7 31.5 35.1 45.3 5.6 5.9 11.1 11.9 17.1 17.3l1.7 1.5 2.6 2.2.6.5 1.3 1 1.7 1.4c7.6 6.1 14.2 13.3 21.8 19.4l3.6 2.7c15 10.9 30.3 21.2 47.4 28.6a91 91 0 0 1 15.4 8.2c6 4.1 12.6 6.5 19.7 8.4 1.4-8.5 2.8-16.9 4.3-25.2.5-3.2 1-6.3 1.6-9.5s1.1-6.7 1.8-10v-.2c.4-2.3.9-4.7 1.4-7l.3-1.7c1.4-6.5 3-13 4.5-19.5s2.5-10.7 3.7-16a22.9 22.9 0 0 0 .5-5.2 6.6 6.6 0 0 0 -.1-1.4 11.3 11.3 0 0 0 -4-7.9l-3.1-2.7a52.2 52.2 0 0 0 -6-4.5c-8.3-5.1-16.8-10.1-25.4-14.9-6.4-3.6-12.8-7.5-19.6-10.1-11.5-4.4-23.4-7.9-35.1-11.9-14.4-5.1-29.3-7.9-44.5-10.1-11-1.6-21.9-4.2-32.8-6.8-8.1-1.9-15.9-4.5-24-6.6-3-.8-5-.6-6 .7s-1 2.9-.5 5.5z" fill="#fff"/><path d="m875.2 571.8c2.7 5.1 5.7 10.3 9.7 14.2s11.1 8.3 16.9 12.1 9.4 5.2 14 7.9 9.1 5.9 13.9 8.3c8.9 4.5 18.2 8.3 27.1 12.9a100.6 100.6 0 0 0 24.8 9.4c6 1.4 12.4 2.7 18-1.2a56.7 56.7 0 0 0 8.8-8.2c5.6-6.2 7.1-13.5 4.6-21.5-1-2.9-2.2-5.7-3.2-8.6a31.6 31.6 0 0 0 -11.3-15.8 89.7 89.7 0 0 0 -25.7-14.2l-15.6-5.2c-6.6-2.2-13.1-5-19.9-6.2-9.5-1.8-19.1-2.4-28.2-3.5l-18.4 2.5c-5.6.8-9.9 3.8-13.6 8s-3.5 6.2-1.9 9.1z" fill="#fff"/><path d="m1106.1 841.6.2.2c7.4 6.4 181.4 155 245.7 172.6 30.3 8.3 37.2-13.7 35.8-39.7-2.3-43.8-26.7-83.4-64.3-106.2-41.4-25.1-109-47.3-217.3-26.9z" fill="#fff"/><path d="m944.9 770.9v9.4l3.9 10.4.7.3 2.4-8.7s3.1-28.7 7.5-54c-.7 3.3-1.3 6.7-1.8 10s-1.1 6.3-1.6 9.5c-1.5 8.3-2.9 16.7-4.3 25.2a69.5 69.5 0 0 1 -6.8-2.1z"/><path d="m1150.3 548.2c162.2-100 249.3-31 221.3-13.9 0 0-.1 1.7-24.7 9.3a150.9 150.9 0 0 0 -71.4 47.1l-4.3 5.3c-15 17-15.4 31.6-15.4 31.6.4 16.9 18.8 24.1 18.8 24.1" fill="none" stroke="#fff" stroke-miterlimit="10" stroke-width="5.81"/><path d="m867.1 561.2a33.4 33.4 0 0 0 11.8 18.7c16.4 13.6 33.1 27 49.6 40.5 5.7 4.6 11.1 9.5 16.9 13.8 2.7 1.9 5.4 3.6 8.5 5.4s4.7 2.4 7.5 4c43.1 24.1 59.8-4.4 59.8-4.4h-.1c2.6-8.1 2.4-16.1.7-24.3-3-14.5-10.5-25.9-21.4-35.9-20.9-19.2-45.9-28.6-73.2-33.1-8.4-1.3-16.8-2.5-25.2-3.5a41.7 41.7 0 0 0 -24.1 4 32 32 0 0 0 -9.6 7.5c-1.4 1.5-1.7 4.9-1.2 7.3z" fill="#fff" stroke="#000" stroke-miterlimit="10" stroke-width=".73"/><path d="m893.7 828.6-.3.3v-.3z"/><path d="m1919.4 412.2c-8-1.9-15.8-4.6-23.9-6.3a75.4 75.4 0 0 0 -17.1-2c-21.7.5-43.5 1.4-65.3 2.2a519.9 519.9 0 0 0 -76.7 8.3c-3.7.7-7.5.2-11.1 1a185.7 185.7 0 0 0 -21 5.7c-3.2 1.1-4-1.9-5.4-2.1-1.8 1.9-2.9 4-4.6 4.8-5 2.2-10.2 3.8-15.3 5.8-14.2 5.6-28.4 11.1-42.6 16.8-7.6 3.1-15.1 6.5-22.6 10-5.6 2.6-11.1 5.5-16.6 8.3-2 1.1-3.8 2.5-5.7 3.7-10.4 6-21.1 11.4-31.1 18a310.6 310.6 0 0 0 -27.7 20.6c-10.7 8.6-20.6 18.3-31.5 26.7a138.5 138.5 0 0 0 -21.5 21.1c-.4.5.4 2.1.7 3.7-4.6-.6-7.4 1.2-10 4.4-8.3 10-17 19.7-25.4 29.6q-18.3 21.4-36.4 43c-12.2 14.6-24.6 28.9-35.3 44.7-8 11.8-17.3 22.7-26.1 33.9-16.9 21.9-35.1 42.4-58.5 57.8s-46.3 20.1-72.2 16.7a31.5 31.5 0 0 0 -19.5 3.2c-7.4 3.8-9.3 12.4-4.3 19.1 3.7 4.9 3.5 7.8 0 12.8s-7.4 4.9-11.6 6.4c-7.3 2.8-9 9.5-4 15.4 3.6 4.1 7.1 8.3 10.5 12.3-2.3 8.5-4.9 16.3-11.6 21.9-5 4.1-9.8 8.6-15.2 12.2a231.2 231.2 0 0 1 -40.6 22.1c-10.3 4.4-20.6 9.1-31.2 12.8-6 2.1-12.8 1.7-18.9 3.7-11.1 3.7-22.6 3.8-34 4.5a252.7 252.7 0 0 1 -61.4-3.7c-13.6-2.5-27.7-2.5-41.1-5.6-19.9-4.5-39.3-11-58.6-17.8-14.1-5-26.9-12.7-39.9-19.9-4.1-2.3-8.5-4.2-12.3-7.1-13-10-25.8-20.2-38.6-30.5s-25.1-19.8-38.3-28.9c-18.1-12.5-36.5-24-57.8-29.7-16-4.3-32-5.2-47.5 2.6-6.2 3.1-9.7 13-2 18.5 2.4 1.7 5 3.2 7.6 4.8s6.9 3.2 9.8 5.5 7.4 6.9 6.6 12.7-4.1 9.8-9 11c-9.3 2.2-19 3.1-28-.9-17.2-7.8-35.3-12.5-53.7-16.4-7.9-1.7-15.8-.7-23.7.4a7.4 7.4 0 0 0 -4.9 3.6c-4 7.4-9.4 11.9-18.5 11.5-5.1-.2-7.8 2.5-9.5 7.9 1.7.9 3.7 1.5 5.1 2.8s4.8 5 3.9 8.9-4.6 4.4-7.8 4.2c-8.5-.6-17-1.3-25.4-2.3-11.3-1.2-22-.1-31.8 6-4.2 2.6-7.2 10.1-5.8 14.4s6.9 7.9 12.5 7.2c7.4-.8 14.8-2.3 22.2-3.5 10.8-1.6 21.8-3.4 32.9-1.2a14.8 14.8 0 0 0 5.9-.5c18.5-2.8 36.3-.2 53.9 5.5 11 3.5 20 10.2 28.7 17.4 4.3 3.5 5.5 12.1 3 17.4s-5.2 6-9.6 5.4-8.3-1.7-12.5-2.5-6.9-1.8-10.3-1.7c-7 .1-9.7 5.4-6 11.3 2.7 4.3 4.8 8.7 4.7 13.8s-.3 11.5-.4 17.3 2.4 9.5 8.4 10.4a25.4 25.4 0 0 0 10.3-.6c7.5-2 14.8-4.6 22.1-7.2 18.4-6.7 34.3-1.8 48.7 10.4 5.5 4.7 6 9.4 1.3 15a15.6 15.6 0 0 1 -7.1 5.1c-6.7 1.8-13.6 3.1-20.4 4.3-4 .7-8 1-10.3 5.1 1.8 5 3.5 10 9 12.2 10.7 4.1 22.3 6.1 33.2 4.5 16.8-2.4 33.1-7.5 49.7-11.4 11.4-2.7 22.9-4.7 34.6-4.1a151.6 151.6 0 0 1 25.9 4c13 3.2 25.4 8.2 36.2 16.1 9.3 6.8 14.9 16.1 12.8 28.4a133.7 133.7 0 0 1 -3.5 15.2c-1.4 5.3.2 8.6 5.5 8.6a28.2 28.2 0 0 0 11.4-2.8c4.3-2 8.1-5 12.2-7.5 9.4-5.8 20.5-5.9 30.7-8.8a52.5 52.5 0 0 1 11.1-1.8c10.5-.8 21-.8 31.4-2.1 23.3-3.2 46.6-6.4 69.7-10.7s48.2-9.1 71.5-17c10.6-3.7 20.9-8.2 31.4-12.3a121 121 0 0 0 11.7-5c26.7-14.6 54-28.4 78.4-46.8 12.3-9.3 23.7-19.8 35.5-29.7 5-4.2 10.4-8.1 14.6-12.9 12.4-14.5 27-26.6 40.7-39.7 2.8-2.7 5.3-5.8 8.1-8.6l19.2-19.4a32.4 32.4 0 0 0 2.9-3.4c6.6-9 12.9-18.3 19.8-27.2 13.2-16.9 26.7-33.7 40.3-50.4s28.5-35.6 43.7-52.5c10.6-11.9 22.9-22.4 34.5-33.4 3.2-3.1 6.7-5.8 10-8.8 13.5-12 26.8-24.2 41.9-34.2 9.6-6.3 18.8-13 27.9-20 14.5-11.4 29.5-21.8 46.7-28.5s34.9-13.9 52.8-19.7a214.5 214.5 0 0 1 37.1-8.5c12.6-1.9 25.3-2.2 38-2.6 5.6-.2 145.3 21.5 214.8 32.1m-1284.4 285.8a14.7 14.7 0 0 1 -14.3 2.2c-7.7-2.8-15.5-5.7-18.9-14.4-.8-2-2.4-3.8-3.2-5.9-1.7-5-5.3-7.5-9.9-9.5a54.3 54.3 0 0 1 -9.2-5.7 5.4 5.4 0 0 1 -1.9-6.3c2-5 7.7-8.4 14.2-8.1a78.9 78.9 0 0 1 41.9 12.6c17.1 11.1 16.4 24 1.3 35.1zm36.3 16.9c-2.9 4.7-14.6 10-19.8 8.4a96.5 96.5 0 0 1 -14.6-5.8c-4.7-2.3-5.1-5.8-1.5-9.6a14.7 14.7 0 0 1 5.5-3.8c4.4-1.5 9-2.4 13.6-3.6a1.4 1.4 0 0 0 .2.6c2.5.2 5 .2 7.4.6a41 41 0 0 1 5 1.4c5.5 1.9 7.3 7 4.2 11.8z" fill="#296a6a" stroke="#296a6a" stroke-miterlimit="10" stroke-width="12.8"/><path d="m693.1 1108.2c-12.2-7.6-26.1-11.8-40.5-13.8-2.8-.4-5.7-.1-10.6-.1-10.8-1.6-21.8 3.8-32.3 10s-13.3 19.6-6.7 30.4c4 6.5 9.3 9.5 17.5 10.2a52.5 52.5 0 0 0 23.4-3.3c7.4-2.7 14.7-2.3 22.1-.4 3.7.9 7.3 2.1 10.9 3.1 10.2 2.7 18.4-1.6 25.4-8.3 1.7-1.7 2.4-5 2.5-7.7.6-9.2-5-16-11.7-20.1z" fill="#296a6a" stroke="#296a6a" stroke-miterlimit="10" stroke-width="4.71"/><path d="m794.7 1058.8c-21.6-11-44-10.7-66.7-3.7-2.2.6-4.4 1.8-6.7 2.2-10.6 1.7-16.6 9.2-21.8 17.4-1.8 2.8-1.6 6.9-2.4 10.4-1.2 11.2 6.7 16.1 14.5 20.3a36.2 36.2 0 0 0 28.1 3c7.9-2.5 13.7-.6 19.2 5.4s12.1 6.3 18.7.7 9.4-9.6 14.4-14.1a15.9 15.9 0 0 1 7.5-3.6c9.1-1.7 14.5-9.8 12.2-18.8s-8.9-15.1-17-19.2z" fill="#296a6a" stroke="#296a6a" stroke-miterlimit="10" stroke-width=".59"/><path d="m496.7 977.4c1.8 1.5 3.5 3.5 5.6 4.1 11.6 3.2 23.4 6.1 35.1 9.1 6.4-.2 9.2-4.2 8.3-11.7-.3-1.7-.8-3.4-1.1-5-4.2-17.5-34.6-31.7-49-13.7-4.9 6.1-4.9 12.1 1.1 17.2z" fill="#296a6a" stroke="#296a6a" stroke-miterlimit="10" stroke-width="14.13"/><path d="m727.4 1159.1a218.2 218.2 0 0 1 22.8-13.3c5.4-2.7 11.4-.3 14.4 4.3s3.7 11.1-.5 15.9a36.5 36.5 0 0 1 -26.8 12.8c-1.4 0-2.9.3-4.2-.1-4.1-1.1-8.1-2.8-8.9-7.4s-.8-9.5 3.2-12.2z" fill="#296a6a"/><circle cx="1795.7" cy="602.4" fill="#fff" r="16.8"/><circle cx="1870.2" cy="559.1" fill="#fff" opacity=".54" r="20.5"/><circle cx="1849.2" cy="614.9" fill="#dedbe5" opacity=".44" r="17.1"/><circle cx="1894.3" cy="553.5" fill="#fff" r="11.2"/><circle cx="1897.2" cy="627.7" fill="#fff" opacity=".59" r="11.2"/><circle cx="1876.5" cy="595.4" fill="#fff" opacity=".59" r="11.2"/><circle cx="786.2" cy="830" fill="#dedbe5" r="14.7"/><circle cx="805.6" cy="864.4" fill="#dedbe5" opacity=".85" r="17.9"/><circle cx="755.1" cy="824.6" fill="#dedbe5" opacity=".44" r="14.9"/><g fill="#fff"><circle cx="734.2" cy="862.5" opacity=".59" r="9.8"/><circle cx="765.9" cy="851.8" opacity=".59" r="9.8"/><circle cx="826" cy="886" opacity=".59" r="9.8"/><circle cx="780.9" cy="1024.5" opacity=".44" r="14.7"/><circle cx="802.6" cy="1054.1" opacity=".85" r="17.9"/><circle cx="726.7" cy="1012.9" opacity=".44" r="14.9"/><circle cx="749" cy="1037.3" opacity=".59" r="9.8"/><path d="m1571.3 719.7c-9.4-6.5-18.7-13.2-28.1-19.9-11.5-8.2-23-16.4-33.3-26-3.4-3.2-7.2-5.9-10.8-8.7-6-4.6-12.1-8.9-17.9-13.7-7.6-6.2-14.8-12.9-22.4-19-9.8-7.9-19.9-15.5-29.8-23.3l-2.4-1.9c4.3-1.1 7.5-2.3 10.8-2.8 13.5-1.9 27-4 40.6-3.3 9.5.5 19 1 28.3 2.4 6.6 1 13 3.5 19.5 5.3 11.8 3.4 23.4 7.3 34.3 12.9 5.8 3 11.3 6.8 16.8 10.3 11.3 7.1 22.4 14.6 32.1 23.8a117.1 117.1 0 0 1 15.9 17.9c4.6 6.6 7.9 14 11.5 21.2a78.5 78.5 0 0 1 5.7 14.1 98.5 98.5 0 0 1 3 18.7c.4 6.1-2.8 11-7.1 15-6 5.5-12.5 6.6-19.9 3-9-4.4-18.4-8.2-27.2-13-6.9-3.7-13.2-8.5-19.6-13z" stroke="#000" stroke-miterlimit="10" stroke-width="3.47"/><path d="m1323 567.4c-5.9-12.6-6.9-22.5-5.3-32.3 1.2 1.2 2.3 2.3 3.5 3.3 5.4 4.4 10.7 8.9 16.5 12.9 4 2.7 6.8 5.7 6.1 11.1-5.9 4.8-13.1 5.7-20.8 5z"/></g><path d="m1342.8 549.5c-26.2-22.2-52.2-44-74.6-70.2l4-2.4c5 5.6 9.6 11 14.4 16.2s11.9 12.5 18.2 18.4 12.2 11.3 18.6 16.6 10.8 8.3 16.4 12.3 4.5 3.4 3 9.1z" stroke="#000" stroke-miterlimit="10" stroke-width="1.32"/><path d="m1337.7 551.3c-5.8-4-11.1-8.5-16.5-12.9-1.2-1-2.3-2.1-3.5-3.3-1.6 9.8-.6 19.7 5.3 32.3 7.7.7 14.9-.2 20.8-5 .7-5.4-2.1-8.4-6.1-11.1z" fill="none"/><path d="m1342.8 549.5c1.5-5.7 1.3-5.9-3-9.1s-11.2-8-16.4-12.3-12.6-10.9-18.6-16.6-12.3-12.1-18.2-18.4-9.4-10.6-14.4-16.2l-4 2.4c22.4 26.2 48.4 48 74.6 70.2z" fill="none"/><path d="m1375.8 467a8.6 8.6 0 0 1 -3.7 5.5 24.7 24.7 0 0 0 -4.2 3.7c-5.5 7.3-9.1 15.5-11.7 24.3a105.1 105.1 0 0 0 -3.3 11.3c-1 5.6-1.9 11.2-2.5 16.9-.9 8.5-1.6 17.1-2.2 25.7-.2 1.8.4 3.6.7 5.8l4.8-2.6c7.6-4 15.2-8.1 22.9-11.8s12.7-5.2 19-7.9 12.1-5.1 18.6-6.1c3.3-.6 6.5-1.4 10-2.2.2-2.4.4-4.8.5-7.3.5-10.6-1.5-20.9-4.5-31-.6-2.1-.7-3.9 1.2-5.6 2.8 4.4 5.1 8.7 5.9 13.7s2 9.4 2.3 14.2-.2 9.8-.3 14.6c7.9-.2 15.4-.7 23-.6 13.6.2 26.6 2.9 38.4 10.3 3.9 2.5 6.5 4.9 7.4 9.9s-.4 5.7-2.9 7.4a62.4 62.4 0 0 1 -8.4 4.7c-4.4 2.2-8.9 4.2-13.3 6.3s-6.5 3.4-9.7 5.1a85.3 85.3 0 0 0 -31.5 28.3c-1.7 2.6-3.5 4.9-5.6 7.8a9 9 0 0 0 2.2.1c13.2-2.4 26.3-5.1 39.8-5.4s26.5 0 39.6 2.9c6.5 1.5 13.2 2.6 19.5 4.8 8.5 2.9 16.6 7 25.1 10s15.2 8.5 22.7 12.8 12.6 8.4 18.7 12.8a107.5 107.5 0 0 1 29.2 31.6 155.4 155.4 0 0 1 12 23.3c2.3 5.7 4.1 11.5 6 17.3a18.1 18.1 0 0 1 .5 5.7c-.5 7.7-3.9 14.2-8.8 20.1a5 5 0 0 1 -3.1 2.1c-2.2.1-2.6 1.7-3.7 3 2.9 1.1 5.4 2.7 8.1 2.9 4.2.3 7.9 2 11.6 3.5 8.2 3.5 14 9.3 15.9 18.4a45.8 45.8 0 0 1 -.5 19.5 117.6 117.6 0 0 0 -2.7 20.4c-.1 4.1-.2 8.2-.7 12.2a55.8 55.8 0 0 0 1.6 18.7c2.3 8.9 5 17.7 7.9 26.4 1.4 4.4 3.7 8.5 5.3 12.9a59.2 59.2 0 0 1 3.7 26.7 31.5 31.5 0 0 0 1.7 11.5c1.5 4.7 6.8 7 10.8 4.2a32 32 0 0 0 7.4-7.3c4.5-6 6.7-13.2 9.2-20.1 3.7-10.5 6.5-21.2 9.7-31.7l-2.6-2c4.6-.8 4.1-4.1 4.2-6.7.5-9.7.7-19.5 1-29.3a88 88 0 0 0 -5.8-33 141.6 141.6 0 0 0 -21.5-38 78.5 78.5 0 0 1 -6.8-11.1c-3.7-7-4.7-14.7-5.6-22.4-.4-3.9-.8-7.8-1.5-11.7-1.6-9.5-3.4-19-5.1-28.4-.4-2.2-.4-4.4-1.1-6.4-5.6-16.7-9.9-33.9-16.8-50.1-3-7.1-6.2-14.1-9.4-21.1-1.9-4.2-3.8-8.4-5.9-12.6s-4.8-9.7-7.4-14.4c-3.7-6.7-7.6-13.4-11.5-20s-6.8-10.9-10.2-16.4a6.2 6.2 0 0 0 -5-3l-7.8-1.2a125.7 125.7 0 0 1 -36.1-9.9c-5.9-2.5-11.7-5.5-17.7-7.6-12.8-4.5-24.5-11.3-36.6-17.4-7.1-3.7-14-7.8-21.3-11.3s-15.4-6.8-23.2-10.2c-5.2-2.3-10.1-5.2-15.5-7-9.6-3.4-19.4-6.5-29.2-9.1-21.1-5.7-42.7-6.5-64.4-6.5a22.3 22.3 0 0 0 -3.6.5c3.5 6.6 6.8 12.8 10.1 19.2 5-5.4 8.1-12.4 16.7-12.6z" fill="none"/><path d="m1344.6 538.1c0-12.5 3.6-24.4 6.5-36.4.8-3.3 2.1-6.4 3-9.6s2.5-7.5.4-11.8-4.8-11.7-9.1-16.7c-1.8-2.1-3.6-3.3-6.3-2.9-4.9.7-9.9 1.2-14.7 2-6.5 1.2-13 2.3-19.3 4s-14.5 4.3-21.8 6.5l-7.5 2.5c19.2 22.6 62.2 61.7 68.8 62.4z" fill="none"/><path d="m1653.8 898.6a8.1 8.1 0 0 1 -5.8-2.5c-4.6-4-9.1-8.4-10.9-12.8-3.6-8.6-7.3-18.8-8.6-29.1a50.9 50.9 0 0 1 5.6-29.7c6.4-12.1 13.8-24 19.6-33l2.1-3.2c4.1-6.2 8.3-12.6 9.9-19.6l1.2-4.6.6.8a24.9 24.9 0 0 1 2.9 5.2c2.5 7.4.6 15.1-1.2 22.5-2.5 10.5-5.1 21-7.6 31.5a55.2 55.2 0 0 0 1.1 28.7c.4 1.2.7 2.4 1 3.6 1.7 6 3.5 12.1 7 17.9s1.2 12-5.3 19.7a12.1 12.1 0 0 1 -4.8 3.1 19.2 19.2 0 0 1 -6.8 1.5z" fill="#fff"/><path d="m1667.8 769.2a14.7 14.7 0 0 1 .6 1.4c2.3 6.9.5 14.3-1.2 21.4-2.6 10.5-5.1 21-7.6 31.5a57.2 57.2 0 0 0 1.1 29.8c.3 1.2.7 2.4 1 3.6 1.7 6.1 3.5 12.4 7.2 18.4s1.8 9.2-5.1 17.3a10.9 10.9 0 0 1 -3.9 2.4 16.5 16.5 0 0 1 -6.1 1.5 6.1 6.1 0 0 1 -4.4-1.9c-4.4-3.9-8.7-8.1-10.4-12.1-3.5-8.5-7.2-18.5-8.4-28.5a47.7 47.7 0 0 1 5.4-28.5c6.3-12 13.7-23.9 19.5-32.9l2.1-3.1c4.1-6.4 8.5-12.9 10.2-20.3zm-.3-8.1-2.2.5c-.5 2.2-1.1 4.4-1.6 6.7-1.8 7.7-7.1 14.8-11.7 22.1-7.1 10.9-13.9 22-19.7 33.2a53 53 0 0 0 -5.9 30.9c1.2 9.9 4.8 19.9 8.8 29.6 1.9 4.8 6.7 9.4 11.4 13.6a10.2 10.2 0 0 0 7.2 3 20.7 20.7 0 0 0 7.6-1.8 14.7 14.7 0 0 0 5.6-3.6c5.9-7 10.5-13.9 5.5-22.1s-5.7-14-7.8-21.1a52.8 52.8 0 0 1 -1.1-27.6c2.6-10.5 5.1-21 7.6-31.5 2-7.9 3.8-15.8 1.2-23.7-1-2.8-3.2-5.5-4.9-8.2z"/><path d="m1354.1 492.1c-.9 3.2-2.2 6.3-3 9.6-2.9 12-6.5 23.9-6.5 36.4-6.6-.7-49.6-39.8-68.8-62.4l7.5-2.5c7.3-2.2 14.5-4.7 21.8-6.5s12.8-2.8 19.3-4c4.8-.8 9.8-1.3 14.7-2 2.7-.4 4.5.8 6.3 2.9 4.3 5 6.3 11 9.1 16.7s.7 7.9-.4 11.8z" fill="none"/><path d="m1659.7 844.1a55.8 55.8 0 0 1 -1.6-18.7c.5-4 .6-8.1.7-12.2a117.6 117.6 0 0 1 2.7-20.4 45.8 45.8 0 0 0 .5-19.5c-1.9-9.1-7.7-14.9-15.9-18.4-3.7-1.5-7.4-3.2-11.6-3.5-2.7-.2-5.2-1.8-8.1-2.9 1.1-1.3 1.5-2.9 3.7-3a5 5 0 0 0 3.1-2.1c4.9-5.9 8.3-12.4 8.8-20.1a18.1 18.1 0 0 0 -.5-5.7c-1.9-5.8-3.7-11.6-6-17.3a155.4 155.4 0 0 0 -12-23.3 107.5 107.5 0 0 0 -29.2-31.6c-6.1-4.4-12.2-9-18.7-12.8s-14.3-9.9-22.7-12.8-16.6-7.1-25.1-10c-6.3-2.2-13-3.3-19.5-4.8-13.1-2.9-26.3-3.1-39.6-2.9s-26.6 3-39.8 5.4a9 9 0 0 1 -2.2-.1c2.1-2.9 3.9-5.2 5.6-7.8a85.3 85.3 0 0 1 31.5-28.3c3.2-1.7 6.4-3.5 9.7-5.1s8.9-4.1 13.3-6.3a62.4 62.4 0 0 0 8.4-4.7c2.5-1.7 3.5-3.8 2.9-7.4s-3.5-7.4-7.4-9.9c-11.8-7.4-24.8-10.1-38.4-10.3-7.6-.1-15.1.4-23 .6.1-4.8.6-9.7.3-14.6s-1.5-9.5-2.3-14.2-3.1-9.3-5.9-13.7c-1.9 1.7-1.8 3.5-1.2 5.6 3 10.1 5 20.4 4.5 31-.1 2.5-.3 4.9-.5 7.3-3.5.8-6.7 1.6-10 2.2-6.5 1-12.6 3.4-18.6 6.1s-12.8 5-19 7.9-15.3 7.8-22.9 11.8l-4.8 2.6c-.3-2.2-.9-4-.7-5.8.6-8.6 1.3-17.2 2.2-25.7.6-5.7 1.5-11.3 2.5-16.9a105.1 105.1 0 0 1 3.3-11.3c2.6-8.8 6.2-17 11.7-24.3a24.7 24.7 0 0 1 4.2-3.7 8.6 8.6 0 0 0 3.7-5.5c-8.6.2-11.7 7.2-16.7 12.6-3.3-6.4-6.6-12.6-10.1-19.2a22.3 22.3 0 0 1 3.6-.5c21.7 0 43.3.8 64.4 6.5 9.8 2.6 19.6 5.7 29.2 9.1 5.4 1.8 10.3 4.7 15.5 7 7.8 3.4 15.6 6.6 23.2 10.2s14.2 7.6 21.3 11.3c12.1 6.1 23.8 12.9 36.6 17.4 6 2.1 11.8 5.1 17.7 7.6a125.7 125.7 0 0 0 36.1 9.9l7.8 1.2c2.2.2 11.9 13.9 15.2 19.4s7.8 13.3 11.5 20c2.6 4.7 5 9.6 7.4 14.4s4 8.4 5.9 12.6c3.2 7 6.4 14 9.4 21.1 6.9 16.2 11.2 33.4 16.9 50.1.6 2 .6 4.2 1 6.4 1.7 9.4 3.5 18.9 5.1 28.4.7 3.9 1.1 7.8 1.5 11.7.9 7.7 1.9 15.4 5.6 22.4a78.5 78.5 0 0 0 6.8 11.1 141.6 141.6 0 0 1 21.5 38 88 88 0 0 1 5.8 33c-.3 9.8-.5 19.6-1 29.3-.1 2.6.4 5.9-4.2 6.7l2.6 2c-3.2 10.5-6 21.2-9.7 31.7-2.5 6.9-4.7 14.1-9.2 20.1a32 32 0 0 1 -7.4 7.3c-4 2.8-9.3.5-10.8-4.2a31.5 31.5 0 0 1 -1.7-11.5 59.2 59.2 0 0 0 -3.7-26.7c-1.6-4.4-3.9-8.5-5.3-12.9-2.9-8.7-5.6-17.5-7.9-26.4z" fill="none"/><path d="m1311.2 560.6h.4c1.2 3.1 12.6 32.1 32.7 45.8 0 0 4.8 3.7 10.3 1.2 0 0-10.3-22.7-14.5-56.3 0-6-3.6-9.6-8.6-13-7.9-5.4-15.3-11.8-22.8-17.8-1.6-1.3-3.1-2.9-4.9-4.5-2.2 13.5-.8 27.2 7.4 44.6z" fill="#fff" stroke="#000" stroke-miterlimit="10" stroke-width="5.59"/><path d="m1215.2 385.4c1.7 10.5 6.6 19.9 11.2 29.3 3.6 7.3 8.1 14.2 12.3 21.1a35.2 35.2 0 0 0 5.1 6.9v.3s17.2 28.9 24.4 36.2c22.4 26.2 48.4 48 74.6 70.2.1-.7.3-1.2.4-1.7l.2-.9c.5-2.2.3-3.2-.9-4.3l-.6-.6-.3-.2-1.8-1.4-6.2-4.5q-5.2-3.7-10.2-7.8c-6.4-5.3-12.6-10.9-18.6-16.6-3.2-3-6.2-6-9.2-9.1l-4.5-4.6-4.5-4.7-3.6-3.9c-1.2-1.4-2.4-2.7-3.5-4.1l-7.3-8.2-.5.3h.1l.5-.3s-8.8-15.8-18.4-29.4a39 39 0 0 0 -4.5-5.5l-2.4-3c-1.8-2.4-3.9-4.7-5.5-7.3-3.1-4.8-5.8-9.7-8.7-14.6s-7.5-12.2-8.8-19.4a14.5 14.5 0 0 1 .7-8.5c1.4-3 3.4-4.4 6.6-3.6a26.6 26.6 0 0 1 7.7 2.9 75 75 0 0 0 20.8 7.9c7.8 1.5 15.3 3.4 22.5 6.8l16.2 7.5c1.8.9 3.3 2.4 5 3.4 4.8 2.9 9.4 6 13.1 10.1a38 38 0 0 0 4.8 4.3.1.1 0 0 0 .1.1s20.8 17.4 27.5 31.9l10 19c.1.1.1.1.1.2l1.4-1.6 1.3-1.5a10.1 10.1 0 0 1 1.3-1.6l2.1-2.6.9-.9a4.1 4.1 0 0 1 1-.9 7.9 7.9 0 0 1 1.5-1.2l1.1-.7a13.3 13.3 0 0 1 5-1.5h1.1a8.6 8.6 0 0 1 -3.7 5.5l-1.4 1.1a17.3 17.3 0 0 0 -2.8 2.6l-2.9 4.2c-.9 1.4-1.7 2.9-2.5 4.4a48.5 48.5 0 0 0 -2.9 6.1 78 78 0 0 0 -3.4 9.6l-.9 2.8-.3.8c0 .2-.1.4-.1.6a45.8 45.8 0 0 0 -1.5 4.9c-.2.8-.3 1.5-.5 2.2s-.5 2.8-.7 4.2-.7 4-.9 6-.6 4.4-.9 6.7c-.7 6.5-1.2 13-1.7 19.5-.2 2-.4 4.1-.5 6.2s.4 3.6.7 5.8h.2c.4 3.2.9 6.5 1.5 9.8a257.3 257.3 0 0 0 10.2 38.7l.4 1c7.3 21 16 36.7 20.8 39.1a14.6 14.6 0 0 0 7.1 1.7c7.1-.4 15.5-8.9 24.5-44.8 9.6-37.9 10.7-63.1 10.7-72.3 0-2.2-.1-3.5-.1-3.9l.3-3.6c0-.6.1-1.2.1-1.9a10.9 10.9 0 0 0 .1-1.8 58.9 58.9 0 0 0 -.1-8.4l-.3-3.6a8.8 8.8 0 0 1 -.2-1.7l-.6-3.5c-.2-1.2-.4-2.3-.7-3.5s-1-4.5-1.6-6.8c-.3-1.2-.7-2.3-1-3.4l-.3-1.2a4.3 4.3 0 0 1 1.3-4.3h.2c2.8 4.4 5.1 8.7 5.9 13.7s2 9.5 2.3 14.2-.2 9.8-.3 14.6h.1a225.5 225.5 0 0 1 -2.2 27.4 304.5 304.5 0 0 1 -9.6 46.3l.9.6 8.3 5.1.3-.2h.8a1.7 1.7 0 0 0 1 0c13.2-2.4 26.3-5.1 39.8-5.4 5.9-.1 11.7-.1 17.5.2h2.1a25.6 25.6 0 0 1 3.9.3l4.8.4 2.5.3 1.6.3 2.8.4 4.4.9c6.1 1.4 12.3 2.4 18.3 4.4l1.2.4c8.5 2.9 16.6 7 25.1 10s15.2 8.5 22.7 12.8 12.6 8.4 18.7 12.8a113.5 113.5 0 0 1 13.4 11.4 103.2 103.2 0 0 1 10.5 12.3c1.1 1.4 2.1 2.9 3.1 4.4l2.2 3.5c.3.5.5 1 .8 1.4l1.7 2.9 1.6 2.8a121.2 121.2 0 0 1 7.9 16.2c.6 1.4 1.1 2.8 1.6 4.3l.8 2.1 1.5 4.4c.5 1.4.9 2.9 1.4 4.3a14.2 14.2 0 0 0 .7 2.2 18.1 18.1 0 0 1 .5 5.7c-.5 7.7-3.9 14.2-8.8 20.1a5 5 0 0 1 -1 1.1l-.6.4a4.7 4.7 0 0 1 -1.5.6 3.1 3.1 0 0 0 -2.1.8l-.6.7a8.3 8.3 0 0 1 -.8 1.2l-.2.3c2.9 1.1 5.4 2.7 8.1 2.9 4.2.3 7.9 2 11.5 3.5 8.3 3.5 14.1 9.3 16 18.4a40.6 40.6 0 0 1 .6 13c-.1.5-.1 1-.2 1.5-.1.5-.1.9-.2 1.4l-.3 1.5a15.5 15.5 0 0 1 -.4 2.1 18.4 18.4 0 0 1 -.5 2.5c-.1.8-.3 1.6-.4 2.4s-.1.3-.1.4l-.6 3.6a21.7 21.7 0 0 1 -.4 2.5 22.8 22.8 0 0 0 -.2 2.6 43.8 43.8 0 0 0 -.4 5.1c0 .4-.1.9-.1 1.3-.1 4.1-.2 8.2-.7 12.2a55.8 55.8 0 0 0 1.6 18.7c2.3 8.9 5 17.7 7.9 26.4l.6 1.6c.8 2.2 1.7 4.3 2.7 6.5l.7 1.6.3.8c.2.5.5 1 .7 1.6l.3.8a59.2 59.2 0 0 1 3.7 26.7v.9a19 19 0 0 0 .1 3.4 1.5 1.5 0 0 0 .1.7 20 20 0 0 0 .4 2.4c.1.2.1.5.2.7a3.6 3.6 0 0 1 .2 1 5.6 5.6 0 0 1 .4 1.2l.3 1.2a9.9 9.9 0 0 0 1.3 2.5l.4.4.2.3a7 7 0 0 0 8.9 1 32 32 0 0 0 7.4-7.3c4.5-6 6.7-13.2 9.2-20.1 3.7-10.5 6.5-21.2 9.7-31.7a3.1 3.1 0 0 1 -.9-.7l-.9-.7-.8-.6c3-.5 3.8-2.1 4.1-3.9s.1-.8.1-1.3v-1.5c.1-1.2.1-2.4.2-3.6l.3-7.4c.2-6.1.3-12.2.5-18.3 0-2.1 0-4.2-.1-6.3a5.7 5.7 0 0 1 -.1-1.3c-.1-2.1-.4-4.2-.7-6.3s-.3-1.9-.4-2.9-.3-1.3-.4-1.9a4.3 4.3 0 0 0 -.1-.5 84.2 84.2 0 0 0 -3.1-11.2 10.9 10.9 0 0 0 -.5-1.7l-.4-.9a143.4 143.4 0 0 0 -18.1-33.6l-3.4-4.4-.9-1.3a11.3 11.3 0 0 1 -1-1.3 89.2 89.2 0 0 1 -4.9-8.5c-3.7-7-4.7-14.7-5.6-22.4-.4-3.9-.8-7.8-1.5-11.7-1.6-9.5-3.4-19-5.1-28.4a11 11 0 0 1 -.2-1.8c-.1-.4-.1-.9-.2-1.4a.7.7 0 0 0 -.1-.5c0-.4-.1-.8-.1-1.2s-.3-1-.4-1.5c-5.7-16.7-10-33.9-16.9-50.1-3-7.1-6.2-14.1-9.4-21.1l-1.4-3.2-4.5-9.4-2.7-5.4c-1.5-3-3-6-4.7-9l-1.4-2.5c-1.4-2.5-2.8-5-4.3-7.5-.9-1.7-1.9-3.4-2.9-5l-2.9-5-.4-.6c0-.1-.1-.1-.1-.2l-.8-1.2c-.8-1.4-1.6-2.8-2.5-4.2-2.1-3.4-4.2-6.8-6.4-10.2-.3-.8-22.6-51.3-53.1-92.2l-.2-.2c-.1-2.2-.3-4.2-.3-6.2a27 27 0 0 1 5.4-16.3c4.7-6 10.9-10.4 17.6-14.1a56.4 56.4 0 0 1 20.2-6.9c1.9-.2 3.8-.6 4.4-2.9a6.5 6.5 0 0 0 -1.3-6.2 12.7 12.7 0 0 0 -4.2-3.1c-7.4-3-14.5-6.8-22.7-7.1-2.2-.1-4.4-1.3-6.5-1.1-7.6.6-15.3.1-22.9 2.2s-18 3.7-27 5.5c-3.4.6-6.9 1.1-10.3 1.8-8.9 1.9-17.7 3.9-26.7 4.8-5.8.6-11.4 1.8-17.3 1.3s-11.1-.7-16.2-2.7a108.4 108.4 0 0 1 -15.4-7.3c-5.8-3.3-11.4-7-16.9-10.8-15-10.1-30.8-18.4-46.9-26.5-5.6-2.9-11.9-4.6-17.8-7-14.1-5.8-28.7-7.8-43.7-7.6-5.5 0-11.1 1.7-16.6.1-.5-.2-1.1.2-1.7.2-16.5 1.6-31.4 8.9-47.1 13.3-5.3 1.5-10.3 4.2-15.7 5.4s-9.8 6.2-11.1 12a36.1 36.1 0 0 0 -.2 13.9zm63.5-13.5a19.6 19.6 0 0 1 5.7-4.6 25.9 25.9 0 0 1 14.5-2.3c5.1.6 10.1 1.3 15.2 2.1 16.4 2.7 31.4 8.3 44 19.9 6.5 6 11 12.8 12.9 21.5a28.9 28.9 0 0 1 -.4 14.6s-10.1 17.2-36 2.7a50.7 50.7 0 0 0 -4.5-2.4c-1.8-1.1-3.5-2.1-5.1-3.3-3.5-2.5-6.7-5.5-10.1-8.2-10-8.1-20-16.2-29.9-24.4a20.1 20.1 0 0 1 -7-11.2c-.3-1.4-.2-3.4.7-4.4z" stroke="#000" stroke-miterlimit="10" stroke-width="1.32"/><path d="m1278 376.4a20.1 20.1 0 0 0 7 11.2c9.9 8.2 19.9 16.3 29.9 24.4 3.4 2.7 6.6 5.7 10.1 8.2 1.6 1.2 3.3 2.2 5.1 3.3a50.7 50.7 0 0 1 4.5 2.4c25.9 14.5 36-2.7 36-2.7a28.9 28.9 0 0 0 .4-14.6c-1.9-8.7-6.4-15.5-12.9-21.5-12.6-11.6-27.6-17.2-44-19.9-5.1-.8-10.1-1.5-15.2-2.1a25.9 25.9 0 0 0 -14.5 2.3 19.6 19.6 0 0 0 -5.7 4.6c-.9.9-1 2.9-.7 4.4z" fill="#fff" stroke="#000" stroke-miterlimit="10" stroke-width=".44"/><path d="m1224 397.6c1.3 7.2 5.2 13.3 8.8 19.4s5.6 9.8 8.7 14.6c1.6 2.6 3.7 4.9 5.5 7.3l2.4 3a39 39 0 0 1 4.5 5.5c9.6 13.6 18.4 29.4 18.4 29.4l-.5.3h-.1l.5-.3 7.3 8.2c1.1 1.4 2.3 2.7 3.5 4.1l3.6 3.9 4.5 4.7 4.5 4.6c3 3.1 6 6.1 9.2 9.1 6 5.7 12.2 11.3 18.6 16.6q4.9 4 10.2 7.8l6.2 4.5 1.8 1.4.3.2.6.6c1.2 1.1 1.4 2.1.9 4.3l-.2.9-.4 1.7s2.3 32.4 11.6 52 16.1 50.3 30 52.6 20.3-9.8 23.7-17.3c1.2-2.6 5.9-16 10.4-34.3l-.9-.6a304.5 304.5 0 0 0 9.6-46.3c2.9-25 2.5-50.8-5.8-69.7h-.2a4.3 4.3 0 0 0 -1.3 4.3l.3 1.2c.3 1.1.7 2.2 1 3.4 2.5 8 6.2 22 4.8 36.8-1.7 18.5-12.3 109.5-33 118.3a7.7 7.7 0 0 1 -3.9.7 14.6 14.6 0 0 1 -7.1-1.7c-4.8-2.4-13.5-18.1-20.8-39.1l-.4-1c-5.1-14.4-8.3-27.3-8.4-29s-.9-4.4-1.8-9.7c-.6-3.3-1.1-6.6-1.5-9.8h-.2c-.3-2.2-.9-4-.7-5.8s.3-4.2.5-6.2a130 130 0 0 1 6.3-44.1l.3-.8.9-2.8a78 78 0 0 1 3.4-9.6 48.5 48.5 0 0 1 2.9-6.1c.8-1.5 1.6-3 2.5-4.4l2.9-4.2a17.3 17.3 0 0 1 2.8-2.6l2-2.7s3.1-2.7 2-3.8a13.3 13.3 0 0 0 -5 1.5l-1.1.7a7.9 7.9 0 0 0 -1.5 1.2 4.1 4.1 0 0 0 -1 .9l-.9.9-2.1 2.6a10.1 10.1 0 0 0 -1.3 1.6l-1.3 1.5-1.4 1.6c0-.1 0-.1-.1-.2l-10-19c-6.7-14.5-27.5-31.9-27.5-31.9a.1.1 0 0 1 -.1-.1 38 38 0 0 1 -4.8-4.3c-3.7-4.1-8.3-7.2-13.1-10.1-1.7-1-3.2-2.5-5-3.4l-16.2-7.5c-7.2-3.4-14.7-5.3-22.5-6.8a75 75 0 0 1 -20.8-7.9 26.6 26.6 0 0 0 -7.7-2.9c-3.2-.8-5.2.6-6.6 3.6a14.5 14.5 0 0 0 -.7 8.5z" fill="#fff"/><path d="m1419.9 490.1a4.3 4.3 0 0 1 1.3-4.3c-.8-.2-3-.7-1.5 4.2.3 1.1.9 2.8 1.5 4.8-.3-1.2-.7-2.3-1-3.4z" fill="#fff"/><path d="m1427.2 555.6a304.5 304.5 0 0 1 -9.6 46.3l.9.6a371.4 371.4 0 0 0 8.7-46.9z" fill="#fff"/><path d="m1361.2 609.8c7.3 21 16 36.7 20.8 39.1a14.6 14.6 0 0 0 7.1 1.7c-10.8-.5-21-21.7-27.9-40.8z" fill="#fff"/><path d="m1369.7 468.6a13.3 13.3 0 0 1 5-1.5c-.4-.4-1.5-.6-3.6-.3-7 1.1-11.5 11.4-12.1 12.6s.1.1.1.2l1.4-1.6 1.3-1.5a10.1 10.1 0 0 1 1.3-1.6l2.1-2.6.9-.9a4.1 4.1 0 0 1 1-.9 7.9 7.9 0 0 1 1.5-1.2z" fill="#fff"/><path d="m1355.3 503.3-.3.8a112.2 112.2 0 0 1 15.7-30.5 17.3 17.3 0 0 0 -2.8 2.6l-2.9 4.2c-.9 1.4-1.7 2.9-2.5 4.4a48.5 48.5 0 0 0 -2.9 6.1 78 78 0 0 0 -3.4 9.6z" fill="#fff"/><path d="m1348.9 560.2h.2c.4 3.2.9 6.5 1.5 9.8a148.3 148.3 0 0 1 -1.9-21.8c-.2 2-.4 4.1-.5 6.2s.4 3.6.7 5.8z" fill="#fff"/></svg>