<svg id="Layer_1" data-name="Layer 1" xmlns="http://www.w3.org/2000/svg" width="1.3in" height="1.9in" viewBox="0 0 96.4 133.9"><title>tail-2</title><path d="M57.4,104.2s-14.3.3-10.5-24.9c4.4-28.9,17.8-21.6,13.9-44.6S36.4,18,32.1,30.1s2.7,20.3,6.6,14.5-.1-14.3,3.1-16.8c6.8-5.2,12.9,8.2,10.9,17.1S37.1,62.5,39.1,88.2s17.5,21.5,17.5,21.5Z" fill="#d1883d"/><path d="M52.8,60.9s-4.5-2.4-5.4-5.8l-3,4.9s0,.7,3,2.3v-2s.7,1.8,3.6,3.6Z" fill="#78643a"/><path d="M56.7,54.4s-4.1-.7-6.4-3.2l1.4-2.7,4.7,1.1-2.7.5s7.8-1.3,5.9.7S56.7,54.4,56.7,54.4Z" fill="#78643a"/><path d="M61.3,39.2l-8.5.5s-.2-5.5-1.1-6.4l4-.7-1.1,1.2a4.1,4.1,0,0,0,5.2-2.5S62,37.8,61.3,39.2Z" fill="#78643a"/></svg>