<svg height="1940" viewBox="0 0 1919 1940" width="1919" xmlns="http://www.w3.org/2000/svg"><g fill="#020202"><path d="m525.2 758c2.8 14.8 28 9 42-4s24-7 22-13-71-21-64 17z"/><path d="m565.2 706.6c-4.7 15.3 19 16.4 27.9 18.1s28.4 9.8 28.4 9.8 5.7-11.8-4.3-23.3-44.3-29.4-52-4.6z"/><path d="m80 773 314 61s69 0 106-12 67-7 67-7l-33 18-65 36-81.5 39.3-90.2 6.6-143.2-37-113.1-74.9v-38z"/></g><path d="m125.8 829.6c5.6 4.2 10 8.3 15 11.1 14.4 8 28.7 16.2 43.6 23 18.4 8.4 37.8 14.1 57.3 19.7a153.5 153.5 0 0 0 36.2 6.3c6.9.3 13.7 1.9 20.6 2.5a149.5 149.5 0 0 0 17.7.5c12.8-.5 25.7-.6 38.4-2.1 22.3-2.6 44.5-5.8 65.3-15l27.7-12.5a8.1 8.1 0 0 0 4.3-4.1c-7.6 1.6-15.3 3-22.9 4.9-11.1 2.8-22.3 3.3-33.7 2.9-21.4-.7-42.8-1.9-63.7-7.3-18.6-4.8-37.2-9.4-56-13.2-13.8-2.8-27.8-4.3-41.8-6-15.6-1.9-31.3-3.6-47.1-5.2-5.8-.6-11.8-.3-17.7-.9-13.9-1.3-27.8-2.9-43.2-4.6z" fill="#33596d"/><path d="m581.1 740.8c-11.6 7-22.3 13.8-33.3 19.9-4.4 2.5-9.6 2.3-14.3-.1-7.1-3.7-8-11.7-1.7-16.7a24.3 24.3 0 0 1 7.6-4.4c12.2-3.8 24.5-5.4 36.9-1.2 1.3.5 2.5 1.3 4.8 2.5z" fill="#cde0f3"/><path d="m616.1 726.2c-2.2.1-4.1.7-5.7.2a105.1 105.1 0 0 1 -11-4.4c-2.3-.9-4.4-2.2-6.7-3s-4.3-2.1-6 .7c-4.7-2.1-9.5-4-14.1-6.3-.8-.4-1.2-2.1-1.3-3.3-.2-3.1 5.8-9.4 9-9.6 13.7-.6 29.3 9.2 34.9 21.9.3.9.4 1.9.9 3.8z" fill="#cde0f3"/><path d="m1875 820.5c-13.5-2.5-27.4-3.3-41.1-4.8-22.1-2.4-44.3-3.7-66.4-2.2-15.9 1-31.8 3-47.6 5.3s-33.3 3.6-49.4 8.8c-11.2 3.6-22.9 5.8-34.2 9.3s-20.3 7.6-30.6 11q-20.2 6.8-40.8 12.6c-21.3 6.2-42.7 12.1-64 18-7.8 2.2-15.7 3.8-23.5 5.9-16.2 4.3-32.3 9.1-48.5 13-12.5 3-25.2 4.7-37.8 7.4a351.4 351.4 0 0 1 -52.1 6.4c-22.8 1.4-45.8 1.9-68.6 3.9-19.3 1.7-38.5.3-57.7-.3-10.4-.3-20.9-3.2-31.3-5.2-16.2-3-32.4-6.2-48.5-9.6-14.4-3-27.3-9.9-40.7-15.5-19.6-8.1-38.7-17.3-58.2-25.6-15.6-6.8-31.5-12.9-47.1-19.5-11.3-4.8-48.7-19.5-56-31.5 1.2-1.4 2.3-3.6 4.2-4.9a18.7 18.7 0 0 1 14-3.3c5.3.9 10.7 1.9 15.9 3 7.6 1.5 14.4-2.8 15.5-10 .9-5.2-4-10.8-9.1-9.8s-11 2.6-16.5 3.9c-2.4.5-4.8 1.1-7.2 1.4s-6.2-.1-7.5-3.3.4-6 3-8.3c6.3-5.4 13.6-7.8 21.7-8.2s16.7-.5 25.1-1.2a16.2 16.2 0 0 0 8-3.1c3.2-2.3 2.9-5.6-.3-8a9.4 9.4 0 0 0 -4.7-1.8c-11.9-.3-23.8-.5-34.8 5.2-8.3 4.4-16.5 8.8-21.1 17.7s-10.3 12.7-17.2 16.9c-8.8 5.4-12.8 5.7-19.3-.9.1-1.8.3-3.7.3-5.7.2-5.9-2.5-8.2-8.1-6.6-2.4.7-4.4 2.3-6.7 3.2s-6 2.8-9 2.7a76.2 76.2 0 0 1 -23-4c-18.7-6.2-11.4-2.6-30.6-6.9-16.7-3.7-34-4.8-51.1-7a103.6 103.6 0 0 0 -11-.8c-16.8.2-33.5 1-50.3.6-10.2-.2-20.7-.9-30-6.2s-15.7-9.1-23.6-13.5-13.2-6.8-20.9-3.9c-3 1.1-3.9 3.3-1.8 5.5a28.8 28.8 0 0 0 7.5 5.6c3.3 1.7 7 2.6 10.3 4.1s7.5 7.9 6.5 11.3-6.2 5.9-11.4 4.7c-10.3-2.4-20.6-4.7-30-10.3-5.4-3.3-11.5-5.5-17.4-7.8s-11-.3-14.8 5.1c2.4 4.8 6.3 6.6 11.3 7.3 6.8.9 13.5 2.1 20.3 3.3a15.6 15.6 0 0 1 11.1 7.8c1.9 3.3 1.3 5.8-1.7 7.5s-4.2 2.1-6.1 1.7c-4.5-.8-8.8-2.7-13.3-3.8a8.8 8.8 0 0 0 -6 .5c-.8.5-.6 3.5-.2 5.1 1.4 5.5.6 7.7-4.5 10a17.8 17.8 0 0 1 -5 1.4c-7.3 1.1-14.6 2.3-21.9 3-18.9 1.8-37.9 2.6-56.6 5.4-14.3 2.1-28.3 6.8-42.3 10.4-5.8 1.4-11.5 2.8-17.4 3.1a22.8 22.8 0 0 1 -3.7 0c-11.8-.1-24.5.6-36.8-3.3-180.2-58.2-412.2-69.2-412.2-69.2l-2-4s.2-8.8.5-8.5h-.2l-3.3 94.9c4.8.3 9.6 1.3 14.4 1.6 19.4 1.6 38.4 5.9 57.5 9.6s37.3 10.9 55.7 17.4c9.4 3.3 18.3 8.5 27.8 11.8 18.8 6.7 38 12.3 56.7 19 25.7 9.3 52.7 12.4 79.3 17.5 10.8 2.1 22.1 1.5 33.2 1.6a260.7 260.7 0 0 0 26.5-.9c9.1-.9 18.1-2.4 27.1-4.1s16.1-2.8 23.7-5.6c16.4-6 32.6-12.6 48.6-19.6s28.7-13.2 42.8-20.2c9.2-4.6 17.8-10.5 27.1-15 16.4-7.9 33.1-15.2 49.6-22.8 7-3.2 13.6-7 20.7-9.9 10.4-4.2 21.1-8.1 31.8-11.8 13.3-4.6 26.5-9.6 40.1-12.9 28.2-6.9 56.9-12.3 86-13.5 14.2-.5 28.5 1 42.8 2.1a140.9 140.9 0 0 1 23.3 3.5c18.2 4.5 36.2 9.6 54.3 14.5 2.1.6 26.3 5.1 76.7 28.4 21.3 9.8 42.5 19.8 63.8 29.5 11.6 5.4 23.4 10.5 35.1 15.7l47.9 21.4c30 13.2 60.6 24.7 93.5 28.7 15.4 1.9 30.8 4.3 46.2 5.7 11 1 22.1.9 33.2 1.2 24.6.7 49.3 1.3 73.9-1.9 11-1.4 22.1-1.3 33.2-2.5s21.4-3.1 32.1-4.9c5.3-.9 10.6-2.3 15.9-3.4l20.3-4 23.8-5.3c15.4-3.2 31-5.6 46.2-9.7s27-9.4 40.5-13.7q24.6-7.9 49.5-15.1c21.7-6.3 43.8-11.7 65.4-18.5 18.1-5.7 36-11.6 54.8-14.9 14.9-2.6 29.8-4.8 44.9-4.9 20.9-.1 41.9 1 62.9 1.1 16 .1 31.2 4.3 46.7 7.4s29.9 8.3 44.5 13.5l3.5 1.2v-22.9c-14.6-3.4-29.2-7.2-44-9.8zm-1326.5 2c-15.5 3.8-29.4 11.3-43.4 18.5-20.3 10.5-40 22.2-60.1 33.1a184 184 0 0 1 -18.6 8.6c-5.5 2.2-11.2 3.9-16.8 5.9s-9.6 4.8-14.6 5.2c-11.4.8-22.4 4.5-34 4.6-14.3 0-28.5 1.6-42.7 2.3-16.6.9-32.9-.8-49.3-2.9-25.9-3.4-50.4-11.2-74.6-20.6-16.2-6.4-31.8-14.3-47.2-22.7s-27.2-17.5-40.3-27c-6.6-4.7-13-9.7-19.3-14.7s-12.4-9.1-17.8-14.4l-2.1-2a226.2 226.2 0 0 0 31.3 13.6 88 88 0 0 0 14.5 5.6 268.2 268.2 0 0 0 76.5 12.2 195.3 195.3 0 0 1 22.9 1.3c15.6 1.9 31.2 4.8 46.9 6.3 20.1 2 39.6 7.6 59.3 11.5 16.7 3.4 33 8.7 50.2 8.5a170.3 170.3 0 0 1 21.4 1c15.2 1.8 30.1-1 44.8-3.1a133.5 133.5 0 0 0 35.9-11.1 440.5 440.5 0 0 1 46.8-17.7c9.4-3.1 18.9-5.5 28.4-8.1 2.3-.6 4.6-.8 5.6 1.8s-1.4 3.8-3.7 4.3z" fill="#cde0f3" stroke="#000" stroke-miterlimit="10" stroke-width="5"/><path d="m.6 847.7c10.5 1 21 2.5 31.5 4.1s23.9 3.7 35.7 6.2a187.6 187.6 0 0 1 24 7c17.7 6.1 35.3 12.5 52.9 19 11.5 4.2 22.8 9.1 34.3 13.4 23.1 8.6 46.6 16.2 70.8 20.7 14.3 2.7 28.9 3.3 43.1 6.2 21.1 4.3 42 1.1 62.7-.5a158.2 158.2 0 0 0 47.8-11.9c12.7-5.3 26-9.1 38.7-14.4s25.8-10.7 38.1-17.5c16.7-9.4 33.9-18.1 51.1-26.4 20.8-10.1 41.8-19.9 63-29.2 13-5.8 26.2-11.4 39.8-15.6a460.2 460.2 0 0 1 47.9-12.2 224 224 0 0 1 36.6-4c19.9-.5 39.9-.5 59.8.5a264.2 264.2 0 0 1 60.3 10.2c13.4 3.9 27.3 6.3 40.7 10.4s27.9 8.4 40.9 14.7c28.8 14 58.2 26.7 87 40.7 11 5.4 22.1 10.9 33.4 15.7 23.2 10 46.7 19.5 70 29.5 21.1 9.2 43.3 14.9 65.8 19.4a270.4 270.4 0 0 0 43.9 5.6c12.3.4 24.5 2.4 36.7 2.5a508.6 508.6 0 0 0 68.7-3.8c9.1-1.1 18.3-.9 27.4-1.8 14.9-1.5 29.9-2.6 44.7-5.2 25.3-4.3 50.5-9.3 75.5-14.7 13-2.9 25.6-7.2 38.3-10.9 23-6.8 45.9-13.5 68.8-20.5 12.2-3.7 24.3-8.1 36.5-11.9s21.6-6.8 32.6-9.4c20.1-4.9 40.7-8.1 60.4-14.2s36.7-6.8 55.3-7.6q25.2-1.2 50.4-.3c10 .3 20 2.4 30 3.9s20.4 3.2 30.4 5.6c14.3 3.3 28.6 7 42.9 10.6v26.4l-18.9-12.9c-12.4-3.1-24.7-6.6-37.3-8.8-9.6-1.7-19.6-1.7-29.4-2.4-4.5-.3-8.9-.7-13.3-.8-7.4-.1-14.7-.1-22.1.2-15.5.7-31.1 1-46.5 2.5-18.1 1.8-36.4 2.4-54.3 6.4-20.6 4.7-41 9.8-61.4 15.4s-39.7 13.4-59.6 20c-14 4.6-28.6 7.5-42.7 12.1-20.6 6.6-41.8 11-62.9 15.9-15 3.4-30.5 5.4-45.7 8s-28.2 4.8-42.4 6.9c-9.2 1.3-18.5 2.1-27.8 3s-17.2 1.9-25.8 2.1c-16.2.4-32.5.2-48.8.3-3.7 0-7.4 0-11.1.3-20.9 1.5-41.8-.9-62.8-.8-12.8.1-25-3.8-37.5-6.1-14.4-2.6-28-7.4-41.9-11.5a166.6 166.6 0 0 1 -20.7-7.9c-14.9-6.4-29.8-13-44.5-19.7-30.5-14-60.8-28.3-91.2-42.2q-24.9-11.4-50.1-21.9c-17.2-7.3-34.6-14.3-51.9-21.1-3.6-1.4-7.7-1.6-11.5-2.4-7.8-1.5-15.4-3.5-23.2-4.6-15.9-2.2-31.8-4.7-47.7-5.7s-33.5-.9-50.3-.6c-22 .3-43.6 4.4-65.3 8-25.1 4.2-48.8 12.9-72.7 21.2-10.8 3.7-20.2 10-30.7 14.2s-20.5 9.6-30.8 14.4c-6.2 3-12.6 5.5-18.7 8.7-15.2 8.1-30 16.9-45.4 24.6-13.4 6.7-27.2 12.7-41 18.4-11.6 4.8-23.5 9-35.4 13.1a98.4 98.4 0 0 1 -14.3 3.1c-15.1 2.6-30.1 5.5-45.3 7.3-9.2 1.1-18.7.7-28 .5-23-.3-45.4-5.2-67.7-10.1-14.7-3.2-29.5-5.9-43.6-11.2-8-3-15.8-6.6-23.9-9.7s-14.8-5.1-22.2-7.8l-44.2-16.4c-7.6-2.7-15.3-5.4-23.1-7.6-14.4-4.1-29-7.8-43.5-11.6q-4.6-1.2-9.3-2.1c-11.6-2.3-23.2-4.7-34.9-6.7l-1.1-.2.5-14.9a48.5 48.5 0 0 0 5.5.8z" fill="#142d38" stroke="#000" stroke-miterlimit="10" stroke-width="3"/><path d="m1919 852.8-3.5-1.3c-14.6-5.2-29.3-10.5-44.5-13.5s-30.7-7.3-46.7-7.4c-21-.1-42-1.2-62.9-1-15.1.1-30 2.2-44.9 4.8-18.8 3.3-36.7 9.3-54.8 15-21.6 6.7-43.7 12.1-65.4 18.4q-24.9 7.2-49.5 15.1c-13.5 4.4-26.7 10.1-40.5 13.8s-30.8 6.4-46.2 9.6l-23.8 5.3-20.3 4c-5.3 1.1-10.6 2.5-15.9 3.4-10.7 1.8-21.4 3.7-32.2 4.9s-22.2 1.1-33.1 2.5c-24.6 3.3-49.3 2.7-73.9 2-11.1-.3-22.2-.2-33.2-1.3-15.4-1.4-30.8-3.7-46.2-5.6-32.9-4.1-63.5-15.5-93.5-28.8l-47.9-21.4c-11.7-5.2-23.5-10.3-35.1-15.6l-63.8-29.6c-50.4-23.3-74.6-27.7-76.7-28.3-18.1-4.9-36.1-10-54.3-14.5a140.7 140.7 0 0 0 -23.4-3.6c-14.2-1.1-28.5-2.6-42.7-2-29.1 1.2-57.8 6.5-86 13.4-13.6 3.4-26.8 8.4-40.1 12.9-10.7 3.7-21.4 7.6-31.8 11.9-7.1 2.8-13.7 6.6-20.7 9.8-16.5 7.6-33.2 14.9-49.5 22.8-9.3 4.5-18 10.4-27.2 15-14.1 7-28.3 13.9-42.8 20.1s-32.2 13.6-48.6 19.6c-7.6 2.8-15.8 4.1-23.7 5.6s-18 3.3-27 4.1a237.4 237.4 0 0 1 -26.6 1c-11.1-.2-22.4.4-33.2-1.7-26.6-5-53.6-8.2-79.3-17.4-18.7-6.8-37.9-12.4-56.7-19.1-9.5-3.3-18.4-8.4-27.8-11.8-18.4-6.4-36.5-13.7-55.7-17.4s-38.1-8-57.5-9.5c-4.8-.4-9.6-1.3-14.4-1.6l-.4 11.1 5.5.7c10.5 1 21 2.5 31.5 4.1s23.9 3.7 35.7 6.2a226.6 226.6 0 0 1 24 7c17.7 6.1 35.3 12.5 52.9 19 11.5 4.3 22.8 9.1 34.3 13.4 23.1 8.7 46.6 16.2 70.8 20.8 14.3 2.6 28.9 3.2 43.1 6.1 21.1 4.4 42 1.1 62.7-.5a155.4 155.4 0 0 0 47.8-11.9c12.7-5.3 26-9.1 38.7-14.4s25.8-10.6 38.1-17.5c16.7-9.4 33.9-18 51.1-26.4q31.2-15.1 63-29.2a377.4 377.4 0 0 1 39.8-15.6 486.8 486.8 0 0 1 47.9-12.2 223.9 223.9 0 0 1 36.6-3.9c19.9-.6 39.9-.5 59.8.4a264.2 264.2 0 0 1 60.3 10.2c13.4 3.9 27.3 6.4 40.7 10.4s27.9 8.5 40.9 14.8c28.8 13.9 58.2 26.6 87 40.7 11 5.3 22.1 10.8 33.4 15.7 23.2 10 46.7 19.4 70 29.5 21.1 9.1 43.3 14.8 65.8 19.3a270.4 270.4 0 0 0 43.9 5.6c12.3.5 24.5 2.4 36.7 2.5a508.6 508.6 0 0 0 68.7-3.8c9.1-1.1 18.3-.9 27.4-1.8 14.9-1.5 29.9-2.6 44.7-5.2 25.3-4.3 50.5-9.3 75.5-14.7 13-2.8 25.6-7.1 38.3-10.9q34.5-10 68.8-20.4c12.2-3.8 24.3-8.1 36.5-12s21.6-6.7 32.6-9.4c20.1-4.9 40.7-8.1 60.4-14.1s36.7-6.8 55.3-7.7q25.2-1 50.4-.3c10 .4 20 2.4 30 4s20.4 3.2 30.4 5.5c14.3 3.4 28.6 7 42.9 10.6z"/><path d="m453.2 826a22.8 22.8 0 0 1 -3.7 0z" fill="#cde0f3" stroke="#000" stroke-miterlimit="10" stroke-width="5"/></svg>