<svg height="1830" viewBox="0 0 1920 1830" width="1920" xmlns="http://www.w3.org/2000/svg"><g fill="#aad1c7"><path d="m1858.5 955-528.1 181.7-141.5 50.7-124.7 156.4-116.2 99.3-207.1 10.5-85.5-12.2c-5-5.7-15.2-7.9-32.9-4.9-98.4 17.1-188.9 48.9-192.3 50.1s-4.5 0-6.3.6c-5.1 1.5-10.6 2.7-15.3 5.2-14.5 7.4-28.8 15.1-39.4 28.1a32.3 32.3 0 0 0 -6.6 14c-.8 4-3.6 8.1-4.3 12.2-2.2 12.3-5.9 22.7-14.6 31.6-3.5 3.5-6.6 7.4-11.3 9.1-9.5 3.2-19 5-28.6.5-1.5-.7-3.1-1.1-4.6-1.7a24.1 24.1 0 0 0 -15-.9c-5.1 1.3-10.3 2.3-15.4 1.2a87.6 87.6 0 0 1 -17.6-5.4c-3.8-1.7-7.6-4.5-11.7-5s-8 .4-11.9-.1a26.9 26.9 0 0 0 -15.3 2.8c-11.3 5.7-14 19.7-4.2 29.4a83.7 83.7 0 0 0 7.9 6.6c4.9 3.7 9.7 9.9 15 13 7 4 6.6 8 5.6 14.4-.4 2.9-1.3 6.7-3.4 8.3-4.7 3.6-9.5 8-16.3 6.9-2.5-.4-5.1-.4-7.6-.8a63.7 63.7 0 0 0 -19.5 0c-9.4 1.3-15.8 6.6-21.1 13.9-2.5 3.3-2.7 7-1.2 10.8a27 27 0 0 0 2.4 5.5c4.6 7.2 1.5 14.3-.5 21.3a3.2 3.2 0 0 1 -1.8 2c-3.4 1.7-6.7 4-10.3 4.6-12.5 2-23.9 6.6-34.9 12.6-1.5.8-3.3 2.1-3.8 3.5s-2.1 2.7-3.5 3.8a27.8 27.8 0 0 0 -4.3 4.1c-3.6 4.5-7.1 9-10.6 13.6-34.5 35.8-.6 52.7 21.3 48.7 17.2-3.1 11-49 11-49h-.1a35.5 35.5 0 0 1 3.5-4.4c9-11.4 19.3-20.7 33-26.4 9.5-3.9 18.7-6.2 28.9-4 5.7 1.2 11 5.7 11.5 10.7s-1.1 10-5.7 13.3a40.9 40.9 0 0 1 -4.8 2.9 31.3 31.3 0 0 1 -12.4 3.3l-5.6 1.5h-.3s-39.7 13.2-24 31c45.9 51.9 140.6 15.2 180.7-27.7h.8c5.4-3.5 10.8-6.9 16.1-10.6 12.4-8.6 24.9-17.2 38.4-24.2a65.1 65.1 0 0 1 25.3-7.3c12.6-.9 23.1 3.4 30.8 13.7l2.6 3.3c-6.6 4.1-13.3 7.7-20.6 8.4-9.4.8-17.7 5.2-25.7 11.7a58.7 58.7 0 0 0 -8.1 7.7h-1.3s-31 30 12 40c38.1 8.9 47.1-29.3 48.7-38.2h.4c2.4-5.7 4.8-11.4 7.1-17.2a23.5 23.5 0 0 0 1.7-5.1 27.4 27.4 0 0 0 7.9-3.8 25.2 25.2 0 0 0 10.3-13.9 55.2 55.2 0 0 1 -5.4-1.2c-1.9-.5-4-.8-5.6-1.8l-.2-.2 11.1 3 20.2-21.2v.4s15.7-15.7 25.2-6.2 5 19.9-1.6 25.7-11.2 24.8 3.7 27.3 24.8-5.4 42.6-32.3 40.6-92.3 84.5-104.7 7.5 20.2 27.4 28.9 33.9-11.1 43.8-25.6 32.7-32.8 115.4-27.4 314.4-57.1 386.6-129.5c350-351 599.6-345.6 662-429zm-1562.1 651c10 6.8 12 12 8.3 21.8-14.7 1.6-27-5.5-32.2-18.7 7.9-7.2 16.3-8.3 23.9-3.1zm-48.4 5.8c-7.9-1-13.3-4-16.5-10.1-1.2-2.4-.5-6-.7-9.1 2.8-.1 6-1.2 8.2-.1 6.5 3.4 9.4 9.5 9 19.3zm77.7 56.9c-9.3 10.7-20.7 18.6-35.1 20.5-10.2 1.4-19.2-1-24.9-11.1-8.9-16-14.6-32.8-16.2-51-.6-6.7 2.4-12.2 11-14.8 3 12 13.5 16.4 20.3 24.1 4.5 4.9 9.9 6.3 16.1 6.4s14.3.5 21.3 1.2c2.4.2 5.5 1 6.9 2.7 4.7 5.2 5.1 16.8.6 22z" stroke="#aad1c7" stroke-miterlimit="10" stroke-width="7.63"/><path d="m283.5 1557.5c11.7.4 20.9-6.9 30.9-11.7 12.2-6 19.7-16.2 25.8-27.7 3.6-6.6 1.6-13.6-.6-19.8-1-2.6-6.4-4.8-9.8-4.9-8.8-.4-17.3.3-24.6 7s-18.7 15.1-28 22.7c-5.2 4.2-9.5 9.1-11.5 15.7-1.1 3.8-.7 7.3 2 10.1 4.2 4.4 8 10.1 15.8 8.6z" stroke="#aad1c7" stroke-miterlimit="10" stroke-width="11.03"/><path d="m202 1724.4-5.6 1.4a11.1 11.1 0 0 1 4.7-1.4z" stroke="#aad1c7" stroke-miterlimit="10" stroke-width="7.63"/><path d="m214.4 1721.1a32.6 32.6 0 0 1 -12.4 3.3z" stroke="#aad1c7" stroke-miterlimit="10" stroke-width="7.63"/><path d="m36.7 1638.9 24.5 15c7.7 4.7 18.5 5.7 23.8.6 7.4-7.1 8.9-24.1 0-31.3s-24.2-16-35.9-21.4c-6.4-3-15.7 3.8-23.1 5-5.8 1-9.8 5.4-9.2 13.2 1 11.3 6.5 18 19.9 18.9z"/><path d="m102.4 1603.3c0 7.2-.7 13.2.1 19 2 14.4 9.4 26.4 18.2 37.6 5.2 6.7 20.7 10.7 27.7 8.2s16.8-14.2 16.8-23.7c-.1-28.4-32.9-49.6-62.8-41.1z"/></g><path d="m89.3 1724c4.6-1.4 8.8-2.4 12.7-4.1h-11.9c-.2 1.1-.4 2.5-.8 4.1z" fill="#fff"/><circle cx="154.1" cy="1702.7" fill="#fff" opacity=".44" r="24.5"/><circle cx="186" cy="1793.5" fill="#8adaed" opacity=".44" r="29.9"/><circle cx="63.4" cy="1683.4" fill="#8adaed" opacity=".44" r="25"/><circle cx="100.8" cy="1724.1" fill="#c1cfd3" opacity=".44" r="16.4"/><circle cx="125.4" cy="1647.9" fill="#fff" opacity=".59" r="16.4"/><circle cx="222.5" cy="1754.3" fill="#fff" opacity=".59" r="16.4"/></svg>