<svg id="underwater_3" data-name="underwater 3" xmlns="http://www.w3.org/2000/svg" width="1919" height="1940" viewBox="0 0 1919 1940"><title>underwater-2</title><path d="M1917.2,943.3c-8-1.9-15.8-4.6-23.8-6.3a76.1,76.1,0,0,0-17.1-2c-21.8.5-43.5,1.4-65.3,2.2a521.3,521.3,0,0,0-76.8,8.3c-3.6.7-7.5.2-11.1,1a189.9,189.9,0,0,0-20.9,5.7c-3.2,1.2-4-1.9-5.4-2.1-1.8,1.9-2.9,4-4.6,4.8-5,2.2-10.3,3.8-15.4,5.8-14.2,5.6-28.4,11.1-42.5,16.8-7.6,3.1-15.2,6.5-22.6,10-5.7,2.6-11.2,5.5-16.6,8.3-2,1.1-3.8,2.6-5.7,3.7-10.4,6-21.2,11.5-31.2,18a324.3,324.3,0,0,0-27.6,20.6c-10.7,8.7-20.6,18.3-31.5,26.7a138.5,138.5,0,0,0-21.5,21.1c-.5.5.3,2.1.7,3.7-4.6-.6-7.4,1.2-10.1,4.4-8.2,10-16.9,19.7-25.3,29.6-12.2,14.3-24.4,28.6-36.4,43s-24.6,28.9-35.4,44.7c-8,11.8-17.3,22.7-26,34-17,21.8-35.2,42.3-58.5,57.8s-46.3,20-72.2,16.6a31.5,31.5,0,0,0-19.5,3.2c-7.5,3.8-9.3,12.4-4.3,19.1,3.7,4.9,3.4,7.8-.1,12.9s-7.4,4.8-11.5,6.3c-7.4,2.8-9,9.5-4,15.4l10.4,12.3c-2.2,8.5-4.8,16.3-11.6,21.9-5,4.1-9.8,8.6-15.1,12.3a237.9,237.9,0,0,1-40.6,22.1c-10.4,4.3-20.6,9-31.2,12.7-6,2.1-12.9,1.7-18.9,3.8-11.2,3.6-22.7,3.7-34,4.4a252.4,252.4,0,0,1-61.4-3.7c-13.6-2.5-27.7-2.5-41.1-5.6-19.9-4.5-39.3-11-58.6-17.8-14.1-4.9-26.9-12.7-39.9-19.9-4.1-2.3-8.6-4.2-12.3-7.1q-19.5-15-38.6-30.5c-12.5-10-25.2-19.8-38.4-28.9-18-12.5-36.4-24-57.8-29.7-16-4.2-31.9-5.2-47.4,2.6-6.2,3.1-9.7,13-2,18.5a74.8,74.8,0,0,0,7.6,4.8c3.3,1.9,6.9,3.2,9.8,5.5s7.4,6.9,6.6,12.7-4.1,9.8-9.1,11c-9.2,2.2-19,3.1-28-.9-17.2-7.8-35.2-12.5-53.6-16.4-7.9-1.7-15.8-.7-23.7.4a7.5,7.5,0,0,0-4.9,3.6c-4.1,7.4-9.5,11.9-18.5,11.5-5.1-.2-7.8,2.5-9.5,7.9,1.6.9,3.7,1.5,5,2.8s4.9,5,3.9,9-4.5,4.3-7.8,4.1c-8.4-.6-16.9-1.3-25.4-2.2-11.2-1.3-22-.2-31.8,5.9-4.1,2.6-7.1,10.2-5.7,14.4s6.9,7.9,12.5,7.3c7.4-.9,14.8-2.4,22.2-3.6,10.7-1.6,21.8-3.4,32.9-1.2,1.8.4,3.9-.1,5.9-.4,18.4-2.9,36.3-.3,53.9,5.4,11,3.5,20,10.2,28.7,17.4,4.3,3.5,5.4,12.2,3,17.4s-5.2,6-9.6,5.4-8.4-1.7-12.5-2.5-6.9-1.8-10.3-1.7c-7.1.1-9.8,5.4-6,11.3,2.6,4.3,4.8,8.7,4.7,13.8s-.3,11.5-.4,17.3,2.4,9.6,8.4,10.4a25.6,25.6,0,0,0,10.3-.6c7.4-2,14.8-4.6,22-7.2,18.5-6.7,34.4-1.8,48.7,10.4,5.6,4.7,6,9.4,1.4,15a16.2,16.2,0,0,1-7.1,5.1,201.5,201.5,0,0,1-20.5,4.3c-4,.7-8,1-10.2,5.1,1.8,5,3.5,10,9,12.2,10.7,4.1,22.3,6.1,33.2,4.5,16.7-2.4,33.1-7.5,49.6-11.4,11.4-2.7,23-4.7,34.7-4a134.2,134.2,0,0,1,25.9,4c12.9,3.1,25.4,8.1,36.2,16,9.2,6.8,14.9,16.1,12.8,28.4-.9,5.1-2.1,10.2-3.5,15.2s.2,8.6,5.5,8.6a28.6,28.6,0,0,0,11.4-2.8c4.3-2,8.1-5,12.1-7.5,9.5-5.7,20.5-5.9,30.8-8.8a50.5,50.5,0,0,1,11.1-1.8c10.4-.8,21-.7,31.3-2.1,23.3-3.2,46.6-6.4,69.7-10.7s48.3-9.1,71.5-17c10.7-3.6,21-8.2,31.4-12.3a112.9,112.9,0,0,0,11.8-5c26.7-14.6,54-28.4,78.4-46.8,12.3-9.3,23.7-19.8,35.5-29.7,4.9-4.2,10.4-8.1,14.6-12.9,12.4-14.5,27-26.6,40.6-39.7,2.9-2.7,5.4-5.8,8.2-8.6,6.3-6.5,12.8-12.9,19.1-19.4a23.7,23.7,0,0,0,2.9-3.4c6.6-9,13-18.3,19.9-27.2q19.8-25.3,40.2-50.4c14.4-17.7,28.5-35.6,43.7-52.5,10.7-11.9,22.9-22.4,34.5-33.4,3.3-3.1,6.8-5.8,10.1-8.8,13.5-12,26.8-24.2,41.9-34.2,9.5-6.3,18.8-13,27.8-20,14.6-11.3,29.5-21.8,46.8-28.5s34.9-13.9,52.7-19.7a217.7,217.7,0,0,1,37.2-8.5c12.5-1.9,25.3-2.2,38-2.6,5.5-.2,145.3,21.6,214.7,32.1M636.4,1423.6a15,15,0,0,1-14.3,2.3c-7.7-2.9-15.5-5.8-18.9-14.5-.9-2-2.5-3.8-3.2-5.9-1.7-5-5.4-7.5-9.9-9.5a54.3,54.3,0,0,1-9.2-5.7,5.4,5.4,0,0,1-2-6.3c2-5,7.7-8.3,14.3-8.1a79.2,79.2,0,0,1,41.9,12.6C652.1,1399.6,651.5,1412.5,636.4,1423.6Zm36.3,17c-3,4.6-14.7,9.9-19.9,8.3a99.6,99.6,0,0,1-14.5-5.8c-4.7-2.3-5.1-5.8-1.5-9.6a14,14,0,0,1,5.5-3.8c4.4-1.5,9-2.4,13.6-3.6,0,.2.1.4.1.6,2.5.2,5,.2,7.5.6a41,41,0,0,1,5,1.4C674,1430.7,675.8,1435.7,672.7,1440.6Z" fill="#296a6a" stroke="#296a6a" stroke-miterlimit="10" stroke-width="12.8"/><path d="M691,1639.3c-12.3-7.6-26.2-11.8-40.6-13.8-2.7-.4-5.6-.1-10.6-.1-10.7-1.6-21.7,3.8-32.3,10s-13.2,19.6-6.6,30.4c4,6.5,9.2,9.5,17.5,10.2a53.3,53.3,0,0,0,23.3-3.2c7.5-2.8,14.8-2.4,22.2-.5l10.8,3.1c10.3,2.7,18.5-1.6,25.5-8.3,1.7-1.7,2.3-5,2.5-7.7C703.3,1650.2,697.7,1643.4,691,1639.3Z" fill="#296a6a" stroke="#296a6a" stroke-miterlimit="10" stroke-width="4.71"/><path d="M792.6,1589.9c-21.7-11-44-10.7-66.7-3.7-2.3.6-4.4,1.8-6.7,2.2-10.6,1.7-16.7,9.2-21.8,17.4-1.8,2.8-1.7,6.9-2.4,10.4-1.2,11.2,6.6,16.1,14.5,20.3a36,36,0,0,0,28,3c8-2.5,13.8-.6,19.3,5.4s12.1,6.3,18.7.7,9.4-9.6,14.4-14.1a16.9,16.9,0,0,1,7.5-3.6c9.1-1.7,14.5-9.7,12.1-18.8S800.7,1594,792.6,1589.9Z" fill="#296a6a" stroke="#296a6a" stroke-miterlimit="10" stroke-width="0.59"/><path d="M494.6,1508.5c1.7,1.5,3.5,3.5,5.5,4.1,11.7,3.2,23.5,6.1,35.2,9.1,6.4-.2,9.2-4.2,8.2-11.7a40.3,40.3,0,0,0-1.1-5c-4.1-17.5-34.6-31.7-48.9-13.7C488.6,1497.5,488.6,1503.4,494.6,1508.5Z" fill="#296a6a" stroke="#296a6a" stroke-miterlimit="10" stroke-width="14.13"/><path d="M725.3,1690.2a199.4,199.4,0,0,1,22.8-13.3c5.4-2.7,11.4-.3,14.4,4.4s3.7,11-.6,15.8c-7,8.2-16.1,12.3-26.8,12.8a14,14,0,0,1-4.1-.1c-4.1-1.1-8.1-2.7-9-7.4S721.2,1693,725.3,1690.2Z" fill="#296a6a"/><circle cx="1793.6" cy="1133.5" r="16.8" fill="#fff"/><circle cx="1868.1" cy="1090.2" r="20.5" fill="#fff" opacity="0.54"/><circle cx="1847.1" cy="1146.1" r="17.1" fill="#dedbe5" opacity="0.44"/><circle cx="1920.9" cy="1146" r="20.5" fill="#fff"/><circle cx="1892.2" cy="1084.6" r="11.2" fill="#fff"/><circle cx="1895" cy="1158.8" r="11.2" fill="#fff" opacity="0.59"/><circle cx="1874.3" cy="1126.5" r="11.2" fill="#fff" opacity="0.59"/><circle cx="784.1" cy="1361.1" r="14.7" fill="#dedbe5"/><circle cx="803.5" cy="1395.5" r="17.9" fill="#dedbe5" opacity="0.85"/><circle cx="752.9" cy="1355.7" r="14.9" fill="#dedbe5" opacity="0.44"/><circle cx="732.1" cy="1393.6" r="9.8" fill="#fff" opacity="0.59"/><circle cx="763.7" cy="1382.9" r="9.8" fill="#fff" opacity="0.59"/><circle cx="823.9" cy="1417.1" r="9.8" fill="#fff" opacity="0.59"/><circle cx="778.8" cy="1555.6" r="14.7" fill="#fff" opacity="0.44"/><circle cx="800.5" cy="1585.2" r="17.9" fill="#fff" opacity="0.85"/><circle cx="724.5" cy="1544.1" r="14.9" fill="#fff" opacity="0.44"/><circle cx="746.9" cy="1568.4" r="9.8" fill="#fff" opacity="0.59"/></svg>