<svg height="1830" viewBox="0 0 1920 1830" width="1920" xmlns="http://www.w3.org/2000/svg"><path d="m1083.5 870.4-1.2.3c-11.9-5.4-45.5-21.5-131.1-63.6 41.5 19.6 97.5 45.6 132.3 63.3z" fill="#f2ad40"/><path d="m1456.3 1026.8a15.4 15.4 0 0 1 -5.8 1 23.4 23.4 0 0 1 -7.7-1.4l-6.7-2.2z" fill="#f2ad40"/><path d="m219.8 1029.3-1.1-.5-3.3-1.8-5.8-3.3c3.2 1.9 6.6 3.7 10.2 5.6z" fill="#f2ad40"/><path d="m205.8 1021.4 3.7 2.2c-3.6-2.1-6.9-4.1-10-6.2h.2z" fill="#f2ad40"/><path d="m1082.7 870.9.8-.5s11.1 5.9-.8.5z" fill="#f2ad40"/><path d="m719 1432.7c0 .2-.1.4-.1.6a1.8 1.8 0 0 1 -.1-.5z" fill="#aad1c7"/><path d="m1861.6 1005.7 3.8 1.8c-.8 1.1-1.4 2-2.3 3.1a4.5 4.5 0 0 0 1.8.8l28.4.3c4.3.1 4.3-4.3 7.1-6.1-12.9-2.3-25.5-1.5-38.8.1z"/><path d="m1720.6 1036.1c.3 1.9.6 3.1.9 5.1l41.4-11.6a9 9 0 0 0 -9.5-2.8c-9.7 2.4-19.2 4.9-28.8 7.5a21.8 21.8 0 0 0 -4 1.8z"/><path d="m1720.6 1036.1a21.8 21.8 0 0 1 4-1.8c9.6-2.6 19.1-5.1 28.8-7.5a9 9 0 0 1 9.5 2.8l-41.4 11.6c-.3-2-.6-3.2-.9-5.1z" fill="none"/><path d="m1900.4 1005.6c-2.8 1.8-2.8 6.2-7.1 6.1l-28.4-.3a4.5 4.5 0 0 1 -1.8-.8c.9-1.1 1.5-2 2.3-3.1l-3.8-1.8c13.3-1.6 25.9-2.4 38.8-.1z" fill="none"/><path d="m1762.9 1029.6a9 9 0 0 0 -9.5-2.8c-9.7 2.4-19.2 4.9-28.8 7.5a21.8 21.8 0 0 0 -4 1.8c.3 1.9.6 3.1.9 5.1z" fill="none"/><path d="m1454.1 1022.2a15.8 15.8 0 0 0 -5.4 3 9.5 9.5 0 0 0 5.2-2.9z" fill="#f2ad40"/><path d="m734.9 1490.6-.2.3-1.8-.9z" fill="#ed7954"/><path d="m1436.1 1024.2-1.6-.2c.1-.1.1-.2.2-.2z" fill="#f2ad40"/><path d="m1.5 1175v11.1l13.8 1.9c-4.9-4.4-9.5-8.7-13.8-13z" fill="none"/><path d="m809.4 1191.2c-31.6 10.5-62.8 19.9-92.4 27.3a674 674 0 0 1 -106.7 18l-3.1.9c195.8 7.5 406 5.1 576.5-21.7-80.3-28.4-202.6-49.7-374.3-24.5z" fill="none"/><path d="m1081.7 1474.7 5.4-.8c-49.8.7-105.5-3.7-164.2-12.2 46 9.9 92.6 14.4 136.4 15.3 7.4-.5 14.9-1.2 22.4-2.3z" fill="none"/><path d="m1446.5 1131.5c66.9-43.2 126.4-71.9 178.7-90.3-34.6-1.8-66.2-4.2-93.3-6.6l-90.5 100.1z" fill="none"/><g fill="#ed7954"><path d="m559.4 1414 2.7 16 26.9-4.2c-9.5-3.9-19.4-7.8-29.6-11.8z"/><path d="m530.2 1360.9-12.4-3.3c45.6 15.3 94.1 34 145.5 56.5l8.2-1.3 12.7.6c-10.6-4.3-21.7-8.7-33.4-13.2-40.8-12.1-81.2-25.3-120.6-39.3z"/><path d="m1580.3 1309c-112.5 25.9-192.7 156-400.7 199.9 8.6-.9 16.9-2 24.8-3.1 105.6-15.6 269.4-142.7 375.9-196.8z"/><path d="m1059.3 1477c-43.8-.9-90.4-5.4-136.4-15.3l-29.4-4.6c49.8 13.9 108.2 24 165.8 19.9z"/><path d="m1711.4 1280.4c88.4.1 188.2 22.2 218.9 29.6l1.2-17.5c-73.1-27.7-147.3-24.7-220.1-12.1z"/><path d="m722.5 1442c-73.1-28.3-307.5-108.5-395.3-124-64.7-6.3-132.8-6.9-202.3 1.3-64.5 15.9-104.6 26.2-129.4 32.8v19c26-6.6 71-17.3 148.3-34.8 115.5-26.2 283 22.7 409.6 71.7l-1.9-11.2z" opacity=".48"/><path d="m1580.4 1309h-.1c-106.5 54.1-270.3 181.2-375.9 196.8-7.9 1.1-16.2 2.2-24.8 3.1-4.6 1-9.2 2-13.9 2.8-139.5 26.1-276-19.1-356.5-55.3l-3.7 14.6s-45.6-26.7-121.3-57.6l-12.7-.6-8.2 1.3c-51.4-22.5-99.9-41.2-145.5-56.5a1166.8 1166.8 0 0 0 -184.6-33.6c87.8 15.5 178.8 45.7 251.9 73.9l-27.6 4.9 1.9 11.2c10.2 4 20.1 7.9 29.6 11.8l-26.9 4.2 1.7 10.1s35.6-20.4 169.1 21.9l2 .6c30.1 9.6 65.2 22.4 105.9 39.3 223.3 92.7 512.7 21.8 646.1-53.7s231.4-136.1 435.7-29.1l7.7-109.1c-30.7-7.4-130.5-29.5-218.9-29.6-44.4 7.6-88.2 18.7-131 28.6z"/><path d="m1.5 1358.1c24.8-6.6 64.9-16.9 129.4-32.8a813 813 0 0 0 -129.4 26.1z"/><path d="m1.5 1358.1c24.8-6.6 64.9-16.9 129.4-32.8a813 813 0 0 0 -129.4 26.1z" opacity=".48"/></g><path d="m428.5 1321.9a598.7 598.7 0 0 0 -107.6-33.4c-45.8.3-86.5-4.1-122.4-11.8-79.9 1.4-140.9 20.1-173.8 33 83.6-20.6 245.8-35.2 493.1 47.9l12.4 3.3c-34.9-12.4-69-25.5-101.7-39z" fill="#f2ad40"/><path d="m650.8 1400.2c11.7 4.5 22.8 8.9 33.4 13.2l15 .6c-16.1-4.4-32.3-9-48.4-13.8z" fill="#f2ad40"/><path d="m1602.9 1250.2c-102.9 44-285.8 198.1-401.2 217.1-39.3 6.5-88.8 10.8-142.4 9.7-57.6 4.1-116-6-165.8-19.9-39.3-6.5-79.8-14.7-120.7-24.4 125.6 81.1 295.7 88.5 406.8 76.2 208-43.9 288.2-174 400.7-199.9 10.2-5.2 19.8-9.7 28.9-13.4 27.5-11.2 63.8-15.3 102.2-15.2 72.8-12.6 147-15.6 220.1 12.1l2.2-31.3s-228-55-330.8-11z" fill="#f2ad40"/><path d="m144.5 1322-13.6 3.3c69.5-8.2 137.6-7.6 202.3-1.3-68.2-12.1-134.4-15.3-188.7-2z" fill="#f2ad40"/><path d="m684.2 1413.4c75.7 30.9 121.3 57.6 121.3 57.6l3.7-14.6c80.5 36.2 217 81.4 356.5 55.3 4.7-.8 9.3-1.8 13.9-2.8-111.1 12.3-281.2 4.9-406.8-76.2-24.4-5.7-49-12-73.6-18.7z" fill="#f2ad40"/><path d="m24.7 1309.7c-11 4.3-18.8 8-23.2 10.1v31.6a813 813 0 0 1 129.4-26.1l13.6-3.3c54.3-13.3 120.5-10.1 188.7 2a1166.8 1166.8 0 0 1 184.6 33.6c-247.3-83.1-409.5-68.5-493.1-47.9z" fill="#f2ad40"/><path d="m1711.4 1280.4c-38.4-.1-74.7 4-102.2 15.2-9.1 3.7-18.7 8.2-28.9 13.4h.1c42.8-9.9 86.6-21 131-28.6z" fill="#f2ad40"/><path d="m530.2 1360.9c39.4 14 79.8 27.2 120.6 39.3-35.6-13.4-76.2-27.1-120.6-39.3z" fill="#1f3058"/><path d="m893.5 1457.1 29.4 4.6c-36.3-7.9-72.3-19.1-106.4-34.6l-.9 3.4a767.6 767.6 0 0 0 77.9 26.6z" fill="#1f3058"/><path d="m1924.5 1245.3s-103.4-88.2-363.4 16.8a224.7 224.7 0 0 0 -40.2 21.3c-59 39.1-250.8 164.3-343.4 182.1-27.1 5.3-57.5 7.9-90.4 8.4-49.9.7-105.5-3.7-164.2-12.2-36.3-7.9-72.4-19.1-106.4-34.6l-.9 3.4a767.6 767.6 0 0 0 77.9 26.6c-39.3-6.5-79.8-14.7-120.7-24.4-8.1-5.2-16-10.7-23.6-16.5l-50-2.2c-16.1-4.4-32.3-9-48.4-13.8-35.6-13.4-76.1-27.1-120.6-39.3-34.9-12.4-69-25.5-101.7-39-37.4-15.5-160.8-32.8-195-39.9 6.3 0 9.5-24.8 16-25 41.5-1.4 232.1-8 282-18 37-7.4 22.1 3.1 64-10 3.9-1.2 7.8 9.6 11.7 8.4 195.8 7.5 393.8-6.6 564.3-33.4 84.8 30.1 135 80 135 80l134.9-149.3c1.8-1 3.4-2.1 5.1-3.2 66.9-43.2 126.4-71.9 178.7-90.3 80.8 4.3 177.8 5.7 271.8-2.3 15.8 8 23.5 14.8 23.5 14.8l.6 28.7z" fill="#1f3058"/><path d="m254.7 1265.8c-96.2 16.2-145.2 25.2-222.2 42.1-10.9 2.7-20.8 5.5-29.6 8.2v-77.1l-5 2.2-1.4-113.2s10.9 8.5 14.1 9l26.5 29.1a463.6 463.6 0 0 0 78.7 50.9 542.7 542.7 0 0 0 118.2 44q10.2 2.6 20.7 4.8z" fill="#1f3058"/><path d="m1.5 1319.8c4.4-2.1 12.2-5.8 23.2-10.1-8.6 2.1-16.3 4.3-23.2 6.4z" fill="#1f3058"/><path d="m699.2 1414c24.6 6.7 49.2 13 73.6 18.7-8.1-5.2-16-10.7-23.6-16.5z" fill="#1f3058"/><path d="m601.3 1237.2 5.9.2 3.1-.9z" fill="#aad1c7"/><path d="m1436.1 1024.2-1.4-.4-.4-.2c-18.7-6.2-38-12.7-57.7-15h-.3c-35.3-2-116.8 5.7-287.3 69.9-75.3 34.5-179.9 79.5-279.6 112.7 171.7-25.2 294-3.9 374.3 24.5 105.3-16.5 195.4-42.4 257.7-81l90.5-100.1c-32.6-2.9-58.7-5.8-75.6-7.8z" fill="#dedbe5"/><path d="m1306.5 1284 134.9-149.3c-62.3 38.6-152.4 64.5-257.7 81 84.8 30.1 122.8 68.3 122.8 68.3z" fill="#aad1c7"/><path d="m607.2 1217.4-11.7 3.6a1157.2 1157.2 0 0 1 -118.3 30.5c-49.9 10-95.4 15.2-136.9 16.6-59.8-10.5-112.4-14.8-158-15.1a428 428 0 0 1 -92.5-34.4 360.3 360.3 0 0 1 -74.4-50.6c-5-4.4-9.6-8.7-13.9-13v-45.4c99.6-11.7 215.5-4.9 280.5 34.9 40.8 25 100.3 51.8 175.8 65.3a580 580 0 0 0 143.5 7.4z" fill="#aad1c7"/><path d="m717 1218.5c29.6-7.4 60.8-16.8 92.4-27.3-60.2 8.8-126.5 23.4-199.1 45.3a674 674 0 0 0 106.7-18z" fill="#dedbe5"/><path d="m353.1 1084.7c-47.3-16-95.3-34.2-129.6-52.1l-1.6-.9-.4-.2c-3.6-1.9-7.1-3.9-10.3-5.8h-.1l-3.7-2.3-6.2-4.1a197.6 197.6 0 0 1 -28.5-24.1c-2.3-2.4-4.9-4.6-7.4-6.8l-1.9-1.6c-1.9-1.7-3.8-3.4-5.5-5.2-5.9-6-11.2-12.7-17.1-18.8s-10.9-10.9-16.6-16l-2.5-2.1a80.3 80.3 0 0 0 -8-6.1l-4.2-2.8-4-2.9-22.9-16.7-9.1-6.7-4.5-3.4a54.6 54.6 0 0 0 -4.8-3.6l-4.9-3.4-2.5-1.5c-4.3-2.6-8.6-5.1-13-7.3l-5.3-2.6c-3.6-1.7-7.3-3.3-11-4.8l-2.5-1-5-1.9a163.2 163.2 0 0 0 -18.5-5.2v231.2z" fill="#dedbe5"/><path d="m1.5 1129.6c99.6-11.7 215.5-4.9 280.5 34.9 40.8 25 100.3 51.8 175.8 65.3 46.3 2.9 94.5 5.4 143.5 7.4l9-.7c72.6-21.9 138.9-36.5 199.1-45.3 99.7-33.2 204.3-78.2 279.6-112.7-21.1 8-43.7 16.8-67.7 26.6-255.2 104.2-374.1 73.5-409.4 58.4l-1.7 1.1-90.7-30.3s-82.2-21.2-166.4-49.6l-351.6 21.3z" fill="#dedbe5"/><path d="m601.3 1237.2c-49-2-97.2-4.5-143.5-7.4a580 580 0 0 0 143.5 7.4z" fill="#dedbe5"/><path d="m1625.2 1041.2c80.8 4.3 177.8 5.7 271.8-2.3-39.3-20.1-128.4-47.9-271.8 2.3z" fill="#f2ad40"/><path d="m1.5 1296.6v-40.2l-3.9 1.1v40.3z" fill="#1f3058"/><path d="m1.5 1296.6-4 1.2v19.6l4-1.3z" fill="#1f3058"/><path d="m-2.5 1317.4v4.5l4-2.1v-3.7z" fill="#1f3058"/><path d="m1.5 856.8v-24.2l-1.1 24z" fill="#1f3058"/><path d="m-.5 874.4 2 .4v-18l-1.1-.2z" fill="#1f3058"/><path d="m514.5 1365s-70.2-17.3-140.5-36.1c-153.5-40.9-372.5 22.1-372.5 22.1v126s303.4-135.4 536.7-54.7z" fill="#ed7954"/><path d="m536.6 1366.9s-224.9-74.3-536.5 31.9l-1.2-55.5s277.8-81.5 537.7 23.6z" fill="#f2ad40" opacity=".5"/><path d="m512.5 1427s-229-47-514 97v-72s294-97 512-54z" fill="#ed7954" opacity=".48"/><circle cx="111.8" cy="1198.3" fill="#fff" opacity=".44" r="20.9"/><circle cx="123.6" cy="1222.8" fill="#fff" opacity=".85" r="25.5"/><circle cx="34.5" cy="1181.8" fill="#fff" opacity=".44" r="21.3"/><circle cx="66.4" cy="1216.5" fill="#fff" opacity=".59" r="13.9"/><circle cx="87.3" cy="1151.5" fill="#fff" opacity=".59" r="13.9"/><circle cx="170" cy="1242.2" fill="#fff" opacity=".59" r="13.9"/><circle cx="1489" cy="1440" fill="#fff" r="13"/><circle cx="1451" cy="1437.7" fill="#fff" opacity=".54" r="15.9"/><circle cx="1526.9" cy="1423.5" fill="#dedbe5" opacity=".44" r="13.3"/><circle cx="1511.5" cy="1415.6" fill="#fff" opacity=".59" r="8.7"/><circle cx="1435" cy="1474.1" fill="#fff" opacity=".59" r="8.7"/><circle cx="1403.1" cy="1480.6" fill="#fff" opacity=".59" r="8.7"/><circle cx="1365" cy="1530.1" fill="#fff" opacity=".59" r="8.7"/><path d="m1583.3 1259.4a507.6 507.6 0 0 1 65.5-21.7c-16.9 2.7-32.5 6.8-45.9 12.5-6.3 2.7-12.8 5.8-19.6 9.2z" fill="none"/><path d="m1486.9 1448.2c-133.4 75.5-422.8 146.4-646.1 53.7-40.7-16.9-75.8-29.7-105.9-39.3l-2-.6c-133.5-42.3-169.1-21.9-169.1-21.9l-1.7-10.1h-.8l5.7 37.4s35.9-19.7 168.7 24.9l1.9.6c30 10.2 64.9 23.6 105.3 41.2 221.6 96.5 512.3 30.6 646.9-42.7s232.6-131.3 432.7-23.4v-49c-204.2-106.8-302.2-46.4-435.6 29.2z" fill="#ed7954" opacity=".48"/><path d="m732.9 1462 2 .6c30.1 9.6 65.2 22.4 105.9 39.3 223.3 92.7 512.7 21.8 646.1-53.7s231.4-136 435.6-29.1v-62.9c-67.2-31.3-231.8-68.9-539.8 71.2-64.4 38.2-128 71-178.3 78.4-7.9 1.1-16.2 2.2-24.8 3.1-4.6 1-9.2 2-13.9 2.8-139.5 26.1-276-19.1-356.5-55.3l-3.7 14.6s-45.6-26.7-121.3-57.6l-12.7-.6-8.2 1.3c-51.4-22.5-99.9-41.2-145.5-56.5a1166.8 1166.8 0 0 0 -184.6-33.6c87.8 15.5 178.8 45.7 251.9 73.9l-27.6 4.9 1.9 11.2c10.2 4 20.1 7.9 29.6 11.8l-26.9 4.2 1.7 10.1s35.6-20.4 169.1 21.9z" fill="#ed7954" opacity=".48"/><path d="m1602.9 1250.2c13.4-5.7 29-9.8 45.9-12.5 31.7-8 64.4-12.7 97.7-12.7 86.1 0 138.4 6.5 170.1 14.8-28.6-17.6-136.6-66.2-355.5 22.3a224.7 224.7 0 0 0 -40.2 21.3c-58.9 39.1-250.8 164.3-343.4 182.1-27.1 5.3-57.5 7.9-90.4 8.4l-5.4.8c-7.5 1.1-15 1.8-22.4 2.3 53.6 1.1 103.1-3.2 142.4-9.7 53.1-8.7 120.5-46.1 187.9-88.2 50.4-41.8 117.6-88.7 193.7-119.7 6.8-3.4 13.3-6.5 19.6-9.2z" fill="#f2ad40"/><path d="m1900.9 818.4a7.7 7.7 0 0 1 -1.7-.5 16.7 16.7 0 0 0 -6.3-1c-4.9.4-9.8-.3-15.1-1s-12.5-1.7-19.2-1-12.4.2-19.1-.3c-3.4-.3-7-.6-10.6-.7-25.9-.7-51.8 2.1-76.1 5.1l-5.6.6c-12.6 1.5-25.7 3.1-38.4 6.1l-1 .3c-21.6 5.2-44 10.5-65.2 19.5-11.6 4.8-23.7 8.8-35.5 12.6l-14.5 4.8-5.8 2c-8.3 2.9-16.8 5.8-25.3 8.3s-16.3 4.4-24.4 6.5l-12.6 3.3-15.9 4.3c-10.9 3-22.1 6.2-33.3 8.7-14.6 3.3-29.8 5.9-44.5 8.5l-9.2 1.7c-4.6.8-9.4 1.5-14 2.1-6.9 1-14 2.1-21 3.6-13.7 3-27.4 3.4-41.9 3.8l-11.6.4-14.8.9-7.1.4-9.5.6.2.3c-60.1-.2-137.7-9.8-211-47a85.2 85.2 0 0 0 -10.4-4.4c-17.7-8.4-53.1-25.6-122-59.4l-23.8-11.8c-204.6-100.7-376.9 13.1-476.7 61.5s-140.1 31.3-140.1 31.3l-15.3.2q-4.2 0-8.4-.3c-10.9-.8-21.9-1.8-32.8-3.4-4.3-.6-8.7-1.3-13-2.1l-6.5-1.4-3.7-.8c-10.2-2.2-20.6-3.8-30.4-7.7l-4.6-2.1a29.5 29.5 0 0 0 -4.1-1.7l-2.8-.8-4.3-1.2-13.5-3.9-4.4-1.3-17.9-5.5-3.9-1.4-3.8-1.3c-7.7-2.8-15.3-5.9-22.9-8.8-11.4-4.4-22.8-9.2-34.3-13.3-8.6-3.1-17.1-6.2-25.7-9-4-1.2-7.9-2.4-11.9-3.4l-7.1-1.8-2.3-.5-4.9-1.2-2.5-.6-4.9-1.1-2.3-.5-5.5-1.2-1.5-.3-20-4.3-1.2 24.8v42.2a144.8 144.8 0 0 1 18.5 5.2l5 1.9 2.5 1c3.7 1.5 7.4 3.1 11 4.8l5.3 2.6c4.4 2.2 8.7 4.7 13 7.3l2.5 1.5 4.9 3.4a54.6 54.6 0 0 1 4.8 3.6l4.5 3.4 9.1 6.7 22.9 16.7 4 2.9 4.2 2.8a80.3 80.3 0 0 1 8 6.1l2.5 2.1c5.7 5.1 11.2 10.5 16.6 16s11.2 12.8 17.1 18.8c1.7 1.8 3.6 3.5 5.5 5.2l1.9 1.6c2.5 2.2 5.1 4.4 7.4 6.8a197.6 197.6 0 0 0 28.5 24.1l6.2 4.1 3.7 2.3h.1c3.2 1.9 6.7 3.9 10.3 5.8l.4.2 1.6.9c34.3 17.9 82.3 36.2 129.7 52.1 84.1 28.4 166.3 49.6 166.3 49.6l90.7 30.3 1.7-1.1c35.3 15.1 154.2 45.8 409.4-58.4 24-9.8 46.6-18.6 67.7-26.6 170.5-64.2 252-71.9 287.3-69.9h.3c19.7 2.3 39 8.8 57.7 15l.4.2 1.4.4 20.2 2.6c16.9 2 43 4.9 75.6 7.8 27.1 2.4 58.7 4.8 93.3 6.6 143.4-50.2 232.5-22.4 271.8-2.3l23.4-2.2 2.1-160.7v-53.3a152.9 152.9 0 0 0 -21.6-4.3z" fill="#f2ad40"/><path d="m1580.4 1309c42.8-9.9 86.6-21 131-28.6 82 .1 173.7 19.1 211.1 27.7v-49.4c-40-8.8-178.3-36.3-273.7-21a507.6 507.6 0 0 0 -65.5 21.7c-53.6 27-123.6 75.9-193.7 119.7-59.8 49.6-96.1 91.9-96.1 91.9q46.5-24.1 89.2-43.6c70.5-41.8 141.9-90.1 197.6-118.4z" fill="#f2ad40" opacity=".49"/><path d="m1922.5 1241.4-5.9-1.6c2.6 1.6 4.6 3 5.9 3.9z" fill="#f2ad40" opacity=".49"/><path d="m1922.5 1356.2v-48.1c-37.4-8.6-129.1-27.6-211.1-27.7-44.4 7.6-88.2 18.7-131 28.6h-.1c-55.7 28.3-127.1 76.6-197.6 118.4 308-140.1 472.6-102.5 539.8-71.2z" fill="#ed7954" opacity=".48"/><path d="m1922.5 1356.2v-48.1c-37.4-8.6-129.1-27.6-211.1-27.7-44.4 7.6-88.2 18.7-131 28.6h-.1c-55.7 28.3-127.1 76.6-197.6 118.4 308-140.1 472.6-102.5 539.8-71.2z" fill="#f2ad40" opacity=".49"/><path d="m1389.6 1379.1c70.1-43.8 140.1-92.7 193.7-119.7-76.1 31-143.3 77.9-193.7 119.7z" fill="#f2ad40"/><path d="m1389.6 1379.1c70.1-43.8 140.1-92.7 193.7-119.7-76.1 31-143.3 77.9-193.7 119.7z" fill="#f2ad40" opacity=".49"/><path d="m1648.8 1237.7c95.4-15.3 233.7 12.2 273.7 21v-15c-1.3-.9-3.3-2.3-5.9-3.9-31.7-8.3-84-14.8-170.1-14.8-33.3 0-66 4.7-97.7 12.7z" fill="#f2ad40"/><path d="m1648.8 1237.7c95.4-15.3 233.7 12.2 273.7 21v-15c-1.3-.9-3.3-2.3-5.9-3.9-31.7-8.3-84-14.8-170.1-14.8-33.3 0-66 4.7-97.7 12.7z" fill="#f2ad40" opacity=".49"/><circle cx="1822.8" cy="1207.3" fill="#fff" opacity=".44" r="20.9"/><circle cx="1839.7" cy="1228.6" fill="#fff" opacity=".85" r="25.5"/><circle cx="1743.8" cy="1208.1" fill="#fff" opacity=".44" r="21.3"/><circle cx="1782.5" cy="1235" fill="#fff" opacity=".59" r="13.9"/><circle cx="1788.7" cy="1167" fill="#fff" opacity=".59" r="13.9"/><circle cx="1889.2" cy="1237.4" fill="#fff" opacity=".59" r="13.9"/><path d="m-194.5 823s77.4-24.7 197-15l-1 67s-95-4-197 34z" fill="#f2ad40"/><path d="m1922.5 823s16 9 29 11 73 17 157 2v58s-105-1-189-21z" fill="#f2ad40"/><path d="m-195.5 1137s56 20 163 1a100.2 100.2 0 0 1 34 17l6 162s-125 53-200.4 86.6a5.4 5.4 0 0 0 -1.6 1.4z" fill="#1f3058"/><path d="m1916.5 1240s74 39 190 28l3-167s-54 12-186-21z" fill="#1f3058"/><path d="m580.8 1242.1s149.7-19.1 228.7-51.1 365 9 365 9l-37 41s-451.4-3.7-556.7 1.1z" fill="#1f3058"/><path d="m656.5 1459c-.5 0-1.5-1.9-2.7-5-5.7-14.5-16.9-55.4-16.9-55.4l-127.8-32.4 21.6 47.1z" fill="#ed7954"/><path d="m176.5 1275 73 9.4s20.4-27.7 17.7-27.5-56-4.2-76.3-3.6z" fill="#1f3058"/><path d="m-194.5 823v-97l2288-5 15 115 1 208-317-70-883 5-538-37z" fill="#f2ad40"/></svg>