<svg height="1940" viewBox="0 0 1919 1940" width="1919" xmlns="http://www.w3.org/2000/svg"><path d="m1775.9 777.7c-97.9-15.7-125.3-.2-172.1-6s-96.5-25.4-137.6-65-61.2-9.7-61.2-9.7a61.7 61.7 0 0 0 13.2 18.6c8.8 8.4 9.8 12.4 9.8 12.4s-9 4.4-19.5-10.8-41.5-40.2-78.5-33.2c0 0-22 19-5 33 0 0 13 5 26 0s36 5 36 19c0 0-4 6-16-2s-24-2-21 4 17 9 11 17-18 0-19-11-26-19-26 9a13.8 13.8 0 0 1 10 5c4 5 8 6 8 6s-14 16-24 11-32 14-49 11-58-4-102 9-110.1 40.6-181.5 12.3-167.7-60.7-214.6-65-84.9-4.3-111.9-12.3-94-19-161-14-131.1.9-172.5 5.9-147.6-31.7-147.6-31.7-96.9-36.2-172.9-28.2l3 193s273 86 339 81c64.4-4.9 115.4-84 242-86.9v-.4s93-33.7 205.9-29.9 299.1 104.2 299.1 104.2l-.7.2 42.7-2.2s48 39 264 18l49.6 3.3c52.4-7.6 118.4-27.6 138.4-33.3s56-26 153-38c90.9-11.2 129.1-3.2 133.6-2.1l23.4-4.9s27 7 30 10l1-49.9s-47.2-30.6-145.1-46.4z"/><path d="m1392 687s6-7-2-15-18-22-24-25-16-4-19 4 9 23 15 23 4 9 9 10 15 7 21 3z"/><path d="m1315 757s2-5-10-9-30 6-33 17 13 9 16 6 17-6 20-5 11-4 7-9z"/><path d="m1835.2 801.7h-18.5c-8.6-.1-17.2-.1-25.8-.5-10.8-.6-21.6-1.7-32.3-2.2-12.6-.6-25.1-.9-37.7-1.2-16.4-.5-32.7-1.1-49.1-1.3-10.6-.1-21.2.8-31.7.4a267.9 267.9 0 0 0 -42 1.8c-18.9 2.5-38 3.9-56.9 7.4-21.9 4-43.1 10.2-64 17.5-15.8 5.5-31.1 12.2-47.1 17.1a151.7 151.7 0 0 1 -59.9 6.2c-22.7-2.3-45.6-2.5-68-7.7-9.3-2.1-18.9-2.4-28.4-3.9-4.3-.7-8.4-2.5-12.7-3.2-13.1-2-26.3-3.4-39.3-5.7-20.4-3.7-40.8-2.7-61.1-1.2-25.7 2-51.4 5.1-77 7.9-23.1 2.5-46.2 2.6-69.3 2.5a35 35 0 0 1 -6.5-.7h-.1s-170.2-15.6-231.6-25.9-279.5-75.4-383-56.3c-6.5 3.3-11.2 3.4-16.2 0s-10.3-4-15.5-1.5c-16 7.9-32.2 3.3-48.3.8-14.1-2.2-28.2-4.1-42.3-6.8-6.7-1.2-13.1-4-19.7-5.7-15.9-4.1-31.9-7.8-47.8-12-4.7-1.2-9-3.6-13.5-5.1s-11.3-3.6-17-5.2c-18.4-5.1-36.8-10.4-55.3-15.3-3.9-1.1-8.3-.5-12.3-1.4-11.4-2.5-22.8-5.4-34.3-8.1-1.8-.5-3.6-1.5-5.5-1.7-10-1.1-20-2.4-30.1-3-6-.3-12.2.5-18.3 1.2s-13.8.8-19.1 1.5v-22c6-.3 16.2 0 22.2.3 7.6.4 15.2-.1 22.7.4a164.1 164.1 0 0 1 19.7 2.9c16.6 3.4 33.3 6.6 49.8 10.6 12.8 3.2 25.4 7.6 38.1 11.3l14.9 4.3c15.7 5 31.4 9.9 47.1 15.1 19.8 6.5 40 12.2 60.6 15.2 14.6 2.1 29.4 2.6 44.1 3.2 5.1.2 10.3-1 15.3-2.1a8.7 8.7 0 0 1 5.3 0c36-1.7 243.1-10.6 280.9.2 41.4 11.9 36.2 20.7 104.3 24.4s141.3 30.4 249.3 57.7c19.7 5 33.4 9 42.6 12.1a198.4 198.4 0 0 0 21.8 2c10.8.4 21.6-.3 32.5-.5 15.9-.3 31.1-4.6 46.2-8.9s27.2-8.5 40.9-12.2c22.9-6.3 46.1-10.8 69.8-11.4 11.8-.3 23.6-2.5 35.4 0 6.5 1.4 13 2.6 19.5 3.9 12.3 2.6 24.7 4.5 36.7 8a574.2 574.2 0 0 0 65.9 15.8c19.8 3.3 39.5 0 58.9-3.4 12-2.1 23.6-6.9 35.5-10 19-5 38.1-9.7 57.2-14.4 23.2-5.6 46.6-10.3 70.6-11.1 15-.5 30.1-1 45-1.7 29.3-1.4 58.6-2 87.8 1.9 14.6 2 29.2 4.2 43.7 6.8 11.4 2 22.8 4.7 34.1 7.2 5.3 1.1 10.6 2.4 15.8 3.8 1.2.3 2.1 1.3 3 1.9z" fill="#aad1c7"/><path d="m1024.3 842c8.3 0 16.6.1 24.9 0s17.7-.2 26.5-.9c15.9-1.2 31.8-3.1 47.8-4.3 20.3-1.5 40.7-2.6 61.1-4a153 153 0 0 1 89.2 20.7 71.9 71.9 0 0 0 16 7.3c11.7 3.5 23.7 4.5 35.9 4.1a32.9 32.9 0 0 1 10.7 1.8c4.3 1.6 5.4 4.9 3.2 8.9a24.2 24.2 0 0 1 -5.5 6.8c-13.4 11-28.5 18.2-46.2 18.6-1.5 0-3 .3-4.4.4-9.8.8-19.6 2.4-29.4 2.2-14.7-.3-29.6-1-44.1-3.2-23.6-3.6-47-8.3-70.4-12.7-17.3-3.2-33.5-9.8-49.7-16.4-14.5-5.9-29.1-11.7-43.5-17.8-7.7-3.3-15-7-22.5-10.6zm223.8 30.6c-15.4-4.3-30.9-8-46.8-9.9-6.7-.7-13.4-2.5-20.1-2.5a264.2 264.2 0 0 0 -28 2.3c-4.1.4-7.2 2.5-7.8 7.3s1.8 7.1 4.9 9a56.5 56.5 0 0 0 11.9 5.7 231.7 231.7 0 0 0 53.6 9.4c10.8.6 21.6 1.5 32.3-.9 4.2-.9 8.3-2.4 12.8-3.8-1-9.3-4.9-14.4-12.8-16.6z" fill="#98b1cf" stroke="#99b2d0" stroke-miterlimit="10" stroke-width="2.22"/><path d="m1352 894.1c14.6-1.5 29.3-2.9 43.9-4.2 27.2-2.6 52.6-11.6 78.8-17.7 16.7-3.8 32.8-10.4 49.4-14.8 26.9-7.1 52.9-17 79.5-24.8 20-5.8 40.3-11 60.5-16.1 10.5-2.6 21.1-4.5 31.7-6.8.6-.1 1.2-.6 3.4-1.8-6.8-.8-12-1.8-17.2-1.9-19.4-.5-38.9-1.3-58.3-.8-14.5.3-28.9 2.3-43.3 3.8-23.8 2.5-47.1 7.2-70.3 13-6-1.9-10.3 2.7-15.4 4.4-14.5 4.8-29 9.5-43.1 15.1-11.2 4.4-21.7 10.3-32.7 15.1-16.9 7.5-32.8 16.9-48.7 26.1-4 2.4-8.4 4.1-12.6 6.2-2.1 1.1-4.1 2.3-6.1 3.5.2.5.3 1.1.5 1.7z" fill="#33596d" stroke="#33596d" stroke-miterlimit="10" stroke-width="5.92"/><path d="m1339.4 689.8c5.1 0 10.6-1.3 15.3 0 20.6 5.9 37.3 18.4 51.6 34a52.7 52.7 0 0 0 12.3 10.3c6 3.6 11.6 2.3 17.6 0-.7-1.5-1.9-2.9-1.6-3.4 2.2-4-.4-6.4-2.7-9.1-4.8-5.6-9.6-11.2-14.1-16.9-1.6-2-2.4-4.6-4-7.7a61.6 61.6 0 0 1 8-1.7c2.5-.2 5.3 1.8 7.3-1.4 3.3 2.3 8.5-2.2 11.2 3.6 1 2.1 6.1 4.6 7.2 3.8 3.2-2.1 3.7-.2 5.1 1.5a11.4 11.4 0 0 0 3.2 2.6c2.5 1.4 5.1 2.5 7.5 4 4.7 3.1 6 10.2 12.8 10.9.2 0 .5.9.4 1.3-.6 3.2 1.8 4.1 3.9 5.4s4.5 3.5 7.3 4.6 5.5 3 6.6 5.3 5.1 3.5 7.7 5.1c7 4.4 13.8 9.5 21.3 12.6 13.4 5.4 27.3 9.6 41 14.2a111.9 111.9 0 0 0 11.4 2.9l14.5 3.5v1.6a61 61 0 0 1 -8.4 1.3 193.7 193.7 0 0 0 -37.9 5.6c-16.7 4.2-33.5 7.6-50.2 11.7-12.4 3.1-24.6 7.1-37 10.2a272 272 0 0 1 -30.8 6.5c-9 1.3-18.2 1.2-27.3 1.4-19.5.5-37.9-4.5-56.4-10.1-13.8-4.2-27.9-7.7-41.9-11.5l-10.2-2.7v-1.9a32.9 32.9 0 0 1 14.9-4.1c8.3-.5 17-.5 23.2-7.3s9.9-15.9-.3-24.4c-1.1-1-2.6-1.6-3.6-2.6s-3.9-4.4-2.9-7.7l2.3-.6c5.6-2 10-1 12.9 4.7 1.4 2.6 3.4 4.8 4.9 7.3 3.1 5.2 7.5 7.9 13.5 7.3s9.9-3.7 12.1-9.4a97.1 97.1 0 0 0 -6.7-8.8c-1.8-1.9-4.2-3.2-6.3-4.8 2.6-4.6 4.4-5.2 8.5-3s8.2 4.5 12.5 6.3 10.5 2.1 15.1-2a20.5 20.5 0 0 0 -14.4-22.4 58.1 58.1 0 0 0 -29.8-2 24.5 24.5 0 0 1 -15.8-2c-5.9-2.8-7.2-6.9-4.2-12.6 1.8-3.4 3.9-6.7 5.4-9.4 3.7 0 5.9.1 8 0zm103.6 78.6a106.1 106.1 0 0 0 -13.5-17.3c-3.2-3.6-7.6-6.2-11.6-9s-8.2-3.3-12.6.7-9.2 6.4-15.3 4.6c-3.6-1.2-6.1 1.3-8.4 3.3s-1.7 5.8 1.2 7.8c5.8 3.9 11.5 8 17.8 10.9 7.8 3.6 16 6.1 24.2 8.8a92.2 92.2 0 0 0 9 2.3c9.7.1 13.3-5.1 9.2-12.1zm-72 1.7a13.5 13.5 0 0 1 17.1 5.1c1.5 2.5.9 4.6-2 4.7s-6.7-.7-10-1.3a16.9 16.9 0 0 1 -3.7-1.5l-.9 1.2c1.5 1.4 2.8 3.3 4.5 3.9a47.8 47.8 0 0 0 10.7 2.6c2.9.4 6.5.4 7.3-3.1a11.6 11.6 0 0 0 -1.2-8.2c-4-6.5-18.2-10.1-25.2-6.8-.8.4-1 2-2.2 4.5 2.9-.6 4.4-.6 5.6-1.1z" fill="#cde0f3"/><path d="m950 845c-260.7-118.9-529.2-10.3-597.3-19.5 2.4-.2 3.1-1.2 3.2-3.6l-5 3.3 1.8.3h-1.5a117.6 117.6 0 0 1 -20.4-2.7c-9.3-2.1-18.3-5.7-27.7-7.4s-20.5-2.5-30.7-3.5c-8.3-.8-16.5-1.3-24.8-1.9 7.2-1.7 14.6-2.5 21.7-3.9 12.6-2.5 25-5.6 37.5-8 14.7-2.9 29.5-5.4 44.3-8.1s25.2 1.1 34.8 11.3l.5.5c2.7 2.6 6.2 4.4 8.8 6.2 10.4-4 10.9-11.2 10.4-18.8l9.9-6.5.5-.4s147.6-10.9 232.5-2.8 363.7 50.2 363.7 50.2-11.8 11.1 6.7 20.7 61.7 54.2-68.9-5.4z" fill="#aad1c7"/><path d="m1271.4 842.5c14.8 10.1 31.2 13.9 48.8 13.9 7.2.1 14.6 1.8 21.8 3.3s12.6 9.9 9.8 17.8c-.5 1.6-1.5 2.9-3 6 17.4-7.7 31.8-17.6 47.3-26.3-42.1-1.3-83.5-6.8-124.7-14.7z" fill="#cde0f3"/><path d="m1389.4 676.4-7.8-8.5c-2-2.4-3.7-5.1-6-7.3a162.2 162.2 0 0 0 -14.3-12c-2-1.4-5-1.1-7.1-1.5-5.4 5.7-4.4 10 1.6 17.5a33.4 33.4 0 0 0 13.5 9.6c6 2.4 12.8 2.8 19.2 4.1z" fill="#cde0f3"/><path d="m1311.1 761.7c-6.4-8.7-17.4-11.8-25.3-7.8-3.6 1.9-6.5 4.6-7.2 8.8s1.8 7.1 6.4 6c1.2-.3 2.7-.4 3.4-1.1 4.8-4.9 10.9-4.8 17.1-4.8 1.6-.1 3.2-.7 5.6-1.1z" fill="#cde0f3"/><path d="m413.6 775.5c-3.7-4.8-6-9.3-9.7-12.2s-6.8-1.6-11.2-1.1l8.4 13.3z" fill="#98b1cf"/><path d="m1253.1 881.9c-1.6-1-2.8-2.3-4.3-2.7-14.9-4.2-29.8-8.4-45.3-9.6-10.3-.8-20.5-2.3-30.8-2.8-5.5-.2-11.2.7-16.8 1.4-1.4.2-2.8 1.4-4.6 2.4 3.9 4.8 8.5 6.8 13.5 8.2 24.5 6.5 49.5 10.1 75 8.8 4.8-.3 9.8-.5 13.3-5.7z" fill="#142d38"/><path d="m23.4 696.9c20.2-.7 40.1 2.7 59.8 6.5 28.4 5.6 56.7 12.5 84 22.7 3.8 1.4 8.2 1.4 12.2 2.5 11.1 3 22.2 6.4 33.3 9.4 8.1 2.2 16.3 3.8 24.3 6s14.2 4.2 21.2 6.3c17.3 5.2 35.2 7.3 53 9.4 7.8.9 15.7 1.5 23.5 2.2l9.5 1.2c2 7.4 2.7 15 10.5 19.9-34.1 3.2-66 12.4-98.4 18.7-4.3.8-8.8.7-13.2 1.1-8.5.6-17.1 1.1-25.7 1.9s-15.8-4-20.4-11.7a21.6 21.6 0 0 0 -21.8-10.4 17.6 17.6 0 0 1 -20.4-15.2 73 73 0 0 1 -.6-13.2c.3-5.2-1.1-9.8-3.1-14.3a13.4 13.4 0 0 0 -14.6-7.5c-13.4 2.8-15.7 6.9-17.4 19.3-.1 1.2 0 2.4 0 3.7-3.5 2.7-6.1 1.5-8-1.7s-3.3-6.1-4.8-9.2c-4.5-9.5-12.2-10.2-19.9-3.1s-5.9 12.1-3.9 18.7c3.3 10.5 8.7 19.7 18.4 25.8 3.6 2.3 6.7 5.4 10.8 8.8-22.2-.2-40.4-6.9-54.8-22.9a76.4 76.4 0 0 0 -10.8-9.7c-15.3-11.3-30.5-22.7-46.1-33.5l1.1-30.6c7.4-.5 14.8-.9 22.3-1.1z" fill="#98b1cf"/><path d="m404.2 763.1s29.6-15.5 160.5 6.7l-150.9 5.9z" fill="#98b1cf"/><path d="m1051.6 780.1a48.5 48.5 0 0 1 6.6.1c9.7 1 19 3 26.2 10.3a14.7 14.7 0 0 1 2.4 16.8c-4.4 8.3-15.3 12.3-24.7 8.6-4.9-2-9.4-4.9-14-7.6s-6.2-3.9-9.3-5.9l-11-7c-1.3-.8-2.6-1.4-3.8-2.3-3.2-2.2-3.5-5.5-.2-7.7a20.3 20.3 0 0 1 7.4-3.2c6.7-1.2 13.5-1.9 20.3-2.8zm10.2 29.7a15.1 15.1 0 0 0 14.3-.1c7.1-3.7 8-11.7 1.7-16.7a26.4 26.4 0 0 0 -7.6-4.4c-12.1-3.7-24.4-5.4-36.8-1.2-1.3.5-2.5 1.3-4.8 2.5 11.6 7 22.3 13.7 33.2 19.9z"/><path d="m999.7 743.2a19.1 19.1 0 0 1 5.9-7.3 48.5 48.5 0 0 1 34.8-9.3c6.5.7 10.7 4.6 14.8 8.9a5.7 5.7 0 0 1 1.2 2.6c1.1 7.7-5.7 15.7-13.7 16.1-2.6.2-5.3-.5-8-.8-5.1-.7-10.2-1.6-15.3-1.8s-8.8.6-13.2.9c-6.2.2-9.1-3.7-6.5-9.3zm8.8 4.5c3.9 0 7.8-.5 11.8-.9 2.4-.2 4.8-.8 7.3-.9s4.7-.7 5.4 2.4c5.1-.6 10.3-1 15.3-1.9.9-.1 1.8-1.6 2.3-2.6 1.1-3-2.8-10.8-5.8-11.8-12.8-4.7-30.6 0-39.7 10.5a27 27 0 0 0 -2 3.3c2.1.7 3.7 1.9 5.4 1.9z"/><path d="m1438.4 775.3c10.7-2.6-26.4-43.3-34.4-25.3 0 0-9 4-14 4s38.9 23.6 48.4 21.3z" fill="#cde0f3"/><path d="m123.8 829.6c5.6 4.2 10 8.3 15 11.1 14.4 8 28.7 16.2 43.6 23 18.4 8.4 37.8 14.1 57.3 19.7a153.5 153.5 0 0 0 36.2 6.3c6.9.3 13.7 1.9 20.6 2.5a149.5 149.5 0 0 0 17.7.5c12.8-.5 25.7-.6 38.4-2.1 22.3-2.6 44.5-5.8 65.3-15l27.7-12.5a8.1 8.1 0 0 0 4.3-4.1c-7.6 1.6-15.3 3-22.9 4.9-11.1 2.8-22.3 3.3-33.7 2.9-21.4-.7-42.8-1.9-63.7-7.3-18.6-4.8-37.2-9.4-56-13.2-13.8-2.8-27.8-4.3-41.8-6-15.6-1.9-31.3-3.6-47.1-5.2-5.8-.6-11.8-.3-17.7-.9-13.9-1.3-27.8-2.9-43.2-4.6z" fill="#33596d"/><g fill="#cde0f3"><path d="m140.3 801.4c-18.5-3.5-33.3-13-45.8-26.5a64.5 64.5 0 0 1 -8.6-13.7c-1.8-3.6-1.4-7.5 1.7-10.9s6-3.9 8.9-2.7c3.3 6.4 5.9 12.2 9.2 17.6s4.9 4.4 9.5 3.1 5.5-2.8 6.2-6.5a101.6 101.6 0 0 1 3.6-11.9c1.9-5.8 5.5-8.1 10.3-6.8 6.8 1.7 9.7 5.2 8.6 11.5-2.2 12.8.2 23.7 11 32.2 5.4 4.2 10.4 7.5 17.5 4.6 1.5-.6 3.4-.5 5.1-.6 4.9-.2 7.1 1.2 9 5.9 1.2 3.1 2.1 6.3 3.2 9.9a277.7 277.7 0 0 1 -49.4-5.2zm.6-2.8c6.6.1 9.9-4.1 7.4-10.1a89.6 89.6 0 0 0 -7.4-13.6c-3-4.5-7.3-5.8-11.5-4.2s-4.6 4.4-4.5 9.3c.1 10.1 7.4 18.6 16 18.6z"/><path d="m393.9 801.3c3.4-7.1 4.1-13.4-.1-19.4-6-8.4-11.9-16.9-22-21.3-6.5-2.9-12.3-.7-17.3 2.6s-5.1 10.8.7 14.7 14.2 8.7 21.4 13c5.4 3.3 10.8 6.6 17.3 10.4z"/><path d="m1028.1 790.8c11.7 7 22.3 13.8 33.4 19.9 4.3 2.5 9.5 2.3 14.2-.1 7.1-3.7 8-11.7 1.7-16.7a23.2 23.2 0 0 0 -7.6-4.4c-12.1-3.8-24.4-5.4-36.9-1.2-1.3.5-2.5 1.3-4.8 2.5z"/><path d="m1002.6 746.6c2.1.7 3.7 1.9 5.4 1.9 3.9 0 7.8-.5 11.8-.9 2.4-.3 4.8-.8 7.3-.9s4.7-.8 5.5 2.4c5.1-.6 10.2-1 15.3-1.9.9-.1 1.8-1.6 2.2-2.7 1.2-2.9-2.7-10.7-5.7-11.8-12.9-4.7-30.8 0-39.8 10.6a27 27 0 0 0 -2 3.3z"/><path d="m1.7 744.1c10 6 18.4 13.9 27.2 21.3q3.8 3.1 7.5 6a288.4 288.4 0 0 1 31.4 27c5.4 5.3 11.7 9.7 17.8 14.4s12.7 10 19.3 14.7c13.1 9.5 26 19.3 40.3 27s31 16.3 47.2 22.7c24.2 9.4 48.7 17.2 74.6 20.6 16.4 2.1 32.7 3.8 49.3 2.9 14.2-.7 28.4-2.3 42.7-2.3 11.6-.1 22.6-3.8 34-4.6 5-.4 9.7-3.5 14.6-5.2s11.3-3.7 16.7-5.9a176 176 0 0 0 18.7-8.6c20.1-10.9 39.8-22.6 60.1-33.1 13.9-7.2 27.9-14.7 43.4-18.5 2.3-.5 4.7-1.3 3.7-4.3s-3.3-2.5-5.6-1.8c-9.5 2.6-19.1 5-28.4 8.1a463.4 463.4 0 0 0 -46.8 17.7 133.5 133.5 0 0 1 -35.9 11.1c-14.7 2.1-29.6 4.9-44.8 3.1a169.5 169.5 0 0 0 -21.4-1c-17.2.2-33.5-5.1-50.2-8.5-19.7-3.9-39.2-9.5-59.4-11.5-15.6-1.6-31.2-4.4-46.8-6.3a195.3 195.3 0 0 0 -22.9-1.3 268.2 268.2 0 0 1 -76.5-12.2c-11.9-3.7-19.6-7.5-26.8-13.8 2.1 0 3.4-.3 4.6 0 15.8 4.3 32.2 5 48.3 6.6 14 1.4 28.1 2 42 3.5s26.5 2.7 39.5 5.4 24.5 2.7 36.7 4c19.2 2 38.3 3.9 56.9 9.2 10.7 2.9 21.6 5.1 32.4 7.2 4 .7 8.3.2 12.4-.1 2.5-.3 4.6-1.4 4.8-4.6s1.1-9.3 1.4-13.9 1.8-6.9 6.1-5.7c7.9 2 16.2 4 20.5 11.9 2.8 5.4 7.4 4.3 11.5 3.9s7.5-3.3 9.4-7.4a1.7 1.7 0 0 0 .1-.7c.7-3.3.5-7.2 4.9-8s8.1 1.3 10.9 4.6 6.6 5.2 11.1 6.7c10.5 3.4 20.3 1 30.4-1.5 14.1-3.6 28-8.3 42.3-10.4 18.7-2.8 37.7-3.6 56.6-5.4 7.3-.7 14.6-1.9 21.9-3a17.8 17.8 0 0 0 5-1.4c5.1-2.3 5.9-4.5 4.5-10-.4-1.6-.6-4.6.2-5.1a8.8 8.8 0 0 1 6-.5c4.5 1.1 8.8 3 13.3 3.8 1.9.4 4.3-.6 6.1-1.7s3.6-4.2 1.7-7.5a15.6 15.6 0 0 0 -11.1-7.8c-6.8-1.2-13.5-2.4-20.3-3.3-5-.7-8.9-2.5-11.3-7.3 3.8-5.4 8.7-7.4 14.8-5.1s12 4.5 17.4 7.8c9.4 5.6 19.7 7.9 30 10.3 5.2 1.2 10.4-1.4 11.4-4.7s-2.2-9.2-6.5-11.2-7-2.5-10.3-4.2a28.8 28.8 0 0 1 -7.5-5.6c-2.1-2.2-1.2-4.4 1.8-5.5 7.7-2.9 14.4.3 20.9 3.9s15.7 9 23.6 13.5 19.8 6 30 6.2c16.8.4 33.5-.4 50.3-.6a103.6 103.6 0 0 1 11 .8c17.1 2.2 34.4 3.3 51.1 7 19.2 4.3 37.9 10.7 56.6 16.9a76.2 76.2 0 0 0 23 4c3 .1 6.1-1.6 9-2.7s4.3-2.5 6.7-3.2c5.6-1.6 8.4.7 8.1 6.6 0 2-.2 3.9-.3 5.7 6.5 6.6 10.5 6.3 19.3.9 6.9-4.2 13.3-9.4 17.2-16.9s12.8-13.3 21.1-17.7c11-5.7 22.9-5.5 34.8-5.2a8.7 8.7 0 0 1 4.7 1.9c3.2 2.3 3.5 5.6.3 7.9a17.2 17.2 0 0 1 -8 3.1c-8.4.7-16.7.8-25.1 1.2s-15.4 2.8-21.7 8.2c-2.6 2.3-4.5 4.8-3 8.3s4.5 3.6 7.5 3.3 4.8-.9 7.2-1.4c5.5-1.3 11-2.9 16.5-3.9s10 4.6 9.1 9.8c-1.1 7.2-7.9 11.5-15.5 10-5.2-1.1-10.6-2.1-15.9-3a18.7 18.7 0 0 0 -14 3.3c-1.8 1.3-3 3.5-4.2 4.9 7.3 12 18.7 16.7 30 21.5 15.7 6.6 31.5 12.7 47.1 19.4 19.5 8.4 38.6 17.6 58.2 25.7 13.4 5.6 26.3 12.5 40.7 15.5 16.1 3.4 32.3 6.5 48.5 9.6 10.4 2 20.9 4.9 31.3 5.2 19.2.6 38.4 2 57.7.3 22.8-2 45.8-2.5 68.6-3.9 17.5-1 34.9-2.8 52.1-6.5 12.6-2.6 25.3-4.3 37.8-7.3 16.2-3.9 32.3-8.7 48.5-13 7.8-2.1 15.7-3.7 23.5-5.9 21.4-5.9 42.7-11.8 64-18q20.5-5.8 40.8-12.6c10.3-3.4 20.3-7.8 30.6-11s23-5.7 34.2-9.3c16.1-5.2 32.9-6.4 49.4-8.8s31.7-4.3 47.6-5.3c22.2-1.5 44.3-.2 66.4 2.2 13.7 1.6 27.5 2.3 41.1 4.8s29.4 6.4 44 9.8v22.9l-3.5-1.2c-14.6-5.2-29.3-10.5-44.5-13.5s-30.7-7.3-46.7-7.4c-21-.1-42-1.2-62.9-1.1-15.1.1-30 2.3-44.9 4.9-18.8 3.3-36.7 9.2-54.8 14.9-21.6 6.8-43.7 12.2-65.4 18.5q-24.9 7.2-49.5 15.1c-13.5 4.3-26.7 10-40.5 13.7s-30.8 6.5-46.2 9.7l-23.8 5.3-20.3 4c-5.3 1.1-10.6 2.5-15.9 3.4-10.7 1.8-21.4 3.7-32.2 4.9s-22.2 1.1-33.1 2.5c-24.6 3.2-49.3 2.6-73.9 1.9-11.1-.3-22.2-.2-33.2-1.2-15.4-1.4-30.8-3.8-46.2-5.7-32.9-4-63.5-15.4-93.5-28.7l-47.9-21.4c-11.7-5.2-23.5-10.3-35.1-15.7l-63.8-29.5a486.9 486.9 0 0 0 -76.7-28.4c-18.1-4.9-36.1-10-54.3-14.5a140.5 140.5 0 0 0 -23.4-3.5c-14.2-1.1-28.5-2.6-42.7-2-29.1 1.2-57.8 6.5-86 13.4-13.6 3.3-26.8 8.3-40.1 12.9-10.7 3.7-21.4 7.6-31.8 11.8-7.1 2.9-13.7 6.7-20.7 9.9-16.5 7.6-33.2 14.9-49.5 22.8-9.3 4.5-18 10.4-27.2 15-14.1 7-28.3 13.8-42.8 20.1s-32.2 13.6-48.6 19.6c-7.6 2.8-15.8 4.1-23.7 5.6s-18 3.2-27 4.1a263.7 263.7 0 0 1 -26.6.9c-11.1-.1-22.4.5-33.2-1.6-26.6-5.1-53.6-8.2-79.3-17.5-18.7-6.7-37.9-12.3-56.7-19-9.5-3.3-18.4-8.5-27.8-11.8-18.4-6.5-36.5-13.7-55.7-17.4s-38.1-8-57.5-9.6c-4.8-.4-9.6-1.3-14.4-1.6l3.3-94.9c1.6 1.1 3.2 2.2 4.9 3.2z" stroke="#000" stroke-miterlimit="10" stroke-width="5"/></g><path d="m-1.4 847.7c10.5 1 21 2.5 31.5 4.1s23.9 3.7 35.7 6.2a187.6 187.6 0 0 1 24 7c17.7 6.1 35.3 12.5 52.9 19 11.5 4.2 22.8 9.1 34.3 13.4 23.1 8.6 46.6 16.2 70.8 20.7 14.3 2.7 28.9 3.3 43.1 6.2 21.1 4.3 42 1.1 62.7-.5a158.2 158.2 0 0 0 47.8-11.9c12.7-5.3 26-9.1 38.7-14.4s25.8-10.7 38.1-17.5c16.7-9.4 33.9-18.1 51.1-26.4 20.8-10.1 41.8-19.9 63-29.2 13-5.8 26.2-11.4 39.8-15.6a460.2 460.2 0 0 1 47.9-12.2 224 224 0 0 1 36.6-4c19.9-.5 39.9-.5 59.8.5a264.2 264.2 0 0 1 60.3 10.2c13.4 3.9 27.3 6.3 40.7 10.4s27.9 8.4 40.9 14.7c28.8 14 58.2 26.7 87 40.7 11 5.4 22.1 10.9 33.4 15.7 23.2 10 46.7 19.5 70 29.5 21.1 9.2 43.3 14.9 65.8 19.4a270.4 270.4 0 0 0 43.9 5.6c12.3.4 24.5 2.4 36.7 2.5a508.6 508.6 0 0 0 68.7-3.8c9.1-1.1 18.3-.9 27.4-1.8 14.9-1.5 29.9-2.6 44.7-5.2 25.3-4.3 50.5-9.3 75.5-14.7 13-2.9 25.6-7.2 38.3-10.9 23-6.8 45.9-13.5 68.8-20.5 12.2-3.7 24.3-8.1 36.5-11.9s21.6-6.8 32.6-9.4c20.1-4.9 40.7-8.1 60.4-14.2s36.7-6.8 55.3-7.6q25.2-1.2 50.4-.3c10 .3 20 2.4 30 3.9s20.4 3.2 30.4 5.6c14.3 3.3 28.6 7 42.9 10.6v26.4l-18.9-12.9c-12.4-3.1-24.7-6.6-37.3-8.8-9.6-1.7-19.6-1.7-29.4-2.4-4.5-.3-8.9-.7-13.3-.8-7.4-.1-14.7-.1-22.1.2-15.5.7-31.1 1-46.5 2.5-18.1 1.8-36.4 2.4-54.3 6.4-20.6 4.7-41 9.8-61.4 15.4s-39.7 13.4-59.6 20c-14 4.6-28.6 7.5-42.7 12.1-20.6 6.6-41.8 11-62.9 15.9-15 3.4-30.5 5.4-45.7 8s-28.2 4.8-42.4 6.9c-9.2 1.3-18.5 2.1-27.8 3s-17.2 1.9-25.8 2.1c-16.2.4-32.5.2-48.8.3-3.7 0-7.4 0-11.1.3-20.9 1.5-41.8-.9-62.8-.8-12.8.1-25-3.8-37.5-6.1-14.4-2.6-28-7.4-41.9-11.5a166.6 166.6 0 0 1 -20.7-7.9c-14.9-6.4-29.8-13-44.5-19.7-30.5-14-60.8-28.3-91.2-42.2q-24.9-11.4-50.1-21.9c-17.2-7.3-34.6-14.3-51.9-21.1-3.6-1.4-7.7-1.6-11.5-2.4-7.8-1.5-15.4-3.5-23.2-4.6-15.9-2.2-31.8-4.7-47.7-5.7s-33.5-.9-50.3-.6c-22 .3-43.6 4.4-65.3 8-25.1 4.2-48.8 12.9-72.7 21.2-10.8 3.7-20.2 10-30.7 14.2s-20.5 9.6-30.8 14.4c-6.2 3-12.6 5.5-18.7 8.7-15.2 8.1-30 16.9-45.4 24.6-13.4 6.7-27.2 12.7-41 18.4-11.6 4.8-23.5 9-35.4 13.1a98.4 98.4 0 0 1 -14.3 3.1c-15.1 2.6-30.1 5.5-45.3 7.3-9.2 1.1-18.7.7-28 .5-23-.3-45.4-5.2-67.7-10.1-14.7-3.2-29.5-5.9-43.6-11.2-8-3-15.8-6.6-23.9-9.7s-14.8-5.1-22.2-7.8l-44.2-16.4c-7.6-2.7-15.3-5.4-23.1-7.6-14.4-4.1-29-7.8-43.5-11.6q-4.6-1.2-9.3-2.1c-11.6-2.3-23.2-4.7-34.9-6.7l-1.1-.2.5-14.9a48.5 48.5 0 0 0 5.5.8z" fill="#142d38" stroke="#000" stroke-miterlimit="10" stroke-width="3"/><path d="m1917 852.8-3.5-1.3c-14.6-5.2-29.3-10.5-44.5-13.5s-30.7-7.3-46.7-7.4c-21-.1-42-1.2-62.9-1-15.1.1-30 2.2-44.9 4.8-18.8 3.3-36.7 9.3-54.8 15-21.6 6.7-43.7 12.1-65.4 18.4q-24.9 7.2-49.5 15.1c-13.5 4.4-26.7 10.1-40.5 13.8s-30.8 6.4-46.2 9.6l-23.8 5.3-20.3 4c-5.3 1.1-10.6 2.5-15.9 3.4-10.7 1.8-21.4 3.7-32.2 4.9s-22.2 1.1-33.1 2.5c-24.6 3.3-49.3 2.7-73.9 2-11.1-.3-22.2-.2-33.2-1.3-15.4-1.4-30.8-3.7-46.2-5.6-32.9-4.1-63.5-15.5-93.5-28.8l-47.9-21.4c-11.7-5.2-23.5-10.3-35.1-15.6l-63.8-29.6a476.7 476.7 0 0 0 -76.7-28.3c-18.1-4.9-36.1-10-54.3-14.5a140.7 140.7 0 0 0 -23.4-3.6c-14.2-1.1-28.5-2.6-42.7-2-29.1 1.2-57.8 6.5-86 13.4-13.6 3.4-26.8 8.4-40.1 12.9-10.7 3.7-21.4 7.6-31.8 11.9-7.1 2.8-13.7 6.6-20.7 9.8-16.5 7.6-33.2 14.9-49.5 22.8-9.3 4.5-18 10.4-27.2 15-14.1 7-28.3 13.9-42.8 20.1s-32.2 13.6-48.6 19.6c-7.6 2.8-15.8 4.1-23.7 5.6s-18 3.3-27 4.1a237.4 237.4 0 0 1 -26.6 1c-11.1-.2-22.4.4-33.2-1.7-26.6-5-53.6-8.2-79.3-17.4-18.7-6.8-37.9-12.4-56.7-19.1-9.5-3.3-18.4-8.4-27.8-11.8-18.4-6.4-36.5-13.7-55.7-17.4s-38.1-8-57.5-9.5c-4.8-.4-9.6-1.3-14.4-1.6l-.4 11.1 5.5.7c10.5 1 21 2.5 31.5 4.1s23.9 3.7 35.7 6.2a226.6 226.6 0 0 1 24 7c17.7 6.1 35.3 12.5 52.9 19 11.5 4.3 22.8 9.1 34.3 13.4 23.1 8.7 46.6 16.2 70.8 20.8 14.3 2.6 28.9 3.2 43.1 6.1 21.1 4.4 42 1.1 62.7-.5a155.4 155.4 0 0 0 47.8-11.9c12.7-5.3 26-9.1 38.7-14.4s25.8-10.6 38.1-17.5c16.7-9.4 33.9-18 51.1-26.4q31.2-15.1 63-29.2a377.4 377.4 0 0 1 39.8-15.6 486.8 486.8 0 0 1 47.9-12.2 223.9 223.9 0 0 1 36.6-3.9c19.9-.6 39.9-.5 59.8.4a264.2 264.2 0 0 1 60.3 10.2c13.4 3.9 27.3 6.4 40.7 10.4s27.9 8.5 40.9 14.8c28.8 13.9 58.2 26.6 87 40.7 11 5.3 22.1 10.8 33.4 15.7 23.2 10 46.7 19.4 70 29.5 21.1 9.1 43.3 14.8 65.8 19.3a270.4 270.4 0 0 0 43.9 5.6c12.3.5 24.5 2.4 36.7 2.5a508.6 508.6 0 0 0 68.7-3.8c9.1-1.1 18.3-.9 27.4-1.8 14.9-1.5 29.9-2.6 44.7-5.2 25.3-4.3 50.5-9.3 75.5-14.7 13-2.8 25.6-7.1 38.3-10.9q34.5-10 68.8-20.4c12.2-3.8 24.3-8.1 36.5-12s21.6-6.7 32.6-9.4c20.1-4.9 40.7-8.1 60.4-14.1s36.7-6.8 55.3-7.7q25.2-1 50.4-.3c10 .4 20 2.4 30 4s20.4 3.2 30.4 5.5c14.3 3.4 28.6 7 42.9 10.6z"/></svg>