<svg height="1940" viewBox="0 0 1919 1940" width="1919" xmlns="http://www.w3.org/2000/svg"><path d="m747.2 801c83-3.6 206.7 44.7 300.4 85.7l493.9 16.6c85.1-24.5 175.6-51.3 254.5-51.3 55.8 0 95.7 10 123.7 22.3l.3-318.4c-25.6 4.4-52.6 4-80-4-127-37-236-24-340 1s-112 23-250 0-108-89-374-25-289 53-289 53c-172.8-36.7-258-100-390-151a463.2 463.2 0 0 0 -52-16.7c-66.4-17.1-117.8-14-145-16.5v454.7l523.1 17.6c74.2-32.4 154.9-65 224.1-68z"/><path d="m1174 941c38 8 62 5 180 2 52.9-1.3 118.4-19.8 187.5-39.7l-493.9-16.6c62.2 27.2 111.2 51.1 126.4 54.3z"/><path d="m339 936c42.9-2.5 110.3-34.6 184.1-67l-523.1-17.6v3.3c103.4 18.6 264.4 85.6 339 81.3z"/><g stroke-miterlimit="10"><path d="m1727 548.5c9.6.5 19.2 1.1 28.7 2.5 11 1.5 22 3.8 33 5.8l17.9 3.2 54.5 9.5c8.7 1.4 17.4 3.5 26.2 3.9s18.6.4 28 .3v14l-2.1-.3c-10.5-1-21-2.4-31.6-2.8-15.6-.4-30.6-4-45.9-6.7-16.9-3-33.9-5.6-50.8-8.3l-9-1.2c.4.1-1.2.6-2.5-.2-3.2 1.1-5.9.2-9.2-1.1-5.6-2.2-11.9-2.6-17.9-3.8l-2.6 4.2c-1.7-.6-4.2-.8-4.7-1.8-3.7-8.3-10.9-3.3-17.4-6.9.4 2.1-.6.9-.4 1.8-4.7 3.9-7.3-7.2-12.5-1.4 1.2 3.6 4.6 3.7 7.6 4.4 10.9 2.9 21.9 5.5 32.9 8.4a34.1 34.1 0 0 1 8.3 2.9c3 1.7 5.3 1.4 6.8-.5 2.9 2 5.2 3.9 7.8 5.2 8.9 4.1 18.2 6.8 26.8 11.9 19.3 11.5 40.5 18.9 61.7 26 16.3 5.5 32.9 9.8 49.5 14.5 1.7.5 3.5.8 5.2 1.2v21c-4.5-1.6-9-3.2-13.6-4.6-9.6-2.9-19.3-5.5-29-8.1-6.8-1.8-13.7-3.3-20.5-5-1.7-.4-3.2-1.3-4.8-1.8-5.3-1.9-10.7-3.5-15.9-5.5s-11.6-4.7-17.3-7.4c-14.5-6.7-28.8-13.8-43.3-20.4-10.6-4.7-21.8-7.9-31.9-13.3-13.1-6.8-26.8-11.8-40.6-16.8-5.5-2-10.7-4.8-16.1-7.2-2-.8-4-1.2-5.6.8h-.3c-.6-3.9-4-4-7-4.8l-38.2-9.7a27.5 27.5 0 0 1 4.4-1.2c15.8-2.2 31.8-2.2 47.7-2.8a60.3 60.3 0 0 0 8.5-1.4c1.2-.2 2.7-.8 3.5-.3 5 2.8 10.5 1.7 15.8 2.4" fill="#abd2c8" stroke="#abd2c8" stroke-width="2.96"/><path d="m1608.8 665.5 4.4-2.1-5-2-3.1 3.6a5.9 5.9 0 0 1 -2-.7c-3.7-2.9-7.1-6.3-11.1-8.8s-11.6-6.1-17.3-9.3c-11.1-6.3-22.5-12.3-33.2-19.3-13.3-8.6-25.8-18.2-38.9-27.1-11.5-7.9-23.3-15.5-35.6-23.6 13.6-5.4 28-6.2 41.7-9.6s29-6.2 43.7-8.5 28.9-3.7 43.9-5.5l2-5.5 3 7 5-1.8c1.8-.7 3.3-1.6 5 .8s4.4-.4 5.2.6c3.4 4.4 8.4.2 12.5 2.9s8.9 1.9 13.5 2.4a95 95 0 0 0 9.5.1c5.5 2.1 12.3 5 19.3 7.2 1.9.5 4.3-.8 6.5-1.5a.4.4 0 0 1 .1.3l.3-.4h.1c-1.8 3.9-1.3 5.3 1.5 4.3 5.2-1.8 9.4 2.1 14.2 1.7.6-.1 1.3 1.1 1.8 1.8 2.3 3 4.9 5.4 9.2 4.2a2.6 2.6 0 0 1 2.1.1c10.7 7.4 23.7 10.5 34.8 17.2a7.7 7.7 0 0 0 4.5 1.4c4.3-.9 7.7 1.2 10.8 3.3 7 4.8 14.7 7.9 22.3 11.4l18.1 8c10.7 4.6 21.3 9.5 32.2 13.6 12.7 4.9 25.5 9.8 38.7 13.4 9.8 2.8 18.5 8.7 29.1 9 1.9.1 3.6 1.4 5.5 2l12.3 3.7v19.3l3.1.8 1.8 134.1c-150.4-1.4-311.5-148.5-311.5-148.5z" fill="#98b1cf" stroke="#99b2d0" stroke-width="2.2"/><path d="m1595.7 668.9-1.7-.9h.3a5.5 5.5 0 0 1 1.4.9z" fill="#33596d" stroke="#33596d" stroke-width="6"/></g><path d="m1676.5 565.3.4-.4c-1.8 4-1.4 5.4 1.5 4.4 5.2-1.9 9.4 2.1 14.3 1.6.5 0 1.3 1.2 1.8 1.9 2.3 3.1 4.9 5.5 9.2 4.3a2.8 2.8 0 0 1 2.2.1c10.8 7.5 23.8 10.6 34.9 17.4 1.4.9 3.2 1.7 4.6 1.4 4.4-.9 7.7 1.2 10.8 3.4 7.1 4.8 14.9 8 22.5 11.5 6 2.8 12.1 5.5 18.1 8.1 10.8 4.7 21.5 9.6 32.4 13.8 12.9 4.9 25.7 9.9 39 13.6 9.8 2.7 18.6 8.8 29.3 9.1 1.8 0 3.6 1.4 5.5 1.9 6.7 2.1 13.4 4.2 20.2 6 1.3.3 2.9-.8 5.6-1.7-2.3-2-3.5-3.8-5.1-4.4-7.2-2.8-14.5-5.4-22-7.7-9.6-2.9-19.3-5.5-29-8.1-6.8-1.8-13.7-3.3-20.5-5-1.7-.4-3.2-1.3-4.8-1.8-5.3-1.9-10.7-3.5-15.9-5.5s-11.6-4.7-17.3-7.4c-14.5-6.7-28.8-13.8-43.3-20.4-10.6-4.7-21.8-7.9-31.9-13.3-13.1-6.8-26.8-11.8-40.6-16.8-5.5-2-10.7-4.8-16.1-7.2-2.1-.9-4.3-1.2-5.8 1.2z"/><path d="m1802.7 586.5-2.3 2.4 1.8.6c.2-1.2.3-2.4.4-3.6z" fill="#fff"/><path d="m1860.6 617.5c-21.2-7.1-42.4-14.5-61.7-26-8.6-5.1-17.9-7.8-26.8-11.9-2.6-1.3-4.9-3.2-7.8-5.2-1.5 1.9-3.8 2.2-6.8.5a34.1 34.1 0 0 0 -8.3-2.9c-11-2.9-22-5.5-32.9-8.4-3-.7-6.4-.8-7.6-4.4 5.2-5.8 7.8 5.3 12.5 1.4-.2-.9-.3-1.8-.7-3.8 6.5 3.5 14.8.6 18.5 8.9.5 1 3 1.2 4.7 1.8l2.6-4.2c6 1.2 12.3 1.6 17.9 3.8 3.3 1.3 6 2.2 9.2 1.1.7 1.5 1.2 2.8 2 4.5 2.6-4.1 6.2-3.6 9.5-3.1 16.9 2.7 33.9 5.3 50.8 8.3 15.3 2.7 30.3 6.3 45.9 6.7 10.6.4 21.1 1.8 31.6 2.8l2.1.3v7.3a91.4 91.4 0 0 1 -11.7.3c-12-.5-24-1.5-35.8-4.1-13.9-3-28-5.1-42.1-7.5-10.9-1.8-21.8-4.7-34.8-5.2l11.8 8v-.6c4.4 2.1 9.1 3.9 13.3 6.4a134.7 134.7 0 0 0 35.1 15c20.5 5.7 40.6 12.9 61.7 16.9l2.6.5v8.5c-1.7-.4-3.5-.7-5.2-1.2-16.7-4.7-33.3-9-49.6-14.5z" fill="none"/><path d="m1897.5 655.5c-10.7-.3-19.5-6.4-29.3-9.1-13.3-3.7-26.1-8.7-39-13.6-10.9-4.2-21.6-9.1-32.4-13.8-6-2.6-12.1-5.3-18.1-8.1-7.6-3.5-15.4-6.7-22.5-11.5-3.1-2.2-6.4-4.3-10.8-3.4-1.4.3-3.2-.5-4.6-1.4-11.1-6.8-24.1-9.9-34.9-17.4a2.8 2.8 0 0 0 -2.2-.1c-4.3 1.2-6.9-1.2-9.2-4.3-.5-.7-1.3-1.9-1.8-1.9-4.9.5-9.1-3.5-14.3-1.6-2.9 1-3.3-.4-1.5-4.4h-.2c1.6-2 3.6-1.6 5.6-.8 5.4 2.4 10.6 5.2 16.1 7.2 13.8 5 27.5 10 40.6 16.8 10.1 5.4 21.3 8.6 31.9 13.3 14.5 6.6 28.8 13.7 43.3 20.4 5.7 2.7 11.5 5.1 17.3 7.4s10.6 3.6 15.9 5.5c1.6.5 3.1 1.4 4.8 1.8 6.8 1.7 13.7 3.2 20.5 5 9.7 2.6 19.4 5.2 29 8.1 4.6 1.4 9.1 3 13.6 4.6v7l-12.3-3.8c-1.9-.5-3.7-1.9-5.5-1.9z" fill="none"/><path d="m1851 607.3a134.7 134.7 0 0 1 -35.1-15c-4.2-2.5-8.9-4.3-13.3-6.4v.6l-11.8-8c13 .5 23.9 3.4 34.8 5.2 14.1 2.4 28.2 4.5 42.1 7.5 11.8 2.6 23.8 3.6 35.8 4.1a91.4 91.4 0 0 0 11.7-.3v29.7l-2.6-.5c-21-4-41.1-11.2-61.6-16.9z" fill="#33596d"/><path d="m1676.5 565.3c0-.1-.1-.2-.1-.3h.3a.5.5 0 0 1 -.2.3z" fill="#fff"/><path d="m1773.4 568.2c-3.2 0-6.2-1-9-1.7-5.9-1.4-12.1-2-18.1-3.2-.8-.4-2.4-.6-3.2-.9a29.1 29.1 0 0 0 -3.8-.8c-5.6-2.4-10.6-2.8-16.3-4.2a8.2 8.2 0 0 0 -2.7-.1c-.8.2-3.8-2.8-3.7-2-3.4 0-2.7-1.9-7.9 3.9 1.2 3.6 4.6 3.7 7.6 4.4 10.9 2.9 21.9 5.5 32.9 8.4a34.1 34.1 0 0 1 8.3 2.9 10.7 10.7 0 0 0 4 1.4 32.6 32.6 0 0 1 6 1.4l4.6 1.9c8.9 4.1 18.2 6.8 26.8 11.9 19.3 11.5 40.5 18.9 61.7 26 16.3 5.5 32.9 9.8 49.5 14.5 4.5 1.2 9.1 1.8 13.7 2.6 2.4.4 2.5.3 5.2-3-4.3-5-10.5-6.3-16.3-7.4-20.9-3.9-40.9-11-61.2-16.7a156.5 156.5 0 0 1 -36.4-15.7c-4-2.3-8.4-3.9-12.5-5.9-.1 1.2.7 2.4.5 3.6l.2-2.5c.7-.8-1.4.3-.6-.5l-11.8-8c13 .5 23.9 3.4 34.8 5.2 14.1 2.4 28.2 4.5 42.1 7.5 11.8 2.6 23.8 3.6 35.8 4.1a120.5 120.5 0 0 0 14.7-.6c2.8-.2 2.8-.5 4.1-5.6-3.1-.6-6.1-1.4-9.2-1.7-10.5-1-21-2.4-31.6-2.8-15.6-.4-30.6-4-45.9-6.7-16.9-3-33.9-5.6-50.8-8.3z"/><path d="m1249.8 569.2c-3.3-.5-6.4-.8-5.9-4.4-3.2.1-6.5 1.1-9.3.2-12.6-4-25-8.6-37.4-13-6.9-2.5-13.8-4.9-20.5-7.6-10.6-4.3-22.1-6.6-33.2-9.3s-22-5.2-33.1-7.3c-19-3.7-38-7.2-57.5-7.9-17.9-.6-35.5.9-53.3 2.8-24.3 2.6-48 8.4-72 11.9a160.9 160.9 0 0 0 -20.9 4.1c-4.1 1.1-7.9 3.7-11.8 5.7a20.7 20.7 0 0 1 -2.4 1.7c-15.1 7.7-30.3 15.1-47.5 16.9a172.9 172.9 0 0 0 -20.3 3.8c-1.3.3-2.3 2.1-4.7 4.4 4.4.7 7.2 1.6 9.9 1.4 8.3-.7 16.6-2 24.9-3s13.7-.9 20.4 1.8c2.4 1 5.5 1.2 6 4.6s-.8 7.3-3.9 9c-11.1 6.2-22.5 11.8-35.3 14.4s-25.8 6-38.7 9.1c-.5.1-.9.6-1.3 1.1h-.2c0 .1-.1.1-.1.2h-3.2c-6.6.2-13.1.3-19.6 1a274.6 274.6 0 0 1 -47.1 1.1c-17.9-1.3-35.8-2.5-53.6-4.4-25.9-2.8-51.7-6.1-77.6-9.2-6.3-.8-12.6-1.7-18.9-2.4-.9-.1-1.8.2-4.3.5 5.3 3.5 9.3 6.4 13.6 9.1 9.2 5.8 16.4 13.9 24.3 21.1 11.7 10.6 23.6 21 36.3 30.2 9.7 7 21.3 8.8 33.1 5.4l1.2-.4c13.2-2.1 147.3-23.6 199-55h.4c19.6-4 37.7-12.6 56-20.2 20.2-8.4 40.3-16.7 61.9-21.4 19-4.1 38-7.8 57.4-9.7 25.8-2.5 50.8 1.3 75.3 9.1 3.1.9 6.2 1.4 9.3 2.2 9.7 2.7 19.2 5.7 29 7.9 21.8 4.9 43.2 12.1 65.9 11a75.4 75.4 0 0 0 8.1-1.2l38.4-7.3a31.8 31.8 0 0 0 4.3-1.2zm-281.1-15.2a14.9 14.9 0 0 1 -3 4.1 57.6 57.6 0 0 1 -32.3 14.4c-7.5 1-14.7-2.3-21.2-.8-4.6-.3-8.2-.3-11.8-.7s-6.1.3-6.8-2.9a26.2 26.2 0 0 1 0-10.8c1-3.7 4.5-5.9 8.2-6.8 10.4-2.7 20.8-5.6 31.3-7.4s20.7-3 31 1.3c6.1 2.6 7.2 3.8 4.6 9.6z" fill="#aad1c7"/><path d="m634.1 596.3 24 2.5c9.8 1.2 19.5 2.6 29.2 3.7 6.9.7 13.7 1.2 20.6 1.7a406.8 406.8 0 0 0 128.2-10.5c10.1-2.5 19.8-7 29.7-10.6 2.4-.8 4.7-1.9 4.3-5.7-1.4-.4-2.9-1.2-4.4-1-6.4.6-12.7 1.4-19 2.4-8.9 1.5-17.6 2.3-26.3-.5-2.7-.9-5.2-2.3-7.7-3.4 1.1-7.9 6.1-11.3 12.2-13.1 11.1-3.1 22.4-5.5 33.4-8.7 7.2-2.1 14.1-5.1 21.1-7.6l-.5-1.5c-2.1.3-4.3.5-6.4.9-23.7 4.5-47.4 8.8-71 13.6s-45.3 8.9-67.4 15.9c-11.4 3.6-23.5 5.1-35.2 7.7-14 3.1-27.8 6.6-41.8 9.4-7.6 1.5-15.5 1.9-23.2 2.8.1.7.1 1.3.2 2z" fill="#33596d"/><path d="m1401 639s-9 2-65 43-502 32-502 32l2.9-1.4c-234.2 27.2-316.3-83.1-320.7-89.3-7.2-6.9-13.9-14.5-21.8-20.4-17.6-13.4-35.3-26.6-56.1-35.1-13.3-5.5-26-12.8-39.5-17.9s-23.8-10.2-36.8-12.5c-9.3-1.6-18.5-4.6-27.7-6.9a7.5 7.5 0 0 0 -2.9-.4c-5.4.9-10.1-1.5-14.9-3.3-1.3-.6-3.2-1.7-4-1.2-6.1 4-12 1.2-18 0 .3-.6.9-1.3.7-1.8s-1.1-.9-1.7-1.4-.5 1.2-.3 1.7.8 1 1.3 1.5c-9.4-3.4-19.4-1.7-29.1-2.7-3.3-.4-6.7-1.1-10-1.7-1-.1-2.1-.5-2.9-.2-9.4 4-19.4.2-29 2.2l-10.6 2.1c-.7.2-1.6.7-2.1.4-6.5-3.3-12.9.9-19.5.3-8.1-.8-16.5 1.2-24.7 2.2s-17.5 2.4-26.3 3.6c-1.2.2-2.6.7-3.6.4-7.3-2.4-14.3 1.1-21.4.9s-14.8 1-22.1.1c-9.8-1.3-19.4.9-29.1.1-4.6-.4-9.1-1.7-13.7-2.4-14.4-2.4-37-7-51.4-9.5l-1-35c.9.3 12.3 2.3 13.3 2.5 24.5 4.3 49 6.7 74 4.6 8-.6 16.2-.2 24.3 0 27.8.7 55.6 1.6 83.4 2.4 7.7.2 15.3.8 22.9.6s9.1-2.5 10.4-9.3c-7-4-14.1-8.5-21.4-12.3s-16.8-8-25.2-12l-4.6-2-28-9.2a24.8 24.8 0 0 0 -3.5-1.3l-37.5-7.2c-9.2-1.7-18.3-3.6-27.5-5.1-11.1-1.9-22.3-4-33.5-4.9s-19.7-.1-29.5.2c-1.8.1-15.5 1.9-17.4 2.6l.6-16.8c6 2 24.2-.8 30.2-.5 9.3.5 18.6-.2 27.9.5 16.7 1.3 33.4 2.4 49.8 5.2 23.3 4 46.4 9.1 68.7 17.2 17.5 6.4 35.2 12.3 52.7 18.9 8.7 3.2 17 7.5 25.4 11.5q25.3 12 50.5 24.4c18.7 9.2 37.1 19 56 27.9 20.9 9.9 42.1 19.1 63.4 28.2 7.8 3.3 16.3 5.4 24.4 8.1 3.5 1.2 6.8 2.8 10.3 3.9 7 2.3 14 4.5 21.1 6.5 16.8 4.7 33.7 8.9 50.4 14.1 11 3.4 22.3 6.3 32 13.1a52.1 52.1 0 0 0 8.5 4.3c18.6 8.2 33.4 21.4 47.7 35.4 8.1 7.9 17.1 14.8 25.5 22.3 1.9 1.7 5.4 1.9 5.3 5.6h.4l50.2 1.4c-19.5 3.2-31.7 4.7-31.7 4.7 15.7 1.4 53.3-.3 94.4-2.9l28.8.8 81.9-8.9c-29.4 2.3-71.6 5.6-110.7 8.1l-62.7-1.8c45.9-7.6 132.4-24.8 193.2-54.4l1.7.2-1.7-.5a70.3 70.3 0 0 1 6.5-3.4c10.6-3.8 21.3-7.3 31.9-11.3 14-5.3 27.7-11.3 41.8-16.6 21.7-8.2 44.5-12.2 67.2-16.2 6.3-1.1 12.7-2.9 19-2.8 11.8.2 23.5 1.4 35.3 2.5a256.6 256.6 0 0 1 54.1 10.7c16.4 5.1 33.4 8.1 50.1 11.9 5.6 1.3 11.3 2.2 17 3.3.1.4.1.7.2 1.1h.5c97 21.3 185 47.3 185 47.3z" fill="#98b1cf" stroke="#99b2d0" stroke-miterlimit="10" stroke-width="2.22"/><path d="m761.9 669.2c-41.1 2.6-78.7 4.3-94.4 2.9 0 0 12.2-1.5 31.7-4.7z" fill="#98b1cf" stroke="#99b2d0" stroke-miterlimit="10" stroke-width="2.22"/><path d="m1113 635.4a72.8 72.8 0 0 1 -9.8 4.6l-10.3 3.6z" fill="#98b1cf" stroke="#99b2d0" stroke-miterlimit="10" stroke-width="2.22"/><path d="m148.4 461.7c22.2 7.3 45 13.4 65.6 25.1a11.6 11.6 0 0 0 -.4 1.8c-6.6-.7-13.1-1.7-19.6-2-9.1-.5-18.1-.5-27.2-.8-7.1-.3-14.2-.9-21.3-1.1-16.7-.4-33.3-.8-50-.9-11.1-.1-22.1.4-33.1.5-2.5.1-4.9-.4-7.4-.4-6.6-.1-13.2-.3-19.8-.1-9 .2-27.7-2.2-36.2-5.4v-34c23-4 57.4-2.5 80.4 2.2s46.8 7.8 69 15.1z" fill="#33596d"/><path d="m900.4 571c-2.5-.3-6.1.3-6.8-3a25.7 25.7 0 0 1 0-10.7c1-3.7 4.5-5.9 8.2-6.8 10.4-2.7 20.8-5.6 31.3-7.4s20.7-3 31 1.3c6.1 2.6 7.2 3.8 4.6 9.6a14.9 14.9 0 0 1 -3 4.1 57.6 57.6 0 0 1 -32.2 14.4c-7.6 1-14.8-2.3-21.3-.8-4.6-.3-8.2-.3-11.8-.7zm34.5-22.6c-9.6 1.8-19.3 3.8-29 5.3-4.8.7-7 3.7-9 7.6 3.5 3.5 7.7 3.7 11.8 3.7 11.1.2 22.1.1 33-3s10-2.5 17-11.6c-7.9-2.4-15.7-3.6-23.8-2z"/><path d="m45.1 433.2c11.2.9 22.4 3 33.5 4.9 9.2 1.5 18.3 3.4 27.5 5.1l37.5 7.2a19.9 19.9 0 0 1 3.4 1.3l28.1 9.2 4.6 2c8.4 4 17 7.7 25.2 12s14.4 8.3 21.4 12.3c-1.3 6.8-3.6 9.1-10.4 9.3s-15.3-.4-22.9-.6c-27.8-.8-55.6-1.7-83.4-2.4-8.1-.2-16.3-.6-24.3 0-25 2.1-49.5-.3-74-4.6l-2.9-.7.2-7.2c8.9 1 17.8 2.1 26.6 2.8 6.6.4 13.2 0 19.8.1 2.5 0 4.9.5 7.4.4 11-.1 22-.6 33.1-.5 16.7.1 33.3.5 50 .9 7.1.2 14.2.8 21.3 1.1 9.1.3 18.1.3 27.2.8 6.5.3 13 1.3 19.6 2a11.6 11.6 0 0 1 .4-1.8c-20.6-11.7-43.4-17.8-65.6-25.1s-45.9-10.4-69-15.1-46.4-3.4-69.4-3.9l.2-7.7a19.4 19.4 0 0 1 5.4-1.6c9.8-.3 19.7-.9 29.5-.2z" fill="none"/><path d="m761.9 669.2c-41.1 2.6-78.7 4.3-94.4 2.9 0 0 12.2-1.5 31.7-4.7z" fill="#98b1cf" stroke="#99b2d0" stroke-miterlimit="10" stroke-width="2.22"/><path d="m1114 635-1 .4.7-.4z" fill="#98b1cf" stroke="#99b2d0" stroke-miterlimit="10" stroke-width="2.22"/><path d="m557 681s-243 7-554.7-34.8l-3.2-112.4s43.9 26.2 139.9 9.2 277-32 418 138z" fill="#aad1c7"/><path d="m1290.9 576.1s266.1 82.9 308.1 116.9-188-70-404-113" fill="#aad1c7"/><path d="m1697 750-14 4c-4-17-91.3-75.7-91.3-75.7s-5.4-4.9-9.5-9.4l-1.8-.5a41.2 41.2 0 0 1 -7.9-1.8l-33.3-11.9c-6.9-2.5-14.1-4.3-20.8-7.4-18.9-8.6-37.7-17.7-56.5-26.6-2.5-1.2-5-2.2-7.5-3.2-14.6-6.4-29.1-13-43.8-19.2-6.4-2.8-13.1-5-21-8 2.6-1 3.8-1.8 5-2 7.2-1.6 14.5-3.1 21.7-4.5 16.8-3.2 25.1-1.8 41.4 3s27.4 12.7 39.9 21.3c2.4 1.6 5.1 2.7 7.3 4.5 8.8 7 17.2 14.5 26.1 21.3 5.1 3.9 11 6.6 16.3 10.1 9.7 6.6 19.9 13.1 30.6 18a114.1 114.1 0 0 0 16 6h.1l1.7.9c35.4 20.1 101.3 81.1 101.3 81.1z" fill="#33596d" stroke="#33596d" stroke-miterlimit="10" stroke-width="6"/><path d="m1593.9 668a114.1 114.1 0 0 1 -16-6c.7-1.2 5 0 16 6z" fill="#33596d" stroke="#33596d" stroke-miterlimit="10" stroke-width="6"/></svg>