<svg height="1940" viewBox="0 0 1919 1940" width="1919" xmlns="http://www.w3.org/2000/svg"><path d="m1920 706c-24-11-84-23-101-27s-79-14-100-28-29 8-29 8-2-12-25-16-19 15-19 15c-12 3-3 13-3 13-18-9-19 4-19 4h16.3l3.5.2-3.5-.2h-16.3c-60-2-95-32-118-43s-108-60-203-62-251 80-276 82-109 0-300 11-206-43-206-43c-82-74-108-68-174-89s-201 3-261 0-89-17-89-17l1 320 141 38 405-33 39.6 9.3c22.9-8.1 102.6-33.8 189.4-31.3 103 3 312.3 106.2 312.3 106.2l-.6.6 36.3-1.8 319.8 20.4c52.6-7.5 119.1-27.7 139.2-33.4s56-26 153-38c91.7-11.3 129.8-3 133.7-2.1l52.3-10.9z"/><path d="m1640.3 675.5 3.5.2z"/><path d="m1915.3 712.5v18h-.6c-16.7-3.1-33.5-5.4-50.5-5.3-9.8.1-19.7.8-29.5 1.7s-21.1 1.7-31.5 3.5-21.1 4.6-31.6 7-18.2 4.2-27.3 6.6c-13 3.4-26.1 6.2-38.7 11.2-9.5 3.7-19.8 5.5-29.8 8.2-7.1 2-14.1 4.3-21.3 6s-14.4 3.4-21.6 3.9c-5.3.5-10.7-1.3-16.1-1.5-15.4-.6-30-4.8-44.7-8.9s-28.8-8.1-42.9-13a99.3 99.3 0 0 1 -21-10.8l-7.8-5.3 3.1 3.8c-33-20-97-45-97-45s-15-6-29-8c-8.3-1.2-21.2-5.5-30.3-8.9h-.1l-2.5-.6c-8.3-2-16.6-4.1-25-5.6-12.5-2.4-25.1-4.9-37.8-6.2-15.1-1.5-30.2-3.7-45.5-2.4-11.3 1-22.6.2-33.9.5-4.1.1-8.2 1-12.4 1.4l-53.5 5.3c-.9.1-1.9 0-4.2 0a54.1 54.1 0 0 1 16.1-10.8c9.3-3.8 16.2-10.9 24.1-16.6 19.7-13.9 37.5-30.5 59.6-40.8 9.9-4.6 20.6-7.8 31.3-10.4 14.5-3.4 29.1-7 44.1-7.3a58.1 58.1 0 0 1 10.2.5 119 119 0 0 1 15.8 3c2.9.8 5.3 3.1 8 4.4 8.5 4.1 17.5 7.4 25.6 12.1 12.6 7.1 24.4 15.4 36.9 22.8 14.9 8.8 26.6 21.7 41 31.2 9.8 6.5 18.1 14.8 27 22.3a486.7 486.7 0 0 0 40.9 30.4c7.6 5.1 16.7 8.2 25.4 11.6a200.3 200.3 0 0 0 25.2 8.2c10.7 2.7 21.7 3.1 32.9 3a258.7 258.7 0 0 0 50.5-5.6c12.4-2.7 24.6-6.9 36.8-10.6 1.2-.3 2.2-1.9 2.8-2.5 2.4 0 4.8.4 6.9-.1 6.4-1.6 12.6-3.9 19-5.4a201.8 201.8 0 0 1 20.3-3.9c22.6-3.1 45.3-6.2 68-8.6a159.8 159.8 0 0 1 47.8 1.9c13.7 2.8 27.5 4.9 41.2 7.6 4.1.8 8 2.4 11.9 3.7z" fill="#aad1c7" stroke="#abd2c8" stroke-miterlimit="10" stroke-width="2.96"/><path d="m1632.6 679.6c2.5 3 5.4 1 8.1 1.2l12.1-2.8c-4.9-5.9 4-5.7 3.1-10.3l-6.5-4.1 4-2.5a36.3 36.3 0 0 1 -.7-3.9c-.3-5 1.3-6.7 6.3-6.8s12.2 4.3 15.1 10.3 9.3 10.8 16.9 13.3c1.4-5.5-7.2-3.4-5.6-8.5 6.4 3.2 6.5 2.9 10.3-2.9 1.8-2.7 4.1-5.8 6.9-6.9s8.2-1.1 9.5.6 5.1 4.1 7.4 6.4l-.2-.2a10.2 10.2 0 0 0 2.3 1.8c14.7 7.5 30.8 11.1 46.8 14.2 11.4 2.3 23 5.2 34.9 4.2.6 0 1.3 1 2.7 2.1a25.1 25.1 0 0 1 -4.4 1.1c-8.5.7-17.2.8-25.6 2.3-17.6 3.1-35.2 6.5-52.7 10.5-22.4 5.2-44.6 11.3-67 16.8-10.3 2.5-20.7 4.5-31 6.6-13.8 2.9-27.5 1.1-41.1-.9-3.6-.5-7.4-.2-10.9-1.1-8-2.1-15.8-5.3-23.9-6.9-9.9-1.9-18.3-7-27.5-10.4-3.2-1.2-6.6-2.3-9.3-4.3-17-13-33.8-26.1-50.6-39.4-5.6-4.4-10.8-9.4-16.5-13.6-10.6-8-21.3-15.8-32.2-23.3-12.8-8.8-24.4-19.5-39.5-24.7-2.5-.9-4.6-3.1-6.9-4.6 14 3.2 27.8 6.9 40.8 12.3 21.1 8.7 41.8 18.6 62.7 28l68.5 31a56.2 56.2 0 0 0 9.7 3.5c13.8 3.3 27.6 7 41.6 9.5 11.5 2.1 23.3 2.9 35 3.9 1.5.1 4.3-1.8 4.4-2.9.3-5 3.5-3.6 5.6-2.6s5.2 1.9 5.6 5.2zm35.8 11.3c2.3 2.7 8.3 3.3 11.6 1.7 4.9-2.5 6.5-5.5 5.4-10.7s-2.7-8.9-8.4-9.7c-1.9-.3-3.6-1.5-5.4-2.2-7-2.3-9.8-.2-9.4 7.1.1 5.4 2.9 9.8 6.2 13.8z" fill="#cee1f4" stroke="#cee1f4" stroke-miterlimit="10" stroke-width="2.22"/><path d="m301.1 664.9c-2.7-.7-5.5-3.6-6.8-6.2a147.2 147.2 0 0 1 -7.1-18.5 9.1 9.1 0 0 1 3.4-10.3c5.2-3.7 7.4-3.8 12.1-1.2s6.9 3.8 10.6 4.7a206.8 206.8 0 0 0 25.9 4.7c7 .8 11.7 4.7 16 9.4a10 10 0 0 1 .8 12.4c-4.3 6.7-10.9 10.2-20.5 12-10.5-2.1-22.5-4.2-34.4-7zm33.7-21c-4.3-.9-8.8-1-13.1-2-6.2-1.6-12.2-3.6-18.3-5.4-2.1-.7-4.1-1.9-6.3-2.3-3.7-.6-6.2 2.6-4.8 6.1 2.3 5.4 4.7 10.8 7.2 16.1s7.4 4.9 11.3 5.7a107.6 107.6 0 0 0 23.4 1.7c6.8-.2 13.2-2.4 15.8-10.6-3.1-6.5-9.1-8-15.2-9.3z"/><path d="m244.7 629.9c.1-8.1 5.3-11.2 12.5-7.5a25.2 25.2 0 0 1 12.6 30.3c-14.6 2.4-25.3-7.4-25.1-22.8zm8.8-3.2c-4.5 2.4-3.6 6-2.2 9 2.7 5.6 4.9 12.3 14.3 10.4-2.6-7.5-3.5-15.7-12.1-19.4z"/><path d="m233.5 651.8a6.5 6.5 0 0 1 4.7-2.7c8.7-.4 18.1 8.5 18.6 17.3.2 4.9-3.1 10-7.5 11.5s-11.2-.1-13.6-4.5-3.3-8.6-4.8-12.7c.9-3.4 1.3-6.4 2.6-8.9zm4.8 17.5c1.9 3.6 6.5 4.9 9.3 3s3.9-6.9 1.6-9.7-6.7-7-12.7-7.3c-1.7 5.4-.2 9.8 1.8 14z"/><path d="m294.5 525.6c.2-.6.9-1.4.7-1.9s-1.1-.9-1.7-1.4-.5 1.2-.3 1.7.9 1.1 1.4 1.6z"/><path d="m801.5 609.8h.2c0-.1.1-.1.1-.2z" fill="#aad1c7"/><path d="m1919 858-175.3.8s-503.7.2-593.7 20.2-262-37-262-37-268-84-445-37-443.2-34.3-443.2-34.3l-.8-110.3v-69c17 4.5 37.7 14.2 52.7 22.8 11.9 6.9 23 15.2 33.8 23.7 17.4 13.6 33.7 28.6 52.2 41a30 30 0 0 1 2.6 2.1c-.1 0-.2 0-.2.1 80 70.9 209.9 50.9 209.9 50.9 47 1 353.7-10.9 353.7-10.9l3.5.6 8.4-.8c108.1-9.3 275.8-3.9 284.4-3.7a.1.1 0 0 1 .1-.1 20.5 20.5 0 0 1 5.3-.6c12.7 1.2 25.5 2.2 38.2 3.9a64.7 64.7 0 0 1 11.2 2.6 55.5 55.5 0 0 1 5.2 2l.5.2c19.6 8.7 39 17.7 58.3 26.8 8 3.8 15.5 8.7 23.7 11.9 17.9 7 36 13.2 54 19.7a42.6 42.6 0 0 1 4.8 2.4h.7a168.2 168.2 0 0 0 103.4 13.7c75.4-13.8 143.6-5.7 143.6-5.7 81 27 256 30 256 30 125-33 213.6 7.3 213.6 7.3z" fill="#33596d"/><path d="m1060 723v2a55.5 55.5 0 0 0 -5.2-2z" fill="#33596d"/><path d="m1168.8 762.9c-7.5-5.9-15-11.7-22.4-17.7-12.1-9.9-24.2-20-36.2-30-7.2-6-14.7-11.5-23.7-14.3-6.3-2-12.8-3.6-19.2-5.1a118.5 118.5 0 0 0 -50.3-.6 57.8 57.8 0 0 0 -9.8 2.9 1.5 1.5 0 0 0 -.7.3c-14.2.1-192.9.7-354.7-17h-.2c-8-.9-15.6-1.7-22.7-2.3-7.6-.3-15.2-.3-22.6-1.3l-5.9-.9c-12.1-1.9-24.1-4.5-36.2-6.6a157.5 157.5 0 0 1 -42.7-13.6 82.9 82.9 0 0 1 -29.8-24.7 30.4 30.4 0 0 0 -5.3-6c-1.6-1.3-4-1.8-7-3 0 3.3.2 5.2 0 7.1-.6 6.1-4.3 9.2-10 7.4a44.5 44.5 0 0 1 -13.9-6.6 159.4 159.4 0 0 0 -39.2-20c-11.5-4-22.1-11.1-35-10.1-11.7-5.3-24.3-5.7-36.7-7a78.6 78.6 0 0 0 -11.8-.7c-4.5.1-6.6 3.7-4.5 7.6a56.5 56.5 0 0 0 6.1 9.2c6 7.6 3.1 17-6.3 19.4s-14.6-.4-19.5-7c-2.8-3.8-5.2-7.8-7.9-11.6s-6.8-7.9-13.2-5.8a73.4 73.4 0 0 1 1.4 7.4c.5 6.5-1.5 9.4-7.6 11.6s-8.6-.8-11.9-3.7a165.4 165.4 0 0 1 -12.7-12.4c-13.3-14.3-30-22.8-48.2-28.8-2.9-1-5.2-.2-7.3 2.6 3.5 10.1 10.9 15.2 20.9 17.5a36.2 36.2 0 0 1 9.8 3.1c5.1 2.7 9.3 6.6 9.9 12.9.7 7.9-4.7 12.4-12.1 9.6a61.1 61.1 0 0 1 -12.2-6.8c-5.1-3.5-5-3.7-10.8-.2-1.1 3.7.3 6.5 2.6 9.4s4.5 7.3 6.4 10.3a49.7 49.7 0 0 0 -2.6 5.1c-2.9 9.4-10.4 12-18.9 11.6s-14.7-1.7-22-2.8c-15.2-2.3-27.2-12.1-40.8-18.2-10.1-4.5-19.2-11.1-28.7-16.7-15-8.9-29.9-17.9-45.1-26.5-7.4-4.3-15.1-8.6-23.2-11.3s-26.7-5.2-36.4-7.2l1 12c4.8 1.2 15.6 3.9 20.2 5.7 14.5 5.6 28 13 41.3 21.2a377.8 377.8 0 0 1 48.1 35.2c17 14.8 35.6 27.4 54.4 39.7a119.1 119.1 0 0 0 21.7 10.9c8.9 3.5 18.3 5.6 27.4 8.7a367.2 367.2 0 0 0 82.8 17.7 108 108 0 0 0 34.5-2.1c2.6-.7 5.6-2.3 7.1-4.4 5.1-7.2 11.2-13.1 19.2-16.7 3.5-1.6 7.4-2.2 10.9-3.6 14.3-5.7 29.4-7.7 44.5-7.8 19.2-.1 38.3 2.7 57.1 6.8s34.9 8.4 52.5 11.6c12.3 2.3 25 2.7 37.4 4.4q6 .8 12 1.2c3.4.3 6.9.5 10.3.5 33.4 0 379.4-8.1 421.5-3.7 3.3.2 5.6.6 7.9.3 11.4-1 22.5 1 33.4 3.7s20.9 5.6 31.3 8.7a108.6 108.6 0 0 1 12.3 4.9c13 5.7 26.1 11.3 38.9 17.4 8.9 4.3 17.2 9.6 25.9 14 6.3 3.2 12.8 5.8 19.3 8.6a10.9 10.9 0 0 1 .8-1.5zm-919.5-85c-5 1.6-11.2-.1-13.6-4.5s-3.3-8.6-4.8-12.7c.9-3.4 1.3-6.4 2.6-8.9a6.5 6.5 0 0 1 4.7-2.7c8.7-.4 18.1 8.5 18.6 17.3.2 4.9-3.1 10-7.5 11.5zm20.5-25.2c-14.6 2.4-25.3-7.4-25.1-22.8.1-8.1 5.3-11.2 12.5-7.5a25.2 25.2 0 0 1 12.6 30.3zm86.2 7.2c-4.3 6.7-11 10.2-20.4 12-10.6-2.1-22.6-4.2-34.5-7-2.7-.7-5.5-3.6-6.8-6.2a186.2 186.2 0 0 1 -7.1-18.5 9.1 9.1 0 0 1 3.4-10.3c5.2-3.7 7.4-3.8 12.1-1.2s6.9 3.8 10.6 4.7a206.8 206.8 0 0 0 25.9 4.7c7 .8 11.7 4.7 16 9.4a10 10 0 0 1 .8 12.4z" fill="#cde0f3"/><path d="m350.9 825.2 5-3.3c-.1 2.4-.8 3.4-3.2 3.6z" fill="#aad1c7"/><path d="m415.5 782.7-9.9 6.5c-.1-2.2-.3-4.4-.3-6.5z" fill="#aad1c7"/><path d="m1427.6 728.2c-6.5-11.8-18.6-18.4-23-31.4l-26.6-7.3c1.8 2.2 2.4 3.3 3.4 4.1 5.4 4.1 11.3 7.8 16.3 12.5s11 11.9 16.4 17.8c3.2 3.5 6.8 4.7 13.5 4.3z" fill="#98b1cf"/><path d="m1776.9 741.2 10.1-.6v-1.3l-10.1.5z" fill="#fff"/><path d="m1454.3 577.9 3.8.7a6.8 6.8 0 0 0 .2-1.4l-3.9-.4z" fill="#fff"/><path d="m1442.4 574.8c-.3.8-1 1.6-.8 1.9a2.6 2.6 0 0 0 1.8.9c.3.1.7-.9 1-1.4z" fill="#fff"/><path d="m1625.6 672.9a18.2 18.2 0 0 0 -2.1 2.3c-.1.3.8 1.4 1.2 1.4a12 12 0 0 0 2.3-1.1z" fill="#fff"/><path d="m350 653.2c-3.1-6.5-9.1-8-15.2-9.3-4.3-.9-8.8-1-13.1-2-6.2-1.6-12.2-3.6-18.3-5.4-2.1-.7-4.1-1.9-6.3-2.3-3.7-.6-6.2 2.6-4.8 6.1 2.3 5.4 4.7 10.8 7.2 16.1s7.4 4.9 11.3 5.7a107.6 107.6 0 0 0 23.4 1.7c6.8-.2 13.2-2.4 15.8-10.6z" fill="#aad1c7"/><path d="m265.6 646.1c-2.6-7.5-3.5-15.7-12.1-19.4-4.5 2.4-3.6 6-2.2 9 2.7 5.6 4.9 12.3 14.3 10.4z" fill="#aad1c7"/><path d="m236.5 655.3c-1.7 5.4-.2 9.8 1.8 14s6.5 4.9 9.3 3 3.9-6.9 1.6-9.7-6.7-7-12.7-7.3z" fill="#aad1c7"/><path d="m1424.8 778.2c-8.2-2.7-16.4-5.2-24.2-8.8-6.3-2.9-12-7-17.8-10.9-2.9-2-3.4-5.7-1.2-7.8s4.8-4.5 8.4-3.3c6.1 1.8 10.9-.4 15.3-4.6s7.8-4 12.6-.7 8.4 5.4 11.6 9a106.1 106.1 0 0 1 13.5 17.3c4.1 7 .5 12.2-9.2 12.1a92.2 92.2 0 0 1 -9-2.3zm-31.6-26c-2.5-.6-5.2-.5-8.4-.8 2.2 5.5 5.8 8.9 10.3 10.6 12.4 4.6 24.9 8.8 36.5 15.2a4.5 4.5 0 0 0 4.6-.8 9.4 9.4 0 0 0 1.8-5.9 9.5 9.5 0 0 0 -2.6-5.2c-6.2-7.6-13-14.6-21.4-19.9-1.2-.7-2.8-.8-4.8-1.4-2.3 8.7-8.3 10.1-16 8.2z"/><path d="m1365.4 771.2c2.9-.6 4.4-.6 5.6-1.1a13.5 13.5 0 0 1 17.1 5.1c1.5 2.5.9 4.6-2 4.7s-6.7-.7-10-1.3a16.9 16.9 0 0 1 -3.7-1.5l-.9 1.2c1.5 1.4 2.8 3.3 4.5 3.9a47.8 47.8 0 0 0 10.7 2.6c2.9.4 6.5.4 7.3-3.1a11.6 11.6 0 0 0 -1.2-8.2c-4-6.5-18.2-10.1-25.2-6.8-.8.4-1 2-2.2 4.5z"/><path d="m1671.6 670c1.8.7 3.5 1.9 5.4 2.2 5.7.8 7.4 4.9 8.4 9.7s-.5 8.2-5.4 10.7c-3.3 1.6-9.3 1-11.6-1.7s-6.1-8.4-6.2-13.8c-.4-7.3 2.4-9.4 9.4-7.1zm1.2 5.2c-1.3-.4-3.7-.1-4.5.8s-.2 3.1.5 4.3a25.3 25.3 0 0 0 4.2 5c2.8 2.9 5.8 3.1 9-.1-1.1-5.8-4.8-8.3-9.2-10z"/><path d="m1640.8 680.8-8.2-1.2c2.5 3 5.4 1 8.1 1.2z"/><path d="m1248.1 893c-10.7 2.4-21.5 1.5-32.3.9a231.7 231.7 0 0 1 -53.6-9.4 56.5 56.5 0 0 1 -11.9-5.7c-3.1-1.9-5.6-4.5-4.9-9s3.7-6.9 7.8-7.3a264.2 264.2 0 0 1 28-2.3c6.7 0 13.4 1.8 20.1 2.5 15.9 1.9 31.4 5.6 46.8 9.9 7.9 2.2 11.8 7.3 12.8 16.6-4.5 1.4-8.6 2.9-12.8 3.8zm.7-13.8c-14.9-4.2-29.8-8.4-45.3-9.6-10.3-.8-20.5-2.3-30.8-2.8-5.5-.2-11.2.7-16.8 1.4-1.4.2-2.8 1.4-4.6 2.4 3.9 4.8 8.5 6.8 13.5 8.2 24.5 6.5 49.5 10.1 75 8.8 4.8-.3 9.8-.5 13.3-5.7-1.6-1-2.8-2.3-4.3-2.7z"/><path d="m1409.2 744c-2.3 8.7-8.3 10.1-16 8.2-2.5-.6-5.2-.5-8.4-.8 2.2 5.5 5.8 8.9 10.3 10.6 12.4 4.6 24.9 8.8 36.5 15.2a4.5 4.5 0 0 0 4.6-.8 9.4 9.4 0 0 0 1.8-5.9 9.5 9.5 0 0 0 -2.6-5.2c-6.2-7.6-13-14.6-21.4-19.9-1.2-.7-2.8-.8-4.8-1.4z" fill="#98b1cf"/><path d="m1682 685.2c-1.1-5.8-4.8-8.3-9.2-10-1.3-.4-3.7-.1-4.5.8s-.2 3.1.5 4.3a25.3 25.3 0 0 0 4.2 5c2.8 2.9 5.8 3.1 9-.1z" fill="#98b1cf"/><path d="m293.5 522.3c.6.5 1.4.8 1.7 1.4s-.4 1.2-.7 1.8-1.1-.9-1.3-1.5.2-1.1.3-1.7z" fill="none"/><path d="m1490 415.8a6.1 6.1 0 0 0 -.7 1.4l-3.1-1a13.4 13.4 0 0 0 .7-1.8z" fill="none"/><path d="m238.2 649.1c8.7-.4 18.1 8.5 18.6 17.3.2 4.9-3.1 10-7.5 11.5s-11.2-.1-13.6-4.5-3.3-8.6-4.8-12.7c.9-3.4 1.3-6.4 2.6-8.9a6.5 6.5 0 0 1 4.7-2.7z" fill="none"/><path d="m290.6 629.9c5.2-3.7 7.4-3.8 12.1-1.2s6.9 3.8 10.6 4.7a206.8 206.8 0 0 0 25.9 4.7c7 .8 11.7 4.7 16 9.4a10 10 0 0 1 .8 12.4c-4.3 6.7-10.9 10.2-20.5 12-10.5-2.1-22.5-4.2-34.4-7-2.7-.7-5.5-3.6-6.8-6.2a147.2 147.2 0 0 1 -7.1-18.5 9.1 9.1 0 0 1 3.4-10.3z" fill="none"/><path d="m244.7 629.9c.1-8.1 5.3-11.2 12.5-7.5a25.2 25.2 0 0 1 12.6 30.3c-14.6 2.4-25.3-7.4-25.1-22.8z" fill="none"/><path d="m1719.3 662.5h.3v.2z" fill="#fff"/><path d="m1915.3 739.4v78.4c-10.2-3.6-20.3-7.9-30.5-11.8-3-1.1-6-2.2-9-3.1l-28.3-8.3c-32.9-2.9-76 .9-76 .9-100 23-238 1-308-13s-198 3-198 3l-.4-1.5h-3c-5.1-.1-10.2-1.3-15.3-1.3-14 0-27.5-2.2-40.3-7.7a147.7 147.7 0 0 1 -20.6-11.4 298.9 298.9 0 0 1 -25.3-17.5c-11-8.7-21.2-18.4-32.1-27.2-7.8-6.3-16.2-11.9-24.4-17.7-2.7-2-5.5-4.2-8.6-5.3-5.7-2.2-11.6-3.7-17.5-5.5a5.1 5.1 0 0 0 -.2-1.3 43.4 43.4 0 0 1 4.7-1.6q15.4-3.4 30.9-6.6c9.9-2 19.7-4.4 29.7-5.7 11.9-1.6 23.9-2.2 35.8-3.2 8.8-.7 17.6-2 26.4-2.2 19.2-.4 38.4-.4 57.6-.2a141.9 141.9 0 0 1 20.5 1.8c11.1 1.7 22.2 4 33.3 6l14.3 2.3c3-1.4 6-1.8 8.6-.3 12.2 6.8 38.9 10.2 38.9 10.2l26 7c89 39 104 52 104 52s64 26 111 29 68-10 68-10c8.9-2.5 17.8-5.2 26.8-7.4 20.3-5.1 40.6-10.3 61-14.9 16.8-3.7 33.7-6.6 51-7.6 12.5-.8 25.1-2.9 37.5-2.5 17.2.6 34.4 2.6 51.5 4.2z" fill="#99b2d0"/><path d="m293.5 522.3c.6.5 1.4.8 1.7 1.4s-.4 1.2-.7 1.8-1.1-.9-1.3-1.5.2-1.1.3-1.7z" fill="none"/><path d="m244.7 629.9c.1-8.1 5.3-11.2 12.5-7.5a25.2 25.2 0 0 1 12.6 30.3c-14.6 2.4-25.3-7.4-25.1-22.8z" fill="none"/><path d="m290.6 629.9c5.2-3.7 7.4-3.8 12.1-1.2s6.9 3.8 10.6 4.7a206.8 206.8 0 0 0 25.9 4.7c7 .8 11.7 4.7 16 9.4a10 10 0 0 1 .8 12.4c-4.3 6.7-10.9 10.2-20.5 12-10.5-2.1-22.5-4.2-34.4-7-2.7-.7-5.5-3.6-6.8-6.2a147.2 147.2 0 0 1 -7.1-18.5 9.1 9.1 0 0 1 3.4-10.3z" fill="none"/><path d="m1490 415.8a6.1 6.1 0 0 0 -.7 1.4l-3.1-1a13.4 13.4 0 0 0 .7-1.8z" fill="none"/><path d="m238.2 649.1c8.7-.4 18.1 8.5 18.6 17.3.2 4.9-3.1 10-7.5 11.5s-11.2-.1-13.6-4.5-3.3-8.6-4.8-12.7c.9-3.4 1.3-6.4 2.6-8.9a6.5 6.5 0 0 1 4.7-2.7z" fill="none"/><path d="m29.2 534.9c9.2 1.7 18.6 2.3 27.8 3.3a473.3 473.3 0 0 0 97.4.6c16.9-1.6 33.9-2.2 50.8-3.4 15-1 29.9-2.1 44.9-3.5 16.8-1.5 33.4.7 50 2.7s36 5.4 53.9 9c9.1 1.9 17.9 5.3 26.6 8.6 11.1 4.1 22.2 8.1 32.8 13.3 16.7 8.2 34.2 15 49.4 26.3 11.2 8.3 22.8 16.1 34 24.6 6.5 4.8 12.3 10.5 18.6 15.6 8.5 6.6 17.2 13 25.8 19.5l3.4 2.5-.6 1.4c-5-1.4-10.2-2.4-15.1-4.3-8.7-3.5-16.6-8.1-22.2-16.2a61.6 61.6 0 0 0 -12.3-12.7 29.6 29.6 0 0 0 -11-5.3c-7.7-1.9-11.8 1.4-12.5 9.2-.1 1.2-.1 2.4-.2 4.7-3.3-1.1-6.1-1.6-8.5-2.9a150.9 150.9 0 0 1 -13.9-8.4c-14.2-9.4-29.1-17.8-45.5-22.4-13.6-3.9-27.4-7.9-41.7-8.7-6.7-.4-13.2-1.8-19.9-2.1a50.3 50.3 0 0 0 -14.5 1.4c-5.6 1.5-8.3 3.6-6.6 10.1 1.3 4.8 1.7 9.7 6.7 12.5a10.2 10.2 0 0 1 2.7 3.4c1.5 2.6 3.2 5.3.5 8.1a7.6 7.6 0 0 1 -8.8 2 22.3 22.3 0 0 1 -13.3-14c-3.3-9.6-8.1-12.9-18.6-13.3-6.8-.3-9.5 2.1-9.7 8.9-.1 2.9.3 5.8.5 9-3.9 1.5-6.6.7-9.4-2.1-9.6-9.5-19.5-18.7-29.4-27.9-1.5-1.5-3.7-2.3-5.4-3.6a64.3 64.3 0 0 0 -24.9-11.1c-8.5-1.8-17.1 5.5-16.3 14.2 1.1 10.9 9.2 15.4 17.9 19.1a36 36 0 0 0 8.6 2.1c7.4 1.3 10.9 6.6 14.5 12l-.7 1.6c-2.2-.4-4.6-.3-6.5-1.3a116.3 116.3 0 0 1 -10.5-6.7c-5-3.3-10-2.9-14.8 1.4s-5.3 8.9-2.5 14c1 1.7 2.6 3 3.6 4.7a13.2 13.2 0 0 1 1.9 4.6c.6 6.6-.9 8.7-7.5 10.4-10.3 2.7-20.4 1.3-30.1-2.8-7.4-3.2-14.8-6.7-22-10.4-12.3-6.5-24.8-13-36.8-20.1s-25-16.4-37.6-24.3c-15.3-9.6-32.1-15.9-49.7-20-5.5-1.3-17.9-3-23.5-3.8l-1-36c7.4 1.9 23.7 5.1 31.2 6.5z" fill="#aad1c7"/><path d="m634.3 679.4-5.4-.3c7.1.6 14.7 1.4 22.7 2.3h.2c-6.4-.8-12-1.6-17.5-2z" fill="#cde0f3"/><g fill="#e9f5f6"><circle cx="1824.6" cy="679.2" opacity=".65" r="5.8"/><circle cx="1626" cy="689.8" opacity=".65" r="5.8"/><circle cx="1603.5" cy="693.2" opacity=".65" r="5.8"/><circle cx="1623.2" cy="707.6" opacity=".65" r="8.7"/><circle cx="1842.5" cy="661.8" opacity=".65" r="8.1"/><circle cx="1736.6" cy="817.5" opacity=".65" r="6.2"/><circle cx="1699" cy="823.6" opacity=".65" r="5.8"/><circle cx="1716.9" cy="806.2" opacity=".65" r="8.1"/><circle cx="1370.8" cy="754.3" opacity=".65" r="8.1"/><circle cx="1359.7" cy="785.4" opacity=".65" r="8.1"/><circle cx="1648.3" cy="695.3" opacity=".65" r="8.1"/><circle cx="1353.1" cy="770.5" opacity=".65" r="5.8"/><circle cx="1375.4" cy="776.1" opacity=".65" r="8.1"/><circle cx="1152.6" cy="766.3" opacity=".65" r="5.8"/><circle cx="1172.3" cy="780.8" opacity=".65" r="8.7"/><circle cx="1197.4" cy="768.5" opacity=".65" r="8.1"/><circle cx="1429.8" cy="913.7" opacity=".65" r="8.7"/><circle cx="1454.9" cy="901.4" opacity=".65" r="8.1"/></g><path d="m802 609.6h-.2c0 .1-.1.1-.1.2h-3.2l3.3-.4z" fill="#aad1c7"/><path d="m628.9 679.1c-7.6-.3-15.2-.3-22.6-1.3l-5.9-.9c8.7.5 18.1 1.2 28.5 2.2z" fill="#cde0f3"/><path d="m1007 668.4v20s-245.6-2.2-270-8.1c0 0 208.6-16.3 270-11.9z" fill="#33596d" stroke="#33596d" stroke-miterlimit="10" stroke-width="5.92"/><path d="m1205 605.7c-13.4 9.9-26.5 20.1-40.1 29.7s-25.9 17.8-39.1 26.2c-8.1 5.1-16.4 9.9-25.8 12.4s-16.5 3.7-23.9 7.3-16.5 3.9-25 4.5l-38.3 2.4-5.8.3v-20l7.3-.4c6.3-.2 12.8.4 18.9-.8 11.1-2.2 21.9-5.6 32.8-8.4 19.8-5 38.9-12.1 57.6-20.1 14.5-6.1 28.8-12.6 43.3-18.8 12.3-5.4 24.8-10.5 37.2-15.7z" fill="#33596d" stroke="#33596d" stroke-miterlimit="10" stroke-width="5.92"/><path d="m336.9 715.8s136.8 5.1 221.1-5.2-22.9-24.4-22.9-24.4l-111-24.4s-135.3 44.4-87.2 54z" fill="#cde0f3"/><path d="m1031.1 780.2-3.7 12.9c-1.1-.7-2.3-1.2-3.4-2-3.2-2.2-3.5-5.5-.2-7.7a19.2 19.2 0 0 1 7.3-3.2z" fill="#33596d" stroke="#33596d" stroke-miterlimit="10" stroke-width="5.92"/><path d="m350.9 825.2 5-3.3c-.1 2.4-.8 3.4-3.2 3.6z" fill="#aad1c7"/></svg>