<svg height="1003" viewBox="0 0 1926 1003" width="1926" xmlns="http://www.w3.org/2000/svg"><path d="m6.1 767.2s734.9 83.9 1139.6-118.3 1008.3-39.4 1008.3-39.4l59.2-416.9s-691.1-271.3-1190.1-129-1017 0-1017 0z" fill="#edf1f4" opacity=".5"/><path d="m1924.1 445.6s-81.9 105-257.1 91-478.6-126-851.2-112-838.7 147-838.7 147l20.2-330s635.5-183 1047.6-21 791.5 189 879.2 105z" fill="#d3dce5" opacity=".5"/><path d="m893.3 297.8q-9.4.8-18.9.6z" fill="#d3dce5"/><path d="m1086.3 770.8.8-.5s11.1 5.9-.8.5z" fill="#f2ad40"/><path d="m356.7 984.6c-47.4-16-95.4-34.2-129.6-52.2l-1.6-.9-.5-.2q-5.4-2.8-10.2-5.7c-.1 0-.1 0-.1-.1l-3.7-2.2-6.2-4.1a192.7 192.7 0 0 1 -28.5-24c-2.4-2.4-4.9-4.6-7.5-6.8l-1.8-1.7a66.4 66.4 0 0 1 -5.5-5.1c-6-6.1-11.2-12.8-17.2-18.8s-10.8-10.9-16.6-16l-2.5-2.2c-2.5-2.1-5.2-4.1-7.9-6l-4.2-2.9-4.1-2.9-22.8-16.7c-3.1-2.2-6.1-4.5-9.1-6.8l-4.5-3.4-4.8-3.6-5-3.3-2.5-1.6q-6.3-3.9-12.9-7.2l-5.4-2.6-10.9-4.9-2.5-1-5-1.8a169.7 169.7 0 0 0 -18.5-5.3v231.2z" fill="#dedbe5"/><path d="m4.1 445h1924v572h-1924z"/></svg>