<svg xmlns="http://www.w3.org/2000/svg" width="1926" height="1003" viewBox="0 0 1926 1003"><title>wave-1</title><g id="wave"><path id="Path_1" data-name="Path 1" d="M6.1,767.2S741,851.1,1145.7,648.9,2154,609.5,2154,609.5l59.2-416.9S1522.1-78.7,1023.1,63.6s-1017,0-1017,0Z" fill="#edf1f4" opacity="0.5" style="isolation:isolate"/><path id="Path_9" data-name="Path 9" d="M1924.1,445.6s-81.9,105-257.1,91-478.6-126-851.2-112-838.7,147-838.7,147l20.2-330s635.5-183,1047.6-21,791.5,189,879.2,105Z" fill="#d3dce5" opacity="0.5" style="isolation:isolate"/><path id="Path_2" data-name="Path 2" d="M893.3,297.8q-9.4.8-18.9.6Z" fill="#d3dce5"/><path id="Path_104" data-name="Path 104" d="M1086.3,770.8l.8-.5S1098.2,776.2,1086.3,770.8Z" fill="#f2ad40"/><path id="Path_160" data-name="Path 160" d="M356.7,984.6c-47.4-16-95.4-34.2-129.6-52.2l-1.6-.9-.5-.2q-5.4-2.8-10.2-5.7c-.1,0-.1,0-.1-.1l-3.7-2.2-6.2-4.1h0a192.7,192.7,0,0,1-28.5-24c-2.4-2.4-4.9-4.6-7.5-6.8l-1.8-1.7a66.4,66.4,0,0,1-5.5-5.1c-6-6.1-11.2-12.8-17.2-18.8s-10.8-10.9-16.6-16l-2.5-2.2c-2.5-2.1-5.2-4.1-7.9-6l-4.2-2.9-4.1-2.9L86.2,816.1c-3.1-2.2-6.1-4.5-9.1-6.8l-4.5-3.4-4.8-3.6-5-3.3-2.5-1.6q-6.3-3.9-12.9-7.2L42,787.6l-10.9-4.9-2.5-1-5-1.8a169.7,169.7,0,0,0-18.5-5.3v231.2Z" fill="#dedbe5"/><rect id="Rectangle_10" data-name="Rectangle 10" x="4.1" y="445" width="1924" height="572"/></g></svg>