<svg xmlns="http://www.w3.org/2000/svg" width="1920" height="1830" viewBox="0 0 1920 1830"><title>whale-banner copy 3</title><g id="orca_1" data-name="orca 1"><path d="M431.2,1190.9c16.3-11.3,32.4-23,48.6-34.5,19.9-14.1,39.7-28.3,57.7-45,5.8-5.4,12.4-10.1,18.7-15,10.3-7.9,20.8-15.5,30.9-23.7,13.1-10.7,25.6-22.3,38.8-32.9,16.9-13.7,34.3-26.8,51.5-40.2l4.1-3.4c-7.4-2-12.9-4-18.6-4.8-23.3-3.4-46.7-7-70.3-5.7-16.4.9-32.8,1.8-49,4.2-11.4,1.7-22.4,6-33.6,9.1-20.4,5.8-40.5,12.6-59.4,22.3-10.1,5.2-19.5,11.8-29.1,17.8-19.6,12.3-38.8,25.2-55.6,41.2-9.9,9.5-19.6,19.7-27.4,31s-13.7,24.2-19.9,36.6c-3.8,7.9-7.6,16-9.8,24.5a177,177,0,0,0-5.3,32.3c-.6,10.5,4.9,19,12.4,25.9,10.3,9.5,21.6,11.5,34.3,5.3,15.7-7.7,31.9-14.3,47.2-22.6C409.2,1206.9,420.1,1198.6,431.2,1190.9Z" fill="#fff" stroke="#000" stroke-miterlimit="10" stroke-width="6"/><path d="M860.7,927.4c10.3-21.8,12.1-38.9,9.3-55.9a78.2,78.2,0,0,1-6.1,5.7c-9.4,7.5-18.6,15.5-28.5,22.3-7,4.8-11.9,9.9-10.6,19.2C835.1,927,847.4,928.6,860.7,927.4Z" fill="#fff"/><path d="M826.6,896.4c45.2-38.3,90.3-76.1,129-121.5l-7-4.1c-8.6,9.7-16.5,19.1-24.9,28-10.3,10.9-20.6,21.6-31.4,31.9s-21.1,19.5-32.2,28.7c-9.1,7.5-18.8,14.4-28.4,21.4C824.2,886.1,823.9,886.5,826.6,896.4Z" stroke="#000" stroke-miterlimit="10" stroke-width="2.28"/><path d="M835.4,899.5c9.9-6.8,19.1-14.8,28.5-22.3a78.2,78.2,0,0,0,6.1-5.7c2.8,17,1,34.1-9.3,55.9-13.3,1.2-25.6-.4-35.9-8.7C823.5,909.4,828.4,904.3,835.4,899.5Z" fill="none"/><path d="M826.6,896.4c-2.7-9.9-2.4-10.3,5.1-15.6,9.6-7,19.3-13.9,28.4-21.4q16.6-13.8,32.2-28.7c10.8-10.3,21.1-21,31.4-31.9,8.4-8.9,16.3-18.3,24.9-28l7,4.1C916.9,820.3,871.8,858.1,826.6,896.4Z" fill="none"/><path d="M769.3,753.8c1.4,5,3,6.9,6.5,9.4a34,34,0,0,1,7.2,6.4c9.6,12.6,15.9,26.9,20.4,42,1.9,6.5,4.3,12.9,5.5,19.6,1.9,9.6,3.3,19.4,4.4,29.2,1.6,14.8,2.8,29.6,3.9,44.5.2,3-.8,6.2-1.3,10l-8.2-4.5c-13.2-6.9-26.3-14-39.7-20.4-10.7-5.1-21.9-8.9-32.8-13.7s-20.9-8.7-32.2-10.6c-5.7-.9-11.3-2.4-17.3-3.7-.3-4.2-.7-8.4-.9-12.6-.8-18.4,2.6-36.2,7.8-53.7,1.1-3.7,1.2-6.7-2-9.7-4.9,7.6-9,15.1-10.3,23.7s-3.4,16.4-4,24.7.3,16.8.5,25.1c-13.5-.3-26.6-1.1-39.7-.9-23.6.3-46,4.9-66.4,17.8-6.7,4.3-11.4,8.5-12.8,17-1,6.3.6,9.9,5,12.9a113,113,0,0,0,14.4,8.1c7.7,3.8,15.5,7.2,23.1,11,5.7,2.7,11.2,5.9,16.8,8.7,10.7,5.2,20.2,12.3,29.2,20a142.9,142.9,0,0,1,25.3,29c2.9,4.4,6.1,8.5,9.7,13.5-2,.1-3,.4-3.9.2-22.8-4.2-45.4-8.8-68.8-9.3s-45.9,0-68.4,5c-11.3,2.5-22.9,4.4-33.8,8.1-14.7,5.1-28.7,12.3-43.4,17.4s-26.3,14.7-39.3,22.2c-11.2,6.5-21.8,14.4-32.4,22.1A185.5,185.5,0,0,0,341,1117c-7.9,13-15.3,26.2-20.8,40.3-3.9,9.8-7.2,19.9-10.4,29.9a27,27,0,0,0-.8,9.8c.8,13.4,6.8,24.7,15.1,34.8,1.3,1.7,3.5,3.5,5.4,3.6,3.9.2,4.6,3,6.4,5.2-5,1.9-9.4,4.7-13.9,5.1-7.3.5-13.7,3.4-20.1,6.1-14.3,5.9-24.2,16.1-27.6,31.7-2.4,11.3-1.5,22.7.8,33.8s4.4,23.3,4.7,35.2c.2,7.1.5,14.2,1.2,21.2a89.9,89.9,0,0,1-2.7,32.3c-3.9,15.4-8.7,30.6-13.6,45.7-2.5,7.6-6.4,14.8-9.2,22.3-5.5,14.9-8,30.3-6.5,46.1.7,7.1-.9,13.5-2.9,20-2.5,8-11.7,12-18.7,7.3a56.2,56.2,0,0,1-12.7-12.6c-7.9-10.4-11.7-22.9-15.9-34.9-6.4-18-11.3-36.6-16.8-54.7l4.5-3.5c-8-1.4-7.1-7.1-7.3-11.6-.8-16.9-1.3-33.8-1.7-50.7a151.8,151.8,0,0,1,10-57.1,245.1,245.1,0,0,1,37.1-65.7c4.7-5.9,8.3-12.6,11.8-19.3,6.4-12,8.2-25.4,9.7-38.7.8-6.8,1.4-13.5,2.6-20.2,2.8-16.5,5.9-32.8,8.8-49.2.7-3.7.7-7.6,1.9-11.1,9.7-28.9,17.2-58.5,29.1-86.6,5.1-12.3,10.8-24.4,16.3-36.5,3.3-7.3,6.6-14.5,10.2-21.7s8.2-16.8,12.7-25c6.5-11.6,13.2-23.1,20-34.6,5.7-9.5,11.7-18.9,17.6-28.3a10.9,10.9,0,0,1,8.7-5.3c4.5-.5,8.9-1.5,13.4-2,21.8-2.4,42.5-8.6,62.6-17.1,10.2-4.3,20.1-9.5,30.5-13.2,22.2-7.7,42.5-19.5,63.3-30.1,12.4-6.3,24.3-13.5,36.8-19.5s26.8-11.7,40.2-17.7c8.9-4,17.6-8.9,26.8-12.1,16.7-5.9,33.5-11.2,50.6-15.8,36.4-9.8,73.8-11.2,111.3-11.3a47.8,47.8,0,0,1,6.3.9l-17.5,33.3C789.6,766.2,784.2,754,769.3,753.8Z" fill="none"/><path d="M823.4,876.8c0-21.7-6.2-42.3-11.2-63.1-1.4-5.6-3.7-11-5.3-16.6s-4.2-12.9-.6-20.3c4.8-9.9,8.3-20.4,15.7-29,3.1-3.6,6.2-5.6,10.9-4.9,8.5,1.1,17,2,25.5,3.5,11.2,1.9,22.4,3.9,33.3,6.7,12.7,3.3,25.2,7.5,37.7,11.3l13,4.4C909.1,807.9,834.8,875.5,823.4,876.8Z" fill="none"/><path d="M288.5,1500.4c-3.1,0-6.8-.9-11.8-2.9a23.8,23.8,0,0,1-8.3-5.3c-11.2-13.3-16-22.6-9.1-34s9.1-20.7,12-31l1.8-6.3c5.1-17.1,5.7-33.8,1.9-49.7-4.3-18.1-8.8-36.4-13.1-54.4-3.1-12.8-6.4-26.1-2.1-39,1-2.9,3-5.8,5.1-8.9l1-1.4v.2c.6,2.7,1.2,5.3,1.9,8,2.8,12,10.1,23.1,17.1,33.8l3.6,5.6c10.1,15.6,23,36.2,33.9,57.1,8.6,16.4,11.9,33.7,9.8,51.3s-8.7,35.4-14.9,50.3c-3.1,7.6-10.9,15.2-18.8,22.2-3.4,3.1-6.5,4.4-10.1,4.4Z" fill="#fff"/><path d="M264.3,1276.5h0c3,12.7,10.5,24.1,17.7,35l3.6,5.5c10,15.6,22.8,36.1,33.7,56.9a82.8,82.8,0,0,1,9.4,49.2c-2.1,17.3-8.6,34.7-14.6,49.3-2.9,7-10.3,14.2-17.9,20.9-3.4,3-5.7,3.5-7.7,3.5s-5.9-.9-10.5-2.7a17.4,17.4,0,0,1-6.8-4.3c-11.9-13.9-14-21.2-8.8-29.7,6.4-10.5,9.4-21.4,12.4-32l1.8-6.2c5.2-17.7,5.9-35,1.9-51.5-4.3-18.1-8.7-36.4-13.1-54.4-3-12.4-6.1-25.1-2.1-37.1a12.2,12.2,0,0,1,1-2.4m.6-14.1c-2.9,4.8-6.9,9.4-8.5,14.2-4.6,13.7-1.4,27.4,2,41.1,4.4,18.1,8.7,36.2,13.1,54.3,3.8,16,2.8,32-1.8,47.9-3.7,12.2-6.4,24.8-13.5,36.4-8.6,14.3-.8,26.2,9.5,38.2,2.1,2.5,5.8,4.8,9.7,6.3s9.3,3.2,13.1,3.2,8.5-1.7,12.5-5.3c8.2-7.2,16.3-15.2,19.8-23.5,6.9-16.8,13-34,15.1-51.2a91,91,0,0,0-10.2-53.5c-10.1-19.3-21.8-38.4-34-57.4-8.1-12.5-17.2-24.8-20.3-38.3-.9-3.8-1.9-7.7-2.8-11.5l-3.7-.9Z"/><path d="M806.9,797.1c1.6,5.6,3.9,11,5.3,16.6,5,20.8,11.2,41.4,11.2,63.1,11.4-1.3,85.7-68.9,119-108l-13-4.4c-12.5-3.8-25-8-37.7-11.3-10.9-2.8-22.1-4.8-33.3-6.7-8.5-1.5-17-2.4-25.5-3.5-4.7-.7-7.8,1.3-10.9,4.9-7.4,8.6-10.9,19.1-15.7,29C802.7,784.2,805.1,790.4,806.9,797.1Z" fill="none"/><path d="M278.3,1406a89.9,89.9,0,0,0,2.7-32.3c-.7-7-1-14.1-1.2-21.2-.3-11.9-2.2-23.5-4.7-35.2s-3.2-22.5-.8-33.8c3.4-15.6,13.3-25.8,27.6-31.7,6.4-2.7,12.8-5.6,20.1-6.1,4.5-.4,8.9-3.2,13.9-5.1-1.8-2.2-2.5-5-6.4-5.2-1.9-.1-4.1-1.9-5.4-3.6-8.3-10.1-14.3-21.4-15.1-34.8a27,27,0,0,1,.8-9.8c3.2-10,6.5-20.1,10.4-29.9,5.5-14.1,12.9-27.3,20.8-40.3a185.5,185.5,0,0,1,50.4-54.7c10.6-7.7,21.2-15.6,32.4-22.1,13-7.5,24.8-17.2,39.3-22.2s28.7-12.3,43.4-17.4c10.9-3.7,22.5-5.6,33.8-8.1,22.5-5,45.3-5.5,68.4-5s46,5.1,68.8,9.3c.9.2,1.9-.1,3.9-.2-3.6-5-6.8-9.1-9.7-13.5a142.9,142.9,0,0,0-25.3-29c-9-7.7-18.5-14.8-29.2-20-5.6-2.8-11.1-6-16.8-8.7-7.6-3.8-15.4-7.2-23.1-11a113,113,0,0,1-14.4-8.1c-4.4-3-6-6.6-5-12.9,1.4-8.5,6.1-12.7,12.8-17,20.4-12.9,42.8-17.5,66.4-17.8,13.1-.2,26.2.6,39.7.9-.2-8.3-1-16.8-.5-25.1s2.7-16.5,4-24.7,5.4-16.1,10.3-23.7c3.2,3,3.1,6,2,9.7-5.2,17.5-8.6,35.3-7.8,53.7.2,4.2.6,8.4.9,12.6,6,1.3,11.6,2.8,17.3,3.7,11.3,1.9,21.8,6.1,32.2,10.6s22.1,8.6,32.8,13.7c13.4,6.4,26.5,13.5,39.7,20.4l8.2,4.5c.5-3.8,1.5-7,1.3-10-1.1-14.9-2.3-29.7-3.9-44.5-1.1-9.8-2.5-19.6-4.4-29.2-1.2-6.7-3.6-13.1-5.5-19.6-4.5-15.1-10.8-29.4-20.4-42a34,34,0,0,0-7.2-6.4c-3.5-2.5-5.1-4.4-6.5-9.4,14.9.2,20.3,12.4,29,21.7l17.5-33.3a47.8,47.8,0,0,0-6.3-.9c-37.5.1-74.9,1.5-111.3,11.3-17.1,4.6-33.9,9.9-50.6,15.8-9.2,3.2-17.9,8.1-26.8,12.1-13.4,6-27,11.4-40.2,17.7s-24.4,13.2-36.8,19.5c-20.8,10.6-41.1,22.4-63.3,30.1-10.4,3.7-20.3,8.9-30.5,13.2-20.1,8.5-40.8,14.7-62.6,17.1-4.5.5-8.9,1.5-13.4,2s-20.6,24.1-26.3,33.6c-6.8,11.5-13.5,23-20,34.6-4.5,8.2-8.6,16.6-12.7,25s-6.9,14.4-10.2,21.7c-5.5,12.1-11.2,24.2-16.3,36.5-11.9,28.1-19.4,57.7-29.1,86.6-1.2,3.5-1.2,7.4-1.9,11.1-2.9,16.4-6,32.7-8.8,49.2-1.2,6.7-1.8,13.4-2.6,20.2-1.5,13.3-3.3,26.7-9.7,38.7-3.5,6.7-7.1,13.4-11.8,19.3a245.1,245.1,0,0,0-37.1,65.7,151.8,151.8,0,0,0-10,57.1c.4,16.9.9,33.8,1.7,50.7.2,4.5-.7,10.2,7.3,11.6l-4.5,3.5c5.5,18.1,10.4,36.7,16.8,54.7,4.2,12,8,24.5,15.9,34.9a56.2,56.2,0,0,0,12.7,12.6c7,4.7,16.2.7,18.7-7.3,2-6.5,3.6-12.9,2.9-20-1.5-15.8,1-31.2,6.5-46.1,2.8-7.5,6.7-14.7,9.2-22.3C269.6,1436.6,274.4,1421.4,278.3,1406Z" fill="none"/><path d="M881.1,915.6h-.7c-2,5.3-21.7,55.5-56.4,79.3,0,0-8.4,6.3-17.9,2.1,0,0,17.7-39.4,25.1-97.4-.1-10.4,6.3-16.6,14.9-22.5,13.7-9.5,26.3-20.4,39.4-30.8,2.8-2.3,5.4-5,8.4-7.9C897.7,861.8,895.3,885.5,881.1,915.6Z" fill="#fff" stroke="#000" stroke-miterlimit="10" stroke-width="9.67"/><path d="M1046.9,588.5c-2.2-10-7.5-18.2-19.3-20.8-9.3-2.1-18-6.6-27.1-9.2-27.2-7.7-52.9-20.4-81.4-23.1-1-.1-2.1-.6-3-.4-9.6,2.8-19.1,0-28.6-.2-26.1-.3-51.4,3.3-75.6,13.2-10.3,4.2-21.1,7.1-31,12.1-27.7,14-55.2,28.5-80.9,45.9-9.6,6.5-19.3,13-29.4,18.7a188.9,188.9,0,0,1-26.5,12.6c-9,3.4-18.6,3.9-28.2,4.7s-19.9-1.2-29.9-2.2c-15.6-1.7-30.8-5.2-46.1-8.4-5.9-1.3-11.9-2-17.9-3.2-15.5-3-31.4-5.1-46.6-9.4-13.2-3.7-26.5-2.8-39.7-3.9-3.7-.3-7.4,1.8-11.2,2-14.2.4-26.5,7.1-39.3,12.2-2.7,1.1-5.1,3.3-7.2,5.5s-3.3,6.6-2.3,10.6,4.3,4.7,7.6,5.1c12.5,1.6,23.9,5.8,34.9,11.8s22.4,14,30.5,24.5a46.3,46.3,0,0,1,9.3,28.2c.1,3.4-.3,6.8-.5,10.7l-.3.3c-52.7,70.9-91.3,158.1-91.9,159.5h0c-3.7,5.9-7.4,11.7-11.1,17.7-1.5,2.3-2.9,4.7-4.4,7.1l-1.2,2.1a.1.1,0,0,0-.1.1c0,.1-.1.1-.1.2l-.7,1.1-5.1,8.6-5,8.7h0c-2.5,4.3-5,8.6-7.4,13l-2.5,4.3c-2.8,5.1-5.5,10.3-8.1,15.5-1.5,3.2-3.1,6.3-4.6,9.5-2.7,5.3-5.2,10.8-7.8,16.3l-2.4,5.4c-5.5,12.1-11.2,24.2-16.3,36.5-11.9,28.1-19.4,57.7-29.1,86.6a26.8,26.8,0,0,0-.7,2.7,13.8,13.8,0,0,0-.3,2c-.1.3-.1.6-.2.9a22.9,22.9,0,0,0-.2,2.5c-.2,1-.3,2-.5,3-2.9,16.4-6,32.7-8.8,49.2-1.2,6.7-1.8,13.4-2.6,20.2-1.5,13.3-3.3,26.7-9.6,38.7a165.9,165.9,0,0,1-8.6,14.7,18.8,18.8,0,0,1-1.6,2.3,19.5,19.5,0,0,1-1.7,2.3l-5.7,7.6a241.8,241.8,0,0,0-31.4,58.1l-.6,1.6c-.4.9-.7,1.9-1,2.8a150.9,150.9,0,0,0-5.3,19.4c-.1.3-.1.6-.2.9l-.6,3.4c-.3,1.6-.6,3.3-.8,5q-.7,5.4-1.2,10.8c0,.8-.1,1.6-.1,2.4-.2,3.5-.2,7.2-.2,10.8.3,10.6.5,21.1.9,31.7.2,4.2.3,8.5.5,12.7l.3,6.3a21.7,21.7,0,0,0,.1,2.6,15.5,15.5,0,0,0,.1,2.2c.5,3.1,1.9,5.9,7.1,6.8l-1.3,1-1.7,1.3-1.5,1.2c5.5,18.1,10.4,36.7,16.8,54.7,4.2,12,8,24.5,15.9,34.9a56.2,56.2,0,0,0,12.7,12.6c5.1,3.5,11.5,2.2,15.5-1.9l.3-.3.7-.8a15.9,15.9,0,0,0,2.2-4.3l.6-2.1.6-2c.1-.6.3-1.2.4-1.8l.3-1.3c.3-1.4.6-2.7.8-4.1s.1-.7.1-1.1a38.4,38.4,0,0,0,.2-5.9c0-.6-.1-1.1-.1-1.7-1.5-15.8,1-31.2,6.5-46.1l.6-1.4c.3-.9.7-1.9,1.1-2.8l.6-1.4,1.2-2.8c1.6-3.7,3.3-7.3,4.7-11.1l1-2.8c4.9-15.1,9.7-30.3,13.6-45.7a89.9,89.9,0,0,0,2.7-32.3c-.7-7-1-14.1-1.2-21.2v-2.2c-.2-3-.4-5.9-.7-8.9-.2-1.4-.3-2.9-.5-4.4l-.6-4.4c-.3-2-.7-4.1-1.1-6.2,0-.2-.1-.4-.1-.7s-.5-2.7-.8-4-.5-2.9-.8-4.4-.5-2.5-.8-3.7-.3-1.7-.4-2.5h0l-.3-2.5h0a10.7,10.7,0,0,1-.3-2.5,71.6,71.6,0,0,1,.9-22.6c3.4-15.6,13.4-25.8,27.6-31.7,6.4-2.7,12.8-5.6,20.1-6.1,4.5-.4,8.9-3.2,13.9-5.1l-.3-.4-1.5-2.2a6.2,6.2,0,0,0-4.6-2.6,4.4,4.4,0,0,1-2.5-1l-1.1-.7a10.7,10.7,0,0,1-1.8-1.9c-8.3-10.1-14.3-21.4-15.1-34.8a29.4,29.4,0,0,1,.8-9.8l1.2-3.7c.8-2.6,1.7-5.1,2.5-7.6l2.5-7.5c.5-1.2.9-2.5,1.4-3.7s1.8-5,2.8-7.4a219.2,219.2,0,0,1,13.6-28l2.8-5,2.9-4.9,1.5-2.4c1.2-2,2.5-4,3.8-6s3.5-5.2,5.3-7.8a183.8,183.8,0,0,1,18.2-21.1,192.2,192.2,0,0,1,23.2-19.8c10.5-7.7,21.1-15.6,32.3-22.1,13-7.6,24.8-17.2,39.3-22.2s28.7-12.3,43.4-17.4l2.1-.6c10.3-3.4,21.1-5.2,31.7-7.5l7.6-1.6,4.8-.7,2.8-.5,4.3-.5,8.2-.8,6.9-.5,3.5-.2c10.1-.5,20.2-.5,30.3-.2,23.4.4,46,5.1,68.8,9.3a4.8,4.8,0,0,0,1.7,0h1.5l.5.3,14.3-8.8,1.6-1.1a545.1,545.1,0,0,1-16.7-80c-3.7-28.5-3.8-46.9-3.8-47.5h.2c-.2-8.3-1-16.8-.5-25.1s2.7-16.5,4-24.7,5.4-16.1,10.3-23.7l.3.3a7.5,7.5,0,0,1,2.2,7.3,16,16,0,0,1-.5,2.1c-.6,1.9-1.1,3.9-1.7,5.9v.2c-1.1,3.9-2,7.8-2.9,11.8-.4,2-.8,4-1.1,6s-.7,4-1,6l-.3,3.1a60,60,0,0,0-.6,6.1,141.8,141.8,0,0,0-.2,14.6c0,1.1.1,2.1.2,3.2s.1,2.1.2,3.1.4,4.2.5,6.3-.1,3-.1,6.7c0,16,1.8,59.5,18.4,125.2,15.6,62.1,30.1,76.8,42.3,77.5,4.4.2,8.5-1.3,12.3-3.1,8.5-4,23.4-31.3,36.1-67.6l.6-1.8A447.5,447.5,0,0,0,813,932v-.2c1-5.6,1.9-11.3,2.6-16.9v-.2l.3.2c.6-3.8,1.5-7,1.3-10s-.5-7.2-.8-10.8c-.9-11.2-1.9-22.5-3.1-33.7-.4-3.9-.9-7.7-1.4-11.5s-1-7-1.6-10.5-.9-4.8-1.3-7.2l-.9-3.7c-.7-2.9-1.6-5.8-2.4-8.6a10.4,10.4,0,0,1-.4-1c-.1-.5-.3-1-.4-1.5l-1.5-4.8a155.5,155.5,0,0,0-5.9-16.6c-1.5-3.6-3.2-7.1-5-10.5s-2.8-5.1-4.4-7.6-3.3-4.9-5.1-7.3a29.3,29.3,0,0,0-4.7-4.6l-2.5-1.8c-3.5-2.5-5.1-4.4-6.5-9.4h2a20.7,20.7,0,0,1,8.6,2.6,11.8,11.8,0,0,1,1.9,1.1l2.7,2.1,1.6,1.5,1.6,1.7c1.3,1.4,2.5,2.9,3.7,4.4l2.3,2.8,2.2,2.7,2.4,2.7c0-.1.1-.2.1-.3,5.8-10.9,11.4-21.5,17.4-33h-.1c11.6-25,47.7-55.1,47.7-55.1a.1.1,0,0,0,.1-.1h.1c2.6-2.4,5.7-4.6,8.2-7.4,6.5-7.3,14.5-12.5,22.6-17.5,3-1.9,5.6-4.5,8.8-6,9.2-4.5,18.7-8.5,28-12.9,12.4-5.9,25.5-9.2,38.9-11.9a126,126,0,0,0,35.9-13.6,48.6,48.6,0,0,1,13.3-5c5.6-1.3,9,1,11.4,6.2s2.2,9.6,1.3,14.8c-2.3,12.5-8.9,22.9-15.2,33.5-5,8.4-9.8,17-15,25.3-2.8,4.5-6.4,8.5-9.6,12.7l-4.1,5.2a70.9,70.9,0,0,0-7.8,9.4c-16.7,23.5-31.8,50.8-31.8,50.8l.8.6h.2l-.9-.5c-4.3,4.8-8.4,9.6-12.5,14.3l-6.2,6.9c-2.1,2.3-4.1,4.6-6.2,6.8l-7.7,8.1-7.8,8.1c-5.2,5.3-10.5,10.6-15.9,15.7-10.4,9.9-21.1,19.5-32.2,28.6-5.7,4.8-11.6,9.2-17.6,13.6l-10.8,7.9-3.1,2.2-.6.5-1,.9c-2,2-2.3,3.8-1.5,7.5l.3,1.5c.2.9.5,1.9.8,3,45.2-38.3,90.2-76.1,129-121.5h0c12.3-12.7,42.2-62.7,42.2-62.7a2.8,2.8,0,0,0-.1-.6,60.9,60.9,0,0,0,8.9-11.8c7.3-12.1,15-24,21.2-36.6,8.1-16.2,16.5-32.5,19.4-50.6A65.1,65.1,0,0,0,1046.9,588.5Zm-108.3,8.4a35,35,0,0,1-12.1,19.5c-17.2,14.2-34.5,28.1-51.7,42.1-5.9,4.8-11.5,9.9-17.6,14.3a83,83,0,0,1-8.8,5.6l-7.8,4.2c-44.8,25-62.2-4.6-62.2-4.6h.1c-2.7-8.4-2.5-16.8-.7-25.2,3.2-15.1,11-27,22.3-37.4,21.7-19.9,47.7-29.7,76.1-34.3,8.7-1.5,17.5-2.7,26.2-3.7a44.4,44.4,0,0,1,25.1,4.1,32.9,32.9,0,0,1,9.9,7.9C938.9,590.9,939.2,594.5,938.6,596.9Z" stroke="#000" stroke-miterlimit="10" stroke-width="2.28"/><path d="M938.6,596.9a35,35,0,0,1-12.1,19.5c-17.2,14.2-34.5,28.1-51.7,42.1-5.9,4.8-11.5,9.9-17.6,14.3a83,83,0,0,1-8.8,5.6l-7.8,4.2c-44.8,25-62.2-4.6-62.2-4.6h.1c-2.7-8.4-2.5-16.8-.7-25.2,3.2-15.1,11-27,22.3-37.4,21.7-19.9,47.7-29.7,76.1-34.3,8.7-1.5,17.5-2.7,26.2-3.7a44.4,44.4,0,0,1,25.1,4.1,32.9,32.9,0,0,1,9.9,7.9C938.9,590.9,939.2,594.5,938.6,596.9Z" fill="#fff" stroke="#000" stroke-miterlimit="10" stroke-width="0.76"/><path d="M1032,633.7c-2.3,12.5-8.9,22.9-15.2,33.5-5,8.4-9.8,17-15,25.3-2.8,4.5-6.4,8.5-9.6,12.7l-4.1,5.2a70.9,70.9,0,0,0-7.8,9.4c-16.7,23.5-31.8,50.8-31.8,50.8l.8.6h.2l-.9-.5c-4.3,4.8-8.4,9.6-12.5,14.3l-6.2,6.9c-2.1,2.3-4.1,4.6-6.2,6.8l-7.7,8.1-7.8,8.1c-5.2,5.3-10.5,10.6-15.9,15.7-10.4,9.9-21.1,19.5-32.2,28.6-5.7,4.8-11.6,9.2-17.6,13.6l-10.8,7.9-3.1,2.2-.6.5-1,.9c-2,2-2.3,3.8-1.5,7.5l.3,1.5.7,3s-4,56-20,90-28,87-52,91-35-17-41-30c-2.1-4.5-10.1-27.6-18-59.3l1.6-1.1a545.1,545.1,0,0,1-16.7-80c-4.9-43.2-4.3-87.9,10.1-120.6h.4a7.5,7.5,0,0,1,2.2,7.3,16,16,0,0,1-.5,2.1c-.6,1.9-1.1,3.9-1.7,5.9v.2c-4.3,13.9-10.8,38.1-8.4,63.6,3,32,21.3,189.4,57.2,204.7a14.2,14.2,0,0,0,6.6,1.3c4.4.2,8.5-1.3,12.3-3.1,8.5-4,23.4-31.3,36.1-67.6l.6-1.8c8.9-24.8,14.5-47.2,14.7-50.1s1.5-7.6,3-16.8v-.2c1-5.6,1.9-11.3,2.6-16.9v-.2l.3.2c.6-3.8,1.5-7,1.3-10s-.5-7.2-.8-10.8c.4-22-1.9-48.7-11.1-76.2-.1-.5-.3-1-.4-1.5l-1.5-4.8a155.5,155.5,0,0,0-5.9-16.6c-1.5-3.6-3.2-7.1-5-10.5s-2.8-5.1-4.4-7.6-3.3-4.9-5.1-7.3a29.3,29.3,0,0,0-4.7-4.6l-3.5-4.6s-5.4-4.7-3.5-6.5a20.7,20.7,0,0,1,8.6,2.6,11.8,11.8,0,0,1,1.9,1.1l2.7,2.1,1.6,1.5,1.6,1.7c1.3,1.4,2.5,2.9,3.7,4.4l2.3,2.8,2.2,2.7,2.4,2.7c0-.1.1-.2.1-.3,5.8-10.9,11.4-21.5,17.4-33h-.1c11.6-25,47.7-55.1,47.7-55.1a.1.1,0,0,0,.1-.1h.1c2.6-2.4,5.7-4.6,8.2-7.4,6.5-7.3,14.5-12.5,22.6-17.5,3-1.9,5.6-4.5,8.8-6,9.2-4.5,18.7-8.5,28-12.9,12.4-5.9,25.5-9.2,38.9-11.9a126,126,0,0,0,35.9-13.6,48.6,48.6,0,0,1,13.3-5c5.6-1.3,9,1,11.4,6.2S1032.9,628.5,1032,633.7Z" fill="#fff"/><path d="M693.1,793.6a7.5,7.5,0,0,0-2.2-7.3c1.3-.5,5.1-1.3,2.6,7.1-.6,2.1-1.5,4.9-2.6,8.4v-.2c.6-2,1.1-4,1.7-5.9A16,16,0,0,0,693.1,793.6Z" fill="#fff"/><path d="M680.4,907a545.1,545.1,0,0,0,16.7,80l-1.6,1.1A657.6,657.6,0,0,1,680.4,907Z" fill="#fff"/><path d="M794.7,1000.7c-12.7,36.3-27.6,63.6-36.1,67.6-3.8,1.8-7.9,3.3-12.3,3.1C765.1,1070.5,782.8,1033.8,794.7,1000.7Z" fill="#fff"/><path d="M779.9,756.5a20.7,20.7,0,0,0-8.6-2.6c.8-.7,2.6-1,6.2-.5,12.2,1.9,20,19.6,20.9,21.8,0,.1-.1.2-.1.3l-2.4-2.7-2.2-2.7-2.3-2.8c-1.2-1.5-2.4-3-3.7-4.4l-1.6-1.7-1.6-1.5-2.7-2.1A11.8,11.8,0,0,0,779.9,756.5Z" fill="#fff"/><path d="M804.9,816.4c.1.5.3,1,.4,1.5a195,195,0,0,0-27-52.9,29.3,29.3,0,0,1,4.7,4.6c1.8,2.4,3.5,4.8,5.1,7.3s3,5,4.4,7.6,3.5,6.9,5,10.5a155.5,155.5,0,0,1,5.9,16.6Z" fill="#fff"/><path d="M815.9,914.9l-.3-.2v.2c-.7,5.6-1.6,11.3-2.6,16.9a276.7,276.7,0,0,0,3.4-37.7c.3,3.6.5,7.2.8,10.8S816.5,911.1,815.9,914.9Z" fill="#fff"/><path d="M526,770.9s30.1-5.9,44.6-10.4,19.4-7.6,19.4-10.6-22,2-22,2Z"/><path d="M929,1293.7l-.3.3.2-.3Z"/></g></svg>