<svg height="1830" viewBox="0 0 1920 1830" width="1920" xmlns="http://www.w3.org/2000/svg"><path d="m1076.3 1384.6h-2.6l-2.9-.5-3-.5h-.9a7.1 7.1 0 0 0 1.2-3.1 25.9 25.9 0 0 1 1.7-3.3l1.4-2.5c1.2-2.5 2.5-4.9 3.7-7.3a107.5 107.5 0 0 0 6.7-14.1c8.5-23.5 14.1-43.2 17.7-61.9 2.1-11 3.9-22.2 5.8-33l.7-4.5c.7-4.3 1.3-8.8 1.9-13.8a2.2 2.2 0 0 1 .9-1.7l1.2-.6.7-.3 4.3-1.6a156.2 156.2 0 0 0 16-7.4c4.2-2.1 8.5-4.3 12.8-6.1l3.6-1.5c20.2-8.4 37.5-17.5 51.5-26.9v2.3c.1 3.8.1 7.5 0 10.9a182.2 182.2 0 0 1 -3.8 35.5c-.3 1.1-.6 2.3-.8 3.4l-.9 3.5c-.3 1.2-.7 2.3-1 3.4-3 10.7-6.4 21.4-9.4 30.5a278.9 278.9 0 0 1 -30.1 63.7l-.3.5-1.3 1.9a16.3 16.3 0 0 1 -1.1 1.7l-2.3 3.1c-4.6 6.6-8 11.4-15.1 13.5l-2.7 1-2.3.9-3.5 1.2-3 1.4c-8.1 3.6-16.5 7.4-24.5 9.4a79.8 79.8 0 0 1 -20.3 3z" fill="#fff"/><path d="m1195.3 1200.1v6.9a181.5 181.5 0 0 1 -3.8 34.7c-.3 1.2-.5 2.3-.8 3.4l-.9 3.4-.9 3.4c-3 10.5-6.3 20.8-9.4 30.3a270 270 0 0 1 -29.7 62.9l-.4.6-1.2 1.8-1 1.5-2.3 3.2c-4.8 6.9-7.6 10.5-13.3 12.1l-3 1.2-2 .8a23 23 0 0 0 -3.9 1.4l-3 1.3c-8 3.6-16.3 7.3-24 9.3a76.2 76.2 0 0 1 -19.4 2.8h-2.2l-2.4-.4a19.8 19.8 0 0 0 1.1-2c.6-.9 1.1-1.8 1.6-2.7s2.3-4.7 3.6-7.1a130.3 130.3 0 0 0 6.8-14.6c8.6-23.7 14.3-43.5 17.9-62.5 2.1-11 4-22.3 5.8-33.1l.7-4.4c.7-4.2 1.3-8.6 1.9-13.5h.1l.6-.2 4.2-1.6a176.8 176.8 0 0 0 16.4-7.5c4.3-2.2 8.3-4.2 12.5-6l3.7-1.5c17.9-7.5 33.6-15.4 46.7-23.8m4.4-11.2h-.2c-16.3 11.5-35.4 20.9-53.6 28.5l-3.6 1.5c-9.8 4.1-18.8 9.7-28.7 13.4l-4.3 1.6-1 .4-1.7 1a5.5 5.5 0 0 0 -2.4 4.2c-.5 4.5-1 9-1.8 13.5-2.1 12.5-4.2 25-6.5 37.4-4 21-10.3 41.4-17.6 61.5-2.6 7.2-6.8 13.9-10.2 21-.9 1.9-2.8 4.5-3.6 7 .9.2-3.8 5.9-3 6s4.8.9 6 1 5.3 1 6 1h2.8a86.1 86.1 0 0 0 21.2-3.1c9.3-2.4 19-7 28-11a17.6 17.6 0 0 1 3-1l5-2c9.6-2.7 13.4-9.7 19.3-17.9l1.2-1.8 1.6-2.4a282 282 0 0 0 30.5-64.5c3.3-10.2 6.6-20.3 9.5-30.6l.9-3.5.9-3.5.9-3.6a198.4 198.4 0 0 0 3.9-36.1q.1-5.5 0-11.1c0-1.2-.1-2.4-.1-3.6-.5-2.2-1.8-3.5-2.4-3.5z"/><path d="m635 1633.8c-1.4 9.5-2.9 18.9-4.2 28.4-.3 1.9-.6 3.9-1 5.8-3.6 16.5-10 32.1-17.5 47.3-4 8.1-8.8 15.6-15.3 21.6-9.4 8.5-12.8 10-23 1.9-6.3-5.1-11.7-11.3-17.2-17.2a19.7 19.7 0 0 1 -3.8-6.6c-1.9-5.2-3.6-10.4-5.4-16 3.1-2.1 6.3-4 8.6-6.6l8.7-9.8c2.5-2.9 5-5.7 7.4-8.6s6.8-8.4 10-12.8c14.2-19.6 23.2-41.9 31-64.7a22.6 22.6 0 0 0 1-4.5 24.9 24.9 0 0 0 .9-4.6c.9-6.9 1.6-13.9 2.6-20.8l.3-1.3c.6-2.7 1.2-5.3 1.7-8a79.3 79.3 0 0 0 1.4-8.5l.3-2.3c.9-3.8 2.1-7.4 3.3-11.1a9.9 9.9 0 0 1 5.7-6.3c-.1 2.7-.2 4.8-.3 6.8-1.2 17.2 2.5 34 3.7 51s3.5 31.2 1.1 46.9z" fill="#fff"/><path d="m617.6 925.3a26.7 26.7 0 0 1 -9.9-3.5 25.8 25.8 0 0 0 10.7 4.1 173 173 0 0 1 45.9 14.9 166.5 166.5 0 0 0 -46.7-15.5zm16.3 661.6c-1.2-17-4.9-33.8-3.7-51 .1-2 .2-4.1.3-6.8a9.9 9.9 0 0 0 -5.7 6.3c-1.2 3.7-2.4 7.3-3.3 11.1l-.3 2.3a79.3 79.3 0 0 1 -1.4 8.5c-.5 2.7-1.1 5.3-1.7 8l-.3 1.3c-1 6.9-1.7 13.9-2.6 20.8a24.9 24.9 0 0 1 -.9 4.6 22.6 22.6 0 0 1 -1 4.5c-7.8 22.8-16.8 45.1-31 64.7-3.2 4.4-6.5 8.6-10 12.8s-4.9 5.7-7.4 8.6l-8.7 9.8c-2.3 2.6-5.5 4.5-8.6 6.6 1.8 5.6 3.5 10.8 5.4 16a19.7 19.7 0 0 0 3.8 6.6c5.5 5.9 10.9 12.1 17.2 17.2 10.2 8.1 13.6 6.6 23-1.9 6.5-6 11.3-13.5 15.3-21.6 7.5-15.2 13.9-30.8 17.5-47.3.4-1.9.7-3.9 1-5.8 1.3-9.5 2.8-18.9 4.2-28.4 2.4-15.7 0-31.3-1.1-46.9zm-3.4 46.2-1.2 8c-1 6.7-2.1 13.6-3.1 20.5-.2 1.6-.5 3.4-.9 5.5-3.1 14.1-8.5 28.8-17.1 46.2-4.4 8.9-9 15.3-14.3 20.2s-6.7 5.8-8.7 6-4.3-1.1-8.3-4.3-9.4-8.8-13.8-13.5l-3-3.2a16.8 16.8 0 0 1 -2.8-5.1c-1.5-4-2.9-8.2-4.3-12.5a34.4 34.4 0 0 0 6.7-5.5l2-2.3c2.2-2.5 4.5-5 6.6-7.5l7.5-8.7c4-4.7 7.3-9 10.2-13 15.2-21 24.5-45.1 31.7-65.9a29.5 29.5 0 0 0 1-5 27.5 27.5 0 0 0 1-5l.9-7.5c.5-4.3 1.1-8.8 1.8-13.2 0-.3.1-.5.1-.8l.4-1.8c.5-2.2.9-4.3 1.3-6.5a61.7 61.7 0 0 0 1.4-7.7c.4 6.8 1.2 13.4 2 19.9s1.4 11.2 1.8 16.9c.2 3.3.5 6.6.8 9.8 1.1 12.4 2.1 24.1.3 36zm107.2-625.3c-2.7-3.7-5.5-7.5-8.5-11.3 2.9 4 5.6 7.9 8.1 12 6.9 10.9 9.9 19.5 10.6 26.2.1-7.3-2.5-16.3-10.2-26.9zm191.2 285.9c-131.1-24.7-212.9 2.2-263.1 32.6-45.4 27.5-75 75.4-77.8 128.5-1.7 31.5 6.7 58.1 43.4 48.1 77.8-21.4 288.4-201.2 297.3-208.9l.3-.3zm277.3-337.5c-4.5-5.1-9.7-8.7-16.5-9.7l-22.2-3.1c-11 1.3-22.7 2.1-34.2 4.2-8.2 1.6-16.1 4.9-24 7.5l-18.9 6.4a107 107 0 0 0 -31.2 17.2 40.1 40.1 0 0 0 -13.7 19c-1.1 3.6-2.7 7-3.8 10.5-3 9.7-1.2 18.5 5.6 26a62 62 0 0 0 10.6 9.9c6.8 4.7 14.5 3.2 21.8 1.5a125.1 125.1 0 0 0 30-11.3c10.7-5.7 22-10.3 32.8-15.7 5.8-2.9 11.2-6.8 16.8-10.1s11.5-6 17-9.6c7-4.5 14.4-8.9 20.4-14.6s8.5-11 11.8-17.1c1.9-3.5.7-7.6-2.3-11zm130.5 48.1c-1.2-1.5-3.7-1.8-7.4-.9-9.7 2.6-19.2 5.8-28.9 8.1-13.2 3.1-26.4 6.3-39.8 8.2-18.3 2.7-36.4 6-53.9 12.2-14.1 4.9-28.5 9-42.4 14.4-8.3 3.2-16 7.9-23.7 12.2-10.4 5.8-20.7 11.9-30.8 18.1a54.8 54.8 0 0 0 -7.2 5.5l-3.8 3.2a13.9 13.9 0 0 0 -4.9 9.6v1.6a26.9 26.9 0 0 0 .6 6.3c1.4 6.5 3 12.9 4.5 19.4 2.6 8.6 5.2 21 7.5 34.2.8 4.1 1.5 8.1 2.2 12.2s1.2 7.7 1.9 11.5c1.7 10.1 3.4 20.1 5.2 30.5 8.6-2.4 16.5-5.2 23.9-10.2a113.1 113.1 0 0 1 18.5-9.9c20.8-8.9 39.2-21.5 57.5-34.6l4.3-3.3c9.2-7.4 17.2-16.1 26.3-23.5l2.1-1.7 1.6-1.2a1.8 1.8 0 0 1 .7-.5l3.1-2.7 2.1-1.9c7.3-6.5 13.9-13.8 20.7-20.8 16.3-16.8 29.1-36 42.4-54.9 1.5-2.1 2.9-4.2 4.2-6.4s2.9-5.1 4.2-7.6l2.4-4.5.9-1.9 2-3.9 1-1.9 2-3.8a14.5 14.5 0 0 0 .9-2.2 12.1 12.1 0 0 0 .5-1.8c0-.2.1-.4.1-.6.7-3 .5-5.2-.5-6.5z"/><path d="m1115.8 1210.7c-1.8-10.4-3.5-20.4-5.2-30.5-.7-3.8-1.3-7.6-1.9-11.5s-1.4-8.1-2.2-12.2c5.3 30.7 9.1 65.4 9.1 65.4l2.8 10.6.9-.4 4.7-12.6v-11.4c-2.6 1-5.4 1.8-8.2 2.6z"/><path d="m1349.7 903.4c-80.8-38.7-184.9-33.8-184.9-33.8a97 97 0 0 0 -19.1 3v-.8c-109.7 16.8-180.7 67.5-180.7 67.5v.2c-66.3 18.7-91.4-.2-91.4-.2-192.5-119.9-296.6-39.1-266-17.5a26.7 26.7 0 0 0 9.9 3.5 166.5 166.5 0 0 1 46.7 15.5c0 .1 0 .1.1.1 27.9 13.7 49 33.9 64.8 55.6 3 3.8 5.8 7.6 8.5 11.3 7.7 10.6 10.3 19.6 10.2 26.9 1.6 16-9.2 21.3-9.2 21.3-136.5 119.3-186.5 271-188.4 276.9l-.5-.2s-23.1 83.7-30.2 139.2c0 0-58.4 38-106.9 131.5s-54.1 143.5-24.6 149.1 96.9-.5 155.4-51l.6 1.6c1.5 4.7 3 9.1 4.6 13.5a23.2 23.2 0 0 0 4.8 8.1c1 1.1 1.9 2.2 2.9 3.2a144.9 144.9 0 0 0 14.8 14.5c4.8 3.8 9 6.3 13.6 6.3h1.6c4.8-.6 8.9-4 13.6-8.4 6.2-5.6 11.4-12.9 16.4-22.9 9-18.1 14.6-33.5 17.9-48.4.4-2.2.7-4.2 1-6 .9-6.7 2-13.7 3-20.3.4-2.7.9-5.4 1.3-8 1.9-13 .8-25.8-.3-38.2-.3-3.2-.6-6.5-.8-9.7-.5-5.8-1.2-11.7-1.8-17.3-1.4-11.4-2.7-22.1-2-33l.3-4.4c0-.8.1-1.6.1-2.5l.4-7.2-2.3.9c11.5-12.1 25.8-18.7 31.3-21.7 3.4-1.8 18.2-12.8 35.4-26l5.9-2.9c64.3-33.2 192.7-143.8 219.3-166.9l13.1-4c-.5 2-1 3.9-1.4 5.8-17.8 76.4 7.2 162.8 18.4 176.8s71.1-17.6 124.5-129.4c19.6-41 26.7-81.2 27.7-117l10.6-2.3 1.3-3.4-.9.4-2.8-10.6s-3.8-34.7-9.1-65.4c.8 4.1 1.5 8.1 2.2 12.2s1.2 7.7 1.9 11.5c1.7 10.1 3.4 20.1 5.2 30.5 2.8-.8 5.6-1.6 8.3-2.6l.9-127.6-17.3-2.5 2.1-1.4c10.1-6.2 20.4-12.3 30.8-18.1 7.7-4.3 15.4-9 23.7-12.2 13.9-5.4 28.3-9.5 42.4-14.4 17.5-6.2 35.6-9.5 53.9-12.2 13.4-1.9 26.6-5.1 39.8-8.2 9.7-2.3 19.2-5.5 28.9-8.1 3.7-.9 6.2-.6 7.4.9s1.2 3.5.5 6.6c0 .2-.1.4-.1.6a12.1 12.1 0 0 1 -.5 1.8 21.8 21.8 0 0 1 -.9 2.3l-2 3.7-1 1.9-2 3.9-.9 1.9-2.4 4.5c-1.3 2.6-2.7 5.1-4.2 7.6s-2.7 4.3-4.2 6.4c-13.3 18.9-26.1 38.1-42.4 54.9-6.8 7-13.4 14.3-20.7 20.8l-2.1 1.9-3.1 2.7a1.8 1.8 0 0 0 -.7.5l-1.6 1.3-2.1 1.6c-9.1 7.4-17.1 16.1-26.3 23.5l-4.3 3.3c-18.3 13.1-36.7 25.7-57.5 34.6a113.1 113.1 0 0 0 -18.5 9.9 66.3 66.3 0 0 1 -15.6 7.6v11.4l-4.7 12.6c35.8-14.2 86.3-45.3 86.3-45.3 105.4-64.7 158.2-185.7 158.2-185.7 14.3-36 11.2-48.5 12.6-71.7s-26.7-26.2-26.7-26.2zm-715.8 683.5c1.1 15.6 3.5 31.2 1.1 46.9-1.4 9.5-2.9 18.9-4.2 28.4-.3 1.9-.6 3.9-1 5.8-3.6 16.5-10 32.1-17.5 47.3-4 8.1-8.8 15.6-15.3 21.6-9.4 8.5-12.8 10-23 1.9-6.3-5-11.7-11.3-17.2-17.2a19.7 19.7 0 0 1 -3.8-6.6c-1.9-5.2-3.6-10.4-5.4-16 3.1-2.1 6.3-3.9 8.6-6.6l8.7-9.8c2.5-2.8 5-5.7 7.4-8.6s6.8-8.4 10-12.8c14.2-19.6 23.2-41.9 31-64.7a22.6 22.6 0 0 0 1-4.5 24.9 24.9 0 0 0 .9-4.6c.9-6.9 1.6-13.9 2.6-20.8l.3-1.3c.6-2.7 1.2-5.3 1.7-8a79.3 79.3 0 0 0 1.4-8.5l.3-2.3c.9-3.8 2.1-7.4 3.3-11.1a9.9 9.9 0 0 1 5.7-6.3c-.1 2.7-.2 4.8-.3 6.8-1.2 17.2 2.5 34 3.7 51zm294.8-292.9c-8.9 7.7-219.5 187.5-297.3 208.9-36.7 10-45.1-16.6-43.4-48.1 2.8-53 32.4-101 77.8-128.5 50.2-30.4 132-57.3 263.1-32.6h.1zm279.8-326.8c-3.3 6.1-6.9 12.4-11.8 17.1s-13.4 10.1-20.4 14.6c-5.5 3.6-11.4 6.4-17 9.7s-11 7.1-16.8 10c-10.8 5.4-22.1 10-32.8 15.7a125.1 125.1 0 0 1 -30 11.3c-7.3 1.7-15 3.2-21.8-1.5a62 62 0 0 1 -10.6-9.9c-6.8-7.5-8.6-16.3-5.6-26 1.1-3.5 2.7-6.9 3.8-10.4a39.9 39.9 0 0 1 13.7-19.1 107 107 0 0 1 31.2-17.2l18.9-6.4c7.9-2.6 15.8-5.9 24-7.5 11.5-2.1 23.2-2.9 34.2-4.2l22.2 3.1c6.8 1 12 4.6 16.5 9.7 3 3.4 4.2 7.5 2.3 11z"/><g fill="#fff"><path d="m1337.2 1010.9c0 .2-.1.4-.1.6a12.1 12.1 0 0 1 -.5 1.8 14.5 14.5 0 0 1 -.9 2.2l-2 3.8-1 1.9-2 3.9-.9 1.9-2.4 4.5c-1.3 2.5-2.7 5.1-4.2 7.6s-2.7 4.3-4.2 6.4c-13.3 18.9-26.1 38.1-42.4 54.9-6.8 7-13.4 14.3-20.7 20.8l-2.1 1.9-3.1 2.7a1.8 1.8 0 0 0 -.7.5l-1.6 1.2-2.1 1.7c-9.1 7.4-17.1 16.1-26.3 23.5l-4.3 3.3c-18.3 13.1-36.7 25.7-57.5 34.6a113.1 113.1 0 0 0 -18.5 9.9c-7.4 5-15.3 7.8-23.9 10.2-1.8-10.4-3.5-20.4-5.2-30.5-.7-3.8-1.3-7.7-1.9-11.5s-1.4-8.1-2.2-12.2c-.5-2.9-1.1-5.7-1.7-8.6-.2-.6-.3-1.3-.5-2-1.7-7.9-3.5-15.7-5.3-23.6s-3.1-12.9-4.5-19.4a26.9 26.9 0 0 1 -.6-6.3v-1.6a13.9 13.9 0 0 1 4.9-9.6l3.8-3.2a54.8 54.8 0 0 1 7.2-5.5c10.1-6.2 20.4-12.3 30.8-18.1 7.7-4.3 15.4-9 23.7-12.2 13.9-5.4 28.3-9.5 42.4-14.4 17.5-6.2 35.6-9.5 53.9-12.2 13.4-1.9 26.6-5.1 39.8-8.2 9.7-2.3 19.2-5.5 28.9-8.1 3.7-.9 6.2-.6 7.4.9s1.2 3.4.5 6.5z"/><path d="m1208.5 967.2c-3.3 6.1-6.9 12.4-11.8 17.1s-13.4 10.1-20.4 14.6c-5.5 3.6-11.4 6.4-17 9.6s-11 7.2-16.8 10.1c-10.8 5.4-22.1 10-32.8 15.7a125.1 125.1 0 0 1 -30 11.3c-7.3 1.7-15 3.2-21.8-1.5a62 62 0 0 1 -10.6-9.9c-6.8-7.5-8.6-16.3-5.6-26 1.1-3.5 2.7-6.9 3.8-10.5a40.1 40.1 0 0 1 13.7-19 107 107 0 0 1 31.2-17.2l18.9-6.4c7.9-2.6 15.8-5.9 24-7.5 11.5-2.1 23.2-2.9 34.2-4.2l22.2 3.1c6.8 1 12 4.6 16.5 9.7 3 3.4 4.2 7.5 2.3 11z"/><path d="m929 1293.7-.3.3c-8.9 7.7-219.5 187.5-297.3 208.9-36.7 10-45.1-16.6-43.4-48.1 2.8-53.1 32.4-101 77.8-128.5 50.2-30.4 132-57.3 263.1-32.6z"/></g><path d="m1124.1 1208.1v11.4l-4.7 12.6-.9.4-2.8-10.6s-3.8-34.7-9.1-65.4c.8 4.1 1.5 8.1 2.2 12.2s1.2 7.7 1.9 11.5c1.7 10.1 3.4 20.1 5.2 30.5 2.7-.8 5.5-1.6 8.2-2.6z"/><path d="m875.5 938.6c-196.4-121-301.7-37.5-267.8-16.8 0 0 0 2 29.9 11.2a182.5 182.5 0 0 1 86.4 57.1c1.8 2.1 3.5 4.2 5.2 6.4 18.2 20.5 18.7 38.2 18.7 38.2-.5 20.5-22.9 29.2-22.9 29.2" fill="none" stroke="#fff" stroke-miterlimit="10" stroke-width="7.04"/><path d="m1218.2 954.3a40.7 40.7 0 0 1 -14.1 22.7c-20 16.5-40.1 32.7-60.2 49-6.8 5.6-13.3 11.5-20.4 16.7-3.2 2.3-6.6 4.3-10.2 6.5s-5.8 2.9-9.1 4.8c-52.2 29.2-72.5-5.3-72.5-5.3h-.2l.3-.2c-3.1-9.8-2.8-19.4-.8-29.3 3.7-17.6 12.8-31.3 25.9-43.4 25.3-23.3 55.6-34.6 88.7-40.1 10.1-1.6 20.3-3 30.5-4.2a51.1 51.1 0 0 1 29.1 4.7 37.2 37.2 0 0 1 11.6 9.2c1.7 1.9 2.1 6.1 1.4 8.9z" fill="#fff" stroke="#000" stroke-miterlimit="10" stroke-width=".88"/></svg>