<svg xmlns="http://www.w3.org/2000/svg" width="840" height="840" viewBox="0 0 840 840"><circle cx="420" cy="420" r="390.2"/><path fill="#fff" d="M248.1 540.4l173.3-155.6a325.6 325.6 0 0 0 26.4-27.1 52 52 0 0 0 13.3-35.3c0-15.1-5.5-26.9-16.4-35.5s-23.8-13-38.5-13c-17.6 0-31.4 5.5-41.2 16.4s-15.5 24.4-16.7 40.3l-94.5-6.9c1.2-23.1 6.1-43.1 14.5-60.2a126.5 126.5 0 0 1 33.4-42.5q20.7-17 48.8-25.5c18.7-5.7 38.9-8.5 60.8-8.5a183.9 183.9 0 0 1 56.7 8.5c17.6 5.7 33 14.1 46 25.2a113.9 113.9 0 0 1 30.5 41.9q11.1 25.2 11.1 58.6a153.5 153.5 0 0 1-4.5 38.7 129.9 129.9 0 0 1-12.2 31.5 147.7 147.7 0 0 1-18.6 26.2 320.1 320.1 0 0 1-23.3 23.3L361.5 557.4h197.8v83.2H248.1z"/></svg>