<svg xmlns="http://www.w3.org/2000/svg" width="840" height="840" viewBox="0 0 840 840"><circle cx="420" cy="420" r="390.2"/><path fill="#fff" d="M374.3 374.3h30.9a168.5 168.5 0 0 0 25.8-1.9 71.2 71.2 0 0 0 23-7.2 42.7 42.7 0 0 0 16.7-15.1q6.3-9.7 6.3-25.5c0-13.5-5.3-24.6-16-33.4s-23.9-13.3-39.4-13.3-26.9 4-36.6 12a55.8 55.8 0 0 0-18.9 29.6l-103.9-21.4q7.5-29 22.7-49.5a123.7 123.7 0 0 1 35.9-33 158.2 158.2 0 0 1 46.3-18.6 234 234 0 0 1 53.8-6 223.9 223.9 0 0 1 57.1 7.2c18.2 4.9 34.3 12.4 48.2 22.7a113.8 113.8 0 0 1 33 38.8q12.3 23.3 12.3 55.4 0 37.2-19.5 63.6c-13 17.7-31.9 29-56.7 34.1v1.8c13.4 1.7 25.3 5.7 35.6 12a95.8 95.8 0 0 1 26.1 23.3 102.7 102.7 0 0 1 16.4 31.5 120.6 120.6 0 0 1 5.7 37.2q0 33.4-12.9 58.6a122.1 122.1 0 0 1-34.7 41.9q-21.7 16.6-51 24.9a231.7 231.7 0 0 1-62.1 8.2q-59.8 0-103-27.8c-28.7-18.4-47.8-47.6-57-87.5l99.5-23.3c3.4 15.9 10.2 28.5 20.5 37.8s25.5 13.8 45.7 13.8 35.8-5.3 45.7-16 14.8-24.5 14.8-41.3c0-12.6-2.6-22.4-7.9-29.3a47.1 47.1 0 0 0-20.5-15.4 88.3 88.3 0 0 0-28.3-6c-10.5-.7-21-1-31.5-1h-22.1z"/></svg>