<svg xmlns="http://www.w3.org/2000/svg" width="840" height="840" viewBox="0 0 840 840"><circle cx="417" cy="420" r="390.2"/><g fill="#fff"><path d="M624 316.6c3.6-2.1 6.8-5.8 9-11.3-2.9 5.5-6 9.1-9 11.3zm-20.4-5.1a13 13 0 0 0 5.4 5.7 18.3 18.3 0 0 1-5.4-5.7zM414.8 721l-2.9.3zm188.6-420.3c-2.7 2.1-2.2 6.7.2 10.8a14.7 14.7 0 0 1-.2-10.8zm5.6 16.5c4.1 2.7 9.5 3.4 15-.6a15.2 15.2 0 0 1-15 .6z"/><path d="M603.6 311.5c5.3 9.6 21.8 10.8 29.4-6.2-8.1 1.8-36.5-14.4-29.4 6.2zm-24.2-12.9c-14.4-9.2-45.2-10.9-52.4-5.2zM456.9 603.2c33.9-27.4 19.4-56.5-9.6-28.6-37.8 73.7 34 83.2 43.1 21.4-9.8 19-40 56.6-33.5 7.2zm9.9-33.9c7.3-1.2 4.3 15.8-4.3 20s-2.8-16.5 4.3-20z"/><path d="M676.6 332.5c-.9-17.1 14.9-1.8 27.4 5.1-3.6-11.2-7.2-12.9-24.3-20.7-2.2-16.6 5.4-14.1 27.8-16.7-68.3.1-.7-82.5-36.9-122.1-21.6 27.2-62.8 23.7-97.1 21.4-75.8 7.5-28.5-71.3-85.3-80.8-27.6 13.7-49.5 101.9-72.8 88.8-204.5-56.8-338.5 111.5-271.6 291C184.9 618 365.4 738.8 425.1 718.6c122.5-52.8 324.8-309.5 147.4-390.8l14-5.2c-13.6.1-26.7 8.7-42.5-2.9l39.9-9.3c-50.6.8-134.2 19.8-168.2 55.7-60.9-118.4-232-69.4-212.2 53.4 17.1 29 28.8 61 30.8 99.2 9.9 36 38.5 12.5 17.9-23.6 4.1-9.5 11.7-12.1 24.6-21.4 3.5 40.6 31.4 29.5 47.7 6 7.3 58.9 31.5 40.4 49 .5 12.6 25.8 26.4 2.5 45.9 12.3 16.1-11.5 20.5-33.3 33.5-51 4.4 15.7-3.6 46.3-5.3 62.8-48.1-6.1-51.1 64.9-61.5 103.1-20.9 47.3-12.6.2-10.1-30.3-1.8-11-1.7-15.8-17.6-14.9-24.6 2.5-20.9 36.4-35.6 54-41.2 46.6-32-38.6-9.7-50.5 6.2 14.6 11.7 10 10.3 1.8-44.9-54.1-72.1 140.6 8.3 45.3 44.8 5.5 11.1 33.7 56.8 14.2-.5 14.5 19.6 79.3 31 30.3-4.1-25-13.3-24.1 7.8-41-7.8 2.4-17.4 9-24.4 12.3-5.6-35.8 29.3-43.9 41.4-67.3 10.6-32.9 18.8-49.3 40-75.3 19.2 41.6 62.1-18.2 53.9-28-10.5 21.9-46.4 64.5-32.5 3 8.7-7.2 26.9-16.3 16.4-29.2-39.1-22.7-34 60.6-56.5 68.2l-.5.4c22.4-106.8-15.2-81.7-35.7-33.6-4.1-3 .7-56.4-15.6-38.3-9.8 21.8 6.3 46.1-23.5 62.1-5.9-16.3 11.2-45.8-8.7-58.5-4.4 27.4-14 51.7-30.4 77.1-19.4-28.2-.4-80.1 37.1-86-9.2-13.4 16.6-91.3-41.4-40.6-15.8 27.3-11.1 70.1-29.6 97.5s-28 8.3-18.7-18.6c24.4-9.4 25.9-46.9-5.6-29.9-17.5 24.8-14.1 48.6-49 60.4.6-7.4-3.2-25.4 8.5-34.2 102.9-77.3 2.4-151.6-22.4-12.2-40.8-136 135.2-173 184.8-48.9 94.9-115.8 243.8-51.9 207.9 73.6-15.1 73.1-179.2 247.9-220.7 232C139.7 629.1 50.8 310 264.7 227.1c241.7-51.3 113.4 88.2 229.1-91.3 21.9 21.1 12.7 57.1 34.6 75 42.8 1.3 99.8 19 136.5-8.2 6.5 120.8 13 85.7-8 103.6 26-3.9 15.7 8.3-2.7 11.7 2.1 6.1 16.6-.6 14.7 8.7-5 6.9-34.3-2-3.8 10.7-1.3 4.4-32 28.3-24.5 30.7 15-6.9 24.8-36.3 41.1-15.3-1.1-5.5-3.1-13.1-5.1-20.2zm-319.3 270c-31.7 32.5 3.8-69.5 11.7-25.8-4.2 11.2-4.8 12.2-11.7 25.8zm50 38.9c2.5 7.7 4.9 15.5 7.3 23.3l-4.7 1.4c0-5.3-9.9-23-2.6-24.7zm15.1-60c-5.6 4.7-11.2 7.1-15.8 6.2 37.6-146.4 61.4-43 15.8-6.2zm87-144.5c11-12.6 15.1 14.8-4.2 16.2.7-3.9.2-3.6 4.2-16.2zm-151.5-43.3c21.4-56.7 35.3 21.7-10 53.2 1.1-10.4 4.3-38.1 10-53.2zm-49.4 39.2c5.4 3.9 1.7 19.5-8 19.7-3.8-2.1.3-16.4 8-19.7zm-59.6 73.7c9 23.6 2.2 32.7-4.4.9zm28.3-132.3c34.8 5.5-7.8 76.3-29.3 78.1 6.9-24.5 10.7-55.2 29.3-78.1z"/></g></svg>