<svg xmlns="http://www.w3.org/2000/svg" width="540" height="540" viewBox="0 0 540 540"><path fill="#010101" d="M447.5 50.7h-352a48 48 0 0 0-48 48v352a48 48 0 0 0 48 48h352a48 48 0 0 0 48-48v-352a48 48 0 0 0-48-48zM324.8 434.4c-8.4 1.5-11.5-3.7-11.5-8s.2-33 .2-55.3c0-15.6-5.2-25.5-11.3-30.7 37-4.1 76-9.2 76-73.1 0-18.2-6.5-27.3-17.1-39 1.7-4.3 7.4-22-1.7-45-13.9-4.3-45.7 17.9-45.7 17.9a157.3 157.3 0 0 0-83.2 0s-31.8-22.2-45.7-17.9c-9.1 22.9-3.5 40.6-1.7 45-10.6 11.7-15.6 20.8-15.6 39 0 63.6 37.3 69 74.3 73.1-4.8 4.3-9.1 11.7-10.6 22.3-9.5 4.3-33.8 11.7-48.3-13.9a34.8 34.8 0 0 0-25.5-17.1c-16.2-.2-1.1 10.2-1.1 10.2 10.8 5 18.4 24.2 18.4 24.2 9.7 29.7 56.1 19.7 56.1 19.7 0 13.9.2 36.5.2 40.6s-3 9.5-11.5 8c-66-22.1-112.2-84.9-112.2-158.3 0-91.8 70.2-161.5 162-161.5s166.2 69.7 166.2 161.5c.1 73.4-44.7 136.3-110.7 158.3zm-98.1-61.1c-1.9.4-3.7-.4-3.9-1.7s1.1-2.8 3-3.2 3.7.6 3.9 1.9-1 2.6-3 3zm-9.5-.9c0 1.3-1.5 2.4-3.5 2.4s-3.7-.9-3.7-2.4 1.5-2.4 3.5-2.4 3.7.9 3.7 2.4zm-13.7-1.1c-.4 1.3-2.4 1.9-4.1 1.3s-3.2-1.9-2.8-3.2 2.4-1.9 4.1-1.5 3.3 2.1 2.8 3.4zm-12.3-5.4c-.9 1.1-2.8.9-4.3-.6s-1.9-3.2-.9-4.1 2.8-.9 4.3.6 1.8 3.3.9 4.1zm-9.1-9.1c-.9.6-2.6 0-3.7-1.5s-1.1-3.2 0-3.9 2.8-.2 3.7 1.3 1.1 3.3 0 4.1zm-6.5-9.7c-.9.9-2.4.4-3.5-.6s-1.3-2.8-.4-3.5 2.4-.4 3.5.6 1.3 2.8.4 3.5zm-6.7-7.4c-.4.9-1.7 1.1-2.8.4s-1.9-1.7-1.5-2.6 1.5-.9 2.8-.4 1.9 1.8 1.5 2.6z"/></svg>