<svg xmlns="http://www.w3.org/2000/svg" width="840" height="840" viewBox="0 0 840 840"><circle cx="420" cy="420" r="390.2"/><path fill="none" d="M377.8 436.1c16.7 2.3 45.7 4.8 73.9.7-6.2-14-18-36.6-36.4-57.7-10.7 10.7-28.4 31.2-37.5 57z"/><g fill="#fff"><path d="M482.5 442.8c-.6-2.1-16.7-51.3-57.1-91.7l-8.3-8.3-9.3 7.3c-1.9 1.6-48.2 38.9-59.6 94l-2.7 12.9 12.9 2.8a328.4 328.4 0 0 0 60.9 5.8c17 0 35.8-1.5 53.8-5.9l13.8-3.4zm-104.7-6.7c9.1-25.8 26.8-46.3 37.5-57 18.4 21.1 30.2 43.7 36.4 57.7-28.2 4.1-57.2 1.6-73.9-.7z"/><path d="M415.5 426.8a11.3 11.3 0 0 0 0-22.6 11.3 11.3 0 0 0 0 22.6zm61.9 138s-11.5 22.5-20.2 31.2c0 0 17.3 39.8-8.8 74.4 0 0 51.1-3.6 47.3-53.4 0 0 23.7 1.4 31.2 14.4 0 0 12.9-50-49.5-66.6zm79.7-270.1s25.7-35.1 68.8-29.9c0 0-28.9-42.3-70-14 0 0-10.7-21.2-3.3-34.2 0 0-49.7 14.2-32.6 76.4 0 0 25.3-1.5 37.1 1.7zM231.4 366s-43.2-4.1-60.9-43.7c0 0-21.6 46.4 23.8 67.2 0 0-12.7 20-27.7 20.3 0 0 37.6 35.5 82.3-11 0 0-14.1-21-17.5-32.8zm305.2 147.7a20 20 0 1 0 27.3 7.3 20 20 0 0 0-27.3-7.3zm-298.9-57.4a20 20 0 1 0 27.3 7.2 20 20 0 0 0-27.3-7.2zM458.4 262a20 20 0 1 0-27.3-7.2 19.9 19.9 0 0 0 27.3 7.2zM308.8 447.2l18.7 13.5 4.6-22.6c11.4-55 51.4-93.6 52.2-94.4l13.9-13.1-16.1-10.3c-33.6-21.6-53.4-46.4-58.8-73.5-4.9-25.3 4.1-47 9.3-56.8 6.6 8 18.7 28.6-2.2 54.7 0 0 51.2-2.2 48.7-52.1 0 0 23.7 2.1 30.9 15.3 0 0-5.8-50.5-57.2-50.2s-54.2 0-86.4 37.4c-28.1 32.7-38.8 91.1-30.9 138.1 11.6 68.7 70.8 112.2 73.3 114zm-18.6-234a63 63 0 0 1 4.5-5.5 110.6 110.6 0 0 0-.7 44.3c5.9 31.2 25.3 59.2 57.5 83.4-12.2 14.4-30.6 39.9-42 72.8-16-16-38.6-44.2-44.6-79.9-6.5-38.9 4.1-87.3 25.3-115.1z"/></g><path fill="none" d="M384.8 729.4a314 314 0 0 0 35.2 2 309.8 309.8 0 0 0 208.2-80.1 314.7 314.7 0 0 1-209.4 79.9 318.5 318.5 0 0 1-34-1.8z"/><path fill="#fff" d="M420 108.6c-171.7 0-311.4 139.7-311.4 311.4 0 155.6 114.8 284.9 264.2 307.8l7.1 1 4.9.6a318.5 318.5 0 0 0 34 1.8 314.7 314.7 0 0 0 209.4-79.9c63.3-57 103.2-139.6 103.2-231.3 0-171.7-139.7-311.4-311.4-311.4zm-3.5 598.1c-157.4 0-285.4-128.1-285.4-285.5 0-153.2 121.3-278.6 272.9-285.1l5.2-.2h7.3c100.8 0 189.5 52.5 240.3 131.5.9 1.3 1.7 2.6 2.5 3.9a284.1 284.1 0 0 1 42.7 150c0 157.3-128.1 285.4-285.5 285.4z"/><path fill="#fff" d="M688 408.2c-14.6-40.6-60-78.9-104.8-95.2-65.4-23.9-132.4 6.1-135.2 7.4l-21 9.5 17.3 15.2c42.2 37.1 56 90.9 56.2 92l4.5 18.6 17-8.9c35.4-18.5 66.7-23.5 93-14.7 24.3 8.2 38.7 26.7 44.8 36.1-10.3 1.8-34.1 2.1-46.6-28.9 0 0-23.4 45.5 21.2 68.1 0 0-13.5 19.5-28.5 19.2 0 0 46.8 20 71.9-24.8s26.9-47.1 10.2-93.6zm-63-4.2c-30.1-10.2-64-7.3-101 8.8-6.5-17.8-19.5-46.4-42.5-72.5 21.8-6 57.5-11.7 91.5.7 37 13.5 73.8 46.7 87.6 78.9.9 2.2 1.7 4.4 2.5 6.6A112.4 112.4 0 0 0 625 404zm-136.6 69l-22 6.8c-53.7 16.5-106.8 0-107.8-.3l-18.2-6-1.3 19.1c-2.8 39.9-15 69.2-36.2 86.9s-43.1 19.1-54.3 19.2c3.9-9.6 16.1-30.1 49-24.4 0 0-26.5-43.8-69.1-17.6 0 0-9.5-21.8-1.4-34.4 0 0-41.5 29.4-16.5 74.3s26 47.5 74.3 57.7c42.3 8.9 98.6-9.8 136-39.4 54.6-43.2 64.3-115.9 64.7-119zm-86 118.6c-30.9 24.4-78.5 38.4-113.1 33.2l-6.9-1.3a111.9 111.9 0 0 0 39.1-20.7c24.5-20.3 39.8-50.7 45.5-90.6 18.5 3.8 49.7 7.7 84 1.8-6.3 21.7-20.2 55.1-48.6 77.6z"/></svg>