<svg xmlns="http://www.w3.org/2000/svg" width="540" height="540" viewBox="0 0 540 540"><path fill="#010101" d="M269.5 159.8a114.9 114.9 0 1 0 114.9 114.9 114.7 114.7 0 0 0-114.9-114.9zm0 189.6a74.7 74.7 0 1 1 74.7-74.7 74.8 74.8 0 0 1-74.7 74.7zm146.4-194.3a26.8 26.8 0 1 1-26.8-26.8 26.7 26.7 0 0 1 26.8 26.8zm76.1 27.2c-1.7-35.9-9.9-67.7-36.2-93.9s-58-34.4-93.9-36.2-147.9-2.1-184.9 0-67.6 9.9-93.9 36.1-34.4 58-36.2 93.9-2.1 147.9 0 184.9 9.9 67.7 36.2 93.9 58 34.4 93.9 36.2 147.9 2.1 184.9 0 67.7-9.9 93.9-36.2 34.4-58 36.2-93.9 2.1-147.8 0-184.8zm-47.8 224.5a75.6 75.6 0 0 1-42.6 42.6c-29.5 11.7-99.5 9-132.1 9s-102.7 2.6-132.1-9a75.6 75.6 0 0 1-42.6-42.6c-11.7-29.5-9-99.5-9-132.1s-2.6-102.7 9-132.1a75.6 75.6 0 0 1 42.6-42.6c29.5-11.7 99.5-9 132.1-9s102.7-2.6 132.1 9a75.6 75.6 0 0 1 42.6 42.6c11.7 29.5 9 99.5 9 132.1s2.7 102.7-9 132.1z"/></svg>