<svg xmlns="http://www.w3.org/2000/svg" width="540" height="540" viewBox="0 0 540 540"><path fill="#010101" d="M464.8 50.7H80.7A32.1 32.1 0 0 0 48.8 83v383.4a32.1 32.1 0 0 0 31.9 32.3h384.1a32.2 32.2 0 0 0 32-32.3V83a32.2 32.2 0 0 0-32-32.3zm-280.6 384h-66.4V220.9h66.5v213.8zm-33.2-243a38.5 38.5 0 1 1 38.5-38.5 38.5 38.5 0 0 1-38.5 38.5zm282.1 243h-66.4v-104c0-24.8-.5-56.7-34.5-56.7s-39.9 27-39.9 54.9v105.8h-66.4V220.9h63.7v29.2h.9c8.9-16.8 30.6-34.5 62.9-34.5 67.2 0 79.7 44.3 79.7 101.9z"/></svg>